0
SECTION
2
HEADER
9
$INSUNITS
70
4
9
$ACADVER
1
AC1014
9
$HANDSEED
5
FFFF
0
ENDSEC
0
SECTION
2
TABLES
0
TABLE
2
VPORT
5
8
100
AcDbSymbolTable
0
ENDTAB
0
TABLE
2
LTYPE
5
5
100
AcDbSymbolTable
0
LTYPE
5
14
100
AcDbSymbolTableRecord
100
AcDbLinetypeTableRecord
2
BYBLOCK
70
0
0
LTYPE
5
15
100
AcDbSymbolTableRecord
100
AcDbLinetypeTableRecord
2
BYLAYER
70
0
0
ENDTAB
0
TABLE
2
LAYER
5
2
100
AcDbSymbolTable
70
2
0
LAYER
5
50
100
AcDbSymbolTableRecord
100
AcDbLayerTableRecord
2
0
70
0
6
CONTINUOUS
0
ENDTAB
0
TABLE
2
STYLE
5
3
100
AcDbSymbolTable
70
1
0
STYLE
5
11
100
AcDbSymbolTableRecord
100
AcDbTextStyleTableRecord
2
STANDARD
70
0
0
ENDTAB
0
TABLE
2
VIEW
5
6
100
AcDbSymbolTable
70
0
0
ENDTAB
0
TABLE
2
UCS
5
7
100
AcDbSymbolTable
70
0
0
ENDTAB
0
TABLE
2
APPID
5
9
100
AcDbSymbolTable
70
2
0
APPID
5
12
100
AcDbSymbolTableRecord
100
AcDbRegAppTableRecord
2
ACAD
70
0
0
ENDTAB
0
TABLE
2
DIMSTYLE
5
A
100
AcDbSymbolTable
70
1
0
ENDTAB
0
TABLE
2
BLOCK_RECORD
5
1
100
AcDbSymbolTable
70
1
0
BLOCK_RECORD
5
1F
100
AcDbSymbolTableRecord
100
AcDbBlockTableRecord
2
*MODEL_SPACE
0
BLOCK_RECORD
5
1B
100
AcDbSymbolTableRecord
100
AcDbBlockTableRecord
2
*PAPER_SPACE
0
ENDTAB
0
ENDSEC
0
SECTION
2
BLOCKS
0
BLOCK
5
20
100
AcDbEntity
100
AcDbBlockBegin
2
*MODEL_SPACE
0
ENDBLK
5
21
100
AcDbEntity
100
AcDbBlockEnd
0
BLOCK
5
1C
100
AcDbEntity
100
AcDbBlockBegin
2
*PAPER_SPACE
0
ENDBLK
5
1D
100
AcDbEntity
100
AcDbBlockEnd
0
ENDSEC
0
SECTION
2
ENTITIES
0
LINE
5
100
100
AcDbEntity
8
0
100
AcDbLine
10
63.726101549420875
20
41.418043396749631
30
0
11
63.811867846220878
21
41.418043396749631
31
0
0
LWPOLYLINE
5
101
100
AcDbEntity
8
0
100
AcDbPolyline
90
146
70
1
43
0.0
10
337.04744524502075
20
136.38053116774961
10
328.04744524522079
20
136.38053116774961
42
0.41421356237309503
10
327.04744524522079
20
135.38053116774961
10
327.04744524522079
20
123.38053116774961
42
0.41421356242932722
10
328.04744524541275
20
122.38053116774962
10
340.04744524522073
20
122.38053116774957
42
0.41421356231277345
10
341.04744524522084
20
123.38053116754367
10
341.04744524522073
20
132.33053116774963
42
-0.41421356240239737
10
342.04744524532083
20
133.33053116774963
10
349.85610765311776
20
133.33053116774965
42
-0.41421356240325063
10
350.85610765322076
20
132.33053116774963
10
350.85610765322076
20
123.38053116774961
42
0.41421356242932722
10
351.85610765341272
20
122.38053116774962
10
363.85610765322076
20
122.38053116774957
42
0.41421356231277345
10
364.85610765322087
20
123.38053116754367
10
364.85610765322076
20
135.38053116774961
42
0.41421356234381351
10
363.85610765332075
20
136.38053116774961
10
354.8561076532207
20
136.38053116774967
42
-0.41421356234381351
10
353.85610765322076
20
137.38053116764962
10
353.8561076532207
20
137.40553116774961
42
-0.41421356240239737
10
354.85610765332075
20
138.40553116774961
10
376.10978730922079
20
138.40553116759389
42
0.19891236737784734
10
377.17044748110334
20
138.84487099585229
10
381.6382144340343
20
143.31263794893619
42
-0.19891236740641582
10
382.34532121532374
20
143.60553116774963
10
384.43110765322075
20
143.60553116774958
42
-0.41421356237309503
10
384.93110765322069
20
143.10553116774963
10
384.93110765322081
20
137.58053116774963
42
0.99999999999999989
10
387.93110765322075
20
137.58053116744071
10
387.93110765322069
20
143.10553116774963
42
-0.41421356237309503
10
388.43110765322075
20
143.60553116774963
10
390.51689409022072
20
143.60553116797126
42
-0.19891236749895339
10
391.22400087188856
20
143.31263794876833
10
395.6917678241615
20
138.84487099580883
42
0.19891236744407012
10
396.75242799650874
20
138.40553116743823
10
402.98110765322076
20
138.40553116774961
10
405.98110765322076
20
135.40553116774961
10
405.98110765322076
20
21.843031167749665
10
402.98110765322076
20
18.843031167749658
10
375.70242799622076
20
18.843031167905337
42
0.19891236745767843
10
374.64176782401245
20
18.403691339321163
10
372.17400087170739
20
15.935924386863112
42
-0.1989123674379554
10
371.46689409042074
20
15.643031167749658
10
369.38110765322074
20
15.643031167749687
42
-0.41421356237309503
10
368.88110765322074
20
16.143031167749658
10
368.88110765322068
20
19.668031167749646
42
0.99999999999999989
10
365.88110765322074
20
19.668031167749646
10
365.88110765322074
20
16.143031167749658
42
-0.41421356237309503
10
365.38110765322074
20
15.643031167749658
10
363.29532121522078
20
15.643031167872048
42
-0.19891236741641388
10
362.58821443402076
20
15.935924386749658
10
360.12044748122082
20
18.403691339749688
42
0.19891236735289081
10
359.05978730937528
20
18.843031168061071
10
280.45247968322082
20
18.84303116774965
42
0.19891236745316856
10
279.3918195110208
20
18.403691339349656
10
276.92405255872944
20
15.935924386885212
42
-0.19891236749804508
10
276.21694577722076
20
15.643031167749655
10
274.1311593403168
20
15.643031167749646
42
-0.41421356242932722
10
273.63115934022079
20
16.143031167749655
10
273.63115934022079
20
19.668031167749646
42
0.99999999999999989
10
270.63115934022085
20
19.668031167749646
10
270.63115934022085
20
16.143031167749655
42
-0.41421356237309503
10
270.13115934022085
20
15.643031167749655
10
268.04537290222078
20
15.643031167749655
42
-0.19891236740778348
10
267.33826612095771
20
15.935924386639631
10
264.44006198953554
20
18.835026915650911
42
0.19849139057863274
10
263.38107867612081
20
19.272546472276154
10
262.41860765327272
20
19.272546472276126
42
-0.41421356237305873
10
261.34360765327267
20
20.34754647227615
10
261.34360765327267
20
37.868031167749912
42
0.41421356237309243
10
260.84360765327267
20
38.368031167749905
10
254.84360765327261
20
38.368031167749919
42
0.41421356237309764
10
254.34360765327258
20
37.868031167749905
10
254.34360765327256
20
20.347546472276154
42
-0.41421356237305995
10
253.26860765327257
20
19.272546472276154
10
148.11860765327251
20
19.272546472276154
42
-0.41421356237308782
10
147.04360765327249
20
20.347546472276164
10
147.04360765327249
20
37.868031167749692
42
0.414213562373069
10
146.54360765327249
20
38.368031167749692
10
140.54360765327249
20
38.368031167749692
42
0.41421356237308982
10
140.04360765327249
20
37.868031167749692
10
140.04360765327246
20
20.347546472276164
42
-0.4142135623730987
10
138.9686076532725
20
19.272546472276161
10
114.19178190758969
20
19.272546472276165
42
0.19926626244707787
10
113.12945489438441
20
18.832300667384633
10
110.23655255870744
20
15.935924386863107
42
-0.19891236743794477
10
109.52944577742089
20
15.643031167749646
10
107.44365934022088
20
15.643031167749637
42
-0.41421356237309503
10
106.94365934022088
20
16.143031167749644
10
106.94365934022088
20
19.668031167749636
42
0.99999999999999989
10
103.94365934022089
20
19.668031167749636
10
103.94365934022088
20
16.143031167749641
42
-0.41421356237309503
10
103.44365934022088
20
15.643031167749641
10
101.35787290222089
20
15.643031167749653
42
-0.19891236740778026
10
100.65076612095783
20
15.935924386639616
10
98.182999168220874
20
18.403691339749638
42
0.19891236734500328
10
97.122338996420893
20
18.84303116774964
10
60.31860765322088
20
18.843031167749629
10
57.31860765322088
20
21.843031167749647
10
57.318607653220866
20
135.40553116774961
10
60.318607653220873
20
138.40553116774959
10
80.834787309220843
20
138.40553116774959
42
0.1989123673778451
10
81.895447481103375
20
138.84487099585226
10
86.363214434034319
20
143.31263794893613
42
-0.19891236740564486
10
87.07032121532086
20
143.60553116774958
10
89.156107653220872
20
143.60553116774958
42
-0.41421356237309503
10
89.656107653220886
20
143.10553116774958
10
89.656107653220857
20
139.15553116774959
42
0.99999999999999989
10
92.656107653220872
20
139.15553116764957
10
92.656107653220872
20
143.10553116774958
42
-0.41421356237309503
10
93.156107653220886
20
143.60553116774958
10
95.241894090220867
20
143.60553116797124
42
-0.19891236749895339
10
95.9490008718887
20
143.3126379487683
10
100.41676782416161
20
138.8448709958088
42
0.19891236744407009
10
101.47742799650885
20
138.40553116743817
10
166.55978730922084
20
138.40553116759392
42
0.19891236737783677
10
167.6204474811033
20
138.84487099585226
10
172.08821443403428
20
143.31263794893616
42
-0.19891236740564022
10
172.79532121532077
20
143.60553116774958
10
174.88110765322079
20
143.60553116774958
42
-0.41421356237309503
10
175.38110765322079
20
143.10553116774958
10
175.38110765322079
20
139.15553116774959
42
0.99999999999999989
10
178.38110765322082
20
139.15553116764957
10
178.38110765322082
20
143.10553116774958
42
-0.41421356237309503
10
178.88110765322082
20
143.60553116774958
10
180.96689409022079
20
143.60553116797129
42
-0.19891236749895327
10
181.67400087188867
20
143.31263794876833
10
186.14176782416155
20
138.8448709958088
42
0.1989123674440762
10
187.20242799650885
20
138.40553116743823
10
252.28478730922086
20
138.40553116774961
42
0.19891236737965187
10
253.3454474811208
20
138.84487099584959
10
257.81321443403431
20
143.31263794893616
42
-0.19891236740564022
10
258.52032121532079
20
143.60553116774958
10
260.60610765322082
20
143.60553116774955
42
-0.41421356237309503
10
261.10610765322076
20
143.10553116774958
10
261.10610765322087
20
137.58053116774963
42
0.99999999999999989
10
264.10610765322082
20
137.58053116744961
10
264.10610765322082
20
143.10553116774958
42
-0.41421356237309503
10
264.60610765322082
20
143.60553116774958
10
266.69189409022079
20
143.60553116798079
42
-0.1989123675083026
10
267.3990008719208
20
143.3126379487496
10
271.86676782412076
20
138.84487099584959
42
0.19891236745406105
10
272.92742799650875
20
138.40553116743808
10
337.04744524522079
20
138.40553116774964
42
-0.41421356237309503
10
338.04744524522079
20
137.40553116774961
10
338.04744524522079
20
137.38053116766059
42
-0.41421356240560753
0
LWPOLYLINE
5
102
100
AcDbEntity
8
0
100
AcDbPolyline
90
8
70
1
43
0.0
10
116.20706705112087
20
136.38053116774958
10
104.20706705122087
20
136.38053116774958
42
0.41421356243167368
10
103.20706705122089
20
135.38053116754958
10
103.20706705122086
20
123.3805311677496
42
0.41421356237309503
10
104.20706705122087
20
122.38053116774958
10
116.20706705122086
20
122.38053116774958
42
0.41421356234702367
10
117.20706705122085
20
123.38053116766059
10
117.20706705122085
20
135.38053116774958
42
0.41421356240237656
0
LWPOLYLINE
5
103
100
AcDbEntity
8
0
100
AcDbPolyline
90
8
70
1
43
0.0
10
179.12052644922082
20
123.38053116764962
10
179.12052644922082
20
135.38053116774961
42
0.41421356240325063
10
178.12052644911788
20
136.38053116774961
10
166.12052644922079
20
136.38053116774961
42
0.41421356243341662
10
165.12052644922079
20
135.38053116754367
10
165.12052644922082
20
123.38053116754961
42
0.41421356225593775
10
166.12052644902082
20
122.38053116774961
10
178.12052644922085
20
122.38053116774961
42
0.41421356234380829
0
LWPOLYLINE
5
104
100
AcDbEntity
8
0
100
AcDbPolyline
90
8
70
1
43
0.0
10
98.157067051220849
20
123.38053116764961
10
98.157067051220849
20
135.38053116774958
42
0.41421356240238177
10
97.157067051120862
20
136.38053116774958
10
85.157067051220864
20
136.38053116774958
42
0.41421356243167368
10
84.157067051220878
20
135.38053116754958
10
84.157067051220878
20
123.38053116754958
42
0.41421356225827899
10
85.157067051028875
20
122.38053116774961
10
97.157067051220864
20
122.38053116774958
42
0.41421356234380829
0
LWPOLYLINE
5
105
100
AcDbEntity
8
0
100
AcDbPolyline
90
8
70
1
43
0.0
10
122.25706705122086
20
135.38053116754364
42
-0.41421356243341662
10
123.25706705122086
20
136.38053116774958
10
135.25706705112083
20
136.38053116774961
42
-0.41421356240238694
10
136.25706705122087
20
135.38053116774958
10
136.25706705122087
20
123.38053116764961
42
-0.41421356234380829
10
135.25706705122084
20
122.38053116774958
10
123.25706705122086
20
122.38053116774961
42
-0.41421356237309503
10
122.25706705122086
20
123.3805311677496
0
LWPOLYLINE
5
106
100
AcDbEntity
8
0
100
AcDbPolyline
90
8
70
1
43
0.0
10
216.22052644912085
20
136.38053116774961
10
204.22052644922081
20
136.38053116774961
42
0.41421356243341662
10
203.22052644922081
20
135.38053116754367
10
203.22052644922084
20
123.38053116774961
42
0.41421356237309503
10
204.22052644922081
20
122.38053116774961
10
216.22052644922087
20
122.38053116774961
42
0.41421356234702367
10
217.22052644922087
20
123.38053116766061
10
217.22052644922087
20
135.38053116774961
42
0.41421356240238694
0
LWPOLYLINE
5
107
100
AcDbEntity
8
0
100
AcDbPolyline
90
8
70
1
43
0.0
10
236.27052644922082
20
123.38053116764962
10
236.27052644922082
20
135.38053116774961
42
0.41421356240325063
10
235.27052644911788
20
136.38053116774961
10
223.27052644922082
20
136.38053116774961
42
0.41421356243341662
10
222.27052644922082
20
135.38053116754367
10
222.27052644922082
20
123.38053116774961
42
0.41421356237309503
10
223.27052644922082
20
122.38053116774962
10
235.27052644922082
20
122.38053116774962
42
0.41421356234380829
0
LWPOLYLINE
5
108
100
AcDbEntity
8
0
100
AcDbPolyline
90
8
70
1
43
0.0
10
265.13398584722074
20
135.38053116754367
42
-0.41421356243341662
10
266.13398584722074
20
136.38053116774961
10
278.13398584712081
20
136.38053116774961
42
-0.41421356240236612
10
279.1339858472208
20
135.38053116774961
10
279.13398584722074
20
123.38053116764962
42
-0.41421356234380829
10
278.13398584722074
20
122.38053116774962
10
266.13398584722074
20
122.38053116774961
42
-0.41421356237309503
10
265.13398584722074
20
123.38053116774961
0
LWPOLYLINE
5
109
100
AcDbEntity
8
0
100
AcDbPolyline
90
8
70
1
43
0.0
10
316.23398584712078
20
136.38053116774961
10
304.23398584722077
20
136.38053116774961
42
0.41421356243167368
10
303.23398584722077
20
135.38053116754961
10
303.23398584722077
20
123.38053116774961
42
0.41421356237309503
10
304.23398584722077
20
122.38053116774961
10
316.23398584722077
20
122.38053116774961
42
0.41421356234702367
10
317.23398584722077
20
123.38053116766061
10
317.23398584722077
20
135.38053116774961
42
0.41421356240237656
0
LWPOLYLINE
5
110
100
AcDbEntity
8
0
100
AcDbPolyline
90
8
70
1
43
0.0
10
184.1705264492208
20
135.38053116754367
42
-0.41421356243341662
10
185.1705264492208
20
136.38053116774961
10
197.17052644911789
20
136.38053116774961
42
-0.41421356240325063
10
198.17052644922086
20
135.38053116774961
10
198.17052644922086
20
123.38053116766061
42
-0.41421356234702367
10
197.17052644922086
20
122.38053116774961
10
185.1705264492208
20
122.38053116774964
42
-0.41421356237309503
10
184.17052644922083
20
123.38053116774961
0
LWPOLYLINE
5
111
100
AcDbEntity
8
0
100
AcDbPolyline
90
8
70
1
43
0.0
10
285.18398584722081
20
122.38053116774961
42
-0.41421356237309503
10
284.18398584722075
20
123.38053116774961
10
284.18398584722075
20
135.38053116754367
42
-0.41421356243341662
10
285.18398584722081
20
136.38053116774961
10
297.18398584712082
20
136.38053116774961
42
-0.41421356240237656
10
298.18398584722081
20
135.38053116774961
10
298.18398584722081
20
123.38053116766061
42
-0.41421356234702367
10
297.18398584722075
20
122.38053116774961
0
LWPOLYLINE
5
112
100
AcDbEntity
8
0
100
AcDbPolyline
90
8
70
1
43
0.0
10
142.30706705122083
20
122.38053116774958
10
154.30706705122083
20
122.38053116774961
42
0.41421356234380829
10
155.30706705122083
20
123.38053116764962
10
155.30706705122083
20
135.38053116774961
42
0.41421356240325063
10
154.30706705111785
20
136.38053116774961
10
142.30706705122083
20
136.38053116774958
42
0.41421356243341662
10
141.30706705122083
20
135.38053116754364
10
141.30706705122083
20
123.3805311677496
42
0.41421356237309503
0
LWPOLYLINE
5
113
100
AcDbEntity
8
0
100
AcDbPolyline
90
8
70
1
43
0.0
10
260.08398584722079
20
123.38053116774961
10
260.08398584722079
20
135.38053116774961
42
0.41421356240238694
10
259.0839858471208
20
136.38053116774961
10
247.08398584722084
20
136.38053116774961
42
0.41421356243167368
10
246.08398584722084
20
135.38053116754961
10
246.08398584722082
20
123.38053116774961
42
0.41421356231686285
10
247.08398584702883
20
122.38053116774962
10
259.08398584722084
20
122.38053116774962
42
0.41421356237309503
0
LWPOLYLINE
5
114
100
AcDbEntity
8
0
100
AcDbPolyline
90
8
70
1
43
0.0
10
94.681107653220877
20
60.468031167749615
10
106.68110765322086
20
60.468031167749615
42
0.41421356231277345
10
107.68110765322089
20
61.468031167543664
10
107.68110765322089
20
73.468031167749615
42
0.41421356234293422
10
106.68110765332385
20
74.468031167749615
10
94.681107653220877
20
74.468031167749601
42
0.41421356237309503
10
93.681107653220877
20
73.468031167749615
10
93.681107653220877
20
61.468031167749615
42
0.41421356237309503
0
LWPOLYLINE
5
115
100
AcDbEntity
8
0
100
AcDbPolyline
90
8
70
1
43
0.0
10
402.95610765322073
20
23.368031167543712
42
-0.41421356231277345
10
401.95610765322073
20
22.368031167749667
10
389.95610765322067
20
22.368031167749649
42
-0.41421356237309503
10
388.95610765322067
20
23.368031167749663
10
388.95610765322067
20
35.368031167749663
42
-0.41421356237309503
10
389.95610765322067
20
36.368031167749663
10
401.95610765332077
20
36.368031167749677
42
-0.4142135623437927
10
402.95610765322073
20
35.368031167749663
0
LWPOLYLINE
5
116
100
AcDbEntity
8
0
100
AcDbPolyline
90
8
70
1
43
0.0
10
274.36860765322086
20
80.518031167549623
10
274.36860765322086
20
92.518031167749641
42
0.41421356234293943
10
273.36860765332381
20
93.518031167749626
10
261.36860765322081
20
93.518031167749683
42
0.41421356237309503
10
260.36860765322081
20
92.518031167749641
10
260.36860765322081
20
80.518031167749641
42
0.41421356237309503
10
261.36860765322081
20
79.518031167749655
10
273.36860765322081
20
79.518031167749598
42
0.41421356231451117
0
LWPOLYLINE
5
117
100
AcDbEntity
8
0
100
AcDbPolyline
90
8
70
1
43
0.0
10
364.8561076532207
20
23.368031167549645
10
364.8561076532207
20
35.368031167749656
42
0.41421356234293943
10
363.85610765332376
20
36.368031167749649
10
351.85610765322076
20
36.368031167749649
42
0.41421356237309503
10
350.85610765322076
20
35.368031167749656
10
350.85610765322076
20
23.368031167749656
42
0.41421356237309503
10
351.85610765322076
20
22.368031167749656
10
363.85610765322076
20
22.368031167749649
42
0.41421356231451378
0
LWPOLYLINE
5
118
100
AcDbEntity
8
0
100
AcDbPolyline
90
8
70
1
43
0.0
10
293.41860765322087
20
80.518031167549623
10
293.41860765322087
20
92.518031167749641
42
0.41421356237309503
10
292.41860765322082
20
93.518031167749626
10
280.41860765322087
20
93.518031167749626
42
0.41421356237309503
10
279.41860765322082
20
92.518031167749641
10
279.41860765322082
20
80.518031167749641
42
0.41421356243166846
10
280.41860765342085
20
79.518031167749655
10
292.41860765322082
20
79.518031167749598
42
0.41421356231451117
0
LWPOLYLINE
5
119
100
AcDbEntity
8
0
100
AcDbPolyline
90
8
70
1
43
0.0
10
222.26860765322087
20
92.518031167749641
42
-0.41421356237309503
10
223.26860765322084
20
93.518031167749626
10
235.26860765332083
20
93.518031167749655
42
-0.41421356234381351
10
236.26860765322084
20
92.518031167749641
10
236.26860765322084
20
80.518031167543697
42
-0.41421356231277345
10
235.26860765322084
20
79.518031167749626
10
223.26860765322084
20
79.518031167749626
42
-0.41421356237309503
10
222.26860765322084
20
80.518031167749641
0
LWPOLYLINE
5
120
100
AcDbEntity
8
0
100
AcDbPolyline
90
8
70
1
43
0.0
10
383.90610765322083
20
23.368031167549645
10
383.90610765322083
20
35.368031167749656
42
0.41421356234381351
10
382.90610765332076
20
36.368031167749649
10
370.90610765322077
20
36.368031167749649
42
0.41421356237309503
10
369.90610765322072
20
35.368031167749656
10
369.90610765322072
20
23.368031167749656
42
0.41421356237309503
10
370.90610765322077
20
22.368031167749649
10
382.90610765322077
20
22.368031167749649
42
0.41421356231451378
0
LWPOLYLINE
5
121
100
AcDbEntity
8
0
100
AcDbPolyline
90
8
70
1
43
0.0
10
255.31860765322085
20
80.518031167543697
42
-0.41421356231277345
10
254.31860765322082
20
79.518031167749598
10
242.31860765322085
20
79.518031167749626
42
-0.41421356237309503
10
241.31860765322085
20
80.518031167749641
10
241.31860765322085
20
92.518031167749641
42
-0.41421356237309503
10
242.31860765322085
20
93.518031167749655
10
254.31860765332078
20
93.518031167749655
42
-0.41421356234381351
10
255.31860765322082
20
92.518031167749641
0
LWPOLYLINE
5
122
100
AcDbEntity
8
0
100
AcDbPolyline
90
8
70
1
43
0.0
10
370.90610765322077
20
41.418031167749632
42
-0.41421356237309503
10
369.90610765322072
20
42.418031167749646
10
369.90610765322072
20
54.418031167749639
42
-0.41421356237309503
10
370.90610765322077
20
55.418031167749639
10
382.90610765332076
20
55.418031167749653
42
-0.41421356234381351
10
383.90610765322083
20
54.418031167749639
10
383.90610765322083
20
42.418031167543695
42
-0.41421356231277345
10
382.90610765322077
20
41.418031167749653
0
LWPOLYLINE
5
123
100
AcDbEntity
8
0
100
AcDbPolyline
90
8
70
1
43
0.0
10
250.55610765322086
20
42.41803116754965
10
250.55610765322086
20
54.418031167749639
42
0.41421356234293943
10
249.55610765332381
20
55.418031167749639
10
237.55610765322081
20
55.418031167749639
42
0.41421356237309503
10
236.55610765322081
20
54.418031167749639
10
236.55610765322083
20
42.418031167749646
42
0.41421356237309503
10
237.55610765322081
20
41.418031167749653
10
249.55610765322086
20
41.418031167749653
42
0.41421356231451639
0
LWPOLYLINE
5
124
100
AcDbEntity
8
0
100
AcDbPolyline
90
8
70
1
43
0.0
10
288.94360765322079
20
111.56803116774964
10
288.94360765322079
20
99.568031167749638
42
0.41421356237309503
10
289.94360765322079
20
98.568031167749638
10
301.94360765322079
20
98.568031167749638
42
0.41421356231277345
10
302.94360765322085
20
99.568031167543694
10
302.94360765322085
20
111.56803116774964
42
0.41421356234380308
10
301.94360765332084
20
112.56803116774961
10
289.94360765322079
20
112.56803116774961
42
0.41421356237309503
0
LWPOLYLINE
5
125
100
AcDbEntity
8
0
100
AcDbPolyline
90
8
70
1
43
0.0
10
402.95610765322078
20
80.518031167543697
42
-0.41421356231277345
10
401.95610765322073
20
79.518031167749598
10
389.95610765322067
20
79.518031167749697
42
-0.41421356237309503
10
388.95610765322078
20
80.518031167749641
10
388.95610765322067
20
92.518031167749641
42
-0.41421356237309503
10
389.95610765322067
20
93.518031167749626
10
401.95610765332367
20
93.518031167749655
42
-0.41421356234293943
10
402.95610765322073
20
92.518031167749641
0
LWPOLYLINE
5
126
100
AcDbEntity
8
0
100
AcDbPolyline
90
8
70
1
43
0.0
10
185.16860765322087
20
79.518031167749626
42
-0.41421356237309503
10
184.16860765322085
20
80.518031167749641
10
184.16860765322085
20
92.518031167749641
42
-0.41421356237309503
10
185.16860765322087
20
93.518031167749669
10
197.16860765332382
20
93.518031167749612
42
-0.41421356234293943
10
198.16860765322082
20
92.518031167749641
10
198.16860765322087
20
80.518031167543697
42
-0.41421356231277345
10
197.16860765322085
20
79.518031167749626
0
LWPOLYLINE
5
127
100
AcDbEntity
8
0
100
AcDbPolyline
90
8
70
1
43
0.0
10
216.21860765332383
20
93.518031167749655
42
-0.41421356234293943
10
217.21860765322089
20
92.518031167749641
10
217.21860765322089
20
80.518031167543697
42
-0.41421356231277345
10
216.21860765322086
20
79.518031167749626
10
204.21860765322089
20
79.518031167749626
42
-0.41421356237309503
10
203.21860765322086
20
80.518031167749641
10
203.21860765322086
20
92.518031167749641
42
-0.41421356237309503
10
204.21860765322089
20
93.518031167749626
0
LWPOLYLINE
5
128
100
AcDbEntity
8
0
100
AcDbPolyline
90
8
70
1
43
0.0
10
218.50610765322085
20
41.418031167749646
10
230.50610765322085
20
41.418031167749653
42
0.41421356231277345
10
231.50610765322085
20
42.418031167543695
10
231.50610765322085
20
54.418031167749639
42
0.41421356234380308
10
230.50610765332084
20
55.418031167749639
10
218.50610765322085
20
55.41803116774966
42
0.41421356237309503
10
217.50610765322082
20
54.418031167749632
10
217.50610765322085
20
42.418031167749639
42
0.41421356237309503
0
LWPOLYLINE
5
129
100
AcDbEntity
8
0
100
AcDbPolyline
90
8
70
1
43
0.0
10
255.60610765322082
20
54.418031167749639
42
-0.41421356237309503
10
256.60610765322082
20
55.418031167749639
10
268.60610765332075
20
55.418031167749653
42
-0.41421356234382389
10
269.60610765322082
20
54.418031167749639
10
269.60610765322082
20
42.418031167543695
42
-0.41421356231277345
10
268.60610765322082
20
41.418031167749653
10
256.60610765322082
20
41.418031167749668
42
-0.41421356237309503
10
255.60610765322085
20
42.418031167749646
0
LWPOLYLINE
5
130
100
AcDbEntity
8
0
100
AcDbPolyline
90
8
70
1
43
0.0
10
364.8561076532207
20
80.518031167549623
10
364.8561076532207
20
92.518031167749641
42
0.41421356234293943
10
363.85610765332376
20
93.518031167749626
10
351.85610765322076
20
93.518031167749626
42
0.41421356237309503
10
350.85610765322076
20
92.518031167749641
10
350.85610765322076
20
80.518031167749641
42
0.41421356237309503
10
351.85610765322076
20
79.518031167749655
10
363.85610765322076
20
79.518031167749655
42
0.41421356231451117
0
LWPOLYLINE
5
131
100
AcDbEntity
8
0
100
AcDbPolyline
90
8
70
1
43
0.0
10
166.11860765322081
20
79.518031167749626
42
-0.41421356237309503
10
165.11860765322081
20
80.518031167749641
10
165.11860765322081
20
92.518031167749641
42
-0.41421356237309503
10
166.11860765322081
20
93.518031167749655
10
178.11860765332082
20
93.518031167749655
42
-0.41421356234381351
10
179.11860765322086
20
92.518031167749641
10
179.11860765322081
20
80.518031167543697
42
-0.41421356231277345
10
178.11860765322083
20
79.518031167749655
0
LWPOLYLINE
5
132
100
AcDbEntity
8
0
100
AcDbPolyline
90
8
70
1
43
0.0
10
369.90610765322072
20
92.518031167749641
10
369.90610765322072
20
80.518031167749641
42
0.41421356237309503
10
370.90610765322077
20
79.518031167749655
10
382.90610765322077
20
79.518031167749598
42
0.41421356231277345
10
383.90610765322089
20
80.518031167543697
10
383.90610765322083
20
92.518031167749641
42
0.41421356234381351
10
382.90610765332076
20
93.518031167749655
10
370.90610765322077
20
93.518031167749655
42
0.41421356237309503
0
LWPOLYLINE
5
133
100
AcDbEntity
8
0
100
AcDbPolyline
90
8
70
1
43
0.0
10
198.45610765322084
20
54.418031167749632
42
-0.41421356237309503
10
199.45610765322084
20
55.418031167749632
10
211.45610765332378
20
55.418031167749646
42
-0.41421356234293943
10
212.45610765322084
20
54.418031167749632
10
212.45610765322084
20
42.418031167549643
42
-0.41421356231451639
10
211.45610765322084
20
41.418031167749646
10
199.45610765322084
20
41.418031167749625
42
-0.41421356237309503
10
198.45610765322081
20
42.418031167749639
0
LWPOLYLINE
5
134
100
AcDbEntity
8
0
100
AcDbPolyline
90
8
70
1
43
0.0
10
160.06860765322088
20
80.518031167543697
42
-0.41421356231277345
10
159.06860765322085
20
79.518031167749626
10
147.06860765322085
20
79.518031167749626
42
-0.41421356237308982
10
146.06860765322085
20
80.518031167749626
10
146.06860765322085
20
92.518031167749626
42
-0.41421356237310025
10
147.06860765322085
20
93.518031167749626
10
159.0686076533238
20
93.518031167749626
42
-0.41421356234293943
10
160.06860765322085
20
92.518031167749641
0
LWPOLYLINE
5
135
100
AcDbEntity
8
0
100
AcDbPolyline
90
8
70
1
43
0.0
10
401.95610765332077
20
112.56803116774961
10
389.95610765322067
20
112.56803116774961
42
0.41421356237309503
10
388.95610765322078
20
111.56803116774964
10
388.95610765322067
20
99.568031167749638
42
0.41421356237309503
10
389.95610765322067
20
98.568031167749638
10
401.95610765322073
20
98.568031167749638
42
0.41421356231277345
10
402.95610765322073
20
99.568031167543694
10
402.95610765322073
20
111.56803116774964
42
0.4142135623437927
0
LWPOLYLINE
5
136
100
AcDbEntity
8
0
100
AcDbPolyline
90
8
70
1
43
0.0
10
128.01860765322084
20
79.518031167749612
42
-0.41421356237309503
10
127.01860765322083
20
80.518031167749626
10
127.01860765322083
20
92.518031167749626
42
-0.41421356237309503
10
128.01860765322084
20
93.518031167749626
10
140.01860765332384
20
93.518031167749612
42
-0.41421356234293422
10
141.01860765322084
20
92.518031167749626
10
141.01860765322087
20
80.518031167543683
42
-0.41421356231277345
10
140.01860765322084
20
79.518031167749612
0
LWPOLYLINE
5
137
100
AcDbEntity
8
0
100
AcDbPolyline
90
8
70
1
43
0.0
10
180.40610765322086
20
41.418031167749625
42
-0.41421356237309503
10
179.40610765322083
20
42.418031167749639
10
179.40610765322083
20
54.418031167749632
42
-0.41421356237309503
10
180.40610765322086
20
55.418031167749632
10
192.40610765332082
20
55.418031167749646
42
-0.41421356234381351
10
193.40610765322086
20
54.418031167749632
10
193.40610765322083
20
42.418031167543688
42
-0.41421356231277345
10
192.40610765322086
20
41.418031167749646
0
LWPOLYLINE
5
138
100
AcDbEntity
8
0
100
AcDbPolyline
90
8
70
1
43
0.0
10
79.393607653220869
20
111.54892787874962
10
79.393607653220869
20
99.548927878749623
42
0.41421356237309503
10
80.393607653220869
20
98.548927878749623
10
92.393607653220869
20
98.548927878749623
42
0.41421356231277345
10
93.393607653220869
20
99.54892787854368
10
93.393607653220869
20
111.54892787874962
42
0.41421356234293422
10
92.393607653323841
20
112.54892787874962
10
80.393607653220869
20
112.54892787874959
42
0.41421356237309503
0
LWPOLYLINE
5
139
100
AcDbEntity
8
0
100
AcDbPolyline
90
8
70
1
43
0.0
10
108.96860765322087
20
79.518031167749612
42
-0.41421356237309503
10
107.96860765322086
20
80.518031167749626
10
107.96860765322086
20
92.518031167749626
42
-0.41421356237309503
10
108.96860765322087
20
93.518031167749626
10
120.96860765332083
20
93.518031167749626
42
-0.41421356234381351
10
121.96860765322087
20
92.518031167749626
10
121.96860765322086
20
80.518031167549609
42
-0.41421356231451117
10
120.96860765322086
20
79.518031167749626
0
LWPOLYLINE
5
140
100
AcDbEntity
8
0
100
AcDbPolyline
90
8
70
1
43
0.0
10
131.78110765322086
20
73.468031167749615
42
-0.41421356237309503
10
132.78110765322086
20
74.468031167749601
10
144.78110765332082
20
74.468031167749601
42
-0.41421356234381873
10
145.78110765322089
20
73.468031167749615
10
145.78110765322089
20
61.468031167549611
42
-0.41421356231451639
10
144.78110765322089
20
60.468031167749615
10
132.78110765322086
20
60.468031167749615
42
-0.41421356237309503
10
131.78110765322086
20
61.468031167749615
0
LWPOLYLINE
5
141
100
AcDbEntity
8
0
100
AcDbPolyline
90
8
70
1
43
0.0
10
161.35610765322085
20
41.418031167749625
42
-0.41421356237309503
10
160.35610765322082
20
42.418031167749639
10
160.35610765322082
20
54.418031167749632
42
-0.41421356237309503
10
161.35610765322085
20
55.418031167749632
10
173.35610765332379
20
55.418031167749646
42
-0.41421356234293943
10
174.35610765322085
20
54.418031167749632
10
174.35610765322082
20
42.418031167549643
42
-0.41421356231451639
10
173.35610765322085
20
41.418031167749646
0
LWPOLYLINE
5
142
100
AcDbEntity
8
0
100
AcDbPolyline
90
8
70
1
43
0.0
10
74.343607653220857
20
99.54892787854962
10
74.343607653220857
20
111.54892787874962
42
0.41421356234380829
10
73.343607653320859
20
112.54892787874959
10
61.343607653220872
20
112.54892787874959
42
0.41421356237309503
10
60.343607653220879
20
111.54892787874962
10
60.343607653220879
20
99.548927878749623
42
0.41421356237309764
10
61.343607653220886
20
98.548927878749609
10
73.343607653220872
20
98.548927878749609
42
0.41421356231451639
0
LWPOLYLINE
5
143
100
AcDbEntity
8
0
100
AcDbPolyline
90
8
70
1
43
0.0
10
312.46860765322077
20
80.518031167543697
42
-0.41421356231277345
10
311.46860765322072
20
79.518031167749598
10
299.46860765341279
20
79.518031167749598
42
-0.41421356242932722
10
298.46860765322072
20
80.518031167749641
10
298.46860765322077
20
92.518031167749641
42
-0.41421356237309503
10
299.46860765322077
20
93.518031167749655
10
311.46860765332372
20
93.518031167749655
42
-0.41421356234293943
10
312.46860765322077
20
92.518031167749641
0
LWPOLYLINE
5
144
100
AcDbEntity
8
0
100
AcDbPolyline
90
8
70
1
43
0.0
10
113.73110765322087
20
60.468031167749615
42
-0.41421356237309503
10
112.73110765322087
20
61.468031167749615
10
112.73110765322087
20
73.468031167749615
42
-0.41421356237309503
10
113.73110765322087
20
74.468031167749601
10
125.73110765332385
20
74.468031167749601
42
-0.41421356234293422
10
126.73110765322086
20
73.468031167749615
10
126.73110765322086
20
61.468031167549611
42
-0.41421356231451639
10
125.73110765322086
20
60.468031167749615
0
LWPOLYLINE
5
145
100
AcDbEntity
8
0
100
AcDbPolyline
90
8
70
1
43
0.0
10
142.30610765322086
20
41.418031167749646
42
-0.41421356237309503
10
141.30610765322086
20
42.418031167749639
10
141.30610765322086
20
54.418031167749632
42
-0.41421356237309503
10
142.30610765322086
20
55.418031167749632
10
154.30610765332082
20
55.418031167749646
42
-0.41421356234381351
10
155.30610765322086
20
54.418031167749632
10
155.30610765322083
20
42.418031167549643
42
-0.41421356231451639
10
154.30610765322083
20
41.418031167749646
0
LWPOLYLINE
5
146
100
AcDbEntity
8
0
100
AcDbPolyline
90
8
70
1
43
0.0
10
137.54360765322085
20
98.548927878749623
10
149.54360765322085
20
98.548927878749652
42
0.41421356231451639
10
150.54360765322085
20
99.548927878549648
10
150.54360765322085
20
111.54892787874964
42
0.41421356234293943
10
149.54360765332379
20
112.54892787874962
10
137.54360765322085
20
112.54892787874959
42
0.41421356237309503
10
136.54360765322085
20
111.54892787874962
10
136.54360765322085
20
99.548927878749623
42
0.41421356237309503
0
LWPOLYLINE
5
147
100
AcDbEntity
8
0
100
AcDbPolyline
90
8
70
1
43
0.0
10
182.88110765332084
20
74.468031167749615
10
170.88110765322085
20
74.468031167749615
42
0.41421356237309503
10
169.88110765322085
20
73.468031167749629
10
169.88110765322085
20
61.468031167749629
42
0.41421356237309503
10
170.88110765322085
20
60.468031167749636
10
182.88110765322085
20
60.468031167749636
42
0.41421356231277345
10
183.88110765322085
20
61.468031167543685
10
183.88110765322085
20
73.468031167749629
42
0.41421356234380308
0
LWPOLYLINE
5
148
100
AcDbEntity
8
0
100
AcDbPolyline
90
8
70
1
43
0.0
10
60.343607653220879
20
135.38053116774958
42
-0.41421356237309503
10
61.343607653220872
20
136.38053116774958
10
73.343607653323843
20
136.38053116774958
42
-0.41421356234293422
10
74.343607653220857
20
135.38053116774958
10
74.343607653220886
20
123.38053116754958
42
-0.41421356231451117
10
73.343607653220872
20
122.38053116774958
10
61.343607653220872
20
122.38053116774961
42
-0.41421356237309503
10
60.343607653220879
20
123.3805311677496
0
LWPOLYLINE
5
149
100
AcDbEntity
8
0
100
AcDbPolyline
90
8
70
1
43
0.0
10
118.49360765322086
20
98.548927878749609
42
-0.41421356237309503
10
117.49360765322083
20
99.548927878749623
10
117.49360765322088
20
111.54892787874962
42
-0.41421356237309503
10
118.49360765322086
20
112.54892787874959
10
130.49360765332383
20
112.54892787874962
42
-0.41421356234293422
10
131.49360765322083
20
111.54892787874962
10
131.49360765322083
20
99.54892787854368
42
-0.41421356231277345
10
130.49360765322086
20
98.548927878749623
0
LWPOLYLINE
5
150
100
AcDbEntity
8
0
100
AcDbPolyline
90
8
70
1
43
0.0
10
151.83110765322087
20
60.468031167749615
42
-0.41421356237309503
10
150.83110765322084
20
61.468031167749629
10
150.83110765322087
20
73.468031167749629
42
-0.41421356237309503
10
151.83110765322087
20
74.468031167749615
10
163.8311076533208
20
74.468031167749643
42
-0.41421356234381351
10
164.83110765322084
20
73.468031167749629
10
164.83110765322081
20
61.468031167549633
42
-0.41421356231451639
10
163.83110765322084
20
60.468031167749636
0
LWPOLYLINE
5
151
100
AcDbEntity
8
0
100
AcDbPolyline
90
8
70
1
43
0.0
10
275.65610765322083
20
41.418031167749632
42
-0.41421356237309503
10
274.65610765322077
20
42.418031167749646
10
274.65610765322083
20
54.418031167749639
42
-0.41421356237309503
10
275.65610765322083
20
55.418031167749639
10
287.65610765332076
20
55.418031167749653
42
-0.41421356234381351
10
288.65610765322083
20
54.418031167749639
10
288.65610765322083
20
42.418031167543695
42
-0.41421356231277345
10
287.65610765322083
20
41.418031167749653
0
LWPOLYLINE
5
152
100
AcDbEntity
8
0
100
AcDbPolyline
90
8
70
1
43
0.0
10
79.106107653220874
20
80.518031167549609
10
79.106107653220874
20
92.518031167749626
42
0.41421356234293422
10
78.106107653323846
20
93.518031167749626
10
66.10610765322086
20
93.518031167749612
42
0.41421356237309503
10
65.106107653220874
20
92.518031167749626
10
65.106107653220874
20
80.518031167749626
42
0.41421356237309503
10
66.10610765322086
20
79.518031167749612
10
78.106107653220874
20
79.518031167749612
42
0.41421356231451117
0
LWPOLYLINE
5
153
100
AcDbEntity
8
0
100
AcDbPolyline
90
8
70
1
43
0.0
10
99.44360765322088
20
98.548927878749609
42
-0.41421356237309503
10
98.443607653220866
20
99.548927878749623
10
98.443607653220909
20
111.54892787874962
42
-0.41421356237309503
10
99.44360765322088
20
112.54892787874959
10
111.44360765332385
20
112.54892787874964
42
-0.41421356234293422
10
112.44360765322088
20
111.54892787874962
10
112.44360765322091
20
99.54892787854962
42
-0.41421356231451639
10
111.44360765322088
20
98.548927878749595
0
LWPOLYLINE
5
154
100
AcDbEntity
8
0
100
AcDbPolyline
90
8
70
1
43
0.0
10
63.72485765322088
20
60.468031167749615
10
80.487357653220869
20
60.468031167749615
42
0.41421356231277345
10
81.487357653220883
20
61.468031167543664
10
81.487357653220869
20
73.468031167749615
42
0.41421356234381351
10
80.487357653320842
20
74.468031167749601
10
63.72485765322088
20
74.468031167749601
42
0.41421356237309503
10
62.72485765322088
20
73.468031167749615
10
62.72485765322088
20
61.468031167749615
42
0.41421356237309503
0
LWPOLYLINE
5
155
100
AcDbEntity
8
0
100
AcDbPolyline
90
8
70
1
43
0.0
10
259.08110765332378
20
74.468031167749643
42
-0.41421356234293943
10
260.08110765322084
20
73.468031167749629
10
260.08110765322078
20
61.468031167549633
42
-0.41421356231451639
10
259.08110765322084
20
60.468031167749636
10
247.08110765322084
20
60.468031167749658
42
-0.41421356237309503
10
246.08110765322084
20
61.468031167749629
10
246.08110765322081
20
73.468031167749629
42
-0.41421356237309503
10
247.08110765322084
20
74.468031167749615
0
LWPOLYLINE
5
156
100
AcDbEntity
8
0
100
AcDbPolyline
90
8
70
1
43
0.0
10
226.74360765322086
20
99.568031167543694
42
-0.41421356231277345
10
225.74360765322083
20
98.568031167749638
10
213.74360765322083
20
98.568031167749623
42
-0.41421356237309503
10
212.74360765322083
20
99.568031167749638
10
212.74360765322086
20
111.56803116774964
42
-0.41421356237309503
10
213.74360765322083
20
112.56803116774961
10
225.74360765332381
20
112.56803116774964
42
-0.41421356234293943
10
226.74360765322086
20
111.56803116774964
0
LWPOLYLINE
5
157
100
AcDbEntity
8
0
100
AcDbPolyline
90
8
70
1
43
0.0
10
187.64360765332381
20
112.56803116774964
42
-0.41421356234293943
10
188.64360765322087
20
111.56803116774964
10
188.64360765322084
20
99.568031167549634
42
-0.41421356231451639
10
187.64360765322084
20
98.568031167749638
10
175.64360765322081
20
98.568031167749666
42
-0.41421356237309503
10
174.64360765322084
20
99.568031167749638
10
174.64360765322084
20
111.56803116774964
42
-0.41421356237309503
10
175.64360765322081
20
112.56803116774961
0
LWPOLYLINE
5
158
100
AcDbEntity
8
0
100
AcDbPolyline
90
8
70
1
43
0.0
10
241.03110765322086
20
61.468031167543685
42
-0.41421356231277345
10
240.03110765322083
20
60.468031167749636
10
228.03110765322086
20
60.468031167749658
42
-0.41421356237309503
10
227.03110765322089
20
61.468031167749629
10
227.03110765322089
20
73.468031167749629
42
-0.41421356237309503
10
228.03110765322086
20
74.468031167749615
10
240.03110765332082
20
74.468031167749643
42
-0.41421356234381351
10
241.03110765322086
20
73.468031167749629
0
LWPOLYLINE
5
159
100
AcDbEntity
8
0
100
AcDbPolyline
90
8
70
1
43
0.0
10
220.98110765332379
20
74.468031167749643
42
-0.41421356234293943
10
221.98110765322085
20
73.468031167749629
10
221.98110765322085
20
61.468031167543685
42
-0.41421356231277345
10
220.98110765322082
20
60.468031167749636
10
208.98110765322085
20
60.468031167749658
42
-0.41421356237309503
10
207.98110765322087
20
61.468031167749629
10
207.98110765322087
20
73.468031167749629
42
-0.41421356237309503
10
208.98110765322085
20
74.468031167749615
0
LWPOLYLINE
5
160
100
AcDbEntity
8
0
100
AcDbPolyline
90
8
70
1
43
0.0
10
189.93110765322083
20
60.468031167749636
10
201.93110765322081
20
60.468031167749636
42
0.41421356231451639
10
202.93110765322083
20
61.468031167549633
10
202.93110765322083
20
73.468031167749629
42
0.41421356234293943
10
201.93110765332378
20
74.468031167749643
10
189.93110765322083
20
74.468031167749615
42
0.41421356237309503
10
188.93110765322086
20
73.468031167749629
10
188.93110765322086
20
61.468031167749629
42
0.41421356237309503
0
LWPOLYLINE
5
161
100
AcDbEntity
8
0
100
AcDbPolyline
90
8
70
1
43
0.0
10
168.59360765332082
20
112.54892787874962
10
156.59360765322086
20
112.54892787874962
42
0.41421356237309503
10
155.59360765322086
20
111.54892787874964
10
155.59360765322086
20
99.548927878749652
42
0.41421356237309503
10
156.59360765322086
20
98.548927878749652
10
168.59360765322083
20
98.548927878749652
42
0.41421356231451639
10
169.59360765322086
20
99.548927878549648
10
169.59360765322086
20
111.54892787874964
42
0.41421356234381351
0
LWPOLYLINE
5
162
100
AcDbEntity
8
0
100
AcDbPolyline
90
8
70
1
43
0.0
10
207.69360765322085
20
99.568031167549634
10
207.69360765322085
20
111.56803116774964
42
0.41421356234293943
10
206.69360765332382
20
112.56803116774961
10
194.69360765322085
20
112.56803116774961
42
0.41421356237309503
10
193.69360765322085
20
111.56803116774964
10
193.69360765322085
20
99.568031167749638
42
0.41421356237309503
10
194.69360765322085
20
98.568031167749638
10
206.69360765322085
20
98.568031167749638
42
0.41421356231451639
0
LWPOLYLINE
5
163
100
AcDbEntity
8
0
100
AcDbPolyline
90
8
70
1
43
0.0
10
264.84360765322083
20
99.568031167543694
42
-0.41421356231277345
10
263.84360765322077
20
98.568031167749638
10
251.84360765322083
20
98.568031167749623
42
-0.41421356237309503
10
250.84360765322083
20
99.568031167749638
10
250.84360765322086
20
111.56803116774964
42
-0.41421356237309503
10
251.84360765322083
20
112.56803116774961
10
263.84360765332372
20
112.56803116774964
42
-0.41421356234293943
10
264.84360765322083
20
111.56803116774964
0
LWPOLYLINE
5
164
100
AcDbEntity
8
0
100
AcDbPolyline
90
8
70
1
43
0.0
10
284.18110765322081
20
73.468031167749629
42
-0.41421356237309503
10
285.18110765322081
20
74.468031167749615
10
297.18110765332079
20
74.468031167749601
42
-0.41421356234381351
10
298.18110765322081
20
73.468031167749629
10
298.18110765322081
20
61.468031167549633
42
-0.41421356231451639
10
297.18110765322086
20
60.468031167749636
10
285.18110765322081
20
60.468031167749658
42
-0.41421356237309503
10
284.18110765322081
20
61.468031167749629
0
LWPOLYLINE
5
165
100
AcDbEntity
8
0
100
AcDbPolyline
90
8
70
1
43
0.0
10
278.13110765332078
20
74.468031167749615
10
266.13110765322079
20
74.468031167749615
42
0.41421356237309503
10
265.13110765322085
20
73.468031167749629
10
265.13110765322079
20
61.468031167749629
42
0.41421356237309503
10
266.13110765322079
20
60.468031167749636
10
278.13110765322085
20
60.468031167749636
42
0.41421356231277345
10
279.13110765322085
20
61.468031167543685
10
279.13110765322079
20
73.468031167749629
42
0.41421356234381351
0
LWPOLYLINE
5
166
100
AcDbEntity
8
0
100
AcDbPolyline
90
8
70
1
43
0.0
10
351.85610765322076
20
98.568031167749638
10
363.85610765322076
20
98.568031167749638
42
0.41421356231277345
10
364.85610765322076
20
99.568031167543694
10
364.85610765322076
20
111.56803116774964
42
0.41421356234381351
10
363.85610765332075
20
112.56803116774961
10
351.85610765322076
20
112.56803116774961
42
0.41421356237309503
10
350.85610765322076
20
111.56803116774964
10
350.85610765322076
20
99.568031167749638
42
0.41421356237309503
0
LWPOLYLINE
5
167
100
AcDbEntity
8
0
100
AcDbPolyline
90
8
70
1
43
0.0
10
245.79360765322087
20
99.568031167549634
10
245.79360765322087
20
111.56803116774964
42
0.41421356234293943
10
244.79360765332385
20
112.56803116774961
10
232.79360765322085
20
112.56803116774964
42
0.41421356237309503
10
231.79360765322085
20
111.56803116774964
10
231.79360765322085
20
99.568031167749638
42
0.41421356237309503
10
232.79360765322085
20
98.568031167749638
10
244.79360765322087
20
98.568031167749638
42
0.41421356231451639
0
LWPOLYLINE
5
168
100
AcDbEntity
8
0
100
AcDbPolyline
90
8
70
1
43
0.0
10
370.90610765322077
20
122.38053116774961
42
-0.41421356237309503
10
369.90610765322072
20
123.38053116774961
10
369.90610765322072
20
135.38053116774961
42
-0.41421356237309503
10
370.90610765322077
20
136.38053116774961
10
382.90610765332076
20
136.38053116774961
42
-0.41421356234381351
10
383.90610765322083
20
135.38053116774961
10
383.90610765322083
20
123.38053116754961
42
-0.41421356231451117
10
382.90610765322077
20
122.38053116774957
0
LWPOLYLINE
5
169
100
AcDbEntity
8
0
100
AcDbPolyline
90
8
70
1
43
0.0
10
104.20610765322088
20
41.418031167749646
10
116.2061076532209
20
41.418031167749646
42
0.41421356231277345
10
117.2061076532209
20
42.418031167543688
10
117.20610765322091
20
54.418031167749632
42
0.41421356234293422
10
116.20610765332387
20
55.418031167749646
10
104.20610765322088
20
55.418031167749632
42
0.41421356237309503
10
103.20610765322088
20
54.418031167749632
10
103.20610765322088
20
42.418031167749639
42
0.41421356237309503
0
LWPOLYLINE
5
170
100
AcDbEntity
8
0
100
AcDbPolyline
90
8
70
1
43
0.0
10
389.95610765322067
20
122.38053116774961
42
-0.41421356237309503
10
388.95610765322067
20
123.38053116774961
10
388.95610765322067
20
135.38053116774961
42
-0.41421356237309503
10
389.95610765322067
20
136.38053116774961
10
401.95610765332367
20
136.38053116774961
42
-0.41421356234293943
10
402.95610765322073
20
135.38053116774961
10
402.95610765322073
20
123.38053116754367
42
-0.41421356231277345
10
401.95610765322073
20
122.38053116774961
0
LWPOLYLINE
5
171
100
AcDbEntity
8
0
100
AcDbPolyline
90
8
70
1
43
0.0
10
88.918607653220874
20
92.518031167749626
42
-0.41421356237309503
10
89.918607653220874
20
93.518031167749612
10
101.91860765332385
20
93.518031167749626
42
-0.41421356234293422
10
102.91860765322087
20
92.518031167749626
10
102.9186076532209
20
80.518031167549609
42
-0.41421356231451117
10
101.91860765322087
20
79.518031167749598
10
89.918607653220874
20
79.518031167749626
42
-0.41421356237309503
10
88.918607653220874
20
80.518031167749626
0
LWPOLYLINE
5
172
100
AcDbEntity
8
0
100
AcDbPolyline
90
8
70
1
43
0.0
10
135.25610765332385
20
55.418031167749646
42
-0.41421356234293422
10
136.25610765322091
20
54.418031167749632
10
136.25610765322088
20
42.418031167549643
42
-0.41421356231451639
10
135.25610765322088
20
41.418031167749646
10
123.25610765322088
20
41.418031167749646
42
-0.41421356237309503
10
122.25610765322088
20
42.418031167749639
10
122.25610765322088
20
54.418031167749632
42
-0.41421356237309503
10
123.25610765322088
20
55.418031167749632
0
LWPOLYLINE
5
173
100
AcDbEntity
8
0
100
AcDbPolyline
90
8
70
1
43
0.0
10
269.89360765322084
20
111.56803116774964
42
-0.41421356237309503
10
270.89360765322078
20
112.56803116774961
10
282.89360765332378
20
112.56803116774964
42
-0.41421356234293943
10
283.89360765322078
20
111.56803116774964
10
283.89360765322078
20
99.568031167543694
42
-0.41421356231277345
10
282.89360765322078
20
98.568031167749638
10
270.89360765322078
20
98.568031167749623
42
-0.41421356237309503
10
269.89360765322078
20
99.568031167749638
0
LWPOLYLINE
5
174
100
AcDbEntity
8
0
100
AcDbPolyline
90
8
70
1
43
0.0
10
370.90610765322077
20
98.568031167749638
10
382.90610765322077
20
98.568031167749638
42
0.41421356231277345
10
383.90610765322083
20
99.568031167543694
10
383.90610765322083
20
111.56803116774964
42
0.41421356234293943
10
382.90610765332372
20
112.56803116774964
10
370.90610765322077
20
112.56803116774961
42
0.41421356237309503
10
369.90610765322072
20
111.56803116774964
10
369.90610765322072
20
99.568031167749638
42
0.41421356237309503
0
LWPOLYLINE
5
175
100
AcDbEntity
8
0
100
AcDbPolyline
90
8
70
1
43
0.0
10
81.631107653272437
20
92.968031167749587
42
-0.4142135623730856
10
82.18110765327242
20
93.518031167749598
10
85.843607653272414
20
93.518031167749598
42
-0.41421356237312346
10
86.393607653272468
20
92.968031167749601
10
86.393607653272483
20
80.068031167749609
42
-0.41421356237311396
10
85.843607653272443
20
79.518031167749598
10
82.181107653272448
20
79.518031167749612
42
-0.41421356237307611
10
81.631107653272451
20
80.068031167749581
0
LWPOLYLINE
5
176
100
AcDbEntity
8
0
100
AcDbPolyline
90
8
70
1
43
0.0
10
84.012357653272502
20
73.918031167749589
42
-0.41421356237309037
10
84.562357653272471
20
74.468031167749572
10
90.606107653272431
20
74.468031167749601
42
-0.4142135623730856
10
91.156107653272457
20
73.918031167749604
10
91.156107653272471
20
61.018031167749605
42
-0.41421356237305251
10
90.60610765327246
20
60.468031167749608
10
84.562357653272485
20
60.468031167749608
42
-0.41421356237306667
10
84.012357653272517
20
61.018031167749591
0
LWPOLYLINE
5
177
100
AcDbEntity
8
0
100
AcDbPolyline
90
8
70
1
43
0.0
10
70.311857653272455
20
54.418031167749518
10
64.311857653272483
20
54.418031167749547
42
0.414213562373069
10
63.811857653272483
20
53.918031167749533
10
63.81185765327249
20
39.918031167749568
42
0.41421356237310281
10
64.31185765327254
20
39.418031167749518
10
70.311857653272526
20
39.418031167749561
42
0.41421356237310025
10
70.81185765327254
20
39.918031167749568
10
70.811857653272511
20
53.918031167749575
42
0.41421356237311585
0
LWPOLYLINE
5
178
100
AcDbEntity
8
0
100
AcDbPolyline
90
8
70
1
43
0.0
10
72.749857653272485
20
55.418031167749589
10
85.749857653272485
20
55.418031167749589
42
-0.4142135623730846
10
86.249857653272471
20
54.918031167749618
10
86.249857653272514
20
41.918031167749596
42
-0.4142135623730846
10
85.7498576532725
20
41.418031167749575
10
72.7498576532725
20
41.418031167749554
42
-0.41421356237314705
10
72.2498576532725
20
41.918031167749561
10
72.249857653272457
20
54.918031167749589
42
-0.41421356237304818
0
LWPOLYLINE
5
179
100
AcDbEntity
8
0
100
AcDbPolyline
90
8
70
1
43
0.0
10
94.187857653272488
20
54.418031167749589
10
88.187857653272488
20
54.418031167749668
42
0.41421356237305862
10
87.687857653272488
20
53.918031167749604
10
87.687857653272502
20
39.918031167749604
42
0.41421356237309243
10
88.187857653272516
20
39.418031167749604
10
94.187857653272516
20
39.418031167749618
42
0.41421356237311585
10
94.687857653272516
20
39.918031167749618
10
94.687857653272474
20
53.918031167749625
42
0.41421356237308982
0
LWPOLYLINE
5
180
100
AcDbEntity
8
0
100
AcDbPolyline
90
8
70
1
43
0.0
10
65.106107653272517
20
35.868031167749557
42
-0.41421356237312884
10
65.606107653272531
20
36.368031167749542
10
78.606107653272502
20
36.368031167749557
42
-0.41421356237314183
10
79.106107653272559
20
35.868031167749578
10
79.106107653272574
20
22.868031167749603
42
-0.41421356237304818
10
78.606107653272531
20
22.368031167749557
10
65.606107653272545
20
22.368031167749546
42
-0.41421356237304563
10
65.106107653272517
20
22.868031167749585
0
LWPOLYLINE
5
181
100
AcDbEntity
8
0
100
AcDbPolyline
90
8
70
1
43
0.0
10
112.73110765327253
20
35.868031167749628
42
-0.41421356237316787
10
113.23110765327252
20
36.368031167749599
10
126.23110765327253
20
36.368031167749649
42
-0.41421356237314705
10
126.73110765327253
20
35.868031167749663
10
126.73110765327257
20
22.868031167749692
42
-0.41421356237307422
10
126.23110765327255
20
22.368031167749635
10
113.23110765327255
20
22.368031167749631
42
-0.41421356237307422
10
112.73110765327255
20
22.868031167749656
0
LWPOLYLINE
5
182
100
AcDbEntity
8
0
100
AcDbPolyline
90
8
70
1
43
0.0
10
194.19360765327258
20
36.36803116774977
10
207.19360765327258
20
36.368031167749812
42
-0.4142135623730846
10
207.69360765327258
20
35.868031167749791
10
207.69360765327264
20
22.868031167749852
42
-0.41421356237313667
10
207.19360765327258
20
22.368031167749812
10
194.19360765327264
20
22.36803116774972
42
-0.41421356237300139
10
193.69360765327252
20
22.868031167749816
10
193.69360765327258
20
35.868031167749749
42
-0.41421356237310542
0
LWPOLYLINE
5
183
100
AcDbEntity
8
0
100
AcDbPolyline
90
8
70
1
43
0.0
10
274.65610765327261
20
35.868031167749891
42
-0.41421356237297013
10
275.15610765327261
20
36.368031167749933
10
288.15610765327256
20
36.368031167749919
42
-0.4142135623732095
10
288.65610765327261
20
35.868031167749891
10
288.65610765327267
20
22.868031167749958
42
-0.41421356237304302
10
288.15610765327261
20
22.368031167749933
10
275.15610765327261
20
22.368031167749951
42
-0.41421356237313667
10
274.65610765327261
20
22.868031167749958
0
LWPOLYLINE
5
184
100
AcDbEntity
8
0
100
AcDbPolyline
90
8
70
1
43
0.0
10
335.78110765327256
20
36.368031167750011
10
322.7811076532725
20
36.368031167750026
42
0.4142135623732407
10
322.28110765327256
20
35.868031167749962
10
322.2811076532725
20
22.868031167750029
42
0.41421356237311585
10
322.78110765327256
20
22.368031167749965
10
335.78110765327256
20
22.368031167749987
42
0.41421356237312884
10
336.28110765327267
20
22.868031167750047
10
336.28110765327256
20
35.868031167749983
42
0.4142135623730222
0
LWPOLYLINE
5
185
100
AcDbEntity
8
0
100
AcDbPolyline
90
8
70
1
43
0.0
10
309.58060765327241
20
111.56803116775001
10
315.58060765327241
20
111.56803116775002
42
-0.41421356237314705
10
316.08060765327247
20
111.06803116774999
10
316.08060765327252
20
97.068031167749993
42
-0.41421356237301177
10
315.58060765327247
20
96.568031167750021
10
309.58060765327241
20
96.568031167749965
42
-0.41421356237303258
10
309.08060765327252
20
97.068031167749979
10
309.08060765327252
20
111.06803116774999
42
-0.41421356237298057
0
LWPOLYLINE
5
186
100
AcDbEntity
8
0
100
AcDbPolyline
90
8
70
1
43
0.0
10
318.01860765327245
20
112.56803116775001
10
331.01860765327228
20
112.56803116775004
42
-0.41421356237315748
10
331.5186076532724
20
112.06803116775004
10
331.5186076532724
20
99.068031167750021
42
-0.4142135623730534
10
331.01860765327245
20
98.568031167750092
10
318.01860765327245
20
98.56803116774995
42
-0.4142135623730534
10
317.51860765327245
20
99.068031167749979
10
317.51860765327245
20
112.06803116774999
42
-0.41421356237301177
0
LWPOLYLINE
5
187
100
AcDbEntity
8
0
100
AcDbPolyline
90
8
70
1
43
0.0
10
339.4566076532725
20
111.56803116774998
42
-0.41421356237313667
10
339.95660765327239
20
111.06803116775001
10
339.95660765327273
20
97.068031167750036
42
-0.41421356237316787
10
339.4566076532725
20
96.568031167749965
10
333.4566076532725
20
96.568031167750092
42
-0.4142135623732407
10
332.95660765327239
20
97.068031167750036
10
332.95660765327239
20
111.06803116775004
42
-0.41421356237295975
10
333.45660765327233
20
111.56803116775002
0
LWPOLYLINE
5
188
100
AcDbEntity
8
0
100
AcDbPolyline
90
8
70
1
43
0.0
10
314.99360765327253
20
92.968031167749956
42
-0.4142135623730856
10
315.54360765327249
20
93.518031167749953
10
319.20610765327245
20
93.518031167750053
42
-0.41421356237318019
10
319.75610765327241
20
92.96803116774997
10
319.75610765327247
20
80.068031167749965
42
-0.41421356237310453
10
319.20610765327245
20
79.518031167749953
10
315.54360765327249
20
79.518031167749982
42
-0.41421356237321799
10
314.99360765327253
20
80.068031167749965
0
LWPOLYLINE
5
189
100
AcDbEntity
8
0
100
AcDbPolyline
90
8
70
1
43
0.0
10
322.28110765327239
20
93.018031167749996
42
-0.41421356237306384
10
322.78110765327244
20
93.518031167749996
10
335.78110765327239
20
93.518031167750024
42
-0.41421356237311585
10
336.2811076532725
20
93.018031167750024
10
336.28110765327244
20
80.01803116775001
42
-0.41421356237314705
10
335.78110765327244
20
79.518031167749939
10
322.78110765327244
20
79.518031167750038
42
-0.41421356237307422
10
322.28110765327256
20
80.018031167749967
0
LWPOLYLINE
5
190
100
AcDbEntity
8
0
100
AcDbPolyline
90
8
70
1
43
0.0
10
307.1993576532725
20
76.468031167749956
10
313.1993576532725
20
76.468031167749956
42
-0.41421356237312101
10
313.6993576532725
20
75.968031167749984
10
313.6993576532725
20
61.968031167749999
42
-0.4142135623730378
10
313.19935765327256
20
61.468031167749977
10
307.1993576532725
20
61.46803116774997
42
-0.41421356237314183
10
306.6993576532725
20
61.968031167749984
10
306.69935765327244
20
75.96803116774997
42
-0.41421356237306384
0
LWPOLYLINE
5
191
100
AcDbEntity
8
0
100
AcDbPolyline
90
8
70
1
43
0.0
10
328.63735765327249
20
74.468031167749984
10
315.63735765327249
20
74.46803116774997
42
0.41421356237316787
10
315.13735765327255
20
73.96803116774997
10
315.1373576532726
20
60.968031167749999
42
0.41421356237313667
10
315.6373576532726
20
60.468031167749992
10
328.63735765327249
20
60.468031167750055
42
0.41421356237303258
10
329.13735765327255
20
60.968031167750027
10
329.13735765327255
20
73.968031167749999
42
0.41421356237282969
0
LWPOLYLINE
5
192
100
AcDbEntity
8
0
100
AcDbPolyline
90
8
70
1
43
0.0
10
330.57535765327253
20
75.968031167750013
42
-0.41421356237304302
10
331.07535765327259
20
76.468031167749984
10
337.07535765327248
20
76.468031167749984
42
-0.41421356237325629
10
337.57535765327248
20
75.968031167750013
10
337.57535765327253
20
61.968031167750027
42
-0.4142135623728973
10
337.07535765327248
20
61.468031167750055
10
331.07535765327242
20
61.468031167750013
42
-0.41421356237303258
10
330.57535765327259
20
61.96803116775002
0
LWPOLYLINE
5
193
100
AcDbEntity
8
0
100
AcDbPolyline
90
8
70
1
43
0.0
10
302.43685765327251
20
54.41803116774998
10
308.43685765327251
20
54.41803116774993
42
-0.41421356237300139
10
308.93685765327257
20
53.918031167749945
10
308.93685765327257
20
39.918031167749945
42
-0.41421356237315748
10
308.43685765327251
20
39.418031167749959
10
302.43685765327251
20
39.41803116774993
42
-0.41421356237313667
10
301.93685765327251
20
39.918031167749945
10
301.93685765327251
20
53.918031167749945
42
-0.41421356237310542
0
LWPOLYLINE
5
194
100
AcDbEntity
8
0
100
AcDbPolyline
90
8
70
1
43
0.0
10
323.87485765327256
20
55.418031167749987
10
310.87485765327261
20
55.418031167749966
42
0.4142135623730846
10
310.37485765327256
20
54.918031167750016
10
310.37485765327261
20
41.918031167749973
42
0.41421356237326673
10
310.87485765327267
20
41.418031167749987
10
323.87485765327256
20
41.41803116774998
42
0.41421356237312623
10
324.37485765327256
20
41.918031167749987
10
324.37485765327261
20
54.91803116775003
42
0.4142135623732251
0
LWPOLYLINE
5
195
100
AcDbEntity
8
0
100
AcDbPolyline
90
8
70
1
43
0.0
10
332.31285765327254
20
54.418031167749952
42
-0.41421356237287649
10
332.81285765327249
20
53.918031167750001
10
332.81285765327254
20
39.918031167749994
42
-0.41421356237313928
10
332.31285765327266
20
39.418031167750023
10
326.31285765327249
20
39.418031167749952
42
-0.41421356237291812
10
325.8128576532726
20
39.918031167749973
10
325.81285765327266
20
53.91803116774998
42
-0.41421356237311585
10
326.31285765327249
20
54.418031167750023
0
LINE
5
196
100
AcDbEntity
8
0
100
AcDbLine
10
146.54360765327252
20
38.368031167749677
30
0
11
140.54360765327255
21
38.36803116774967
31
0
0
LINE
5
197
100
AcDbEntity
8
0
100
AcDbLine
10
140.04360765327249
20
37.868031167749692
30
0
11
140.04360765327252
21
20.918031167749618
31
0
0
LINE
5
198
100
AcDbEntity
8
0
100
AcDbLine
10
147.04360765327249
20
20.918031167749707
30
0
11
147.04360765327246
21
37.868031167749706
31
0
0
LINE
5
199
100
AcDbEntity
8
0
100
AcDbLine
10
260.84360765327267
20
38.368031167749862
30
0
11
254.84360765327256
21
38.368031167749905
31
0
0
LINE
5
200
100
AcDbEntity
8
0
100
AcDbLine
10
254.34360765327258
20
37.868031167749891
30
0
11
254.3436076532727
21
20.918031167749884
31
0
0
LINE
5
201
100
AcDbEntity
8
0
100
AcDbLine
10
261.34360765327267
20
20.918031167749902
30
0
11
261.34360765327267
21
37.868031167749905
31
0
0
CIRCLE
5
202
100
AcDbEntity
8
0
100
AcDbCircle
10
67.343607653220872
20
117.46453116774958
30
0
40
2.3810000000000002
210
0
220
0
230
1
0
CIRCLE
5
203
100
AcDbEntity
8
0
100
AcDbCircle
10
160.21356705122085
20
117.4645311677496
30
0
40
2.3810000000000002
210
0
220
0
230
1
0
CIRCLE
5
204
100
AcDbEntity
8
0
100
AcDbCircle
10
241.17702644922079
20
117.46453116774961
30
0
40
2.3810000000000002
210
0
220
0
230
1
0
CIRCLE
5
205
100
AcDbEntity
8
0
100
AcDbCircle
10
322.14048584722082
20
117.4645311677496
30
0
40
2.3810000000000002
210
0
220
0
230
1
0
CIRCLE
5
206
100
AcDbEntity
8
0
100
AcDbCircle
10
345.95444524522088
20
117.46453116774956
30
0
40
2.3810000000000002
210
0
220
0
230
1
0
CIRCLE
5
207
100
AcDbEntity
8
0
100
AcDbCircle
10
395.95610765322078
20
117.4645311677496
30
0
40
2.3810000000000002
210
0
220
0
230
1
0
CIRCLE
5
208
100
AcDbEntity
8
0
100
AcDbCircle
10
345.95444524541114
20
29.368031167749649
30
0
40
2.3810000000000002
210
0
220
0
230
1
0
LWPOLYLINE
5
209
100
AcDbEntity
8
0
100
AcDbPolyline
90
8
70
1
43
0.0
10
154.75706705122082
20
119.84553116774961
10
74.893607653220869
20
119.84553116774961
42
0.41421356237310453
10
74.343607653220857
20
119.2955311677496
10
74.343607653220857
20
115.63353116774961
42
0.41421356237309975
10
74.893607653220869
20
115.08353116774963
10
154.75706705122084
20
115.08353116774961
42
0.41421356237307611
10
155.30706705122083
20
115.63353116774961
10
155.30706705122083
20
119.29553116774962
42
0.41421356237309503
0
LWPOLYLINE
5
210
100
AcDbEntity
8
0
100
AcDbPolyline
90
8
70
1
43
0.0
10
235.72052644922081
20
119.84553116774961
10
165.67052644922086
20
119.84553116774963
42
0.41421356237310453
10
165.12052644922085
20
119.29553116774962
10
165.12052644922085
20
115.63353116774961
42
0.41421356237309503
10
165.67052644922086
20
115.08353116774961
10
235.72052644922081
20
115.08353116774961
42
0.41421356237309503
10
236.27052644922082
20
115.63353116774961
10
236.27052644922082
20
119.29553116774962
42
0.41421356237310453
0
LWPOLYLINE
5
211
100
AcDbEntity
8
0
100
AcDbPolyline
90
8
70
1
43
0.0
10
316.68398584722075
20
119.84553116774961
10
246.63398584722088
20
119.84553116774963
42
0.41421356237312346
10
246.08398584722084
20
119.29553116774962
10
246.08398584722084
20
115.63353116774961
42
0.41421356237309503
10
246.63398584722086
20
115.08353116774961
10
316.68398584722075
20
115.08353116774961
42
0.41421356237309503
10
317.23398584722077
20
115.63353116774961
10
317.23398584722077
20
119.29553116774962
42
0.41421356237310453
0
LWPOLYLINE
5
212
100
AcDbEntity
8
0
100
AcDbPolyline
90
8
70
1
43
0.0
10
340.49744524522083
20
119.84553116774961
10
327.5974452452208
20
119.84553116774961
42
0.41421356237309503
10
327.04744524522079
20
119.29553116774962
10
327.04744524522079
20
115.63353116774961
42
0.4142135623730856
10
327.5974452452208
20
115.08353116774963
10
340.49744524522083
20
115.08353116774963
42
0.4142135623730856
10
341.04744524522084
20
115.63353116774961
10
341.04744524522084
20
119.29553116774962
42
0.41421356237309503
0
LWPOLYLINE
5
213
100
AcDbEntity
8
0
100
AcDbPolyline
90
8
70
1
43
0.0
10
388.4061076532206
20
119.84553116774961
10
351.40610765322066
20
119.84553116774958
42
0.41421356237311396
10
350.85610765322076
20
119.29553116774962
10
350.85610765322076
20
115.63353116774961
42
0.41421356237314239
10
351.40610765322072
20
115.08353116774967
10
388.4061076532206
20
115.08353116774961
42
0.41421356237314239
10
388.95610765322067
20
115.63353116774961
10
388.95610765322061
20
119.29553116774962
42
0.41421356237315182
0
LWPOLYLINE
5
214
100
AcDbEntity
8
0
100
AcDbPolyline
90
8
70
1
43
0.0
10
347.78544524556986
20
112.56803116774961
10
344.12344524556988
20
112.56803116774961
42
0.41421356237309503
10
343.57344524556987
20
112.01803116774961
10
343.57344524556987
20
36.918031167749653
42
0.41421356237309975
10
344.12344524556988
20
36.368031167749649
10
347.78544524556992
20
36.368031167749677
42
0.41421356237311396
10
348.33544524556987
20
36.918031167749639
10
348.33544524556987
20
112.01803116774961
42
0.41421356237315182
0
LWPOLYLINE
5
215
100
AcDbEntity
8
0
100
AcDbPolyline
90
8
70
1
43
0.0
10
162.04552644922077
20
136.38053116774961
10
158.38206705122082
20
136.38053116774958
42
0.4142135623730856
10
157.83206705122083
20
135.8305311677496
10
157.83206705122083
20
122.93053116774962
42
0.4142135623730856
10
158.38206705122082
20
122.38053116774964
10
162.04552644922077
20
122.38053116774962
42
0.41421356237309503
10
162.59552644922078
20
122.93053116774962
10
162.59552644922078
20
135.8305311677496
42
0.41421356237309503
0
LWPOLYLINE
5
216
100
AcDbEntity
8
0
100
AcDbPolyline
90
8
70
1
43
0.0
10
243.00898584722086
20
136.38053116774961
10
239.34552644922081
20
136.38053116774961
42
0.41421356237309503
10
238.79552644922083
20
135.8305311677496
10
238.79552644922083
20
122.93053116774962
42
0.41421356237309503
10
239.34552644922081
20
122.38053116774962
10
243.00898584722086
20
122.38053116774962
42
0.41421356237309503
10
243.55898584722084
20
122.93053116774962
10
243.55898584722084
20
135.8305311677496
42
0.41421356237309503
0
LWPOLYLINE
5
217
100
AcDbEntity
8
0
100
AcDbPolyline
90
8
70
1
43
0.0
10
323.9724452452208
20
136.38053116774961
10
320.30898584722081
20
136.38053116774967
42
0.41421356237302881
10
319.7589858472208
20
135.8305311677496
10
319.7589858472208
20
122.93053116774959
42
0.41421356237311396
10
320.30898584722075
20
122.38053116774961
10
323.9724452452208
20
122.38053116774961
42
0.41421356237309503
10
324.52244524522081
20
122.93053116774959
10
324.52244524522081
20
135.8305311677496
42
0.4142135623730856
0
LWPOLYLINE
5
218
100
AcDbEntity
8
0
100
AcDbPolyline
90
8
70
1
43
0.0
10
347.78110765322077
20
131.30553116774962
10
344.12244524522077
20
131.30553116774962
42
0.41421356237309503
10
343.57244524522082
20
130.75553116774961
10
343.57244524522082
20
122.93053116774956
42
0.41421356237310453
10
344.12244524522077
20
122.38053116774955
10
347.78110765322077
20
122.38053116774961
42
0.41421356237314239
10
348.33110765322078
20
122.93053116774955
10
348.33110765322078
20
130.75553116774961
42
0.41421356237315182
0
LWPOLYLINE
5
219
100
AcDbEntity
8
0
100
AcDbPolyline
90
12
70
1
43
0.0
10
374.00238078298469
20
73.268346302953162
10
374.00238078298469
20
67.492464962204522
10
374.00238078298457
20
61.716581091112971
42
0.41421356237306384
10
374.25238078298463
20
61.466581091112964
10
374.91327007295729
20
61.466581091112964
10
375.57415936293
20
61.466581091113007
42
0.41421356237306384
10
375.82415936292995
20
61.716581091112971
10
375.82415936292995
20
67.49246369703306
10
375.82415936293
20
73.268346302953162
42
0.41421356237306384
10
375.57415936293
20
73.518346302953162
10
374.9132700729574
20
73.518346302953162
10
374.25238078298469
20
73.518346302953162
42
0.41421356237310542
0
LWPOLYLINE
5
220
100
AcDbEntity
8
0
100
AcDbPolyline
90
36
70
1
43
0.0
10
380.20343396826325
20
64.264556256910424
10
380.20343396826325
20
62.990568674011698
10
380.2034339682632
20
61.716581091112971
42
0.41421356237306384
10
380.45343396826325
20
61.466581091112964
10
381.11432199306444
20
61.466581091112964
10
381.77521254820851
20
61.466581091112971
42
0.41421356237310542
10
382.02521254820851
20
61.716581091112971
10
382.02521254820851
20
62.990568674011691
10
382.02521254820851
20
64.26455625691041
42
-0.41421356237310542
10
382.27521254820851
20
64.51455625691041
10
383.35651198774434
20
64.51455625691041
10
384.43781142728022
20
64.51455625691041
42
-0.41421356237310542
10
384.68781142728017
20
64.264556256910424
10
384.68781142728017
20
62.990568674011691
10
384.68781142728017
20
61.716581091112971
42
0.41421356237310542
10
384.93781142728017
20
61.466581091112964
10
385.59869945208141
20
61.466581091112964
10
386.25958747688259
20
61.466581091113007
42
0.41421356237306384
10
386.50958747688259
20
61.716581091112971
10
386.50958747688259
20
62.990568674011691
10
386.50958747688253
20
64.26455625691041
42
-0.41421356237306384
10
386.75958747688253
20
64.51455625691041
10
387.87592204442723
20
64.51455625691041
10
388.99225661197192
20
64.514556256910453
42
0.41421356237306384
10
389.24225661197192
20
64.764556256910424
10
389.24225661197192
20
65.337861522375277
10
389.24225661197198
20
65.911164257497234
42
0.41421356237306384
10
388.99225661197192
20
66.161164257497234
10
383.35651198774434
20
66.161164257497234
10
377.72076736351676
20
66.161164257497191
42
0.41421356237306384
10
377.47076736351681
20
65.911164257497234
10
377.47076736351681
20
65.337861522375277
10
377.47076736351676
20
64.764556256910438
42
0.41421356237312623
10
377.7207673635167
20
64.51455625691041
10
378.83709940071861
20
64.51455625691041
10
379.95343396826331
20
64.514556256910382
42
-0.41421356237306384
0
SPLINE
5
221
100
AcDbEntity
8
0
100
AcDbSpline
70
4
71
3
72
8
73
4
74
0
42
0.000000001
43
0.0000000001
44
0.0000000001
40
0
40
0
40
0
40
0
40
1
40
1
40
1
40
1
41
1
41
1
41
1
41
1
10
365.48850497829551
20
63.558567399982273
30
0
10
365.3496637973472
20
63.804964602070875
30
0
10
365.14909237063085
20
64.160890227602451
30
0
10
365.04279013440521
20
64.349514640242944
30
0
0
SPLINE
5
222
100
AcDbEntity
8
0
100
AcDbSpline
70
4
71
3
72
8
73
4
74
0
42
0.000000001
43
0.0000000001
44
0.0000000001
40
0
40
0
40
0
40
0
40
0.2329002149029587
40
0.2329002149029587
40
0.2329002149029587
40
0.2329002149029587
41
1
41
1
41
1
41
1
10
365.04279013440521
20
64.349514640242944
30
0
10
365.01803232074366
20
64.39344530648286
30
0
10
364.99464582763727
20
64.435791396637669
30
0
10
364.97342674572394
20
64.474986573987806
30
0
0
SPLINE
5
223
100
AcDbEntity
8
0
100
AcDbSpline
70
4
71
3
72
8
73
4
74
0
42
0.000000001
43
0.0000000001
44
0.0000000001
40
0.80292892228941914
40
0.80292892228941914
40
0.80292892228941914
40
0.80292892228941914
40
1
40
1
40
1
40
1
41
1
41
1
41
1
41
1
10
365.08053284069445
20
64.817140784240408
30
0
10
365.11012514855736
20
64.832093070692906
30
0
10
365.1414758529603
20
64.847855609051621
30
0
10
365.17375182751442
20
64.863999143892329
30
0
0
SPLINE
5
224
100
AcDbEntity
8
0
100
AcDbSpline
70
4
71
3
72
8
73
4
74
0
42
0.000000001
43
0.0000000001
44
0.0000000001
40
0
40
0
40
0
40
0
40
1
40
1
40
1
40
1
41
1
41
1
41
1
41
1
10
365.17375182751442
20
64.863999143892329
30
0
10
365.63972396420098
20
65.097061438815899
30
0
10
365.96395894247229
20
65.337532577796253
30
0
10
366.40160895090497
20
65.774639195087786
30
0
0
SPLINE
5
225
100
AcDbEntity
8
0
100
AcDbSpline
70
4
71
3
72
8
73
4
74
0
42
0.000000001
43
0.0000000001
44
0.0000000001
40
0
40
0
40
0
40
0
40
1
40
1
40
1
40
1
41
1
41
1
41
1
41
1
10
366.40160895090497
20
65.774639195087786
30
0
10
367.22496229288527
20
66.59697660438745
30
0
10
367.74504771057821
20
67.595093140516767
30
0
10
367.99040494172851
20
68.823764401740362
30
0
0
SPLINE
5
226
100
AcDbEntity
8
0
100
AcDbSpline
70
4
71
3
72
8
73
4
74
0
42
0.000000001
43
0.0000000001
44
0.0000000001
40
0
40
0
40
0
40
0
40
1
40
1
40
1
40
1
41
1
41
1
41
1
41
1
10
367.99040494172851
20
68.823764401740362
30
0
10
368.10561398501693
20
69.400697768545783
30
0
10
368.15140433558838
20
69.930803344184383
30
0
10
368.15154983030601
20
70.689335626525263
30
0
0
LINE
5
227
100
AcDbEntity
8
0
100
AcDbLine
10
368.15154983030595
20
70.689335626525263
30
0
11
368.15162396179295
21
71.061142856076927
31
0
0
LINE
5
228
100
AcDbEntity
8
0
100
AcDbLine
10
367.90162396676214
20
71.311192701453493
30
0
11
366.71526646320353
21
71.311192701453564
31
0
0
LINE
5
229
100
AcDbEntity
8
0
100
AcDbLine
10
366.71526646320353
20
71.311192701453564
30
0
11
365.52886480256979
21
71.311192701453564
31
0
0
LINE
5
230
100
AcDbEntity
8
0
100
AcDbLine
10
365.27886480256973
20
71.561192701453578
30
0
11
365.27886480256984
21
72.169530564584377
31
0
0
LINE
5
231
100
AcDbEntity
8
0
100
AcDbLine
10
365.27886480256984
20
72.169530564584377
30
0
11
365.27886480256984
21
72.777868427715177
31
0
0
LINE
5
232
100
AcDbEntity
8
0
100
AcDbLine
10
365.52886480256979
20
73.027868427715163
30
0
11
369.06255804639568
21
73.027868427715177
31
0
0
LINE
5
233
100
AcDbEntity
8
0
100
AcDbLine
10
369.06255804639568
20
73.027868427715177
30
0
11
372.59625192280731
21
73.027868427715177
31
0
0
LINE
5
234
100
AcDbEntity
8
0
100
AcDbLine
10
372.84625192280737
20
72.777868427715163
30
0
11
372.84625192280726
21
72.169530564584363
31
0
0
LINE
5
235
100
AcDbEntity
8
0
100
AcDbLine
10
372.84625192280726
20
72.169530564584363
30
0
11
372.84625192280726
21
71.56119270145355
31
0
0
LINE
5
236
100
AcDbEntity
8
0
100
AcDbLine
10
372.59625192280731
20
71.311192701453564
30
0
11
371.40984962958782
21
71.311192701453564
31
0
0
LINE
5
237
100
AcDbEntity
8
0
100
AcDbLine
10
371.40984962958782
20
71.311192701453564
30
0
11
370.22344733636834
21
71.311192701453564
31
0
0
LINE
5
238
100
AcDbEntity
8
0
100
AcDbLine
10
369.97344733636839
20
71.061192701453578
30
0
11
369.97344733636828
21
70.706851925358222
31
0
0
SPLINE
5
239
100
AcDbEntity
8
0
100
AcDbSpline
70
4
71
3
72
8
73
4
74
0
42
0.000000001
43
0.0000000001
44
0.0000000001
40
0
40
0
40
0
40
0
40
1
40
1
40
1
40
1
41
1
41
1
41
1
41
1
10
369.97344733636828
20
70.706851925358222
30
0
10
369.97344733636828
20
70.374464814798671
30
0
10
369.98937331467886
20
69.92909283237347
30
0
10
370.00880255275604
20
69.717136127708571
30
0
0
SPLINE
5
240
100
AcDbEntity
8
0
100
AcDbSpline
70
4
71
3
72
8
73
4
74
0
42
0.000000001
43
0.0000000001
44
0.0000000001
40
0
40
0
40
0
40
0
40
1
40
1
40
1
40
1
41
1
41
1
41
1
41
1
10
370.00880255275604
20
69.717136127708571
30
0
10
370.21499007557344
20
67.467873824579655
30
0
10
371.23543688793256
20
65.768472749402562
30
0
10
372.90761273850967
20
64.88959862316905
30
0
0
LINE
5
241
100
AcDbEntity
8
0
100
AcDbLine
10
372.90761273850967
20
64.88959862316905
30
0
11
373.02643296918279
21
64.827148406647311
31
0
0
LINE
5
242
100
AcDbEntity
8
0
100
AcDbLine
10
373.12777813815592
20
64.48286370143768
30
0
11
372.81391287517499
21
63.927410426097786
31
0
0
SPLINE
5
243
100
AcDbEntity
8
0
100
AcDbSpline
70
4
71
3
72
8
73
4
74
0
42
0.000000001
43
0.0000000001
44
0.0000000001
40
0
40
0
40
0
40
0
40
1
40
1
40
1
40
1
41
1
41
1
41
1
41
1
10
372.81391287517499
20
63.927410426097786
30
0
10
372.31727614528052
20
63.048503405406379
30
0
10
372.38293348325351
20
63.10204546149965
30
0
10
372.01514561013374
20
63.27603690105947
30
0
0
SPLINE
5
244
100
AcDbEntity
8
0
100
AcDbSpline
70
4
71
3
72
8
73
4
74
0
42
0.000000001
43
0.0000000001
44
0.0000000001
40
0
40
0
40
0
40
0
40
1
40
1
40
1
40
1
41
1
41
1
41
1
41
1
10
372.01514561013374
20
63.27603690105947
30
0
10
370.86419130121874
20
63.820526211001571
30
0
10
369.57368351982467
20
65.301022259867636
30
0
10
369.16975222849908
20
66.540332347879698
30
0
0
LINE
5
245
100
AcDbEntity
8
0
100
AcDbLine
10
369.16975222849896
20
66.540332347879698
30
0
11
369.07168499329208
21
66.841210363283238
31
0
0
LINE
5
246
100
AcDbEntity
8
0
100
AcDbLine
10
369.07168499329208
20
66.841210363283238
30
0
11
369.01148180947359
21
66.63256461232335
31
0
0
SPLINE
5
247
100
AcDbEntity
8
0
100
AcDbSpline
70
4
71
3
72
8
73
4
74
0
42
0.000000001
43
0.0000000001
44
0.0000000001
40
0
40
0
40
0
40
0
40
1
40
1
40
1
40
1
41
1
41
1
41
1
41
1
10
369.01148180947359
20
66.63256461232335
30
0
10
368.6492644862825
20
65.377241249170169
30
0
10
367.33788264100656
20
63.844073582173792
30
0
10
366.13717166899988
20
63.272135112283664
30
0
0
SPLINE
5
248
100
AcDbEntity
8
0
100
AcDbSpline
70
4
71
3
72
8
73
4
74
0
42
0.000000001
43
0.0000000001
44
0.0000000001
40
0
40
0
40
0
40
0
40
1
40
1
40
1
40
1
41
1
41
1
41
1
41
1
10
366.13717166899988
20
63.272135112283664
30
0
10
365.72116178576687
20
63.073976367537341
30
0
10
365.77490184119324
20
63.05024934201812
30
0
10
365.48847334900904
20
63.558564869639362
30
0
0
LINE
5
249
100
AcDbEntity
8
0
100
AcDbLine
10
365.48847334900898
20
63.558564869639362
30
0
11
365.48850497829551
21
63.558567399982273
31
0
0
SPLINE
5
250
100
AcDbEntity
8
0
100
AcDbSpline
70
4
71
3
72
8
73
4
74
0
42
0.000000001
43
0.0000000001
44
0.0000000001
40
0
40
0
40
0
40
0
40
1
40
1
40
1
40
1
41
1
41
1
41
1
41
1
10
382.62079454230161
20
67.165936860665937
30
0
10
380.43450994399814
20
67.326425125256861
30
0
10
378.88219517215975
20
68.203977147316991
30
0
10
378.45472663103351
20
69.521091484468187
30
0
0
SPLINE
5
251
100
AcDbEntity
8
0
100
AcDbSpline
70
4
71
3
72
8
73
4
74
0
42
0.000000001
43
0.0000000001
44
0.0000000001
40
0
40
0
40
0
40
0
40
1
40
1
40
1
40
1
41
1
41
1
41
1
41
1
10
379.09609771052664
20
72.204491047477219
30
0
10
379.76837692873335
20
72.882505287902021
30
0
10
380.74729322281939
20
73.290214381200542
30
0
10
382.18286809390548
20
73.490102615329675
30
0
0
SPLINE
5
252
100
AcDbEntity
8
0
100
AcDbSpline
70
4
71
3
72
8
73
4
74
0
42
0.000000001
43
0.0000000001
44
0.0000000001
40
0
40
0
40
0
40
0
40
1
40
1
40
1
40
1
41
1
41
1
41
1
41
1
10
382.18286809390548
20
73.490102615329675
30
0
10
382.59378819236389
20
73.54731872933634
30
0
10
384.07918804580027
20
73.547726114545753
30
0
10
384.51264084792172
20
73.490745322430229
30
0
0
SPLINE
5
253
100
AcDbEntity
8
0
100
AcDbSpline
70
4
71
3
72
8
73
4
74
0
42
0.000000001
43
0.0000000001
44
0.0000000001
40
0
40
0
40
0
40
0
40
1
40
1
40
1
40
1
41
1
41
1
41
1
41
1
10
384.51264084792172
20
73.490745322430229
30
0
10
385.51408984567081
20
73.359089050190661
30
0
10
386.26582689211199
20
73.127061665519548
30
0
10
386.90817215362756
20
72.751353819074112
30
0
0
SPLINE
5
254
100
AcDbEntity
8
0
100
AcDbSpline
70
4
71
3
72
8
73
4
74
0
42
0.000000001
43
0.0000000001
44
0.0000000001
40
0
40
0
40
0
40
0
40
1
40
1
40
1
40
1
41
1
41
1
41
1
41
1
10
386.90817215362756
20
72.751353819074112
30
0
10
387.62184272124699
20
72.333926943808379
30
0
10
388.0794096913537
20
71.780444795144376
30
0
10
388.30150548008129
20
71.065954396420295
30
0
0
SPLINE
5
255
100
AcDbEntity
8
0
100
AcDbSpline
70
4
71
3
72
8
73
4
74
0
42
0.000000001
43
0.0000000001
44
0.0000000001
40
0
40
0
40
0
40
0
40
1
40
1
40
1
40
1
41
1
41
1
41
1
41
1
10
388.30150548008129
20
69.629552103200794
30
0
10
387.86751118457596
20
68.233374671309974
30
0
10
386.44283197008417
20
67.382687299984369
30
0
10
384.19733228687073
20
67.17892384568006
30
0
0
SPLINE
5
256
100
AcDbEntity
8
0
100
AcDbSpline
70
4
71
3
72
8
73
4
74
0
42
0.000000001
43
0.0000000001
44
0.0000000001
40
0
40
0
40
0
40
0
40
1
40
1
40
1
40
1
41
1
41
1
41
1
41
1
10
384.19733228687073
20
67.17892384568006
30
0
10
383.82594373578218
20
67.145222208387707
30
0
10
382.99611271593812
20
67.138387752172775
30
0
10
382.62079201195877
20
67.1659381258374
30
0
0
SPLINE
5
257
100
AcDbEntity
8
0
100
AcDbSpline
70
4
71
3
72
8
73
4
74
0
42
0.000000001
43
0.0000000001
44
0.0000000001
40
0
40
0
40
0
40
0
40
1
40
1
40
1
40
1
41
1
41
1
41
1
41
1
10
384.37676649404193
20
68.808304006526285
30
0
10
384.90278936138628
20
68.881237345552947
30
0
10
385.25216392910949
20
68.979092031954991
30
0
10
385.61861578116975
20
69.156128739213685
30
0
0
SPLINE
5
258
100
AcDbEntity
8
0
100
AcDbSpline
70
4
71
3
72
8
73
4
74
0
42
0.000000001
43
0.0000000001
44
0.0000000001
40
0
40
0
40
0
40
0
40
1
40
1
40
1
40
1
41
1
41
1
41
1
41
1
10
384.31256663358829
20
71.91230729033154
30
0
10
383.9114263104986
20
71.96903125264113
30
0
10
382.79301727216352
20
71.969451289565114
30
0
10
382.40046240258619
20
71.913022112205184
30
0
0
SPLINE
5
259
100
AcDbEntity
8
0
100
AcDbSpline
70
4
71
3
72
8
73
4
74
0
42
0.000000001
43
0.0000000001
44
0.0000000001
40
0
40
0
40
0
40
0
40
1
40
1
40
1
40
1
41
1
41
1
41
1
41
1
10
382.40046240258619
20
71.913022112205184
30
0
10
381.31617756881042
20
71.757169435835578
30
0
10
380.538798027263
20
71.351957790994703
30
0
10
380.27130535628737
20
70.803193466696769
30
0
0
SPLINE
5
260
100
AcDbEntity
8
0
100
AcDbSpline
70
4
71
3
72
8
73
4
74
0
42
0.000000001
43
0.0000000001
44
0.0000000001
40
0
40
0
40
0
40
0
40
1
40
1
40
1
40
1
41
1
41
1
41
1
41
1
10
380.28381284131899
20
69.86812801533739
30
0
10
380.59059414674448
20
69.243406592228666
30
0
10
381.56889556750207
20
68.822842091747631
30
0
10
382.8660353776778
20
68.758051396223237
30
0
0
SPLINE
5
261
100
AcDbEntity
8
0
100
AcDbSpline
70
4
71
3
72
8
73
4
74
0
42
0.000000001
43
0.0000000001
44
0.0000000001
40
0
40
0
40
0
40
0
40
1
40
1
40
1
40
1
41
1
41
1
41
1
41
1
10
382.8660353776778
20
68.758051396223237
30
0
10
383.44319900568854
20
68.729220669043343
30
0
10
383.9210416135777
20
68.745116283238886
30
0
10
384.37676649404193
20
68.808301476183374
30
0
0
ARC
5
262
100
AcDbEntity
8
0
100
AcDbCircle
10
365.52886480256979
20
72.777868427715177
30
0
40
0.24999999999998579
210
0
220
-0
230
1
100
AcDbArc
50
90
51
180
0
ARC
5
263
100
AcDbEntity
8
0
100
AcDbCircle
10
372.59625192280731
20
72.77786842771512
30
0
40
0.25000000000005684
210
0
220
-0
230
1
100
AcDbArc
50
0
51
90
0
ARC
5
264
100
AcDbEntity
8
0
100
AcDbCircle
10
372.59625192280731
20
71.56119270145355
30
0
40
0.24999999999998579
210
-0
220
0
230
1
100
AcDbArc
50
-90
51
0
0
ARC
5
265
100
AcDbEntity
8
0
100
AcDbCircle
10
370.22344733636834
20
71.06119270145355
30
0
40
0.25000000000000355
210
0
220
-0
230
1
100
AcDbArc
50
90
51
180
0
ARC
5
266
100
AcDbEntity
8
0
100
AcDbCircle
10
367.90162396676226
20
71.061192701453649
30
0
40
0.24999999999985731
210
0
220
0
230
1
100
AcDbArc
50
-0.011423718948867342
51
90.000000000026063
0
ARC
5
267
100
AcDbEntity
8
0
100
AcDbCircle
10
365.52886480256979
20
71.561192701453621
30
0
40
0.25000000000005684
210
0
220
0
230
1
100
AcDbArc
50
180
51
270
0
ARC
5
268
100
AcDbEntity
8
0
100
AcDbCircle
10
365.19327707254536
20
64.594006882324194
30
0
40
0.2499999999999844
210
0
220
0
230
1
100
AcDbArc
50
116.80637989020491
51
208.42977239226454
0
ARC
5
269
100
AcDbEntity
8
0
100
AcDbCircle
10
372.91012289561331
20
64.605852300070254
30
0
40
0.24999999999979855
210
-0
220
0
230
1
100
AcDbArc
50
-29.46911939478332
51
62.274225410836017
0
LINE
5
270
100
AcDbEntity
8
0
100
AcDbLine
10
377.24152917039805
20
72.501229049240649
30
0
11
377.37281802585085
21
72.501229049240649
31
0
0
SPLINE
5
271
100
AcDbEntity
8
0
100
AcDbSpline
70
4
71
3
72
8
73
4
74
0
42
0.000000001
43
0.0000000001
44
0.0000000001
40
0
40
0
40
0
40
0
40
0.036877195203852631
40
0.036877195203852631
40
0.036877195203852631
40
0.036877195203852631
41
1
41
1
41
1
41
1
10
380.27130535628737
20
70.803193466696769
30
0
10
380.26660532669644
20
70.793551309661638
30
0
10
380.26208588858145
20
70.78372147251963
30
0
10
380.25774686517423
20
70.77371716269792
30
0
0
SPLINE
5
272
100
AcDbEntity
8
0
100
AcDbSpline
70
4
71
3
72
8
73
4
74
0
42
0.000000001
43
0.0000000001
44
0.0000000001
40
0.98583929616478694
40
0.98583929616478694
40
0.98583929616478694
40
0.98583929616478694
40
1
40
1
40
1
40
1
41
1
41
1
41
1
41
1
10
380.27817191994444
20
69.879848070836729
30
0
10
380.28002629842916
20
69.875916748465514
30
0
10
380.28190660889032
20
69.872009814024565
30
0
10
380.28381284131899
20
69.86812801533739
30
0
0
SPLINE
5
273
100
AcDbEntity
8
0
100
AcDbSpline
70
4
71
3
72
8
73
4
74
0
42
0.000000001
43
0.0000000001
44
0.0000000001
40
0.19035717850956552
40
0.19035717850956552
40
0.19035717850956552
40
0.19035717850956552
40
1
40
1
40
1
40
1
41
1
41
1
41
1
41
1
10
386.43981593948462
20
70.77423805122271
30
0
10
386.1946408904862
20
71.343065960497952
30
0
10
385.44305566447872
20
71.752450284204741
30
0
10
384.31256663358829
20
71.91230729033154
30
0
0
SPLINE
5
274
100
AcDbEntity
8
0
100
AcDbSpline
70
4
71
3
72
8
73
4
74
0
42
0.000000001
43
0.0000000001
44
0.0000000001
40
0
40
0
40
0
40
0
40
0.66535465217256007
40
0.66535465217256007
40
0.66535465217256007
40
0.66535465217256007
41
1
41
1
41
1
41
1
10
385.61861578116975
20
69.156128739213685
30
0
10
386.02019229429578
20
69.350134712155082
30
0
10
386.28957474542187
20
69.592125610645482
30
0
10
386.42489836022662
20
69.879656061164269
30
0
0
LINE
5
275
100
AcDbEntity
8
0
100
AcDbLine
10
378.6339511775497
20
70.623192923631905
30
0
11
380.02838991898273
21
70.623192796388409
31
0
0
LINE
5
276
100
AcDbEntity
8
0
100
AcDbLine
10
386.6693983165539
20
70.62319219045682
30
0
11
388.09271934014055
21
70.623192060666412
31
0
0
LINE
5
277
100
AcDbEntity
8
0
100
AcDbLine
10
388.08177395708026
20
70.02319764568449
30
0
11
386.65109833141742
21
70.023197033271174
31
0
0
LINE
5
278
100
AcDbEntity
8
0
100
AcDbLine
10
380.05206348292757
20
70.023194289219859
30
0
11
378.64281643201224
21
70.023193610820101
31
0
0
SPLINE
5
279
100
AcDbEntity
8
0
100
AcDbSpline
70
4
71
3
72
8
73
4
74
0
42
0.000000001
43
0.0000000001
44
0.0000000001
40
0
40
0
40
0
40
0
40
0.067395115679854484
40
0.067395115679854484
40
0.067395115679854484
40
0.067395115679854484
41
1
41
1
41
1
41
1
10
378.45472663103351
20
69.521091484468187
30
0
10
378.43397057800632
20
69.585045018752737
30
0
10
378.41572486533016
20
69.64933867334193
30
0
10
378.39996110088174
20
69.713853660641561
30
0
0
SPLINE
5
280
100
AcDbEntity
8
0
100
AcDbSpline
70
4
71
3
72
8
73
4
74
0
42
0.000000001
43
0.0000000001
44
0.0000000001
40
0.4917228766559516
40
0.4917228766559516
40
0.4917228766559516
40
0.4917228766559516
40
1
40
1
40
1
40
1
41
1
41
1
41
1
41
1
10
378.39028487782855
20
70.929110034276746
30
0
10
378.49861479752121
20
71.40117221432709
30
0
10
378.73794543332929
20
71.84328424616163
30
0
10
379.09609771052664
20
72.204491047477219
30
0
0
SPLINE
5
281
100
AcDbEntity
8
0
100
AcDbSpline
70
4
71
3
72
8
73
4
74
0
42
0.000000001
43
0.0000000001
44
0.0000000001
40
0
40
0
40
0
40
0
40
0.11560783206336366
40
0.11560783206336366
40
0.11560783206336366
40
0.11560783206336366
41
1
41
1
41
1
41
1
10
388.30150548008129
20
71.065954396420295
30
0
10
388.31510917702747
20
71.022190094621152
30
0
10
388.32714018006158
20
70.974406535853745
30
0
10
388.33759848918373
20
70.923533033332461
30
0
0
SPLINE
5
282
100
AcDbEntity
8
0
100
AcDbSpline
70
4
71
3
72
8
73
4
74
0
42
0.000000001
43
0.0000000001
44
0.0000000001
40
0.92898640119481857
40
0.92898640119481857
40
0.92898640119481857
40
0.92898640119481857
40
1
40
1
40
1
40
1
41
1
41
1
41
1
41
1
10
388.32479399660849
20
69.714534945429861
30
0
10
388.31762456486274
20
69.684834389344118
30
0
10
388.3098617260203
20
69.656434978704965
30
0
10
388.30150548008129
20
69.629552103200794
30
0
0
ARC
5
283
100
AcDbEntity
8
0
100
AcDbCircle
10
378.63395120036239
20
70.87319292363189
30
0
40
0.24999999999998745
210
0
220
0
230
1
100
AcDbArc
50
167.07540984898068
51
269.9999947717177
0
ARC
5
284
100
AcDbEntity
8
0
100
AcDbCircle
10
380.02838994179541
20
70.873192796388395
30
0
40
0.24999999999998684
210
0
220
0
230
1
100
AcDbArc
50
269.9999947717177
51
336.55287888222858
0
ARC
5
285
100
AcDbEntity
8
0
100
AcDbCircle
10
378.64281655236033
20
69.773193610820115
30
0
40
0.25000000000000588
210
0
220
0
230
1
100
AcDbArc
50
90.000027581750658
51
193.73076588394332
0
ARC
5
286
100
AcDbEntity
8
0
100
AcDbCircle
10
380.05206360327566
20
69.773194289219902
30
0
40
0.24999999999998779
210
0
220
-0
230
1
100
AcDbArc
50
25.252938550134882
51
90.000027581750658
0
ARC
5
287
100
AcDbEntity
8
0
100
AcDbCircle
10
386.66939833935095
20
70.873192190456805
30
0
40
0.24999999999997952
210
0
220
0
230
1
100
AcDbArc
50
203.31691036049898
51
269.99999477530025
0
ARC
5
288
100
AcDbEntity
8
0
100
AcDbCircle
10
386.65109843843203
20
69.773197033271174
30
0
40
0.25000000000001754
210
0
220
0
230
1
100
AcDbArc
50
90.000024525942933
51
154.79640197019648
0
ARC
5
289
100
AcDbEntity
8
0
100
AcDbCircle
10
388.0927193629376
20
70.873192060666412
30
0
40
0.25000000000000461
210
0
220
0
230
1
100
AcDbArc
50
-90.00000522469972
51
11.616726982088256
0
ARC
5
290
100
AcDbEntity
8
0
100
AcDbCircle
10
388.08177406409493
20
69.773197645684476
30
0
40
0.25000000000002753
210
0
220
0
230
1
100
AcDbArc
50
-13.571039589760924
51
90.000024525955951
0
LINE
5
291
100
AcDbEntity
8
0
100
AcDbLine
10
176.46339533693049
20
33.935640780143515
30
0
11
175.57886539076836
21
33.935640780143373
31
0
0
LINE
5
292
100
AcDbEntity
8
0
100
AcDbLine
10
175.57886539076836
20
27.32542155535587
30
0
11
176.46339533693049
21
27.32542155535587
31
0
0
LINE
5
293
100
AcDbEntity
8
0
100
AcDbLine
10
170.10992993933445
20
32.517433848905469
30
0
11
153.49360765327251
21
32.517433848905625
31
0
0
LINE
5
294
100
AcDbEntity
8
0
100
AcDbLine
10
153.49360765327251
20
28.743628486593703
30
0
11
170.10992993933471
21
28.743628486593682
31
0
0
LINE
5
295
100
AcDbEntity
8
0
100
AcDbLine
10
153.09360765327253
20
32.017433848905476
30
0
11
152.29360765327255
21
32.017433848905476
31
0
0
LINE
5
296
100
AcDbEntity
8
0
100
AcDbLine
10
152.09360765327253
20
31.817433848905466
30
0
11
152.09360765327253
21
29.443628486593681
31
0
0
LINE
5
297
100
AcDbEntity
8
0
100
AcDbLine
10
152.29360765327249
20
29.243628486593703
30
0
11
153.0936076532725
21
29.243628486593703
31
0
0
LINE
5
298
100
AcDbEntity
8
0
100
AcDbLine
10
184.46924432815396
20
35.311568705858896
30
0
11
184.70654374470558
21
35.390238820079574
31
0
0
LINE
5
299
100
AcDbEntity
8
0
100
AcDbLine
10
184.63195014392224
20
35.779738320698115
30
0
11
183.13450039048089
21
35.692307000553036
31
0
0
LINE
5
300
100
AcDbEntity
8
0
100
AcDbLine
10
182.64315952317662
20
35.529416409780318
30
0
11
180.136931789122
21
33.880531168031574
31
0
0
LINE
5
301
100
AcDbEntity
8
0
100
AcDbLine
10
178.6330108435958
20
33.28293713558898
30
0
11
176.89812497246376
21
32.97702994805978
31
0
0
ARC
5
302
100
AcDbEntity
8
0
100
AcDbCircle
10
183.19278793724808
20
34.694007164859507
30
0
40
1.000000000026932
210
0
220
0
230
1
100
AcDbArc
50
93.341524356079731
51
123.34152435608229
0
ARC
5
303
100
AcDbEntity
8
0
100
AcDbCircle
10
184.6436076532857
20
35.58007835346617
30
0
40
0.20000000009912894
210
-0
220
0
230
1
100
AcDbArc
50
-71.65847564523223
51
93.341524357388892
0
ARC
5
304
100
AcDbEntity
8
0
100
AcDbCircle
10
177.93841813294321
20
37.222168147552026
30
0
40
3.9999999999128955
210
-0
220
0
230
1
100
AcDbArc
50
279.99999999999989
51
303.34152435608274
0
ARC
5
305
100
AcDbEntity
8
0
100
AcDbCircle
10
184.14360765327257
20
30.630531167749741
30
0
40
4.4999999999999929
210
0
220
-0
230
1
100
AcDbArc
50
0
51
85.547565061399993
0
ARC
5
306
100
AcDbEntity
8
0
100
AcDbCircle
10
184.5007123737727
20
35.216648939447985
30
0
40
0.099999999752816995
210
0
220
0
230
1
100
AcDbArc
50
108.34152435607983
51
265.54756506348548
0
LINE
5
307
100
AcDbEntity
8
0
100
AcDbLine
10
178.6330108435958
20
27.978125199910473
30
0
11
176.89812497246368
21
28.284032387439666
31
0
0
ARC
5
308
100
AcDbEntity
8
0
100
AcDbCircle
10
177.93841813294324
20
24.03889418794741
30
0
40
3.9999999999129079
210
-0
220
0
230
1
100
AcDbArc
50
56.658475643917399
51
80.000000000000568
0
LINE
5
309
100
AcDbEntity
8
0
100
AcDbLine
10
182.64315910199443
20
25.731646202821334
30
0
11
180.13693178912203
21
27.380531167467879
31
0
0
ARC
5
310
100
AcDbEntity
8
0
100
AcDbCircle
10
183.19510917320508
20
26.574068160588368
30
0
40
1.0071363542427978
210
0
220
0
230
1
100
AcDbArc
50
236.76741126786015
51
266.65882528161518
0
ARC
5
311
100
AcDbEntity
8
0
100
AcDbCircle
10
184.64360765352964
20
25.680983982020187
30
0
40
0.20000000000795887
210
0
220
0
230
1
100
AcDbArc
50
-92.793004814826716
51
71.658475713850109
0
LINE
5
312
100
AcDbEntity
8
0
100
AcDbLine
10
184.46924432746033
20
25.949493629614917
30
0
11
184.70654374469348
21
25.870823515395593
31
0
0
ARC
5
313
100
AcDbEntity
8
0
100
AcDbCircle
10
184.50071237379532
20
26.04441339589976
30
0
40
0.099999999858474672
210
0
220
0
230
1
100
AcDbArc
50
94.45243494218218
51
251.65847523165459
0
ARC
5
314
100
AcDbEntity
8
0
100
AcDbCircle
10
184.1436076531804
20
30.630531167749741
30
0
40
4.5000000000071436
210
-0
220
0
230
1
100
AcDbArc
50
-85.547565060218673
51
0
0
LINE
5
315
100
AcDbEntity
8
0
100
AcDbLine
10
175.40566031001157
20
33.835640780143457
30
0
11
175.30481669316782
21
33.660974512151299
31
0
0
LINE
5
316
100
AcDbEntity
8
0
100
AcDbLine
10
175.30481669316782
20
27.600087823347899
30
0
11
175.40566031001148
21
27.425421555355779
31
0
0
LINE
5
317
100
AcDbEntity
8
0
100
AcDbLine
10
175.18337542143149
20
33.567789346893541
30
0
11
171.45658050218833
21
32.569197657925997
31
0
0
LINE
5
318
100
AcDbEntity
8
0
100
AcDbLine
10
175.18337542143144
20
27.693272988605663
30
0
11
171.45658050218839
21
28.691864677573221
31
0
0
LINE
5
319
100
AcDbEntity
8
0
100
AcDbLine
10
171.21163152791001
20
32.710619014163271
30
0
11
171.20311510459257
21
32.742402738682834
31
0
0
LINE
5
320
100
AcDbEntity
8
0
100
AcDbLine
10
171.00992993933471
20
32.890638929662266
30
0
11
170.51686073452629
21
32.890638929662266
31
0
0
LINE
5
321
100
AcDbEntity
8
0
100
AcDbLine
10
170.32367556926852
20
32.742402738682792
30
0
11
170.30311510459256
21
32.665670039884866
31
0
0
LINE
5
322
100
AcDbEntity
8
0
100
AcDbLine
10
170.30311510459254
20
28.595392295614182
30
0
11
170.32367556926846
21
28.518659596816267
31
0
0
LINE
5
323
100
AcDbEntity
8
0
100
AcDbLine
10
170.51686073452626
20
28.370423405836739
30
0
11
171.00992993933463
21
28.370423405836675
31
0
0
LINE
5
324
100
AcDbEntity
8
0
100
AcDbLine
10
171.20311510459254
20
28.518659596816182
30
0
11
171.21163152791001
21
28.550443321335898
31
0
0
LINE
5
325
100
AcDbEntity
8
0
100
AcDbLine
10
176.66339533693051
20
27.525421555355891
30
0
11
176.66339533693045
21
28.087070836837178
31
0
0
LINE
5
326
100
AcDbEntity
8
0
100
AcDbLine
10
176.66339533693051
20
33.173991498662247
30
0
11
176.66339533693051
21
33.73564078014352
31
0
0
LINE
5
327
100
AcDbEntity
8
0
100
AcDbLine
10
153.29360765327249
20
32.317433848905623
30
0
11
153.29360765327249
21
32.217433848905458
31
0
0
LINE
5
328
100
AcDbEntity
8
0
100
AcDbLine
10
153.29360765327249
20
29.04362848659369
30
0
11
153.29360765327252
21
28.94362848659371
31
0
0
ARC
5
329
100
AcDbEntity
8
0
100
AcDbCircle
10
176.46339533693052
20
33.735640780143534
30
0
40
0.19999999999999574
210
-0
220
0
230
1
100
AcDbArc
50
0
51
90.000000000008143
0
ARC
5
330
100
AcDbEntity
8
0
100
AcDbCircle
10
175.57886539076836
20
33.73564078014342
30
0
40
0.19999999999995133
210
0
220
-0
230
1
100
AcDbArc
50
90
51
149.99999999997647
0
ARC
5
331
100
AcDbEntity
8
0
100
AcDbCircle
10
176.86339533693052
20
33.173991498662247
30
0
40
0.19999999999999574
210
0
220
0
230
1
100
AcDbArc
50
180
51
279.99999999995725
0
ARC
5
332
100
AcDbEntity
8
0
100
AcDbCircle
10
175.13161161241112
20
33.76097451215113
30
0
40
0.1999999999997531
210
-0
220
0
230
1
100
AcDbArc
50
284.99999999998005
51
330.0000000000154
0
ARC
5
333
100
AcDbEntity
8
0
100
AcDbCircle
10
176.86339533693047
20
28.087070836837178
30
0
40
0.20000000000001519
210
0
220
-0
230
1
100
AcDbArc
50
80.000000000051841
51
180
0
ARC
5
334
100
AcDbEntity
8
0
100
AcDbCircle
10
176.46339533693052
20
27.525421555355855
30
0
40
0.19999999999998241
210
0
220
0
230
1
100
AcDbArc
50
-90.000000000008143
51
0
0
ARC
5
335
100
AcDbEntity
8
0
100
AcDbCircle
10
175.57886539076836
20
27.52542155535593
30
0
40
0.20000000000006746
210
0
220
0
230
1
100
AcDbArc
50
210.00000000003953
51
270
0
ARC
5
336
100
AcDbEntity
8
0
100
AcDbCircle
10
175.13161161241075
20
27.500087823347581
30
0
40
0.20000000000030566
210
0
220
-0
230
1
100
AcDbArc
50
30.000000000052456
51
74.999999999970044
0
ARC
5
337
100
AcDbEntity
8
0
100
AcDbCircle
10
171.40481669316785
20
32.762382823183835
30
0
40
0.2000000000000241
210
0
220
0
230
1
100
AcDbArc
50
195.00000000001523
51
284.99999999999307
0
ARC
5
338
100
AcDbEntity
8
0
100
AcDbCircle
10
171.00992993933471
20
32.690638929662185
30
0
40
0.20000000000008025
210
0
220
-0
230
1
100
AcDbArc
50
15.000000000036712
51
90
0
ARC
5
339
100
AcDbEntity
8
0
100
AcDbCircle
10
170.51686073452626
20
32.690638929662335
30
0
40
0.19999999999992912
210
0
220
-0
230
1
100
AcDbArc
50
89.999999999991857
51
165.00000000000796
0
ARC
5
340
100
AcDbEntity
8
0
100
AcDbCircle
10
170.10992993933422
20
32.717433848906182
30
0
40
0.20000000000071072
210
0
220
0
230
1
100
AcDbArc
50
270.00000000006514
51
344.99999999981424
0
ARC
5
341
100
AcDbEntity
8
0
100
AcDbCircle
10
171.40481669316787
20
28.498679512315363
30
0
40
0.20000000000004234
210
0
220
-0
230
1
100
AcDbArc
50
75.000000000000639
51
164.99999999999474
0
ARC
5
342
100
AcDbEntity
8
0
100
AcDbCircle
10
171.00992993933465
20
28.570423405836731
30
0
40
0.20000000000005791
210
0
220
0
230
1
100
AcDbArc
50
269.99999999999187
51
344.99999999999295
0
ARC
5
343
100
AcDbEntity
8
0
100
AcDbCircle
10
170.51686073452632
20
28.570423405836788
30
0
40
0.20000000000004808
210
0
220
0
230
1
100
AcDbArc
50
195.00000000000128
51
269.99999999998369
0
ARC
5
344
100
AcDbEntity
8
0
100
AcDbCircle
10
170.10992993933473
20
28.543628486593718
30
0
40
0.19999999999996451
210
0
220
-0
230
1
100
AcDbArc
50
14.999999999989797
51
90.000000000008143
0
ARC
5
345
100
AcDbEntity
8
0
100
AcDbCircle
10
153.49360765327253
20
28.943628486593738
30
0
40
0.20000000000003126
210
0
220
0
230
1
100
AcDbArc
50
180
51
269.99999999999187
0
ARC
5
346
100
AcDbEntity
8
0
100
AcDbCircle
10
153.0936076532725
20
29.04362848659369
30
0
40
0.2000000000000135
210
0
220
-0
230
1
100
AcDbArc
50
0
51
90
0
ARC
5
347
100
AcDbEntity
8
0
100
AcDbCircle
10
152.29360765327249
20
29.443628486593681
30
0
40
0.19999999999997797
210
0
220
0
230
1
100
AcDbArc
50
180
51
270
0
ARC
5
348
100
AcDbEntity
8
0
100
AcDbCircle
10
152.29360765327255
20
31.817433848905466
30
0
40
0.20000000000000906
210
0
220
-0
230
1
100
AcDbArc
50
90
51
180
0
ARC
5
349
100
AcDbEntity
8
0
100
AcDbCircle
10
153.09360765327253
20
32.217433848905458
30
0
40
0.19999999999998685
210
0
220
0
230
1
100
AcDbArc
50
-90
51
0
0
ARC
5
350
100
AcDbEntity
8
0
100
AcDbCircle
10
153.49360765327253
20
32.31743384890558
30
0
40
0.20000000000004459
210
0
220
0
230
1
100
AcDbArc
50
90.000000000008143
51
180
0
LINE
5
351
100
AcDbEntity
8
0
100
AcDbLine
10
200.69360765327261
20
36.368031167749805
30
0
11
200.69360765327261
21
22.368031167749784
31
0
0
LINE
5
352
100
AcDbEntity
8
0
100
AcDbLine
10
216.75335321825122
20
25.481221563228715
30
0
11
218.25080350525798
21
25.56864374544449
31
0
0
LINE
5
353
100
AcDbEntity
8
0
100
AcDbLine
10
216.75526516262298
20
35.779738320698115
30
0
11
218.25271491606432
21
35.692307000553036
31
0
0
LINE
5
354
100
AcDbEntity
8
0
100
AcDbLine
10
231.27728536721077
20
32.517433848905469
30
0
11
247.89360765327271
21
32.517433848905625
31
0
0
LINE
5
355
100
AcDbEntity
8
0
100
AcDbLine
10
247.89360765327271
20
28.743628486593703
30
0
11
231.27728536721051
21
28.743628486593682
31
0
0
LINE
5
356
100
AcDbEntity
8
0
100
AcDbLine
10
225.80834991577686
20
27.32542155535587
30
0
11
224.92381996961473
21
27.32542155535587
31
0
0
ARC
5
357
100
AcDbEntity
8
0
100
AcDbCircle
10
248.29360765327269
20
32.217433848905458
30
0
40
0.19999999999999574
210
0
220
0
230
1
100
AcDbArc
50
180
51
270
0
LINE
5
358
100
AcDbEntity
8
0
100
AcDbLine
10
230.1755837786352
20
32.710619014163271
30
0
11
230.18410020195265
21
32.742402738682834
31
0
0
LINE
5
359
100
AcDbEntity
8
0
100
AcDbLine
10
216.91797097839125
20
35.311568705858896
30
0
11
216.68067156183963
21
35.390238820079574
31
0
0
LINE
5
360
100
AcDbEntity
8
0
100
AcDbLine
10
225.98155499653365
20
33.835640780143457
30
0
11
226.08239861337739
21
33.660974512151299
31
0
0
ARC
5
361
100
AcDbEntity
8
0
100
AcDbCircle
10
224.9238199696147
20
33.735640780143534
30
0
40
0.19999999999998685
210
-0
220
0
230
1
100
AcDbArc
50
89.999999999991857
51
180
0
LINE
5
362
100
AcDbEntity
8
0
100
AcDbLine
10
230.3772853672105
20
32.890638929662266
30
0
11
230.87035457201893
21
32.890638929662266
31
0
0
ARC
5
363
100
AcDbEntity
8
0
100
AcDbCircle
10
230.3772853672105
20
32.690638929662185
30
0
40
0.20000000000008011
210
0
220
-0
230
1
100
AcDbArc
50
90
51
164.99999999996328
0
LINE
5
364
100
AcDbEntity
8
0
100
AcDbLine
10
226.20383988511378
20
27.693272988605663
30
0
11
229.93063480435683
21
28.691864677573221
31
0
0
ARC
5
365
100
AcDbEntity
8
0
100
AcDbCircle
10
216.88650293277252
20
35.216648939447985
30
0
40
0.099999999705437437
210
0
220
0
230
1
100
AcDbArc
50
-85.547565063485479
51
71.658475643920184
0
ARC
5
366
100
AcDbEntity
8
0
100
AcDbCircle
10
223.44879717360197
20
24.03889418794741
30
0
40
3.9999999999128977
210
0
220
0
230
1
100
AcDbArc
50
99.999999999999432
51
123.34152435608263
0
ARC
5
367
100
AcDbEntity
8
0
100
AcDbCircle
10
217.24360765327265
20
30.630531167749741
30
0
40
4.4999999999999911
210
0
220
0
230
1
100
AcDbArc
50
94.452434938600035
51
180
0
ARC
5
368
100
AcDbEntity
8
0
100
AcDbCircle
10
217.24360765336482
20
30.630531167749741
30
0
40
4.5000000000921503
210
0
220
0
230
1
100
AcDbArc
50
180
51
265.54756506021869
0
LINE
5
369
100
AcDbEntity
8
0
100
AcDbLine
10
248.29360765327269
20
32.017433848905469
30
0
11
249.09360765327267
21
32.017433848905476
31
0
0
LINE
5
370
100
AcDbEntity
8
0
100
AcDbLine
10
231.08410020195268
20
28.595392295614182
30
0
11
231.06353973727676
21
28.518659596816267
31
0
0
LINE
5
371
100
AcDbEntity
8
0
100
AcDbLine
10
249.09360765327273
20
29.243628486593703
30
0
11
248.29360765327272
21
29.243628486593693
31
0
0
ARC
5
372
100
AcDbEntity
8
0
100
AcDbCircle
10
224.52381996961475
20
28.087070836837178
30
0
40
0.20000000000003126
210
0
220
-0
230
1
100
AcDbArc
50
0
51
99.999999999948159
0
ARC
5
373
100
AcDbEntity
8
0
100
AcDbCircle
10
223.448797173602
20
37.222168147552026
30
0
40
3.9999999999128928
210
0
220
0
230
1
100
AcDbArc
50
236.65847564391723
51
260.00000000000011
0
ARC
5
374
100
AcDbEntity
8
0
100
AcDbCircle
10
247.89360765327268
20
28.943628486593738
30
0
40
0.2000000000000357
210
0
220
0
230
1
100
AcDbArc
50
270.00000000000813
51
360
0
LINE
5
375
100
AcDbEntity
8
0
100
AcDbLine
10
248.0936076532727
20
29.04362848659369
30
0
11
248.0936076532727
21
28.94362848659371
31
0
0
ARC
5
376
100
AcDbEntity
8
0
100
AcDbCircle
10
216.74360765325952
20
35.58007835346617
30
0
40
0.20000000009905405
210
-0
220
0
230
1
100
AcDbArc
50
86.658475642611137
51
251.65847564523224
0
ARC
5
377
100
AcDbEntity
8
0
100
AcDbCircle
10
231.27728536721099
20
32.717433848906182
30
0
40
0.20000000000073426
210
0
220
0
230
1
100
AcDbArc
50
195.00000000018574
51
269.99999999993486
0
LINE
5
378
100
AcDbEntity
8
0
100
AcDbLine
10
230.87035457201895
20
28.370423405836739
30
0
11
230.37728536721059
21
28.370423405836675
31
0
0
ARC
5
379
100
AcDbEntity
8
0
100
AcDbCircle
10
216.88650293274989
20
26.04441339589976
30
0
40
0.099999999858496752
210
0
220
0
230
1
100
AcDbArc
50
-71.658475231644346
51
85.54756505781782
0
ARC
5
380
100
AcDbEntity
8
0
100
AcDbCircle
10
230.87035457201895
20
32.690638929662335
30
0
40
0.19999999999992787
210
0
220
-0
230
1
100
AcDbArc
50
14.999999999992058
51
90.000000000008143
0
LINE
5
381
100
AcDbEntity
8
0
100
AcDbLine
10
226.20383988511372
20
33.567789346893541
30
0
11
229.93063480435688
21
32.569197657925997
31
0
0
ARC
5
382
100
AcDbEntity
8
0
100
AcDbCircle
10
231.27728536721048
20
28.543628486593718
30
0
40
0.19999999999996465
210
0
220
-0
230
1
100
AcDbArc
50
89.999999999991857
51
165.00000000001023
0
LINE
5
383
100
AcDbEntity
8
0
100
AcDbLine
10
224.72381996961471
20
33.173991498662247
30
0
11
224.72381996961471
21
33.73564078014352
31
0
0
ARC
5
384
100
AcDbEntity
8
0
100
AcDbCircle
10
249.09360765327273
20
29.443628486593681
30
0
40
0.19999999999997797
210
0
220
0
230
1
100
AcDbArc
50
-90
51
0
0
ARC
5
385
100
AcDbEntity
8
0
100
AcDbCircle
10
229.98239861337737
20
32.762382823183835
30
0
40
0.20000000000002088
210
0
220
0
230
1
100
AcDbArc
50
255.00000000000696
51
344.99999999998477
0
ARC
5
386
100
AcDbEntity
8
0
100
AcDbCircle
10
216.74360765301557
20
25.680983982020187
30
0
40
0.20000000000796808
210
0
220
0
230
1
100
AcDbArc
50
108.34152428614669
51
272.7930048148267
0
LINE
5
387
100
AcDbEntity
8
0
100
AcDbLine
10
224.92381996961473
20
33.935640780143515
30
0
11
225.80834991577686
21
33.935640780143373
31
0
0
ARC
5
388
100
AcDbEntity
8
0
100
AcDbCircle
10
229.98239861337734
20
28.498679512315363
30
0
40
0.20000000000005153
210
0
220
-0
230
1
100
AcDbArc
50
15.000000000005253
51
104.99999999999937
0
ARC
5
389
100
AcDbEntity
8
0
100
AcDbCircle
10
247.89360765327268
20
32.31743384890558
30
0
40
0.20000000000003126
210
0
220
-0
230
1
100
AcDbArc
50
0
51
89.999999999991857
0
LINE
5
390
100
AcDbEntity
8
0
100
AcDbLine
10
230.18410020195267
20
28.518659596816182
30
0
11
230.1755837786352
21
28.550443321335898
31
0
0
ARC
5
391
100
AcDbEntity
8
0
100
AcDbCircle
10
248.29360765327272
20
29.04362848659369
30
0
40
0.20000000000000462
210
0
220
-0
230
1
100
AcDbArc
50
90
51
180
0
LINE
5
392
100
AcDbEntity
8
0
100
AcDbLine
10
248.0936076532727
20
32.317433848905623
30
0
11
248.0936076532727
21
32.217433848905458
31
0
0
LINE
5
393
100
AcDbEntity
8
0
100
AcDbLine
10
216.91797097908488
20
25.949493629614974
30
0
11
216.68067156185174
21
25.870823515395628
31
0
0
ARC
5
394
100
AcDbEntity
8
0
100
AcDbCircle
10
230.37728536721056
20
28.570423405836731
30
0
40
0.20000000000005497
210
0
220
0
230
1
100
AcDbArc
50
195.00000000000705
51
270.00000000000813
0
LINE
5
395
100
AcDbEntity
8
0
100
AcDbLine
10
249.29360765327272
20
31.817433848905466
30
0
11
249.29360765327266
21
29.443628486593681
31
0
0
ARC
5
396
100
AcDbEntity
8
0
100
AcDbCircle
10
224.9238199696147
20
27.525421555355855
30
0
40
0.19999999999999574
210
0
220
0
230
1
100
AcDbArc
50
180
51
270.00000000000813
0
ARC
5
397
100
AcDbEntity
8
0
100
AcDbCircle
10
249.09360765327267
20
31.817433848905466
30
0
40
0.20000000000003126
210
0
220
-0
230
1
100
AcDbArc
50
0
51
90
0
ARC
5
398
100
AcDbEntity
8
0
100
AcDbCircle
10
218.19210613334013
20
26.574068160588368
30
0
40
1.0071363542427982
210
0
220
0
230
1
100
AcDbArc
50
273.34117471838482
51
303.23258873213985
0
ARC
5
399
100
AcDbEntity
8
0
100
AcDbCircle
10
225.80834991577686
20
33.73564078014342
30
0
40
0.19999999999994822
210
0
220
-0
230
1
100
AcDbArc
50
30.000000000023544
51
90
0
ARC
5
400
100
AcDbEntity
8
0
100
AcDbCircle
10
226.25560369413409
20
33.76097451215113
30
0
40
0.19999999999975374
210
0
220
0
230
1
100
AcDbArc
50
209.99999999998462
51
255.00000000001998
0
ARC
5
401
100
AcDbEntity
8
0
100
AcDbCircle
10
226.25560369413446
20
27.500087823347581
30
0
40
0.20000000000030277
210
0
220
0
230
1
100
AcDbArc
50
105.00000000002996
51
149.99999999994753
0
ARC
5
402
100
AcDbEntity
8
0
100
AcDbCircle
10
230.8703545720189
20
28.570423405836788
30
0
40
0.20000000000004903
210
0
220
0
230
1
100
AcDbArc
50
270.00000000001626
51
344.99999999999869
0
LINE
5
403
100
AcDbEntity
8
0
100
AcDbLine
10
222.75420446294942
20
27.978125199910473
30
0
11
224.48909033408154
21
28.284032387439666
31
0
0
ARC
5
404
100
AcDbEntity
8
0
100
AcDbCircle
10
225.80834991577686
20
27.52542155535593
30
0
40
0.20000000000005791
210
0
220
0
230
1
100
AcDbArc
50
270
51
329.99999999996044
0
ARC
5
405
100
AcDbEntity
8
0
100
AcDbCircle
10
218.19442736929713
20
34.694007164859507
30
0
40
1.0000000000269336
210
0
220
-0
230
1
100
AcDbArc
50
56.658475643917718
51
86.658475643920283
0
ARC
5
406
100
AcDbEntity
8
0
100
AcDbCircle
10
224.52381996961469
20
33.173991498662247
30
0
40
0.19999999999999948
210
0
220
0
230
1
100
AcDbArc
50
-99.999999999957254
51
0
0
LINE
5
407
100
AcDbEntity
8
0
100
AcDbLine
10
226.08239861337739
20
27.600087823347899
30
0
11
225.98155499653373
21
27.425421555355779
31
0
0
LINE
5
408
100
AcDbEntity
8
0
100
AcDbLine
10
218.74405620455079
20
25.731646202821334
30
0
11
221.25028351742318
21
27.380531167467879
31
0
0
LINE
5
409
100
AcDbEntity
8
0
100
AcDbLine
10
222.75420446294942
20
33.28293713558898
30
0
11
224.48909033408145
21
32.97702994805978
31
0
0
LINE
5
410
100
AcDbEntity
8
0
100
AcDbLine
10
231.0635397372767
20
32.742402738682792
30
0
11
231.08410020195265
21
32.665670039884866
31
0
0
LINE
5
411
100
AcDbEntity
8
0
100
AcDbLine
10
224.72381996961471
20
27.525421555355891
30
0
11
224.72381996961477
21
28.087070836837178
31
0
0
LINE
5
412
100
AcDbEntity
8
0
100
AcDbLine
10
218.74405578336859
20
35.529416409780318
30
0
11
221.25028351742321
21
33.880531168031574
31
0
0
LINE
5
413
100
AcDbEntity
8
0
100
AcDbLine
10
184.63386208829399
20
25.481221563228715
30
0
11
183.13641180128724
21
25.56864374544449
31
0
0
ENDSEC
0
SECTION
2
OBJECTS
0
DICTIONARY
5
C
100
AcDbDictionary
3
ACAD_GROUP
350
D
3
ACAD_MLINESTYLE
350
17
0
DICTIONARY
5
D
100
AcDbDictionary
0
DICTIONARY
5
1A
330
C
100
AcDbDictionary
0
DICTIONARY
5
17
100
AcDbDictionary
0
ENDSEC
0
EOF
