0
SECTION
2
HEADER
9
$INSUNITS
70
4
9
$ACADVER
1
AC1014
9
$HANDSEED
5
FFFF
0
ENDSEC
0
SECTION
2
TABLES
0
TABLE
2
VPORT
5
8
100
AcDbSymbolTable
0
ENDTAB
0
TABLE
2
LTYPE
5
5
100
AcDbSymbolTable
0
LTYPE
5
14
100
AcDbSymbolTableRecord
100
AcDbLinetypeTableRecord
2
BYBLOCK
70
0
0
LTYPE
5
15
100
AcDbSymbolTableRecord
100
AcDbLinetypeTableRecord
2
BYLAYER
70
0
0
ENDTAB
0
TABLE
2
LAYER
5
2
100
AcDbSymbolTable
70
2
0
LAYER
5
50
100
AcDbSymbolTableRecord
100
AcDbLayerTableRecord
2
0
70
0
6
CONTINUOUS
0
ENDTAB
0
TABLE
2
STYLE
5
3
100
AcDbSymbolTable
70
1
0
STYLE
5
11
100
AcDbSymbolTableRecord
100
AcDbTextStyleTableRecord
2
STANDARD
70
0
0
ENDTAB
0
TABLE
2
VIEW
5
6
100
AcDbSymbolTable
70
0
0
ENDTAB
0
TABLE
2
UCS
5
7
100
AcDbSymbolTable
70
0
0
ENDTAB
0
TABLE
2
APPID
5
9
100
AcDbSymbolTable
70
2
0
APPID
5
12
100
AcDbSymbolTableRecord
100
AcDbRegAppTableRecord
2
ACAD
70
0
0
ENDTAB
0
TABLE
2
DIMSTYLE
5
A
100
AcDbSymbolTable
70
1
0
ENDTAB
0
TABLE
2
BLOCK_RECORD
5
1
100
AcDbSymbolTable
70
1
0
BLOCK_RECORD
5
1F
100
AcDbSymbolTableRecord
100
AcDbBlockTableRecord
2
*MODEL_SPACE
0
BLOCK_RECORD
5
1B
100
AcDbSymbolTableRecord
100
AcDbBlockTableRecord
2
*PAPER_SPACE
0
ENDTAB
0
ENDSEC
0
SECTION
2
BLOCKS
0
BLOCK
5
20
100
AcDbEntity
100
AcDbBlockBegin
2
*MODEL_SPACE
0
ENDBLK
5
21
100
AcDbEntity
100
AcDbBlockEnd
0
BLOCK
5
1C
100
AcDbEntity
100
AcDbBlockBegin
2
*PAPER_SPACE
0
ENDBLK
5
1D
100
AcDbEntity
100
AcDbBlockEnd
0
ENDSEC
0
SECTION
2
ENTITIES
0
LWPOLYLINE
5
100
100
AcDbEntity
8
0
100
AcDbPolyline
90
8
70
1
43
0.0
10
332.95660765327239
20
97.068031167750064
42
0.41421356237326151
10
333.4566076532725
20
96.568031167750092
10
339.45660765327261
20
96.568031167749979
42
0.41421356237315748
10
339.95660765327273
20
97.068031167750064
10
339.95660765327227
20
111.06803116774999
42
0.41421356237291812
10
339.45660765327256
20
111.56803116775006
10
333.45660765327239
20
111.56803116774998
42
0.41421356237299095
10
332.95660765327239
20
111.06803116775005
0
LWPOLYLINE
5
101
100
AcDbEntity
8
0
100
AcDbPolyline
90
8
70
1
43
0.0
10
288.6561076532729
20
35.868031167749891
42
0.41421356237313928
10
288.15610765327256
20
36.368031167749926
10
275.15610765327261
20
36.368031167749891
42
0.41421356237300661
10
274.65610765327261
20
35.868031167749891
10
274.65610765327261
20
22.868031167749962
42
0.41421356237323809
10
275.15610765327261
20
22.368031167749933
10
288.15610765327273
20
22.368031167749962
42
0.41421356237307161
10
288.65610765327284
20
22.868031167749962
0
LWPOLYLINE
5
102
100
AcDbEntity
8
0
100
AcDbPolyline
90
8
70
1
43
0.0
10
332.81285765327249
20
39.918031167750001
10
332.81285765327243
20
53.918031167750001
42
0.41421356237260598
10
332.31285765327249
20
54.418031167749945
10
326.31285765327249
20
54.418031167750044
42
0.41421356237310542
10
325.8128576532726
20
53.91803116774998
10
325.81285765327254
20
39.918031167749966
42
0.41421356237294155
10
326.31285765327249
20
39.418031167749973
10
332.31285765327266
20
39.41803116774998
42
0.4142135623732095
0
LWPOLYLINE
5
103
100
AcDbEntity
8
0
100
AcDbPolyline
90
8
70
1
43
0.0
10
310.37485765327256
20
54.918031167750037
42
-0.41421356237311063
10
310.87485765327261
20
55.418031167749966
10
323.87485765327256
20
55.418031167750058
42
-0.41421356237299617
10
324.37485765327261
20
54.918031167750037
10
324.37485765327256
20
41.918031167750001
42
-0.41421356237298057
10
323.87485765327256
20
41.41803116774993
10
310.87485765327273
20
41.418031167750009
42
-0.41421356237325629
10
310.37485765327261
20
41.918031167749973
0
LWPOLYLINE
5
104
100
AcDbEntity
8
0
100
AcDbPolyline
90
8
70
1
43
0.0
10
328.63735765327249
20
74.468031167749913
42
-0.41421356237284529
10
329.13735765327255
20
73.968031167750013
10
329.13735765327255
20
60.968031167750034
42
-0.4142135623730534
10
328.63735765327249
20
60.468031167750063
10
315.6373576532726
20
60.468031167749999
42
-0.41421356237313145
10
315.1373576532726
20
60.968031167749999
10
315.13735765327255
20
73.96803116774997
42
-0.41421356237302737
10
315.63735765327249
20
74.468031167749984
0
LWPOLYLINE
5
105
100
AcDbEntity
8
0
100
AcDbPolyline
90
8
70
1
43
0.0
10
330.57535765327253
20
61.968031167750027
42
0.4142135623730222
10
331.07535765327225
20
61.468031167749963
10
337.07535765327259
20
61.468031167750112
42
0.41421356237298057
10
337.57535765327253
20
61.968031167750027
10
337.57535765327259
20
75.968031167750013
42
0.41421356237337598
10
337.07535765327259
20
76.468031167749942
10
331.07535765327259
20
76.468031167749984
42
0.4142135623730534
10
330.57535765327253
20
75.968031167750013
0
LWPOLYLINE
5
106
100
AcDbEntity
8
0
100
AcDbPolyline
90
8
70
1
43
0.0
10
335.78110765327261
20
22.368031167749969
10
322.78110765327256
20
22.368031167749891
42
-0.41421356237323553
10
322.2811076532725
20
22.868031167750029
10
322.28110765327256
20
35.868031167749962
42
-0.41421356237334994
10
322.7811076532725
20
36.368031167750004
10
335.78110765327261
20
36.368031167749983
42
-0.41421356237294155
10
336.28110765327256
20
35.86803116774999
10
336.28110765327273
20
22.868031167750047
42
-0.41421356237315748
0
LWPOLYLINE
5
107
100
AcDbEntity
8
0
100
AcDbPolyline
90
36
70
1
43
0.0
10
389.24225661197198
20
65.337861522375277
10
389.24225661197198
20
64.764556256910424
42
-0.41421356237295975
10
388.99225661197198
20
64.514556256910424
10
387.87592204442717
20
64.51455625691041
10
386.75958747688247
20
64.514556256910424
42
0.41421356237295975
10
386.50958747688253
20
64.26455625691041
10
386.50958747688259
20
62.990568674011705
10
386.50958747688259
20
61.716581091112971
42
-0.41421356237300139
10
386.25958747688259
20
61.466581091113042
10
385.59869945208163
20
61.466581091112964
10
384.93781142728039
20
61.466581091112971
42
-0.41421356237268919
10
384.68781142728034
20
61.716581091112971
10
384.68781142728034
20
62.990568674011705
10
384.68781142728028
20
64.264556256910424
42
0.41421356237311585
10
384.43781142728028
20
64.514556256910438
10
383.35651198774423
20
64.51455625691041
10
382.27521254820851
20
64.514556256910296
42
0.41421356237339679
10
382.02521254820846
20
64.26455625691041
10
382.02521254820846
20
62.990568674011705
10
382.02521254820846
20
61.716581091112971
42
-0.41421356237290774
10
381.77521254820846
20
61.466581091113007
10
381.11432199306449
20
61.466581091112964
10
380.45343396826325
20
61.466581091112872
42
-0.41421356237272045
10
380.20343396826314
20
61.716581091112971
10
380.20343396826325
20
62.990568674011705
10
380.20343396826325
20
64.264556256910424
42
0.41421356237301177
10
379.95343396826331
20
64.514556256910367
10
378.83709940071861
20
64.51455625691041
10
377.72076736351664
20
64.514556256910382
42
-0.41421356237260598
10
377.47076736351687
20
64.764556256910438
10
377.47076736351687
20
65.337861522375277
10
377.47076736351687
20
65.911164257497219
42
-0.41421356237284529
10
377.72076736351687
20
66.161164257497248
10
383.35651198774423
20
66.161164257497219
10
388.99225661197192
20
66.161164257497248
42
-0.41421356237297013
10
389.24225661197198
20
65.911164257497219
0
LWPOLYLINE
5
108
100
AcDbEntity
8
0
100
AcDbPolyline
90
8
70
1
43
0.0
10
316.08060765327252
20
97.068031167749993
10
316.08060765327258
20
111.06803116774999
42
0.41421356237313667
10
315.58060765327235
20
111.56803116775002
10
309.58060765327235
20
111.56803116775001
42
0.41421356237290774
10
309.08060765327252
20
111.06803116774999
10
309.08060765327252
20
97.068031167749979
42
0.41421356237303258
10
309.58060765327235
20
96.568031167749965
10
315.58060765327252
20
96.568031167750064
42
0.41421356237299095
0
LWPOLYLINE
5
109
100
AcDbEntity
8
0
100
AcDbPolyline
90
8
70
1
43
0.0
10
162.04552644922072
20
122.38053116774964
10
158.38206705122082
20
122.38053116774964
42
-0.41421356237309503
10
157.83206705122083
20
122.93053116774963
10
157.8320670512208
20
135.8305311677496
42
-0.41421356237311396
10
158.38206705122082
20
136.38053116774958
10
162.04552644922069
20
136.38053116774967
42
-0.41421356237314239
10
162.59552644922078
20
135.8305311677496
10
162.59552644922076
20
122.93053116774963
42
-0.41421356237310453
0
LWPOLYLINE
5
110
100
AcDbEntity
8
0
100
AcDbPolyline
90
8
70
1
43
0.0
10
323.9724452452208
20
136.38053116774961
42
-0.41421356237310453
10
324.52244524522081
20
135.8305311677496
10
324.52244524522081
20
122.93053116774959
42
-0.41421356237309503
10
323.9724452452208
20
122.38053116774961
10
320.30898584722075
20
122.38053116774958
42
-0.41421356237310453
10
319.75898584722086
20
122.93053116774959
10
319.75898584722086
20
135.8305311677496
42
-0.41421356237304774
10
320.30898584722081
20
136.38053116774972
0
LWPOLYLINE
5
111
100
AcDbEntity
8
0
100
AcDbPolyline
90
8
70
1
43
0.0
10
301.93685765327251
20
53.918031167749945
10
301.93685765327251
20
39.918031167749945
42
0.41421356237317569
10
302.43685765327251
20
39.418031167749945
10
308.43685765327251
20
39.41803116775003
42
0.41421356237324852
10
308.93685765327257
20
39.918031167749945
10
308.93685765327257
20
53.918031167749945
42
0.41421356237300661
10
308.43685765327251
20
54.418031167749945
10
302.43685765327251
20
54.418031167750016
42
0.41421356237308982
0
LWPOLYLINE
5
112
100
AcDbEntity
8
0
100
AcDbPolyline
90
8
70
1
43
0.0
10
243.00898584722091
20
136.38053116774961
42
-0.41421356237310453
10
243.55898584722084
20
135.8305311677496
10
243.55898584722084
20
122.93053116774963
42
-0.41421356237310453
10
243.00898584722091
20
122.38053116774964
10
239.34552644922078
20
122.38053116774965
42
-0.41421356237314239
10
238.79552644922089
20
122.93053116774963
10
238.79552644922086
20
135.8305311677496
42
-0.41421356237315182
10
239.34552644922081
20
136.38053116774958
0
LINE
5
113
100
AcDbEntity
8
0
100
AcDbLine
10
367.90162396676209
20
71.311192701453564
30
0
11
366.71526646320353
21
71.311192701453564
31
0
0
LINE
5
114
100
AcDbEntity
8
0
100
AcDbLine
10
373.12777813815603
20
64.482863701437651
30
0
11
372.81391287517488
21
63.927410426097786
31
0
0
LINE
5
115
100
AcDbEntity
8
0
100
AcDbLine
10
372.90761273850967
20
64.88959862316905
30
0
11
373.02643296918285
21
64.827148406647311
31
0
0
SPLINE
5
116
100
AcDbEntity
8
0
100
AcDbSpline
70
4
71
3
72
8
73
4
74
0
42
0.000000001
43
0.0000000001
44
0.0000000001
40
0
40
0
40
0
40
0
40
1
40
1
40
1
40
1
41
1
41
1
41
1
41
1
10
367.99040494172851
20
68.823764401740362
30
0
10
368.10561398501693
20
69.400697768545783
30
0
10
368.15140433558838
20
69.930803344184383
30
0
10
368.15154983030601
20
70.689335626525263
30
0
0
LINE
5
117
100
AcDbEntity
8
0
100
AcDbLine
10
372.84625192280726
20
72.169530564584335
30
0
11
372.84625192280726
21
71.56119270145355
31
0
0
LWPOLYLINE
5
118
100
AcDbEntity
8
0
100
AcDbPolyline
90
12
70
1
43
0.0
10
374.91327007295752
20
73.518346302953162
10
375.57415936293006
20
73.518346302953177
42
-0.41421356237295975
10
375.82415936293
20
73.268346302953162
10
375.82415936293
20
67.49246369703306
10
375.82415936293
20
61.716581091112971
42
-0.41421356237295975
10
375.57415936293006
20
61.466581091112964
10
374.91327007295718
20
61.466581091112964
10
374.25238078298463
20
61.466581091112872
42
-0.41421356237272045
10
374.00238078298452
20
61.716581091112971
10
374.00238078298486
20
67.492464962204522
10
374.00238078298486
20
73.268346302953162
42
-0.41421356237299095
10
374.25238078298486
20
73.518346302953191
0
SPLINE
5
119
100
AcDbEntity
8
0
100
AcDbSpline
70
4
71
3
72
8
73
4
74
0
42
0.000000001
43
0.0000000001
44
0.0000000001
40
0
40
0
40
0
40
0
40
1
40
1
40
1
40
1
41
1
41
1
41
1
41
1
10
365.48850497829557
20
63.558567399982273
30
0
10
365.3496637973472
20
63.804964602070882
30
0
10
365.14909237063085
20
64.160890227602451
30
0
10
365.04279013440521
20
64.349514640242944
30
0
0
LINE
5
120
100
AcDbEntity
8
0
100
AcDbLine
10
372.84625192280737
20
72.77786842771512
30
0
11
372.84625192280726
21
72.169530564584335
31
0
0
LWPOLYLINE
5
121
100
AcDbEntity
8
0
100
AcDbPolyline
90
32
70
1
43
0.0
10
91.680605639079303
20
78.517532205308513
10
88.918608416161092
20
78.517532205389543
42
-0.4140014648436578
10
87.918608416160978
20
79.517532205389628
10
87.918608416220948
20
96.548538064749522
42
0.41499364517436704
10
86.918608416220948
20
97.548538064749522
10
79.393610705061093
20
97.548538064689424
42
-0.41400146484363703
10
78.393610705060937
20
98.548538064689652
10
78.393610704913726
20
112.54853806474956
42
-0.41399922940613715
10
79.393610705020947
20
113.54853043534952
10
302.67361711366004
20
113.54853043535952
42
-0.41416732502586118
10
303.94360612733311
20
112.27853379228868
10
303.94360612736079
20
95.517532205289655
42
0.41400146483191469
10
304.94360612732083
20
94.517532205349525
10
312.46860002382078
20
94.517532205351642
42
-0.41500890398771656
10
313.468600023823
20
93.517532205348758
10
313.46860002382374
20
79.517532205349511
42
-0.41500890398772644
10
312.4686000238201
20
78.517532205346598
10
300.18060563906096
20
78.517532205309465
42
0.41400146484366041
10
299.18060563906084
20
77.517532205309408
10
299.18060563912093
20
60.467536782949523
42
-0.415008903987515
10
298.18060563912081
20
59.467536782949544
10
290.65561174256106
20
59.467536783009514
42
0.41400146486113959
10
289.65561174262086
20
58.467536782949523
10
289.65561174262086
20
41.417533731249534
42
-0.41500890398749674
10
288.65561174262086
20
40.417533731249542
10
103.20560716502094
20
40.417533731189494
42
-0.41400146486115641
10
102.20560716496095
20
41.417533731189657
10
102.20560716497997
20
58.46753678300783
42
0.41500126915495467
10
101.20560716502098
20
59.467536782949502
10
93.681605089820977
20
59.467536782986258
42
-0.4135808396520721
10
92.680605639057774
20
60.468536233670036
10
92.680605639079914
20
77.517532205307802
42
0.4150012691671866
0
LWPOLYLINE
5
122
100
AcDbEntity
8
0
100
AcDbPolyline
90
146
70
1
43
0.0
10
254.84360765327261
20
38.368031167749919
10
260.84360765327284
20
38.368031167749926
42
-0.41421356237310281
10
261.34360765327273
20
37.868031167749905
10
261.34360765327267
20
20.34754647227615
42
0.414213562373066
10
262.41860765327272
20
19.272546472276137
10
263.38107867612081
20
19.272546472276183
42
-0.19849139057865697
10
264.44006198953554
20
18.8350269156509
10
267.33826612095766
20
15.935924386639645
42
0.19891236740778107
10
268.04537290222078
20
15.643031167749658
10
270.13115934022085
20
15.643031167749648
42
0.41421356237313667
10
270.63115934022085
20
16.143031167749655
10
270.63115934022085
20
19.668031167749657
42
-0.99999999999999989
10
273.63115934022073
20
19.668031167749703
10
273.63115934022079
20
16.143031167749655
42
0.41421356242928037
10
274.1311593403168
20
15.643031167749646
10
276.21694577722081
20
15.643031167749669
42
0.19891236749800006
10
276.92405255872944
20
15.935924386885205
10
279.3918195110208
20
18.403691339349681
42
-0.19891236745315383
10
280.45247968322082
20
18.84303116774965
10
359.05978730937528
20
18.843031168061056
42
-0.19891236735287041
10
360.12044748122082
20
18.403691339749674
10
362.58821443402087
20
15.935924386749694
42
0.19891236741629095
10
363.29532121522078
20
15.643031167872028
10
365.38110765322097
20
15.643031167749676
42
0.41421356237326801
10
365.88110765322091
20
16.143031167749658
10
365.88110765322091
20
19.668031167749703
42
-0.99999999999999989
10
368.88110765322091
20
19.668031167749586
10
368.88110765322097
20
16.143031167749658
42
0.41421356237302609
10
369.38110765322097
20
15.643031167749648
10
371.46689409042091
20
15.643031167749662
42
0.19891236743794305
10
372.17400087170745
20
15.935924386863132
10
374.6417678240125
20
18.403691339321139
42
-0.19891236745762986
10
375.70242799622076
20
18.843031167905359
10
402.98110765322093
20
18.843031167749654
10
405.98110765322082
20
21.843031167749665
10
405.98110765322082
20
135.40553116774959
10
402.98110765322093
20
138.40553116774959
10
396.7524279965088
20
138.4055311674382
42
-0.19891236744407656
10
395.6917678241615
20
138.84487099580889
10
391.22400087188879
20
143.31263794876836
42
0.19891236749900765
10
390.51689409022072
20
143.60553116797124
10
388.43110765322081
20
143.60553116774963
42
0.41421356237294937
10
387.93110765322081
20
143.10553116774963
10
387.93110765322075
20
137.58053116744068
42
-0.99999999999999989
10
384.93110765322092
20
137.58053116774963
10
384.93110765322103
20
143.10553116774963
42
0.41421356237306384
10
384.43110765322081
20
143.6055311677496
10
382.34532121532374
20
143.60553116774963
42
0.19891236740647353
10
381.63821443403435
20
143.31263794893619
10
377.17044748110334
20
138.84487099585235
42
-0.19891236737785384
10
376.10978730922079
20
138.40553116759392
10
354.85610765332098
20
138.40553116774959
42
0.41421356240230373
10
353.85610765322053
20
137.40553116774959
10
353.85610765322087
20
137.38053116764962
42
0.41421356234380308
10
354.85610765322059
20
136.38053116774978
10
363.85610765332092
20
136.38053116774961
42
-0.41421356234378748
10
364.85610765322087
20
135.38053116774961
10
364.85610765322087
20
123.38053116754368
42
-0.41421356231271622
10
363.85610765322093
20
122.38053116774961
10
351.85610765341278
20
122.38053116774965
42
-0.4142135624293064
10
350.85610765322082
20
123.3805311677496
10
350.85610765322082
20
132.33053116774963
42
0.4142135624033807
10
349.85610765311776
20
133.3305311677496
10
342.04744524532083
20
133.3305311677496
42
0.41421356240242335
10
341.04744524522073
20
132.33053116774963
10
341.04744524522084
20
123.38053116754368
42
-0.41421356231281503
10
340.04744524522073
20
122.38053116774957
10
328.04744524541275
20
122.38053116774965
42
-0.4142135624293064
10
327.04744524522079
20
123.3805311677496
10
327.04744524522084
20
135.38053116774961
42
-0.41421356237302737
10
328.04744524522079
20
136.38053116774964
10
337.04744524502075
20
136.38053116774958
42
0.41421356240553464
10
338.04744524522079
20
137.38053116766059
10
338.04744524522079
20
137.40553116774959
42
0.41421356237315227
10
337.04744524522079
20
138.40553116774964
10
272.92742799650875
20
138.40553116743817
42
-0.19891236745404944
10
271.86676782412081
20
138.84487099584959
10
267.39900087192092
20
143.3126379487496
42
0.19891236750831193
10
266.69189409022079
20
143.60553116798081
10
264.60610765322087
20
143.6055311677496
42
0.41421356237309503
10
264.10610765322082
20
143.10553116774963
10
264.10610765322093
20
137.58053116744958
42
-0.99999999999999989
10
261.10610765322087
20
137.58053116774968
10
261.10610765322082
20
143.10553116774963
42
0.41421356237300139
10
260.60610765322082
20
143.60553116774955
10
258.52032121532079
20
143.60553116774958
42
0.19891236740560167
10
257.81321443403431
20
143.31263794893619
10
253.3454474811208
20
138.84487099584956
42
-0.19891236737967138
10
252.28478730922092
20
138.40553116774959
10
187.20242799650885
20
138.40553116743826
42
-0.19891236744408589
10
186.14176782416163
20
138.8448709958088
10
181.67400087188869
20
143.3126379487683
42
0.19891236749889349
10
180.96689409022079
20
143.60553116797129
10
178.88110765322082
20
143.60553116774966
42
0.41421356237298057
10
178.38110765322082
20
143.10553116774963
10
178.38110765322082
20
139.15553116764954
42
-0.99999999999999989
10
175.38110765322085
20
139.15553116774959
10
175.38110765322079
20
143.10553116774963
42
0.41421356237295975
10
174.88110765322085
20
143.6055311677496
10
172.79532121532074
20
143.6055311677496
42
0.19891236740567556
10
172.08821443403428
20
143.31263794893616
10
167.6204474811033
20
138.84487099585226
42
-0.19891236737783213
10
166.55978730922084
20
138.40553116759392
10
101.47742799650885
20
138.4055311674382
42
-0.19891236744406973
10
100.4167678241616
20
138.8448709958088
10
95.9490008718887
20
143.3126379487683
42
0.19891236749894359
10
95.241894090220853
20
143.60553116797124
10
93.1561076532209
20
143.6055311677496
42
0.4142135623730534
10
92.656107653220886
20
143.10553116774963
10
92.656107653220914
20
139.1555311676496
42
-0.99999999999999989
10
89.656107653220829
20
139.15553116774956
10
89.656107653220829
20
143.10553116774963
42
0.41421356237312623
10
89.156107653220843
20
143.6055311677496
10
87.07032121532086
20
143.6055311677496
42
0.198912367405643
10
86.363214434034305
20
143.31263794893616
10
81.895447481103361
20
138.84487099585226
42
-0.19891236737786999
10
80.834787309220829
20
138.40553116774959
10
60.318607653220866
20
138.40553116774959
10
57.318607653220866
20
135.40553116774959
10
57.318607653220901
20
21.843031167749647
10
60.31860765322088
20
18.843031167749629
10
97.122338996420879
20
18.843031167749647
42
-0.1989123673450014
10
98.182999168220917
20
18.403691339749649
10
100.65076612095788
20
15.935924386639613
42
0.19891236740777055
10
101.35787290222089
20
15.643031167749655
10
103.44365934022088
20
15.643031167749633
42
0.41421356237305473
10
103.94365934022089
20
16.143031167749641
10
103.9436593402209
20
19.66803116774966
42
-0.99999999999999989
10
106.94365934022088
20
19.66803116774965
10
106.94365934022088
20
16.143031167749644
42
0.41421356237309503
10
107.44365934022088
20
15.643031167749635
10
109.52944577742089
20
15.643031167749641
42
0.1989123674379307
10
110.23655255870743
20
15.9359243868631
10
113.12945489438442
20
18.832300667384644
42
-0.1992662624470769
10
114.1917819075897
20
19.272546472276154
10
138.9686076532725
20
19.272546472276161
42
0.41421356237310597
10
140.04360765327246
20
20.347546472276164
10
140.04360765327249
20
37.868031167749685
42
-0.41421356237309243
10
140.54360765327249
20
38.368031167749685
10
146.54360765327249
20
38.368031167749699
42
-0.41421356237305601
10
147.04360765327249
20
37.868031167749685
10
147.04360765327249
20
20.347546472276164
42
0.41421356237308415
10
148.11860765327253
20
19.272546472276161
10
253.26860765327254
20
19.272546472276183
42
0.414213562373066
10
254.34360765327256
20
20.347546472276164
10
254.34360765327256
20
37.868031167749905
42
-0.41421356237307683
0
LINE
5
123
100
AcDbEntity
8
0
100
AcDbLine
10
371.40984962958777
20
71.311192701453564
30
0
11
370.22344733636834
21
71.311192701453564
31
0
0
LINE
5
124
100
AcDbEntity
8
0
100
AcDbLine
10
369.97344733636845
20
71.06119270145355
30
0
11
369.97344733636828
21
70.706851925358222
31
0
0
SPLINE
5
125
100
AcDbEntity
8
0
100
AcDbSpline
70
4
71
3
72
8
73
4
74
0
42
0.000000001
43
0.0000000001
44
0.0000000001
40
0
40
0
40
0
40
0
40
0.2329002149029587
40
0.2329002149029587
40
0.2329002149029587
40
0.2329002149029587
41
1
41
1
41
1
41
1
10
365.04279013440521
20
64.349514640242944
30
0
10
365.01803232074371
20
64.39344530648286
30
0
10
364.99464582763727
20
64.435791396637669
30
0
10
364.97342674572405
20
64.474986573987806
30
0
0
LINE
5
126
100
AcDbEntity
8
0
100
AcDbLine
10
368.15154983030601
20
70.689335626525263
30
0
11
368.15162396179289
21
71.061142856076913
31
0
0
LINE
5
127
100
AcDbEntity
8
0
100
AcDbLine
10
365.27886480256967
20
71.561192701453663
30
0
11
365.27886480256967
21
72.169530564584377
31
0
0
LINE
5
128
100
AcDbEntity
8
0
100
AcDbLine
10
372.59625192280731
20
71.311192701453564
30
0
11
371.40984962958777
21
71.311192701453564
31
0
0
LINE
5
129
100
AcDbEntity
8
0
100
AcDbLine
10
365.52886480256967
20
73.027868427715134
30
0
11
369.06255804639579
21
73.027868427715163
31
0
0
SPLINE
5
130
100
AcDbEntity
8
0
100
AcDbSpline
70
4
71
3
72
8
73
4
74
0
42
0.000000001
43
0.0000000001
44
0.0000000001
40
0
40
0
40
0
40
0
40
1
40
1
40
1
40
1
41
1
41
1
41
1
41
1
10
369.01148180947371
20
66.63256461232335
30
0
10
368.6492644862825
20
65.377241249170169
30
0
10
367.33788264100662
20
63.844073582173792
30
0
10
366.13717166900011
20
63.272135112283657
30
0
0
SPLINE
5
131
100
AcDbEntity
8
0
100
AcDbSpline
70
4
71
3
72
8
73
4
74
0
42
0.000000001
43
0.0000000001
44
0.0000000001
40
0
40
0
40
0
40
0
40
1
40
1
40
1
40
1
41
1
41
1
41
1
41
1
10
372.81391287517488
20
63.927410426097786
30
0
10
372.31727614528052
20
63.048503405406393
30
0
10
372.38293348325351
20
63.10204546149965
30
0
10
372.01514561013374
20
63.276036901059463
30
0
0
LINE
5
132
100
AcDbEntity
8
0
100
AcDbLine
10
369.16975222849931
20
66.540332347879712
30
0
11
369.07168499329208
21
66.841210363283238
31
0
0
SPLINE
5
133
100
AcDbEntity
8
0
100
AcDbSpline
70
4
71
3
72
8
73
4
74
0
42
0.000000001
43
0.0000000001
44
0.0000000001
40
0.80292892228941903
40
0.80292892228941903
40
0.80292892228941903
40
0.80292892228941903
40
1
40
1
40
1
40
1
41
1
41
1
41
1
41
1
10
365.08053284069456
20
64.817140784240408
30
0
10
365.11012514855736
20
64.832093070692906
30
0
10
365.1414758529603
20
64.847855609051635
30
0
10
365.17375182751437
20
64.863999143892329
30
0
0
SPLINE
5
134
100
AcDbEntity
8
0
100
AcDbSpline
70
4
71
3
72
8
73
4
74
0
42
0.000000001
43
0.0000000001
44
0.0000000001
40
0
40
0
40
0
40
0
40
1
40
1
40
1
40
1
41
1
41
1
41
1
41
1
10
369.97344733636828
20
70.706851925358222
30
0
10
369.97344733636828
20
70.374464814798671
30
0
10
369.98937331467886
20
69.92909283237347
30
0
10
370.00880255275598
20
69.717136127708571
30
0
0
SPLINE
5
135
100
AcDbEntity
8
0
100
AcDbSpline
70
4
71
3
72
8
73
4
74
0
42
0.000000001
43
0.0000000001
44
0.0000000001
40
0
40
0
40
0
40
0
40
1
40
1
40
1
40
1
41
1
41
1
41
1
41
1
10
366.40160895090497
20
65.774639195087786
30
0
10
367.22496229288532
20
66.59697660438745
30
0
10
367.74504771057821
20
67.595093140516781
30
0
10
367.99040494172851
20
68.823764401740362
30
0
0
LINE
5
136
100
AcDbEntity
8
0
100
AcDbLine
10
147.04360765327249
20
20.918031167749707
30
0
11
147.04360765327249
21
37.868031167749685
31
0
0
LINE
5
137
100
AcDbEntity
8
0
100
AcDbLine
10
261.34360765327273
20
20.918031167749906
30
0
11
261.34360765327273
21
37.868031167749905
31
0
0
LINE
5
138
100
AcDbEntity
8
0
100
AcDbLine
10
254.34360765327256
20
37.868031167749905
30
0
11
254.3436076532727
21
20.918031167749888
31
0
0
LINE
5
139
100
AcDbEntity
8
0
100
AcDbLine
10
369.06255804639579
20
73.027868427715163
30
0
11
372.59625192280731
21
73.027868427715163
31
0
0
LWPOLYLINE
5
140
100
AcDbEntity
8
0
100
AcDbPolyline
90
8
70
1
43
0.0
10
82.10610765322086
20
79.518031167749626
42
0.41421356237301177
10
82.60610765322086
20
80.018031167749641
10
82.60610765322086
20
93.018031167749641
42
0.4142135623730534
10
82.10610765322086
20
93.518031167749655
10
81.606107653220874
20
93.518031167749655
42
0.41421356237307422
10
81.10610765322086
20
93.018031167749641
10
81.106107653220846
20
80.018031167749641
42
0.41421356237314705
10
81.606107653220874
20
79.518031167749626
0
LINE
5
141
100
AcDbEntity
8
0
100
AcDbLine
10
140.04360765327249
20
37.868031167749685
30
0
11
140.04360765327252
21
20.918031167749614
31
0
0
LWPOLYLINE
5
142
100
AcDbEntity
8
0
100
AcDbPolyline
90
8
70
1
43
0.0
10
84.987357653220869
20
60.968031167749615
10
84.987357653220883
20
73.968031167749601
42
0.414213562373069
10
84.48735765322084
20
74.468031167749601
10
83.987357653220869
20
74.468031167749601
42
0.41421356237305862
10
83.487357653220883
20
73.968031167749601
10
83.487357653220883
20
60.968031167749615
42
0.4142135623730378
10
83.987357653220869
20
60.468031167749615
10
84.487357653220869
20
60.468031167749615
42
0.4142135623730378
0
LWPOLYLINE
5
143
100
AcDbEntity
8
0
100
AcDbPolyline
90
8
70
1
43
0.0
10
318.78110765327227
20
80.018031167750067
42
0.41421356237314705
10
319.28110765327227
20
79.518031167750038
10
319.78110765327244
20
79.518031167750081
42
0.41421356237298057
10
320.28110765327227
20
80.018031167750067
10
320.28110765327227
20
93.018031167749939
42
0.41421356237297013
10
319.78110765327239
20
93.518031167749953
10
319.28110765327227
20
93.518031167749953
42
0.41421356237321988
10
318.78110765327227
20
93.018031167749939
0
SPLINE
5
144
100
AcDbEntity
8
0
100
AcDbSpline
70
4
71
3
72
8
73
4
74
0
42
0.000000001
43
0.0000000001
44
0.0000000001
40
0
40
0
40
0
40
0
40
1
40
1
40
1
40
1
41
1
41
1
41
1
41
1
10
366.13717166900011
20
63.272135112283657
30
0
10
365.72116178576692
20
63.073976367537355
30
0
10
365.77490184119324
20
63.05024934201812
30
0
10
365.48847334900893
20
63.558564869639369
30
0
0
LWPOLYLINE
5
145
100
AcDbEntity
8
0
100
AcDbPolyline
90
8
70
1
43
0.0
10
61.606107653220896
20
93.018031167749641
10
61.60610765322091
20
80.018031167749641
42
0.41421356237313667
10
62.106107653220882
20
79.518031167749626
10
62.606107653220889
20
79.518031167749626
42
0.41421356237310542
10
63.106107653220889
20
80.018031167749641
10
63.106107653220896
20
93.018031167749641
42
0.4142135623730534
10
62.606107653220889
20
93.518031167749655
10
62.106107653220882
20
93.518031167749626
42
0.414213562373069
0
LINE
5
146
100
AcDbEntity
8
0
100
AcDbLine
10
366.71526646320353
20
71.311192701453564
30
0
11
365.52886480256967
21
71.311192701453606
31
0
0
LINE
5
147
100
AcDbEntity
8
0
100
AcDbLine
10
369.07168499329208
20
66.841210363283238
30
0
11
369.01148180947371
21
66.63256461232335
31
0
0
SPLINE
5
148
100
AcDbEntity
8
0
100
AcDbSpline
70
4
71
3
72
8
73
4
74
0
42
0.000000001
43
0.0000000001
44
0.0000000001
40
0
40
0
40
0
40
0
40
1
40
1
40
1
40
1
41
1
41
1
41
1
41
1
10
372.01514561013374
20
63.276036901059463
30
0
10
370.86419130121874
20
63.820526211001578
30
0
10
369.57368351982473
20
65.301022259867636
30
0
10
369.16975222849931
20
66.540332347879712
30
0
0
SPLINE
5
149
100
AcDbEntity
8
0
100
AcDbSpline
70
4
71
3
72
8
73
4
74
0
42
0.000000001
43
0.0000000001
44
0.0000000001
40
0
40
0
40
0
40
0
40
1
40
1
40
1
40
1
41
1
41
1
41
1
41
1
10
382.62079454230161
20
67.165936860665937
30
0
10
380.43450994399802
20
67.326425125256861
30
0
10
378.88219517215981
20
68.203977147316991
30
0
10
378.45472663103345
20
69.521091484468201
30
0
0
LINE
5
150
100
AcDbEntity
8
0
100
AcDbLine
10
365.48847334900893
20
63.558564869639369
30
0
11
365.48850497829557
21
63.558567399982273
31
0
0
LINE
5
151
100
AcDbEntity
8
0
100
AcDbLine
10
365.27886480256967
20
72.169530564584377
30
0
11
365.27886480256967
21
72.777868427715163
31
0
0
SPLINE
5
152
100
AcDbEntity
8
0
100
AcDbSpline
70
4
71
3
72
8
73
4
74
0
42
0.000000001
43
0.0000000001
44
0.0000000001
40
0
40
0
40
0
40
0
40
1
40
1
40
1
40
1
41
1
41
1
41
1
41
1
10
379.09609771052658
20
72.204491047477234
30
0
10
379.7683769287334
20
72.882505287902006
30
0
10
380.74729322281939
20
73.290214381200542
30
0
10
382.18286809390548
20
73.490102615329661
30
0
0
SPLINE
5
153
100
AcDbEntity
8
0
100
AcDbSpline
70
4
71
3
72
8
73
4
74
0
42
0.000000001
43
0.0000000001
44
0.0000000001
40
0
40
0
40
0
40
0
40
1
40
1
40
1
40
1
41
1
41
1
41
1
41
1
10
365.17375182751437
20
64.863999143892329
30
0
10
365.63972396420098
20
65.097061438815899
30
0
10
365.96395894247217
20
65.337532577796253
30
0
10
366.40160895090497
20
65.774639195087786
30
0
0
SPLINE
5
154
100
AcDbEntity
8
0
100
AcDbSpline
70
4
71
3
72
8
73
4
74
0
42
0.000000001
43
0.0000000001
44
0.0000000001
40
0
40
0
40
0
40
0
40
1
40
1
40
1
40
1
41
1
41
1
41
1
41
1
10
370.00880255275598
20
69.717136127708571
30
0
10
370.21499007557344
20
67.467873824579655
30
0
10
371.23543688793256
20
65.768472749402562
30
0
10
372.90761273850967
20
64.88959862316905
30
0
0
LWPOLYLINE
5
155
100
AcDbEntity
8
0
100
AcDbPolyline
90
8
70
1
43
0.0
10
338.28110765327239
20
93.018031167749996
10
338.28110765327239
20
80.018031167749953
42
0.41421356237333434
10
338.78110765327244
20
79.518031167749953
10
339.28110765327244
20
79.518031167749882
42
0.41421356237307422
10
339.78110765327244
20
80.018031167749953
10
339.78110765327239
20
93.018031167749996
42
0.41421356237309503
10
339.28110765327244
20
93.518031167750053
10
338.78110765327244
20
93.518031167749967
42
0.41421356237338641
0
LWPOLYLINE
5
156
100
AcDbEntity
8
0
100
AcDbPolyline
90
8
70
1
43
0.0
10
363.85610765322093
20
79.518031167749697
10
351.85610765322082
20
79.518031167749626
42
-0.41421356237313145
10
350.85610765322082
20
80.518031167749626
10
350.85610765322082
20
92.518031167749641
42
-0.41421356237313667
10
351.85610765322082
20
93.518031167749655
10
363.85610765332382
20
93.518031167749655
42
-0.41421356234277296
10
364.85610765322087
20
92.518031167749641
10
364.85610765322087
20
80.518031167549623
42
-0.41421356231454759
0
SPLINE
5
157
100
AcDbEntity
8
0
100
AcDbSpline
70
4
71
3
72
8
73
4
74
0
42
0.000000001
43
0.0000000001
44
0.0000000001
40
0
40
0
40
0
40
0
40
0.06739511567985447
40
0.06739511567985447
40
0.06739511567985447
40
0.06739511567985447
41
1
41
1
41
1
41
1
10
378.45472663103345
20
69.521091484468201
30
0
10
378.43397057800632
20
69.585045018752751
30
0
10
378.41572486533033
20
69.64933867334193
30
0
10
378.39996110088174
20
69.713853660641561
30
0
0
LINE
5
158
100
AcDbEntity
8
0
100
AcDbLine
10
386.6693983165539
20
70.623192190456834
30
0
11
388.09271934014055
21
70.623192060666412
31
0
0
SPLINE
5
159
100
AcDbEntity
8
0
100
AcDbSpline
70
4
71
3
72
8
73
4
74
0
42
0.000000001
43
0.0000000001
44
0.0000000001
40
0
40
0
40
0
40
0
40
1
40
1
40
1
40
1
41
1
41
1
41
1
41
1
10
382.18286809390548
20
73.490102615329661
30
0
10
382.59378819236395
20
73.547318729336354
30
0
10
384.07918804580027
20
73.547726114545753
30
0
10
384.51264084792172
20
73.490745322430243
30
0
0
SPLINE
5
160
100
AcDbEntity
8
0
100
AcDbSpline
70
4
71
3
72
8
73
4
74
0
42
0.000000001
43
0.0000000001
44
0.0000000001
40
0.98583929616478683
40
0.98583929616478683
40
0.98583929616478683
40
0.98583929616478683
40
1
40
1
40
1
40
1
41
1
41
1
41
1
41
1
10
380.27817191994478
20
69.879848070836744
30
0
10
380.28002629842916
20
69.875916748465528
30
0
10
380.28190660889032
20
69.872009814024565
30
0
10
380.2838128413191
20
69.86812801533739
30
0
0
LINE
5
161
100
AcDbEntity
8
0
100
AcDbLine
10
378.6339511775497
20
70.623192923631905
30
0
11
380.02838991898284
21
70.623192796388409
31
0
0
ARC
5
162
100
AcDbEntity
8
0
100
AcDbCircle
10
365.52886480256967
20
72.777868427715163
30
0
40
0.24999999999998579
210
0
220
-0
230
1
100
AcDbArc
50
90
51
180
0
ARC
5
163
100
AcDbEntity
8
0
100
AcDbCircle
10
386.66939833935095
20
70.873192190456805
30
0
40
0.2500000000000227
210
0
220
0
230
1
100
AcDbArc
50
203.31691035998878
51
269.99999477530025
0
SPLINE
5
164
100
AcDbEntity
8
0
100
AcDbSpline
70
4
71
3
72
8
73
4
74
0
42
0.000000001
43
0.0000000001
44
0.0000000001
40
0
40
0
40
0
40
0
40
0.66535465217256007
40
0.66535465217256007
40
0.66535465217256007
40
0.66535465217256007
41
1
41
1
41
1
41
1
10
385.61861578116975
20
69.156128739213685
30
0
10
386.02019229429573
20
69.350134712155068
30
0
10
386.28957474542176
20
69.592125610645482
30
0
10
386.42489836022662
20
69.879656061164255
30
0
0
ARC
5
165
100
AcDbEntity
8
0
100
AcDbCircle
10
370.22344733636834
20
71.06119270145355
30
0
40
0.25000000000000355
210
0
220
-0
230
1
100
AcDbArc
50
90
51
180
0
LWPOLYLINE
5
166
100
AcDbEntity
8
0
100
AcDbPolyline
90
61
70
1
43
0.0
10
229.93063480435691
20
32.569197657925969
42
0.41421356237291362
10
230.17558377863514
20
32.710619014163278
10
230.18410020195262
20
32.742402738682841
42
-0.33945425886321429
10
230.3772853672105
20
32.890638929662252
10
230.87035457201893
20
32.890638929662266
42
-0.33945425886353547
10
231.0635397372767
20
32.742402738682806
10
231.08410020195268
20
32.665670039884859
42
0.33945425886210145
10
231.27728536721079
20
32.517433848905448
10
247.89360765327288
20
32.51743384890564
42
-0.41421356237317958
10
248.09360765327287
20
32.31743384890558
10
248.09360765327284
20
32.217433848905451
42
0.41421356237319257
10
248.29360765327272
20
32.017433848905483
10
249.09360765327281
20
32.017433848905512
42
-0.41421356237316659
10
249.29360765327274
20
31.817433848905466
10
249.29360765327274
20
29.443628486593685
42
-0.41421356237291296
10
249.09360765327281
20
29.243628486593689
10
248.29360765327272
20
29.243628486593686
42
0.41421356237314055
10
248.09360765327284
20
29.043628486593693
10
248.09360765327287
20
28.943628486593735
42
-0.41421356237290641
10
247.89360765327274
20
28.743628486593717
10
231.27728536721048
20
28.743628486593686
42
0.33945425886337077
10
231.08410020195271
20
28.595392295614186
10
231.06353973727687
20
28.518659596816288
42
-0.33945425886317687
10
230.87035457201893
20
28.370423405836732
10
230.37728536721062
20
28.370423405836668
42
-0.33945425886333569
10
230.18410020195284
20
28.518659596816178
10
230.1755837786352
20
28.550443321335905
42
0.41421356237294166
10
229.93063480435691
20
28.691864677573271
10
226.20383988511378
20
27.693272988605649
42
0.19891236737943235
10
226.08239861337739
20
27.600087823347895
10
225.98155499653373
20
27.425421555355793
42
-0.26794919243076182
10
225.80834991577689
20
27.325421555355852
10
224.92381996961484
20
27.325421555355863
42
-0.41421356237318607
10
224.72381996961477
20
27.525421555355848
10
224.72381996961485
20
28.087070836837178
42
0.46630765815461767
10
224.48909033408165
20
28.284032387439684
10
222.75420446294945
20
27.97812519991048
42
0.10220022290589031
10
221.25028351742318
20
27.380531167467872
10
218.74405620455082
20
25.731646202821345
42
-0.13117051986200415
10
218.25080350525798
20
25.568643745444483
10
216.75335321825131
20
25.481221563228715
42
-0.87275124595486064
10
216.68067156185177
20
25.870823515395625
10
216.91797097908491
20
25.949493629614974
42
0.81853452918196223
10
216.89426607883689
20
26.144111608108005
42
-0.39163180955014426
10
212.74360765327262
20
30.630531167749737
42
-0.39163180955609517
10
216.89426607884442
20
35.116950727306794
42
0.81853453222703021
10
216.91797097837639
20
35.311568705813926
10
216.68067156183969
20
35.390238820079659
42
-0.87697646301283572
10
216.75526516262298
20
35.779738320698108
10
218.25271491606429
20
35.692307000553051
42
-0.13165249758743522
10
218.74405578336862
20
35.529416409780325
10
221.25028351742318
20
33.880531168031581
42
0.10220022290588808
10
222.75420446294945
20
33.282937135588988
10
224.48909033408142
20
32.977029948059752
42
0.46630765815463815
10
224.72381996961485
20
33.173991498662247
10
224.72381996961479
20
33.735640780143534
42
-0.41421356237323159
10
224.92381996961484
20
33.93564078014353
10
225.80834991577689
20
33.935640780143373
42
-0.26794919243120174
10
225.98155499653359
20
33.83564078014345
10
226.08239861337739
20
33.660974512151299
42
0.19891236737984105
10
226.20383988511367
20
33.567789346893527
0
LWPOLYLINE
5
167
100
AcDbEntity
8
0
100
AcDbPolyline
90
8
70
1
43
0.0
10
382.90610765322083
20
22.368031167749681
10
370.90610765322083
20
22.368031167749642
42
-0.41421356237303519
10
369.90610765322089
20
23.368031167749663
10
369.90610765322083
20
35.368031167749656
42
-0.41421356237302481
10
370.90610765322083
20
36.368031167749692
10
382.90610765332087
20
36.368031167749685
42
-0.41421356234387985
10
383.90610765322089
20
35.368031167749656
10
383.90610765322089
20
23.368031167549642
42
-0.41421356231445783
0
SPLINE
5
168
100
AcDbEntity
8
0
100
AcDbSpline
70
4
71
3
72
8
73
4
74
0
42
0.000000001
43
0.0000000001
44
0.0000000001
40
0.92898640119481835
40
0.92898640119481835
40
0.92898640119481835
40
0.92898640119481835
40
1
40
1
40
1
40
1
41
1
41
1
41
1
41
1
10
388.32479399660872
20
69.714534945429861
30
0
10
388.31762456486274
20
69.684834389344118
30
0
10
388.3098617260203
20
69.656434978704965
30
0
10
388.30150548008129
20
69.629552103200794
30
0
0
SPLINE
5
169
100
AcDbEntity
8
0
100
AcDbSpline
70
4
71
3
72
8
73
4
74
0
42
0.000000001
43
0.0000000001
44
0.0000000001
40
0
40
0
40
0
40
0
40
1
40
1
40
1
40
1
41
1
41
1
41
1
41
1
10
382.86603537767797
20
68.758051396223237
30
0
10
383.44319900568848
20
68.729220669043343
30
0
10
383.92104161357764
20
68.745116283238886
30
0
10
384.37676649404182
20
68.808301476183388
30
0
0
SPLINE
5
170
100
AcDbEntity
8
0
100
AcDbSpline
70
4
71
3
72
8
73
4
74
0
42
0.000000001
43
0.0000000001
44
0.0000000001
40
0.4917228766559516
40
0.4917228766559516
40
0.4917228766559516
40
0.4917228766559516
40
1
40
1
40
1
40
1
41
1
41
1
41
1
41
1
10
378.39028487782861
20
70.929110034276732
30
0
10
378.49861479752121
20
71.40117221432709
30
0
10
378.73794543332929
20
71.843284246161616
30
0
10
379.09609771052658
20
72.204491047477234
30
0
0
SPLINE
5
171
100
AcDbEntity
8
0
100
AcDbSpline
70
4
71
3
72
8
73
4
74
0
42
0.000000001
43
0.0000000001
44
0.0000000001
40
0
40
0
40
0
40
0
40
1
40
1
40
1
40
1
41
1
41
1
41
1
41
1
10
386.90817215362762
20
72.751353819074112
30
0
10
387.62184272124699
20
72.333926943808379
30
0
10
388.0794096913537
20
71.780444795144376
30
0
10
388.30150548008129
20
71.065954396420295
30
0
0
ARC
5
172
100
AcDbEntity
8
0
100
AcDbCircle
10
380.02838994179535
20
70.873192796388409
30
0
40
0.24999999999998684
210
0
220
0
230
1
100
AcDbArc
50
269.99999477175675
51
336.55287888223751
0
ARC
5
173
100
AcDbEntity
8
0
100
AcDbCircle
10
388.08177406409493
20
69.773197645684476
30
0
40
0.25000000000003886
210
0
220
0
230
1
100
AcDbArc
50
-13.571039590045901
51
90.000024525968982
0
LWPOLYLINE
5
174
100
AcDbEntity
8
0
100
AcDbPolyline
90
8
70
1
43
0.0
10
66.10610765322086
20
93.518031167749598
10
78.106107653323846
20
93.518031167749712
42
-0.41421356234293422
10
79.106107653220874
20
92.518031167749641
10
79.106107653220889
20
80.518031167549651
42
-0.41421356231448253
10
78.10610765322086
20
79.518031167749626
10
66.10610765322086
20
79.518031167749626
42
-0.41421356237310802
10
65.106107653220889
20
80.518031167749626
10
65.106107653220917
20
92.518031167749641
42
-0.41421356237312101
0
SPLINE
5
175
100
AcDbEntity
8
0
100
AcDbSpline
70
4
71
3
72
8
73
4
74
0
42
0.000000001
43
0.0000000001
44
0.0000000001
40
0
40
0
40
0
40
0
40
1
40
1
40
1
40
1
41
1
41
1
41
1
41
1
10
384.37676649404182
20
68.808304006526285
30
0
10
384.90278936138634
20
68.881237345552947
30
0
10
385.25216392910949
20
68.979092031954991
30
0
10
385.61861578116975
20
69.156128739213685
30
0
0
ARC
5
176
100
AcDbEntity
8
0
100
AcDbCircle
10
372.91012289561331
20
64.605852300070254
30
0
40
0.24999999999981604
210
0
220
0
230
1
100
AcDbArc
50
-29.4691193947762
51
62.274225410824492
0
SPLINE
5
177
100
AcDbEntity
8
0
100
AcDbSpline
70
4
71
3
72
8
73
4
74
0
42
0.000000001
43
0.0000000001
44
0.0000000001
40
0
40
0
40
0
40
0
40
1
40
1
40
1
40
1
41
1
41
1
41
1
41
1
10
384.51264084792172
20
73.490745322430243
30
0
10
385.51408984567075
20
73.359089050190661
30
0
10
386.26582689211205
20
73.127061665519548
30
0
10
386.90817215362762
20
72.751353819074112
30
0
0
SPLINE
5
178
100
AcDbEntity
8
0
100
AcDbSpline
70
4
71
3
72
8
73
4
74
0
42
0.000000001
43
0.0000000001
44
0.0000000001
40
0.19035717850956552
40
0.19035717850956552
40
0.19035717850956552
40
0.19035717850956552
40
1
40
1
40
1
40
1
41
1
41
1
41
1
41
1
10
386.43981593948479
20
70.77423805122271
30
0
10
386.1946408904862
20
71.343065960497952
30
0
10
385.44305566447889
20
71.752450284204741
30
0
10
384.31256663358823
20
71.91230729033154
30
0
0
SPLINE
5
179
100
AcDbEntity
8
0
100
AcDbSpline
70
4
71
3
72
8
73
4
74
0
42
0.000000001
43
0.0000000001
44
0.0000000001
40
0
40
0
40
0
40
0
40
0.036877195203852631
40
0.036877195203852631
40
0.036877195203852631
40
0.036877195203852631
41
1
41
1
41
1
41
1
10
380.27130535628737
20
70.803193466696769
30
0
10
380.26660532669661
20
70.793551309661638
30
0
10
380.26208588858145
20
70.78372147251963
30
0
10
380.25774686517445
20
70.77371716269792
30
0
0
LINE
5
180
100
AcDbEntity
8
0
100
AcDbLine
10
377.24152917039811
20
72.501229049240663
30
0
11
377.37281802585096
21
72.501229049240663
31
0
0
ARC
5
181
100
AcDbEntity
8
0
100
AcDbCircle
10
367.90162396676232
20
71.061192701453692
30
0
40
0.24999999999985734
210
0
220
0
230
1
100
AcDbArc
50
-0.011423718948867342
51
90.000000000052111
0
ARC
5
182
100
AcDbEntity
8
0
100
AcDbCircle
10
380.05206360327571
20
69.773194289219887
30
0
40
0.24999999999999539
210
0
220
-0
230
1
100
AcDbArc
50
25.252938549905839
51
90.00002758177672
0
SPLINE
5
183
100
AcDbEntity
8
0
100
AcDbSpline
70
4
71
3
72
8
73
4
74
0
42
0.000000001
43
0.0000000001
44
0.0000000001
40
0
40
0
40
0
40
0
40
1
40
1
40
1
40
1
41
1
41
1
41
1
41
1
10
384.19733228687079
20
67.17892384568006
30
0
10
383.82594373578223
20
67.145222208387707
30
0
10
382.99611271593801
20
67.138387752172804
30
0
10
382.62079201195883
20
67.1659381258374
30
0
0
ARC
5
184
100
AcDbEntity
8
0
100
AcDbCircle
10
365.52886480256967
20
71.561192701453663
30
0
40
0.25000000000005684
210
0
220
0
230
1
100
AcDbArc
50
180
51
270
0
LINE
5
185
100
AcDbEntity
8
0
100
AcDbLine
10
380.05206348292751
20
70.023194289219845
30
0
11
378.64281643201218
21
70.023193610820101
31
0
0
SPLINE
5
186
100
AcDbEntity
8
0
100
AcDbSpline
70
4
71
3
72
8
73
4
74
0
42
0.000000001
43
0.0000000001
44
0.0000000001
40
0
40
0
40
0
40
0
40
1
40
1
40
1
40
1
41
1
41
1
41
1
41
1
10
380.2838128413191
20
69.86812801533739
30
0
10
380.59059414674459
20
69.243406592228666
30
0
10
381.56889556750207
20
68.822842091747631
30
0
10
382.86603537767797
20
68.758051396223237
30
0
0
ARC
5
187
100
AcDbEntity
8
0
100
AcDbCircle
10
386.65109843843203
20
69.773197033271174
30
0
40
0.25000000000001754
210
0
220
0
230
1
100
AcDbArc
50
90.000024525929902
51
154.79640197020166
0
SPLINE
5
188
100
AcDbEntity
8
0
100
AcDbSpline
70
4
71
3
72
8
73
4
74
0
42
0.000000001
43
0.0000000001
44
0.0000000001
40
0
40
0
40
0
40
0
40
0.11560783206336366
40
0.11560783206336366
40
0.11560783206336366
40
0.11560783206336366
41
1
41
1
41
1
41
1
10
388.30150548008129
20
71.065954396420295
30
0
10
388.31510917702747
20
71.022190094621152
30
0
10
388.32714018006163
20
70.974406535853745
30
0
10
388.33759848918368
20
70.923533033332447
30
0
0
ARC
5
189
100
AcDbEntity
8
0
100
AcDbCircle
10
365.19327707254547
20
64.594006882324194
30
0
40
0.24999999999997649
210
0
220
0
230
1
100
AcDbArc
50
116.80637989010002
51
208.42977239226789
0
SPLINE
5
190
100
AcDbEntity
8
0
100
AcDbSpline
70
4
71
3
72
8
73
4
74
0
42
0.000000001
43
0.0000000001
44
0.0000000001
40
0
40
0
40
0
40
0
40
1
40
1
40
1
40
1
41
1
41
1
41
1
41
1
10
384.31256663358823
20
71.91230729033154
30
0
10
383.91142631049865
20
71.96903125264113
30
0
10
382.79301727216352
20
71.969451289565129
30
0
10
382.40046240258619
20
71.913022112205184
30
0
0
ARC
5
191
100
AcDbEntity
8
0
100
AcDbCircle
10
372.59625192280731
20
72.77786842771512
30
0
40
0.25000000000005684
210
0
220
0
230
1
100
AcDbArc
50
0
51
90
0
LWPOLYLINE
5
192
100
AcDbEntity
8
0
100
AcDbPolyline
90
8
70
1
43
0.0
10
369.90610765322083
20
42.418031167749646
42
0.41421356237312623
10
370.90610765322083
20
41.418031167749675
10
382.90610765322083
20
41.418031167749596
42
0.41421356231278383
10
383.90610765322089
20
42.418031167543695
10
383.90610765322089
20
54.41803116774966
42
0.41421356234378232
10
382.90610765332087
20
55.418031167749653
10
370.90610765322083
20
55.418031167749646
42
0.41421356237312884
10
369.90610765322083
20
54.41803116774966
0
LWPOLYLINE
5
193
100
AcDbEntity
8
0
100
AcDbPolyline
90
8
70
1
43
0.0
10
351.85610765322082
20
36.368031167749692
10
363.85610765332382
20
36.368031167749685
42
-0.41421356234290169
10
364.85610765322087
20
35.368031167749656
10
364.85610765322087
20
23.368031167549642
42
-0.41421356231449558
10
363.85610765322093
20
22.368031167749653
10
351.85610765322082
20
22.368031167749642
42
-0.41421356237303519
10
350.85610765322087
20
23.368031167749663
10
350.85610765322082
20
35.368031167749656
42
-0.41421356237302481
0
LWPOLYLINE
5
194
100
AcDbEntity
8
0
100
AcDbPolyline
90
8
70
1
43
0.0
10
60.3436076532209
20
111.54892787874964
42
-0.41421356237308204
10
61.343607653220865
20
112.54892787874958
10
73.343607653320859
20
112.54892787874958
42
-0.41421356234376927
10
74.343607653220829
20
111.54892787874964
10
74.343607653220843
20
99.54892787854962
42
-0.41421356231454498
10
73.343607653220857
20
98.548927878749623
10
61.343607653220893
20
98.548927878749623
42
-0.41421356237307161
10
60.343607653220907
20
99.548927878749623
0
LWPOLYLINE
5
195
100
AcDbEntity
8
0
100
AcDbPolyline
90
8
70
1
43
0.0
10
401.95610765322073
20
79.518031167749612
42
0.41421356231272138
10
402.95610765322095
20
80.518031167543711
10
402.95610765322073
20
92.518031167749641
42
0.41421356234293943
10
401.95610765332367
20
93.518031167749655
10
389.95610765322084
20
93.518031167749726
42
0.4142135623730534
10
388.9561076532209
20
92.518031167749641
10
388.9561076532209
20
80.518031167749626
42
0.41421356237309503
10
389.95610765322084
20
79.518031167749697
0
LWPOLYLINE
5
196
100
AcDbEntity
8
0
100
AcDbPolyline
90
8
70
1
43
0.0
10
383.90610765322089
20
80.518031167543711
42
-0.41421356231271622
10
382.90610765322083
20
79.518031167749541
10
370.90610765322083
20
79.518031167749626
42
-0.41421356237313145
10
369.90610765322083
20
80.518031167749626
10
369.90610765322083
20
92.518031167749641
42
-0.41421356237313667
10
370.90610765322083
20
93.518031167749655
10
382.90610765332087
20
93.518031167749669
42
-0.41421356234388113
10
383.90610765322089
20
92.518031167749641
0
LWPOLYLINE
5
197
100
AcDbEntity
8
0
100
AcDbPolyline
90
8
70
1
43
0.0
10
389.95610765322084
20
112.56803116774964
10
401.95610765332106
20
112.56803116774967
42
-0.41421356234375106
10
402.9561076532209
20
111.56803116774965
10
402.95610765322073
20
99.568031167543694
42
-0.41421356231277345
10
401.95610765322073
20
98.568031167749638
10
389.95610765322084
20
98.568031167749581
42
-0.4142135623730846
10
388.9561076532209
20
99.568031167749638
10
388.9561076532209
20
111.56803116774965
42
-0.41421356237307944
0
SPLINE
5
198
100
AcDbEntity
8
0
100
AcDbSpline
70
4
71
3
72
8
73
4
74
0
42
0.000000001
43
0.0000000001
44
0.0000000001
40
0
40
0
40
0
40
0
40
1
40
1
40
1
40
1
41
1
41
1
41
1
41
1
10
388.30150548008129
20
69.629552103200794
30
0
10
387.86751118457602
20
68.23337467130996
30
0
10
386.44283197008417
20
67.382687299984369
30
0
10
384.19733228687079
20
67.17892384568006
30
0
0
ARC
5
199
100
AcDbEntity
8
0
100
AcDbCircle
10
372.59625192280731
20
71.56119270145355
30
0
40
0.24999999999998579
210
0
220
0
230
1
100
AcDbArc
50
-90
51
0
0
LINE
5
200
100
AcDbEntity
8
0
100
AcDbLine
10
388.0817739570802
20
70.023197645684505
30
0
11
386.65109833141747
21
70.023197033271174
31
0
0
ARC
5
201
100
AcDbEntity
8
0
100
AcDbCircle
10
388.0927193629376
20
70.873192060666412
30
0
40
0.25000000000000461
210
0
220
0
230
1
100
AcDbArc
50
-90.00000522469972
51
11.616726982088256
0
ARC
5
202
100
AcDbEntity
8
0
100
AcDbCircle
10
378.64281655236033
20
69.773193610820115
30
0
40
0.25000000000000588
210
0
220
0
230
1
100
AcDbArc
50
90.000027581763689
51
193.73076588394031
0
ARC
5
203
100
AcDbEntity
8
0
100
AcDbCircle
10
378.63395120036239
20
70.87319292363189
30
0
40
0.24999999999998201
210
0
220
0
230
1
100
AcDbArc
50
167.07540984832963
51
269.9999947717177
0
SPLINE
5
204
100
AcDbEntity
8
0
100
AcDbSpline
70
4
71
3
72
8
73
4
74
0
42
0.000000001
43
0.0000000001
44
0.0000000001
40
0
40
0
40
0
40
0
40
1
40
1
40
1
40
1
41
1
41
1
41
1
41
1
10
382.40046240258619
20
71.913022112205184
30
0
10
381.31617756881036
20
71.757169435835578
30
0
10
380.53879802726323
20
71.351957790994703
30
0
10
380.27130535628737
20
70.803193466696769
30
0
0
LINE
5
205
100
AcDbEntity
8
0
100
AcDbLine
10
146.54360765327249
20
38.368031167749699
30
0
11
140.54360765327249
21
38.368031167749685
31
0
0
LWPOLYLINE
5
206
100
AcDbEntity
8
0
100
AcDbPolyline
90
8
70
1
43
0.0
10
246.08398584722082
20
135.38053116754958
42
-0.41421356243171009
10
247.08398584722093
20
136.38053116774961
10
259.0839858471208
20
136.38053116774958
42
-0.41421356240242857
10
260.08398584722079
20
135.38053116774961
10
260.08398584722079
20
123.3805311677496
42
-0.4142135623730846
10
259.08398584722084
20
122.38053116774964
10
247.08398584702891
20
122.38053116774964
42
-0.41421356231688888
10
246.08398584722082
20
123.3805311677496
0
LINE
5
207
100
AcDbEntity
8
0
100
AcDbLine
10
260.84360765327284
20
38.368031167749933
30
0
11
254.84360765327261
21
38.368031167749919
31
0
0
LWPOLYLINE
5
208
100
AcDbEntity
8
0
100
AcDbPolyline
90
8
70
1
43
0.0
10
222.27052644922082
20
123.3805311677496
10
222.27052644922082
20
135.38053116754367
42
-0.41421356243341662
10
223.2705264492208
20
136.38053116774961
10
235.27052644911791
20
136.38053116774961
42
-0.41421356240327145
10
236.27052644922082
20
135.38053116774961
10
236.27052644922082
20
123.38053116764965
42
-0.41421356234380308
10
235.2705264492208
20
122.38053116774964
10
223.27052644922082
20
122.38053116774964
42
-0.41421356237313145
0
LINE
5
209
100
AcDbEntity
8
0
100
AcDbLine
10
63.726101549420882
20
41.418043396749631
30
0
11
63.811867846220892
21
41.418043396749631
31
0
0
LWPOLYLINE
5
210
100
AcDbEntity
8
0
100
AcDbPolyline
90
8
70
1
43
0.0
10
279.1339858472208
20
135.38053116774961
42
0.41421356240235574
10
278.13398584712081
20
136.38053116774961
10
266.13398584722074
20
136.38053116774961
42
0.41421356243343221
10
265.13398584722074
20
135.38053116754367
10
265.13398584722074
20
123.3805311677496
42
0.41421356237310542
10
266.13398584722074
20
122.38053116774964
10
278.1339858472208
20
122.38053116774965
42
0.41421356234381873
10
279.13398584722074
20
123.38053116764965
0
LWPOLYLINE
5
211
100
AcDbEntity
8
0
100
AcDbPolyline
90
8
70
1
43
0.0
10
304.23398584722082
20
122.38053116774958
42
-0.41421356237313667
10
303.23398584722094
20
123.3805311677496
10
303.23398584722088
20
135.38053116754958
42
-0.41421356243170487
10
304.23398584722082
20
136.38053116774958
10
316.23398584712083
20
136.38053116774961
42
-0.41421356240235574
10
317.23398584722082
20
135.38053116774961
10
317.23398584722082
20
123.38053116766061
42
-0.41421356234695084
10
316.23398584722082
20
122.38053116774958
0
LWPOLYLINE
5
212
100
AcDbEntity
8
0
100
AcDbPolyline
90
8
70
1
43
0.0
10
117.20706705122082
20
123.38053116766061
42
-0.41421356234701323
10
116.20706705122089
20
122.38053116774958
10
104.20706705122087
20
122.38053116774958
42
-0.41421356237310542
10
103.20706705122086
20
123.3805311677496
10
103.20706705122089
20
135.38053116754958
42
-0.41421356243165286
10
104.20706705122087
20
136.38053116774958
10
116.20706705112087
20
136.38053116774958
42
-0.41421356240235574
10
117.20706705122083
20
135.38053116774958
0
LWPOLYLINE
5
213
100
AcDbEntity
8
0
100
AcDbPolyline
90
8
70
1
43
0.0
10
123.25706705122087
20
136.38053116774961
42
0.41421356243343221
10
122.25706705122086
20
135.38053116754364
10
122.25706705122086
20
123.3805311677496
42
0.414213562373069
10
123.25706705122087
20
122.38053116774961
10
135.25706705122084
20
122.38053116774961
42
0.41421356234382911
10
136.25706705122087
20
123.38053116764961
10
136.25706705122087
20
135.38053116774958
42
0.41421356240237656
10
135.25706705112083
20
136.38053116774961
0
LWPOLYLINE
5
214
100
AcDbEntity
8
0
100
AcDbPolyline
90
8
70
1
43
0.0
10
185.1705264492208
20
122.38053116774964
10
197.17052644922092
20
122.38053116774961
42
0.41421356234701323
10
198.17052644922089
20
123.38053116766061
10
198.17052644922089
20
135.38053116774961
42
0.41421356240319862
10
197.17052644911789
20
136.38053116774969
10
185.1705264492208
20
136.38053116774961
42
0.41421356243343221
10
184.1705264492208
20
135.38053116754367
10
184.17052644922092
20
123.3805311677496
42
0.41421356237304818
0
LWPOLYLINE
5
215
100
AcDbEntity
8
0
100
AcDbPolyline
90
8
70
1
43
0.0
10
178.12052644911788
20
136.38053116774961
42
-0.4142135624032402
10
179.12052644922082
20
135.38053116774961
10
179.12052644922082
20
123.38053116764965
42
-0.41421356234385515
10
178.12052644922088
20
122.38053116774961
10
166.12052644902082
20
122.38053116774961
42
-0.41421356225592731
10
165.12052644922082
20
123.38053116754961
10
165.12052644922085
20
135.38053116754367
42
-0.41421356243347907
10
166.12052644922085
20
136.38053116774961
0
LWPOLYLINE
5
216
100
AcDbEntity
8
0
100
AcDbPolyline
90
8
70
1
43
0.0
10
142.30706705122083
20
136.38053116774958
10
154.30706705111783
20
136.38053116774961
42
-0.4142135624032402
10
155.30706705122083
20
135.38053116774961
10
155.30706705122083
20
123.38053116764965
42
-0.41421356234379791
10
154.30706705122083
20
122.38053116774961
10
142.30706705122083
20
122.38053116774961
42
-0.41421356237309503
10
141.30706705122083
20
123.3805311677496
10
141.30706705122083
20
135.38053116754364
42
-0.41421356243345303
0
LWPOLYLINE
5
217
100
AcDbEntity
8
0
100
AcDbPolyline
90
8
70
1
43
0.0
10
297.18398584712082
20
136.38053116774961
10
285.18398584722087
20
136.38053116774961
42
0.41421356243342183
10
284.18398584722075
20
135.38053116754367
10
284.18398584722075
20
123.3805311677496
42
0.4142135623730378
10
285.18398584722087
20
122.38053116774961
10
297.18398584722075
20
122.38053116774964
42
0.41421356234702367
10
298.18398584722081
20
123.38053116766061
10
298.18398584722081
20
135.38053116774961
42
0.41421356240235574
0
LWPOLYLINE
5
218
100
AcDbEntity
8
0
100
AcDbPolyline
90
61
70
1
43
0.0
10
176.66339533693053
20
27.525421555355894
42
-0.41421356237301699
10
176.46339533693049
20
27.325421555355874
10
175.57886539076836
20
27.325421555355859
42
-0.26794919243103027
10
175.40566031001148
20
27.425421555355776
10
175.30481669316777
20
27.600087823347881
42
0.19891236737919046
10
175.18337542143144
20
27.693272988605671
10
171.45658050218842
20
28.691864677573236
42
0.41421356237315243
10
171.21163152791001
20
28.550443321335891
10
171.20311510459246
20
28.51865959681621
42
-0.33945425886335706
10
171.0099299393346
20
28.370423405836682
10
170.51686073452626
20
28.370423405836718
42
-0.3394542588632119
10
170.32367556926854
20
28.518659596816267
10
170.30311510459254
20
28.595392295614175
42
0.33945425886369435
10
170.10992993933468
20
28.743628486593671
10
153.49360765327253
20
28.743628486593721
42
-0.41421356237301049
10
153.2936076532726
20
28.943628486593713
10
153.29360765327257
20
29.043628486593693
42
0.41421356237293894
10
153.0936076532725
20
29.243628486593728
10
152.29360765327249
20
29.243628486593721
42
-0.41421356237307555
10
152.09360765327258
20
29.443628486593685
10
152.09360765327261
20
31.817433848905466
42
-0.41421356237312756
10
152.2936076532726
20
32.01743384890549
10
153.09360765327253
20
32.017433848905469
42
0.41421356237304952
10
153.2936076532726
20
32.217433848905451
10
153.29360765327249
20
32.31743384890558
42
-0.41421356237308854
10
153.49360765327253
20
32.517433848905625
10
170.10992993933442
20
32.517433848905448
42
0.3394542588620818
10
170.30311510459254
20
32.665670039884901
10
170.32367556926854
20
32.742402738682792
42
-0.33945425886337582
10
170.51686073452626
20
32.890638929662281
10
171.00992993933471
20
32.890638929662288
42
-0.33945425886295305
10
171.20311510459257
20
32.742402738682827
10
171.21163152790999
20
32.710619014163285
42
0.41421356237302642
10
171.45658050218833
20
32.569197657925983
10
175.18337542143146
20
33.567789346893534
42
0.1989123673799342
10
175.30481669316782
20
33.66097451215132
10
175.40566031001157
20
33.835640780143464
42
-0.26794919243118559
10
175.57886539076836
20
33.935640780143387
10
176.4633953369306
20
33.93564078014353
42
-0.41421356237335516
10
176.66339533693053
20
33.735640780143534
10
176.66339533693053
20
33.173991498662247
42
0.46630765815498754
10
176.89812497246379
20
32.977029948059794
10
178.63301084359574
20
33.28293713558898
42
0.10220022290590366
10
180.13693178912206
20
33.880531168031567
10
182.64315952317662
20
35.529416409780325
42
-0.1316524975873869
10
183.13450039048089
20
35.692307000553043
10
184.63195014392221
20
35.779738320698208
42
-0.87697646301312449
10
184.70654374470558
20
35.390238820079588
10
184.46924432815405
20
35.311568705858896
42
0.81853453222693418
10
184.49294922770082
20
35.116950727306786
42
-0.39163180955608906
10
188.64360765318762
20
30.630531167749737
42
-0.39163180955014282
10
184.49294922770167
20
26.144111608192805
42
0.81853452918244263
10
184.46924432746042
20
25.949493629614921
10
184.70654374469345
20
25.870823515395639
42
-0.8727512459546134
10
184.63386208829402
20
25.48122156322874
10
183.13641180128727
20
25.568643745444501
42
-0.13117051986201533
10
182.64315910199443
20
25.73164620282132
10
180.13693178912206
20
27.380531167467879
42
0.10220022290590221
10
178.6330108435958
20
27.978125199910483
10
176.89812497246368
20
28.284032387439662
42
0.46630765815468472
10
176.66339533693045
20
28.087070836837178
0
LWPOLYLINE
5
219
100
AcDbEntity
8
0
100
AcDbPolyline
90
8
70
1
43
0.0
10
98.157067051220835
20
135.38053116774958
10
98.157067051220821
20
123.38053116764961
42
-0.41421356234380829
10
97.157067051220864
20
122.38053116774957
10
85.157067051028861
20
122.38053116774961
42
-0.41421356225826861
10
84.157067051220849
20
123.38053116754958
10
84.157067051220821
20
135.38053116754958
42
-0.41421356243168411
10
85.157067051220849
20
136.38053116774958
10
97.157067051120833
20
136.38053116774958
42
-0.41421356240233492
0
LWPOLYLINE
5
220
100
AcDbEntity
8
0
100
AcDbPolyline
90
8
70
1
43
0.0
10
401.95610765332083
20
36.368031167749713
10
389.95610765322084
20
36.368031167749749
42
0.4142135623730534
10
388.9561076532209
20
35.368031167749663
10
388.95610765322095
20
23.368031167749663
42
0.41421356237305862
10
389.95610765322084
20
22.368031167749599
10
401.95610765322073
20
22.368031167749649
42
0.41421356231277345
10
402.95610765322073
20
23.368031167543712
10
402.95610765322067
20
35.368031167749663
42
0.41421356234376017
0
LWPOLYLINE
5
221
100
AcDbEntity
8
0
100
AcDbPolyline
90
8
70
1
43
0.0
10
204.22052644922081
20
122.38053116774965
42
-0.41421356237314705
10
203.22052644922084
20
123.3805311677496
10
203.22052644922081
20
135.38053116754367
42
-0.41421356243341662
10
204.22052644922081
20
136.38053116774961
10
216.22052644912088
20
136.38053116774961
42
-0.41421356240241297
10
217.22052644922093
20
135.38053116774961
10
217.22052644922093
20
123.38053116766061
42
-0.41421356234695084
10
216.22052644922093
20
122.38053116774958
0
LWPOLYLINE
5
222
100
AcDbEntity
8
0
100
AcDbPolyline
90
8
70
1
43
0.0
10
85.749857653272528
20
41.418031167749589
42
0.41421356237298579
10
86.249857653272514
20
41.918031167749604
10
86.249857653272457
20
54.918031167749618
42
0.4142135623730846
10
85.749857653272485
20
55.418031167749611
10
72.749857653272485
20
55.418031167749604
42
0.41421356237302737
10
72.249857653272457
20
54.918031167749604
10
72.2498576532725
20
41.918031167749561
42
0.41421356237314705
10
72.7498576532725
20
41.418031167749547
0
LWPOLYLINE
5
223
100
AcDbEntity
8
0
100
AcDbPolyline
90
8
70
1
43
0.0
10
383.90610765322089
20
123.38053116754961
10
383.90610765322089
20
135.38053116774961
42
0.41421356234374584
10
382.90610765332087
20
136.38053116774961
10
370.90610765322083
20
136.38053116774958
42
0.41421356237297535
10
369.90610765322089
20
135.38053116774961
10
369.90610765322072
20
123.3805311677496
42
0.41421356237314705
10
370.90610765322083
20
122.38053116774964
10
382.90610765322083
20
122.38053116774962
42
0.41421356231463086
0
LWPOLYLINE
5
224
100
AcDbEntity
8
0
100
AcDbPolyline
90
8
70
1
43
0.0
10
63.724857653220901
20
74.468031167749601
10
80.487357653320828
20
74.468031167749615
42
-0.41421356234380308
10
81.487357653220869
20
73.468031167749629
10
81.487357653220869
20
61.468031167543664
42
-0.41421356231277345
10
80.487357653220869
20
60.468031167749615
10
63.724857653220901
20
60.468031167749615
42
-0.41421356237310802
10
62.724857653220894
20
61.468031167749615
10
62.72485765322088
20
73.468031167749629
42
-0.41421356237307944
0
LWPOLYLINE
5
225
100
AcDbEntity
8
0
100
AcDbPolyline
90
8
70
1
43
0.0
10
402.95610765322073
20
135.38053116774961
42
0.41421356234293422
10
401.95610765332367
20
136.38053116774961
10
389.95610765322084
20
136.38053116774964
42
0.41421356237307944
10
388.9561076532209
20
135.38053116774961
10
388.95610765322095
20
123.3805311677496
42
0.41421356237305862
10
389.95610765322084
20
122.38053116774957
10
401.95610765322073
20
122.38053116774952
42
0.4142135623127578
10
402.95610765322073
20
123.38053116754368
0
LWPOLYLINE
5
226
100
AcDbEntity
8
0
100
AcDbPolyline
90
8
70
1
43
0.0
10
88.187857653272474
20
54.418031167749696
10
94.187857653272502
20
54.418031167749604
42
-0.41421356237307944
10
94.687857653272474
20
53.918031167749625
10
94.687857653272516
20
39.918031167749618
42
-0.41421356237305601
10
94.187857653272516
20
39.418031167749618
10
88.187857653272516
20
39.418031167749625
42
-0.41421356237311063
10
87.687857653272502
20
39.918031167749604
10
87.687857653272488
20
53.918031167749604
42
-0.41421356237302737
0
LWPOLYLINE
5
227
100
AcDbEntity
8
0
100
AcDbPolyline
90
8
70
1
43
0.0
10
60.343607653220907
20
123.38053116774958
42
0.41421356237308982
10
61.343607653220865
20
122.38053116774961
10
73.343607653220857
20
122.38053116774958
42
0.41421356231450596
10
74.343607653220857
20
123.38053116754961
10
74.343607653220815
20
135.38053116774961
42
0.41421356234292644
10
73.343607653323843
20
136.38053116774958
10
61.343607653220865
20
136.38053116774958
42
0.41421356237308982
10
60.343607653220907
20
135.38053116774961
0
LWPOLYLINE
5
228
100
AcDbEntity
8
0
100
AcDbPolyline
90
8
70
1
43
0.0
10
70.31185765327254
20
39.418031167749561
10
64.31185765327254
20
39.418031167749525
42
-0.41421356237310025
10
63.811857653272497
20
39.918031167749575
10
63.811857653272483
20
53.918031167749525
42
-0.41421356237305862
10
64.311857653272483
20
54.418031167749547
10
70.311857653272455
20
54.418031167749533
42
-0.41421356237311585
10
70.811857653272511
20
53.918031167749582
10
70.811857653272568
20
39.918031167749575
42
-0.41421356237312101
0
LWPOLYLINE
5
229
100
AcDbEntity
8
0
100
AcDbPolyline
90
8
70
1
43
0.0
10
364.85610765322087
20
111.56803116774965
10
364.85610765322087
20
99.568031167543694
42
-0.41421356231273698
10
363.85610765322093
20
98.568031167749666
10
351.85610765322082
20
98.568031167749609
42
-0.4142135623730378
10
350.85610765322087
20
99.568031167749638
10
350.85610765322087
20
111.56803116774965
42
-0.41421356237295454
10
351.85610765322082
20
112.56803116774969
10
363.85610765332092
20
112.56803116774968
42
-0.41421356234388113
0
LWPOLYLINE
5
230
100
AcDbEntity
8
0
100
AcDbPolyline
90
8
70
1
43
0.0
10
382.90610765332366
20
112.56803116774964
42
-0.41421356234293422
10
383.90610765322089
20
111.56803116774965
10
383.90610765322089
20
99.568031167543694
42
-0.41421356231277345
10
382.90610765322083
20
98.568031167749638
10
370.90610765322083
20
98.568031167749609
42
-0.4142135623730378
10
369.90610765322089
20
99.568031167749638
10
369.90610765322089
20
111.56803116774965
42
-0.41421356237295454
10
370.90610765322083
20
112.56803116774969
0
LWPOLYLINE
5
231
100
AcDbEntity
8
0
100
AcDbPolyline
90
8
70
1
43
0.0
10
322.7811076532725
20
79.518031167750081
10
335.78110765327244
20
79.518031167749953
42
0.41421356237323032
10
336.28110765327244
20
80.01803116775001
10
336.2811076532725
20
93.018031167750024
42
0.41421356237318868
10
335.78110765327239
20
93.51803116775001
10
322.78110765327256
20
93.518031167749939
42
0.41421356237299095
10
322.28110765327239
20
93.018031167749996
10
322.28110765327256
20
80.018031167749953
42
0.41421356237316787
0
LWPOLYLINE
5
232
100
AcDbEntity
8
0
100
AcDbPolyline
90
8
70
1
43
0.0
10
65.106107653272545
20
35.868031167749564
10
65.106107653272559
20
22.868031167749585
42
0.41421356237303258
10
65.606107653272545
20
22.368031167749557
10
78.606107653272531
20
22.36803116774956
42
0.4142135623730534
10
79.106107653272616
20
22.868031167749614
10
79.106107653272559
20
35.868031167749578
42
0.41421356237313667
10
78.606107653272488
20
36.368031167749571
10
65.606107653272531
20
36.368031167749521
42
0.41421356237311324
0
LWPOLYLINE
5
233
100
AcDbEntity
8
0
100
AcDbPolyline
90
8
70
1
43
0.0
10
126.73110765327252
20
35.868031167749663
42
0.41421356237316526
10
126.23110765327257
20
36.368031167749642
10
113.23110765327252
20
36.368031167749606
42
0.41421356237318607
10
112.73110765327253
20
35.868031167749635
10
112.7311076532726
20
22.868031167749656
42
0.41421356237307683
10
113.23110765327257
20
22.368031167749642
10
126.23110765327257
20
22.368031167749642
42
0.41421356237310025
10
126.73110765327259
20
22.868031167749692
0
LWPOLYLINE
5
234
100
AcDbEntity
8
0
100
AcDbPolyline
90
8
70
1
43
0.0
10
331.51860765327223
20
112.06803116775006
42
0.41421356237328233
10
331.01860765327223
20
112.56803116775005
10
318.01860765327251
20
112.56803116775005
42
0.41421356237291812
10
317.51860765327245
20
112.06803116774999
10
317.51860765327251
20
99.068031167749965
42
0.41421356237304302
10
318.01860765327251
20
98.568031167749979
10
331.01860765327245
20
98.568031167750036
42
0.41421356237306384
10
331.51860765327234
20
99.068031167750021
0
LWPOLYLINE
5
235
100
AcDbEntity
8
0
100
AcDbPolyline
90
8
70
1
43
0.0
10
307.1993576532725
20
76.468031167749942
42
0.41421356237309503
10
306.69935765327244
20
75.96803116774997
10
306.6993576532725
20
61.968031167749977
42
0.41421356237319906
10
307.1993576532725
20
61.468031167749963
10
313.19935765327261
20
61.46803116774997
42
0.41421356237288692
10
313.6993576532725
20
61.968031167750013
10
313.6993576532725
20
75.968031167749984
42
0.41421356237302737
10
313.1993576532725
20
76.468031167749942
0
LWPOLYLINE
5
236
100
AcDbEntity
8
0
100
AcDbPolyline
90
8
70
1
43
0.0
10
207.19360765327249
20
36.36803116774982
10
194.19360765327255
20
36.368031167749827
42
0.41421356237302998
10
193.69360765327258
20
35.868031167749749
10
193.69360765327247
20
22.868031167749816
42
0.41421356237300139
10
194.19360765327266
20
22.368031167749724
10
207.19360765327249
20
22.368031167749805
42
0.41421356237311846
10
207.69360765327264
20
22.868031167749852
10
207.69360765327258
20
35.868031167749791
42
0.41421356237301959
0
CIRCLE
5
237
100
AcDbEntity
8
0
100
AcDbCircle
10
67.343607653220857
20
117.46453116774958
30
0
40
2.3809999999999993
210
0
220
-0
230
1
0
LWPOLYLINE
5
238
100
AcDbEntity
8
0
100
AcDbPolyline
90
8
70
1
43
0.0
10
154.75706705122082
20
119.84553116774961
10
74.893607653220869
20
119.84553116774961
42
0.41421356237308082
10
74.343607653220829
20
119.29553116774962
10
74.343607653220829
20
115.63353116774961
42
0.41421356237306195
10
74.893607653220869
20
115.08353116774963
10
154.75706705122087
20
115.08353116774961
42
0.41421356237312346
10
155.30706705122088
20
115.63353116774961
10
155.30706705122083
20
119.29553116774963
42
0.41421356237311396
0
CIRCLE
5
239
100
AcDbEntity
8
0
100
AcDbCircle
10
160.21356705122085
20
117.4645311677496
30
0
40
2.3809999999999993
210
0
220
-0
230
1
0
LWPOLYLINE
5
240
100
AcDbEntity
8
0
100
AcDbPolyline
90
8
70
1
43
0.0
10
235.72052644922081
20
119.84553116774961
10
165.67052644922083
20
119.84553116774964
42
0.41421356237300988
10
165.12052644922085
20
119.29553116774963
10
165.12052644922085
20
115.63353116774961
42
0.41421356237309503
10
165.67052644922086
20
115.08353116774961
10
235.72052644922081
20
115.08353116774961
42
0.41421356237309503
10
236.27052644922082
20
115.63353116774961
10
236.27052644922082
20
119.29553116774963
42
0.41421356237298157
0
CIRCLE
5
241
100
AcDbEntity
8
0
100
AcDbCircle
10
241.17702644922082
20
117.4645311677496
30
0
40
2.3809999999999993
210
0
220
-0
230
1
0
LWPOLYLINE
5
242
100
AcDbEntity
8
0
100
AcDbPolyline
90
8
70
1
43
0.0
10
316.68398584722075
20
119.8455311677496
42
-0.4142135623730383
10
317.23398584722082
20
119.29553116774963
10
317.23398584722082
20
115.63353116774961
42
-0.41421356237311396
10
316.68398584722081
20
115.08353116774963
10
246.63398584722088
20
115.08353116774961
42
-0.41421356237307611
10
246.08398584722084
20
115.63353116774961
10
246.08398584722082
20
119.29553116774963
42
-0.41421356237318019
10
246.63398584722086
20
119.84553116774961
0
CIRCLE
5
243
100
AcDbEntity
8
0
100
AcDbCircle
10
322.14048584722087
20
117.4645311677496
30
0
40
2.3809999999999993
210
0
220
-0
230
1
0
LWPOLYLINE
5
244
100
AcDbEntity
8
0
100
AcDbPolyline
90
8
70
1
43
0.0
10
340.49744524522066
20
119.84553116774961
10
327.59744524522085
20
119.8455311677496
42
0.41421356237319906
10
327.04744524522079
20
119.29553116774963
10
327.04744524522079
20
115.63353116774961
42
0.41421356237309503
10
327.59744524522085
20
115.08353116774975
10
340.49744524522077
20
115.08353116774961
42
0.41421356237312346
10
341.04744524522084
20
115.63353116774961
10
341.04744524522084
20
119.29553116774963
42
0.41421356237287749
0
CIRCLE
5
245
100
AcDbEntity
8
0
100
AcDbCircle
10
345.95444524522088
20
117.46453116774957
30
0
40
2.3809999999999993
210
0
220
-0
230
1
0
LWPOLYLINE
5
246
100
AcDbEntity
8
0
100
AcDbPolyline
90
8
70
1
43
0.0
10
347.78110765322083
20
131.30553116774962
10
344.12244524522077
20
131.30553116774962
42
0.41421356237309503
10
343.57244524522082
20
130.75553116774961
10
343.57244524522082
20
122.93053116774956
42
0.41421356237305718
10
344.12244524522077
20
122.38053116774952
10
347.78110765322083
20
122.38053116774957
42
0.41421356237309503
10
348.33110765322084
20
122.93053116774956
10
348.33110765322078
20
130.75553116774961
42
0.41421356237315182
0
LWPOLYLINE
5
247
100
AcDbEntity
8
0
100
AcDbPolyline
90
8
70
1
43
0.0
10
388.4061076532206
20
119.84553116774961
10
351.4061076532206
20
119.84553116774958
42
0.41421356237300044
10
350.85610765322087
20
119.29553116774963
10
350.85610765322082
20
115.63353116774961
42
0.41421356237314239
10
351.40610765322089
20
115.08353116774973
10
388.4061076532206
20
115.08353116774956
42
0.41421356237306667
10
388.9561076532209
20
115.63353116774961
10
388.95610765322061
20
119.29553116774963
42
0.41421356237315182
0
CIRCLE
5
248
100
AcDbEntity
8
0
100
AcDbCircle
10
395.95610765322084
20
117.4645311677496
30
0
40
2.3809999999999993
210
0
220
-0
230
1
0
LWPOLYLINE
5
249
100
AcDbEntity
8
0
100
AcDbPolyline
90
8
70
1
43
0.0
10
348.33544524556987
20
36.918031167749639
10
348.33544524556987
20
112.01803116774961
42
0.41421356237311396
10
347.78544524556992
20
112.5680311677495
10
344.12344524556988
20
112.56803116774961
42
0.41421356237309503
10
343.57344524556987
20
112.01803116774961
10
343.57344524556987
20
36.918031167749646
42
0.41421356237306434
10
344.12344524556988
20
36.368031167749621
10
347.78544524556992
20
36.368031167749663
42
0.41421356237304302
0
CIRCLE
5
250
100
AcDbEntity
8
0
100
AcDbCircle
10
345.95444524541131
20
29.368031167749649
30
0
40
2.3809999999999993
210
0
220
-0
230
1
0
ENDSEC
0
SECTION
2
OBJECTS
0
DICTIONARY
5
C
100
AcDbDictionary
3
ACAD_GROUP
350
D
3
ACAD_MLINESTYLE
350
17
0
DICTIONARY
5
D
100
AcDbDictionary
0
DICTIONARY
5
1A
330
C
100
AcDbDictionary
0
DICTIONARY
5
17
100
AcDbDictionary
0
ENDSEC
0
EOF
