0
SECTION
2
HEADER
9
$INSUNITS
70
4
9
$ACADVER
1
AC1014
9
$HANDSEED
5
FFFF
0
ENDSEC
0
SECTION
2
TABLES
0
TABLE
2
VPORT
5
8
100
AcDbSymbolTable
0
ENDTAB
0
TABLE
2
LTYPE
5
5
100
AcDbSymbolTable
0
LTYPE
5
14
100
AcDbSymbolTableRecord
100
AcDbLinetypeTableRecord
2
BYBLOCK
70
0
0
LTYPE
5
15
100
AcDbSymbolTableRecord
100
AcDbLinetypeTableRecord
2
BYLAYER
70
0
0
ENDTAB
0
TABLE
2
LAYER
5
2
100
AcDbSymbolTable
70
2
0
LAYER
5
50
100
AcDbSymbolTableRecord
100
AcDbLayerTableRecord
2
0
70
0
6
CONTINUOUS
0
ENDTAB
0
TABLE
2
STYLE
5
3
100
AcDbSymbolTable
70
1
0
STYLE
5
11
100
AcDbSymbolTableRecord
100
AcDbTextStyleTableRecord
2
STANDARD
70
0
0
ENDTAB
0
TABLE
2
VIEW
5
6
100
AcDbSymbolTable
70
0
0
ENDTAB
0
TABLE
2
UCS
5
7
100
AcDbSymbolTable
70
0
0
ENDTAB
0
TABLE
2
APPID
5
9
100
AcDbSymbolTable
70
2
0
APPID
5
12
100
AcDbSymbolTableRecord
100
AcDbRegAppTableRecord
2
ACAD
70
0
0
ENDTAB
0
TABLE
2
DIMSTYLE
5
A
100
AcDbSymbolTable
70
1
0
ENDTAB
0
TABLE
2
BLOCK_RECORD
5
1
100
AcDbSymbolTable
70
1
0
BLOCK_RECORD
5
1F
100
AcDbSymbolTableRecord
100
AcDbBlockTableRecord
2
*MODEL_SPACE
0
BLOCK_RECORD
5
1B
100
AcDbSymbolTableRecord
100
AcDbBlockTableRecord
2
*PAPER_SPACE
0
ENDTAB
0
ENDSEC
0
SECTION
2
BLOCKS
0
BLOCK
5
20
100
AcDbEntity
100
AcDbBlockBegin
2
*MODEL_SPACE
0
ENDBLK
5
21
100
AcDbEntity
100
AcDbBlockEnd
0
BLOCK
5
1C
100
AcDbEntity
100
AcDbBlockBegin
2
*PAPER_SPACE
0
ENDBLK
5
1D
100
AcDbEntity
100
AcDbBlockEnd
0
ENDSEC
0
SECTION
2
ENTITIES
0
LWPOLYLINE
5
100
100
AcDbEntity
8
0
100
AcDbPolyline
90
14
70
1
43
0.0
10
-316.35066531000001
20
-60.697974473999999
10
-322.35066531000007
20
-60.697974474000034
42
0.41421356237331874
10
-322.85066531000007
20
-61.197974473999999
10
-322.85066531000007
20
-62.698002981999977
10
-337.28865211024333
20
-62.697974474000944
42
0.41421399601634223
10
-338.28865359100013
20
-63.697974473794034
10
-338.28865359100001
20
-75.697974473999977
42
0.41421339624026965
10
-337.28865415821292
20
-76.697974473999778
10
-315.76371242560003
20
-76.697998887999645
42
0.41421381150814851
10
-314.76371157500006
20
-75.697998887999987
10
-314.763711575
20
-63.697998887999987
42
0.41421356242931678
10
-315.76371157519196
20
-62.697998887999972
10
-315.85066531000001
20
-62.697998887999987
10
-315.85066531000001
20
-61.197974473999999
42
0.41421356237314183
0
LWPOLYLINE
5
101
100
AcDbEntity
8
0
100
AcDbPolyline
90
14
70
1
43
0.0
10
-345.72664187300001
20
-60.697974472999931
10
-346.22664187300006
20
-60.697974472899993
42
0.41421356237312623
10
-346.72664187300001
20
-61.197974472900015
10
-346.72664187300001
20
-62.697998887999987
10
-353.95746157500002
20
-62.697998887999987
42
0.41421356231270579
10
-354.95746157500008
20
-63.697998887794036
10
-354.95746157500002
20
-75.697998887799983
42
0.41421356240148427
10
-353.95746157510303
20
-76.697998887999987
10
-340.72166965086262
20
-76.697974473999977
42
0.41276679060057453
10
-339.7266117407832
20
-75.697986682999982
10
-339.7266418724999
20
-61.697974473999992
10
-339.7266418724999
20
-61.197974472900015
42
0.41421356237312623
10
-340.22664187249984
20
-60.697974472899993
10
-340.72664187319191
20
-60.697974473500018
0
LWPOLYLINE
5
102
100
AcDbEntity
8
0
100
AcDbPolyline
90
20
70
1
43
0.0
10
-347.37039492400004
20
-117.84797447399994
10
-353.37039492400027
20
-117.84797447399994
42
0.41421356237307422
10
-353.87039492400021
20
-118.34797447399998
10
-353.87039492399998
20
-119.84797447399998
10
-353.95739443619993
20
-119.84797447399998
42
0.41421356225596895
10
-354.95739443599979
20
-120.84797447379998
10
-354.95739443599996
20
-132.84797448499998
42
0.41421355912192542
10
-353.95739443610017
20
-133.84797447400007
10
-322.907394436
20
-133.84797447399995
42
0.41421356237311063
10
-321.90739443599995
20
-132.84797447399998
10
-321.90739443599995
20
-120.84797447400001
42
0.41421356243160606
10
-322.90739443619998
20
-119.847974474
10
-322.99441836200003
20
-119.84797447399998
10
-322.99441836199992
20
-118.34797447399995
42
0.41421356237307422
10
-323.49441836199986
20
-117.84797447399993
10
-329.49444844600004
20
-117.84797447399998
42
0.41421356237327195
10
-329.99444844599998
20
-118.34797447399995
10
-329.99444844599998
20
-119.84797447399998
10
-346.87039492400004
20
-119.84797447399998
10
-346.87039492400004
20
-118.34797447399998
42
0.41421356237307422
0
LWPOLYLINE
5
103
100
AcDbEntity
8
0
100
AcDbPolyline
90
154
70
1
43
0.0
10
-160.95741274705
20
-41.197968369999991
10
-160.95741274705006
20
-59.128895569754299
42
0.41421356237311063
10
-160.45741274705
20
-59.62889556975432
10
-154.45741274705
20
-59.628895569754299
42
0.41421356237308982
10
-153.95741274705
20
-59.128895569754299
10
-153.95741274704997
20
-41.19796836999997
42
-0.41421356237310231
10
-152.88241274704998
20
-40.122968369999981
10
-127.678784777
20
-40.122968370155654
42
0.19891236745315466
10
-126.61812460481009
20
-39.68362854158989
10
-124.15035765279998
20
-37.215861588799996
42
-0.19891236743793855
10
-123.44325087120001
20
-36.922968369556706
10
-121.35746443399998
20
-36.922968369999978
42
-0.41421356237309243
10
-120.85746443399998
20
-37.422968369999978
10
-120.85746443399998
20
-40.947968369999977
42
0.99999999999999989
10
-117.85746443399998
20
-40.947968369999963
10
-117.85746443399998
20
-37.422968369999985
42
-0.4142135623730846
10
-117.35746443400001
20
-36.922968369999992
10
-115.27167799599999
20
-36.92296837
42
-0.19891236741641227
10
-114.56457121471345
20
-37.215861588913448
10
-112.09680426199998
20
-39.68362854199998
42
0.19891236734501036
10
-111.0361440902
20
-40.122968370311376
10
-74.232412747000012
20
-40.122968369999981
10
-71.232412746999955
20
-43.122968369999995
10
-71.232412746999955
20
-156.68546837
10
-74.232412747000012
20
-159.68546836999997
10
-94.748592403000004
20
-159.68546836984427
42
0.19891236737967072
10
-95.809252574889882
20
-160.12480819811006
10
-100.27701952781339
20
-164.59257515118657
42
-0.19891236740564808
10
-100.98412630909998
20
-164.88546837000004
10
-103.06991274699999
20
-164.88546836999998
42
-0.41421356237307422
10
-103.569912747
20
-164.38546837000001
10
-103.56991274699999
20
-160.43546837000002
42
0.99999999999999989
10
-106.56991274700002
20
-160.43546836999994
10
-106.56991274699996
20
-164.38546836999996
42
-0.4142135623730846
10
-107.06991274699999
20
-164.88546837000001
10
-109.15569918399999
20
-164.88546837022167
42
-0.19891236750828967
10
-109.86280596569327
20
-164.5925751509933
10
-114.33057291794073
20
-160.12480819805918
42
0.19891236744614843
10
-115.39123309030001
20
-159.68546836968858
10
-180.47359240300005
20
-159.68546836984433
42
0.19891236737784915
10
-181.53425257488249
20
-160.12480819810264
10
-186.00201952781339
20
-164.59257515118651
42
-0.19891236740641963
10
-186.70912630910294
20
-164.88546837000001
10
-188.79491274699998
20
-164.88546837000001
42
-0.41421356237307422
10
-189.29491274700001
20
-164.38546837000001
10
-189.29491274700001
20
-160.43546837000002
42
0.99999999999999989
10
-192.29491274699998
20
-160.43546837000002
10
-192.29491274699998
20
-164.38546836999996
42
-0.41421356237307422
10
-192.79491274700001
20
-164.88546837000001
10
-194.88069918399998
20
-164.88546837022167
42
-0.19891236749894681
10
-195.58780596566783
20
-164.59257515101876
10
-200.05557291794074
20
-160.12480819805921
42
0.19891236744409543
10
-201.11623309028798
20
-159.68546836968858
10
-266.19859240299996
20
-159.68546836984427
42
0.19891236737784221
10
-267.25925257488251
20
-160.12480819810264
10
-271.72701952781347
20
-164.59257515118662
42
-0.19891236740562718
10
-272.43412630909995
20
-164.88546837000004
10
-274.51991274700003
20
-164.88546837000001
42
-0.41421356237309503
10
-275.01991274700009
20
-164.38546836999996
10
-275.01991274700009
20
-158.86046837000001
42
0.99999999999999989
10
-278.01991274700003
20
-158.86046837000001
10
-278.01991274699998
20
-164.38546836999996
42
-0.41421356237311585
10
-278.51991274700003
20
-164.88546837000001
10
-280.605699184
20
-164.88546837022156
42
-0.19891236749894034
10
-281.31280596566779
20
-164.59257515101868
10
-285.78057291794067
20
-160.12480819805913
42
0.19891236744409724
10
-286.84123309028791
20
-159.68546836968849
10
-350.96125033899995
20
-159.68546837000008
42
-0.41421356237309503
10
-351.961250339
20
-158.68546837
10
-351.96125033899995
20
-158.6604683699
42
-0.41421356240237656
10
-350.96125033880003
20
-157.66046836999999
10
-341.961250339
20
-157.66046836999999
42
0.41421356237299095
10
-340.96125033900012
20
-156.66046836999999
10
-340.961250339
20
-144.66046836999999
42
0.41421356243163726
10
-341.96125033919992
20
-143.66046836999996
10
-353.96125033899989
20
-143.66046836999993
42
0.41421356231277345
10
-354.96125033899989
20
-144.66046836979405
10
-354.96125033899995
20
-153.61046837000001
42
-0.41421356240239737
10
-355.96125033909999
20
-154.61046837000001
10
-363.76991274689999
20
-154.61046837000009
42
-0.41421356240235574
10
-364.76991274699998
20
-153.61046837000001
10
-364.76991274699998
20
-144.66046836999999
42
0.41421356243163204
10
-365.76991274719995
20
-143.6604683699999
10
-377.76991274699992
20
-143.66046836999993
42
0.41421356231277345
10
-378.76991274699992
20
-144.66046836979405
10
-378.76991274699998
20
-156.66046836999999
42
0.41421356234381351
10
-377.76991274709991
20
-157.66046836999999
10
-368.76991274699992
20
-157.66046837000002
42
-0.41421356234702367
10
-367.76991274699992
20
-158.66046836991097
10
-367.76991274699986
20
-158.68546837
42
-0.41421356240239737
10
-368.76991274709997
20
-159.68546836999997
10
-390.02359240300001
20
-159.68546836984424
42
0.1989123673778263
10
-391.08425257488256
20
-160.12480819810264
10
-395.55201952781351
20
-164.59257515118654
42
-0.19891236740565224
10
-396.25912630910011
20
-164.88546836999998
10
-398.34491274699997
20
-164.88546836999987
42
-0.41421356237309503
10
-398.84491274699991
20
-164.38546836999996
10
-398.84491274700002
20
-158.86046837000001
42
0.99999999999999989
10
-401.84491274700002
20
-158.86046837000001
10
-401.84491274699985
20
-164.38546836999996
42
-0.41421356237313667
10
-402.34491274699997
20
-164.88546837000001
10
-404.43069918399999
20
-164.88546837022167
42
-0.19891236749894681
10
-405.13780596566784
20
-164.59257515101871
10
-409.60557291794066
20
-160.12480819805918
42
0.19891236744408591
10
-410.66623309028796
20
-159.68546836968864
10
-416.89491274700003
20
-159.68546836999997
10
-419.89491274700003
20
-156.68546836999997
10
-419.89491274700003
20
-43.122968369999988
10
-416.89491274700003
20
-40.122968369999981
10
-389.61623308999998
20
-40.122968370155675
42
0.19891236745769778
10
-388.55557291779166
20
-39.683628541571466
10
-386.08780596579999
20
-37.215861588800067
42
-0.19891236743796925
10
-385.3806991841999
20
-36.922968369556763
10
-383.2949127469999
20
-36.922968370000085
42
-0.41421356237309243
10
-382.79491274700001
20
-37.422968369999978
10
-382.79491274699984
20
-40.947968369999977
42
0.99999999999999989
10
-379.7949127469999
20
-40.947968369999977
10
-379.79491274699996
20
-37.422968369999985
42
-0.41421356237309503
10
-379.29491274700001
20
-36.922968369999992
10
-377.209126309
20
-36.92296837
42
-0.19891236741641885
10
-376.50201952771346
20
-37.215861588913469
10
-374.03425257499998
20
-39.683628542000029
42
0.19891236735289736
10
-372.97359240315444
20
-40.122968370311398
10
-294.36628477699998
20
-40.12296837015559
42
0.19891236745316648
10
-293.30562460481013
20
-39.683628541589833
10
-290.83785765282209
20
-37.215861588822065
42
-0.19891236749803412
10
-290.13075087099998
20
-36.922968369556664
10
-288.04496443409602
20
-36.922968369999943
42
-0.41421356242932461
10
-287.54496443399995
20
-37.422968369999978
10
-287.54496443399995
20
-40.947968369999977
42
0.99999999999999989
10
-284.54496443400001
20
-40.947968369999977
10
-284.54496443400001
20
-37.422968369999985
42
-0.41421356237309503
10
-284.04496443400001
20
-36.922968369999992
10
-281.95917799599999
20
-36.922968369999992
42
-0.19891236740778429
10
-281.25207121473693
20
-37.215861588889965
10
-278.78430426200003
20
-39.683628541999973
42
0.19891236734501888
10
-277.72364409019997
20
-40.122968370311355
10
-276.33241274705006
20
-40.122968370000009
42
-0.41421356237308532
10
-275.25741274705001
20
-41.197968369999991
10
-275.25741274705001
20
-59.128895642000003
42
0.41421356237314183
10
-274.75741274704995
20
-59.628895642000003
10
-268.75741274705001
20
-59.628895642000003
42
0.41421356237314183
10
-268.25741274705001
20
-59.128895642000003
10
-268.25741274705001
20
-41.197968369999991
42
-0.41421356237308532
10
-267.18241274704997
20
-40.122968369999995
10
-222.68241274705002
20
-40.122968370000024
42
-0.41421356237308782
10
-221.60741274705003
20
-41.197968369999984
10
-221.60741274705003
20
-56.6581355342311
42
0.41123874327677351
10
-220.60746443400006
20
-57.647968370000029
10
-208.60741274704998
20
-57.647968370000022
42
0.41421356237309243
10
-207.60741274704998
20
-56.647968370000029
10
-207.60741274705003
20
-41.197968369999984
42
-0.41421356237309503
10
-206.53241274704996
20
-40.122968369999981
10
-162.03241274704999
20
-40.122968369999967
42
-0.41421356237309742
0
LWPOLYLINE
5
104
100
AcDbEntity
8
0
100
AcDbPolyline
90
11
70
1
43
0.0
10
-101.81124974704997
20
-57.628883086397984
10
-101.45121505150001
20
-57.628883391999928
42
0.41421368670626657
10
-100.45121462700001
20
-56.628883392000006
10
-100.45121462700003
20
-44.628883391999999
42
0.4142134381235647
10
-101.45121420278554
20
-43.628883392000084
10
-101.80637010182818
20
-43.628883090539254
42
0.0012199167513033309
10
-101.81124974704997
20
-43.628871184999639
10
-115.83247969200004
20
-43.628871184999639
42
0.41421356237309503
10
-116.83247969200004
20
-44.628871184999639
10
-116.83247969200004
20
-56.628883086398005
42
0.41421356237307422
10
-115.83247969200005
20
-57.628883086397977
0
LWPOLYLINE
5
105
100
AcDbEntity
8
0
100
AcDbPolyline
90
4
70
1
43
0.0
10
-318.14491274704994
20
-82.247968369999981
42
-0.99999999999999989
10
-317.14491274705
20
-82.247968369999981
10
-317.14491274705
20
-95.247968369999981
42
-0.99999999999999989
10
-318.14491274704994
20
-95.247968369999981
0
LWPOLYLINE
5
106
100
AcDbEntity
8
0
100
AcDbPolyline
90
8
70
1
43
0.0
10
-150.45741274699998
20
-132.828865081
42
-0.41421356237309503
10
-151.45741274699998
20
-133.82886508099998
10
-163.45741274710002
20
-133.828865081
42
-0.41421356234379791
10
-164.45741274699998
20
-132.82886508099998
10
-164.45741274699998
20
-120.82886508079405
42
-0.41421356231280465
10
-163.45741274699992
20
-119.82886508099998
10
-151.45741274699998
20
-119.82886508099996
42
-0.41421356237311585
10
-150.45741274699998
20
-120.828865081
0
LWPOLYLINE
5
107
100
AcDbEntity
8
0
100
AcDbPolyline
90
8
70
1
43
0.0
10
-264.46991274700002
20
-63.69796836979998
42
-0.41421356231456058
10
-263.46991274699997
20
-62.697968369999984
10
-251.469912747
20
-62.697968369999948
42
-0.41421356237305862
10
-250.46991274699994
20
-63.697968369999984
10
-250.46991274699994
20
-75.697968369999984
42
-0.414213562373069
10
-251.46991274699997
20
-76.697968369999984
10
-263.46991274710001
20
-76.697968369999984
42
-0.41421356234382134
10
-264.46991274700002
20
-75.697968369999984
0
LWPOLYLINE
5
108
100
AcDbEntity
8
0
100
AcDbPolyline
90
8
70
1
43
0.0
10
-350.98916274704993
20
-97.747968370000052
42
-0.4142140000001252
10
-351.48916274704993
20
-97.247968369999981
10
-351.48916274705005
20
-83.247968369999967
42
-0.41421399999997949
10
-350.98916274705005
20
-82.747968369999981
10
-344.98916274704993
20
-82.747968370000024
42
-0.41421399999996911
10
-344.48916274704999
20
-83.247968369999967
10
-344.48916274705016
20
-97.247968369999981
42
-0.41421399999989628
10
-344.98916274704993
20
-97.747968369999967
0
LWPOLYLINE
5
109
100
AcDbEntity
8
0
100
AcDbPolyline
90
8
70
1
43
0.0
10
-330.14779094089704
20
-157.66046836999999
42
-0.41421356240322982
10
-331.14779094099993
20
-156.66046836999999
10
-331.14779094100004
20
-144.6604683699
42
-0.4142135623437927
10
-330.14779094099993
20
-143.66046836999999
10
-318.14779094099998
20
-143.66046836999999
42
-0.41421356237312101
10
-317.14779094099998
20
-144.66046836999999
10
-317.14779094099993
20
-156.66046836979999
42
-0.41421356243164248
10
-318.14779094100004
20
-157.66046836999999
0
LWPOLYLINE
5
110
100
AcDbEntity
8
0
100
AcDbPolyline
90
8
70
1
43
0.0
10
-92.019912747102964
20
-114.79796837000002
42
-0.41421356234294465
10
-93.019912747000006
20
-113.79796836999998
10
-93.019912747000006
20
-101.79796836979997
42
-0.41421356231452161
10
-92.019912746999992
20
-100.79796836999998
10
-80.019912747000006
20
-100.79796836999996
42
-0.41421356237311063
10
-79.019912746999978
20
-101.79796837000001
10
-79.019912746999978
20
-113.79796836999999
42
-0.41421356237309503
10
-80.019912746999978
20
-114.79796836999998
0
ARC
5
111
100
AcDbEntity
8
0
100
AcDbCircle
10
-400.58320274705
20
-92.153129369999931
30
0
40
0.24999999999993011
210
0
220
-0
230
1
100
AcDbArc
50
23.316909999992006
51
90.000000000013031
0
SPLINE
5
112
100
AcDbEntity
8
0
100
AcDbSpline
70
4
71
3
72
8
73
4
74
0
42
0.000000001
43
0.0000000001
44
0.0000000001
40
0.19035717850956549
40
0.19035717850956549
40
0.19035717850956549
40
0.19035717850956549
40
1
40
1
40
1
40
1
41
1
41
1
41
1
41
1
10
-400.35362068653467
20
-92.054175421222681
30
0
10
-400.10844563753619
20
-92.623003330497923
30
0
10
-399.3568604115286
20
-93.032387654204712
30
0
10
-398.2263713806384
20
-93.192244660331511
30
0
0
SPLINE
5
113
100
AcDbEntity
8
0
100
AcDbSpline
70
4
71
3
72
8
73
4
74
0
42
0.000000001
43
0.0000000001
44
0.0000000001
40
0
40
0
40
0
40
0
40
1
40
1
40
1
40
1
41
1
41
1
41
1
41
1
10
-398.2263713806384
20
-93.192244660331511
30
0
10
-397.82523105754865
20
-93.248968622641101
30
0
10
-396.70682201921352
20
-93.249388659565085
30
0
10
-396.31426714963624
20
-93.192959482205154
30
0
0
SPLINE
5
114
100
AcDbEntity
8
0
100
AcDbSpline
70
4
71
3
72
8
73
4
74
0
42
0.000000001
43
0.0000000001
44
0.0000000001
40
0
40
0
40
0
40
0
40
1
40
1
40
1
40
1
41
1
41
1
41
1
41
1
10
-396.31426714963624
20
-93.192959482205154
30
0
10
-395.2299823158603
20
-93.037106805835549
30
0
10
-394.45260277431305
20
-92.631895160994674
30
0
10
-394.18511010333731
20
-92.083130836696739
30
0
0
SPLINE
5
115
100
AcDbEntity
8
0
100
AcDbSpline
70
4
71
3
72
8
73
4
74
0
42
0.000000001
43
0.0000000001
44
0.0000000001
40
0
40
0
40
0
40
0
40
0.036876957948063997
40
0.036876957948063997
40
0.036876957948063997
40
0.036876957948063997
41
1
41
1
41
1
41
1
10
-394.18511010333731
20
-92.083130836696739
30
0
10
-394.18041010398485
20
-92.073488741696096
30
0
10
-394.17589069378459
20
-92.063658969003498
30
0
10
-394.17155169597174
20
-92.053654725791233
30
0
0
ARC
5
116
100
AcDbEntity
8
0
100
AcDbCircle
10
-393.94219474705005
20
-92.1531303699999
30
0
40
0.2499999999999325
210
0
220
-0
230
1
100
AcDbArc
50
90
51
156.55287900000886
0
LINE
5
117
100
AcDbEntity
8
0
100
AcDbLine
10
-393.94219474705005
20
-91.903130369999971
30
0
11
-392.54775574704991
21
-91.903130370000071
31
0
0
ARC
5
118
100
AcDbEntity
8
0
100
AcDbCircle
10
-392.54775574704979
20
-92.153130369999943
30
0
40
0.24999999999983677
210
0
220
0
230
1
100
AcDbArc
50
-12.924590000016073
51
90.000000000026063
0
SPLINE
5
119
100
AcDbEntity
8
0
100
AcDbSpline
70
4
71
3
72
8
73
4
74
0
42
0.000000001
43
0.0000000001
44
0.0000000001
40
0.49172288678542675
40
0.49172288678542675
40
0.49172288678542675
40
0.49172288678542675
40
1
40
1
40
1
40
1
41
1
41
1
41
1
41
1
10
-392.30408963135528
20
-92.209047432499915
30
0
10
-392.41241955411056
20
-92.681109601948762
30
0
10
-392.65175018751683
20
-93.123221623360095
30
0
10
-393.00990245757657
20
-93.48442841747719
30
0
0
SPLINE
5
120
100
AcDbEntity
8
0
100
AcDbSpline
70
4
71
3
72
8
73
4
74
0
42
0.000000001
43
0.0000000001
44
0.0000000001
40
0
40
0
40
0
40
0
40
1
40
1
40
1
40
1
41
1
41
1
41
1
41
1
10
-393.00990245757657
20
-93.48442841747719
30
0
10
-393.68218167578334
20
-94.162442657901977
30
0
10
-394.66109796986939
20
-94.570151751200513
30
0
10
-396.09667284095553
20
-94.77003998532966
30
0
0
SPLINE
5
121
100
AcDbEntity
8
0
100
AcDbSpline
70
4
71
3
72
8
73
4
74
0
42
0.000000001
43
0.0000000001
44
0.0000000001
40
0
40
0
40
0
40
0
40
1
40
1
40
1
40
1
41
1
41
1
41
1
41
1
10
-396.09667284095553
20
-94.77003998532966
30
0
10
-396.50759293941394
20
-94.827256099336324
30
0
10
-397.99299279285037
20
-94.827663484545724
30
0
10
-398.42644559497171
20
-94.770682692430213
30
0
0
SPLINE
5
122
100
AcDbEntity
8
0
100
AcDbSpline
70
4
71
3
72
8
73
4
74
0
42
0.000000001
43
0.0000000001
44
0.0000000001
40
0
40
0
40
0
40
0
40
1
40
1
40
1
40
1
41
1
41
1
41
1
41
1
10
-398.42644559497171
20
-94.770682692430213
30
0
10
-399.4278945927208
20
-94.639026420190632
30
0
10
-400.17963163916204
20
-94.406999035519519
30
0
10
-400.82197690067756
20
-94.031291189074082
30
0
0
SPLINE
5
123
100
AcDbEntity
8
0
100
AcDbSpline
70
4
71
3
72
8
73
4
74
0
42
0.000000001
43
0.0000000001
44
0.0000000001
40
0
40
0
40
0
40
0
40
1
40
1
40
1
40
1
41
1
41
1
41
1
41
1
10
-400.82197690067756
20
-94.031291189074082
30
0
10
-401.53564746829704
20
-93.613864313808349
30
0
10
-401.99321443840375
20
-93.060382165144361
30
0
10
-402.21531022713134
20
-92.345891766420266
30
0
0
SPLINE
5
124
100
AcDbEntity
8
0
100
AcDbSpline
70
4
71
3
72
8
73
4
74
0
42
0.000000001
43
0.0000000001
44
0.0000000001
40
0
40
0
40
0
40
0
40
0.1156078320633637
40
0.1156078320633637
40
0.1156078320633637
40
0.1156078320633637
41
1
41
1
41
1
41
1
10
-402.21531022713134
20
-92.345891766420266
30
0
10
-402.22891392407757
20
-92.302127464621137
30
0
10
-402.24094492711163
20
-92.254343905853716
30
0
10
-402.25140323623361
20
-92.203470403332432
30
0
0
ARC
5
125
100
AcDbEntity
8
0
100
AcDbCircle
10
-402.00652374704981
20
-92.153129370000016
30
0
40
0.25000000000003908
210
0
220
0
230
1
100
AcDbArc
50
90.000000000026063
51
191.61672385172187
0
LINE
5
126
100
AcDbEntity
8
0
100
AcDbLine
10
-402.00652374704993
20
-91.903129369999988
30
0
11
-400.58320274705005
21
-91.903129370000002
31
0
0
LWPOLYLINE
5
127
100
AcDbEntity
8
0
100
AcDbPolyline
90
8
70
1
43
0.0
10
-170.50741274700002
20
-119.82886508099996
42
-0.41421356237314705
10
-169.50741274699999
20
-120.82886508100002
10
-169.50741274699999
20
-132.828865081
42
-0.41421356237312623
10
-170.50741274700002
20
-133.82886508099998
10
-182.50741274709995
20
-133.82886508099995
42
-0.41421356234381873
10
-183.50741274700002
20
-132.828865081
10
-183.50741274699999
20
-120.8288650808
42
-0.41421356231456841
10
-182.50741274699999
20
-119.82886508099996
0
LWPOLYLINE
5
128
100
AcDbEntity
8
0
100
AcDbPolyline
90
8
70
1
43
0.0
10
-260.99491274699994
20
-81.747968369999995
42
-0.41421356237305862
10
-259.99491274699994
20
-82.747968369999981
10
-259.99491274699994
20
-94.747968369999981
42
-0.41421356237304302
10
-260.99491274699994
20
-95.747968369999967
10
-272.994912747103
20
-95.747968370000009
42
-0.41421356234290824
10
-273.994912747
20
-94.747968369999995
10
-273.99491274700006
20
-82.747968369799992
42
-0.41421356231451117
10
-272.99491274699994
20
-81.747968369999995
0
LWPOLYLINE
5
129
100
AcDbEntity
8
0
100
AcDbPolyline
90
8
70
1
43
0.0
10
-176.00933074704997
20
-144.16046836999999
42
-0.41421356237315748
10
-175.50933074704997
20
-143.66046837000002
10
-172.74587174704999
20
-143.66046836999996
42
-0.4142135623730846
10
-172.24587174704999
20
-144.16046836999999
10
-172.24587174704999
20
-157.16046836999999
42
-0.41421356237309503
10
-172.74587174704999
20
-157.66046836999999
10
-175.50933074704994
20
-157.66046836999993
42
-0.41421356237316787
10
-176.00933074704994
20
-157.16046836999999
0
LWPOLYLINE
5
130
100
AcDbEntity
8
0
100
AcDbPolyline
90
8
70
1
43
0.0
10
-218.13241274699999
20
-100.79796837000001
42
-0.41421356237305862
10
-217.13241274699999
20
-101.79796836999999
10
-217.13241274700005
20
-113.79796836999999
42
-0.4142135623730534
10
-218.13241274700002
20
-114.79796836999998
10
-230.13241274710296
20
-114.79796836999998
42
-0.41421356234298629
10
-231.13241274700005
20
-113.79796836999999
10
-231.13241274700002
20
-101.79796836979997
42
-0.41421356231453721
10
-230.13241274700005
20
-100.79796836999998
0
LWPOLYLINE
5
131
100
AcDbEntity
8
0
100
AcDbPolyline
90
8
70
1
43
0.0
10
-168.22087214489997
20
-157.66046836999999
42
-0.41421356240235574
10
-169.22087214499996
20
-156.66046836999999
10
-169.22087214499996
20
-144.66046836991097
42
-0.41421356234701845
10
-168.22087214499987
20
-143.66046836999999
10
-156.22087214499996
20
-143.66046836999999
42
-0.41421356237308982
10
-155.22087214499999
20
-144.66046836999999
10
-155.22087214499999
20
-156.66046836979999
42
-0.41421356243167368
10
-156.22087214499996
20
-157.66046836999999
0
LWPOLYLINE
5
132
100
AcDbEntity
8
0
100
AcDbPolyline
90
8
70
1
43
0.0
10
-250.18241274699994
20
-101.79796836979405
42
-0.41421356231280987
10
-249.18241274699992
20
-100.79796836999998
10
-237.18241274699992
20
-100.79796836999998
42
-0.41421356237304302
10
-236.182412747
20
-101.79796836999999
10
-236.18241274700006
20
-113.79796836999999
42
-0.4142135623730534
10
-237.18241274700003
20
-114.79796836999998
10
-249.18241274709999
20
-114.79796837000001
42
-0.41421356234382389
10
-250.182412747
20
-113.79796836999999
0
LWPOLYLINE
5
133
100
AcDbEntity
8
0
100
AcDbPolyline
90
8
70
1
43
0.0
10
-365.26991274705006
20
-81.747968369999953
42
-0.41421356237295975
10
-364.76991274705006
20
-82.247968369999981
10
-364.76991274705006
20
-95.247968369999981
42
-0.41421356237327195
10
-365.26991274705006
20
-95.747968369999953
10
-375.69266974704993
20
-95.747968370000009
42
-0.41421356237295975
10
-376.19266974704993
20
-95.247968369999981
10
-376.19266974704999
20
-82.247968369999981
42
-0.41421356237301177
10
-375.69266974704999
20
-81.747968370000009
0
LWPOLYLINE
5
134
100
AcDbEntity
8
0
100
AcDbPolyline
90
4
70
1
43
0.0
10
-332.43241274704997
20
-101.29796836999999
42
-0.99999999999999989
10
-331.43241274705008
20
-101.29796836999999
10
-331.43241274705008
20
-114.29796836999998
42
-0.99999999999999989
10
-332.43241274704997
20
-114.29796836999998
0
LWPOLYLINE
5
135
100
AcDbEntity
8
0
100
AcDbPolyline
90
8
70
1
43
0.0
10
-131.119912747
20
-63.697968369794033
42
-0.41421356231277345
10
-130.119912747
20
-62.697968369999984
10
-118.11991274699999
20
-62.69796836999997
42
-0.41421356237310025
10
-117.11991274699999
20
-63.697968369999984
10
-117.119912747
20
-75.697968369999984
42
-0.41421356237308204
10
-118.11991274699999
20
-76.697968369999984
10
-130.11991274709999
20
-76.697968369999984
42
-0.41421356234380569
10
-131.119912747
20
-75.697968369999984
0
LWPOLYLINE
5
136
100
AcDbEntity
8
0
100
AcDbPolyline
90
8
70
1
43
0.0
10
-312.09779094099991
20
-144.66046836991097
42
-0.41421356234708612
10
-311.09779094099986
20
-143.66046836999999
10
-299.09779094099997
20
-143.66046836999999
42
-0.41421356237312101
10
-298.09779094099997
20
-144.66046836999999
10
-298.09779094100003
20
-156.66046836979402
42
-0.41421356243341662
10
-299.09779094100008
20
-157.66046836999999
10
-311.09779094089703
20
-157.66046837000002
42
-0.4142135624032558
10
-312.09779094099997
20
-156.66046836999999
0
LWPOLYLINE
5
137
100
AcDbEntity
8
0
100
AcDbPolyline
90
8
70
1
43
0.0
10
-364.76991274705006
20
-75.697968369999984
42
-0.41421399999996911
10
-365.76991274705
20
-76.697968369999984
10
-377.76991274704994
20
-76.697968369999884
42
-0.41421400000002895
10
-378.76991274705
20
-75.697968369999984
10
-378.76991274705
20
-63.69796836999997
42
-0.4142139999999665
10
-377.76991274705006
20
-62.69796836999997
10
-365.76991274704994
20
-62.697968369999906
42
-0.4142140000000159
10
-364.76991274705
20
-63.69796836999997
0
LWPOLYLINE
5
138
100
AcDbEntity
8
0
100
AcDbPolyline
90
8
70
1
43
0.0
10
-365.76991274699992
20
-100.79796836999996
42
-0.41421356237307944
10
-364.76991274699998
20
-101.79796836999999
10
-364.76991274699981
20
-113.79796836999999
42
-0.41421356237307422
10
-365.76991274699992
20
-114.79796836999998
10
-377.76991274710298
20
-114.79796837000008
42
-0.41421356234291862
10
-378.76991274700003
20
-113.79796836999999
10
-378.76991274699992
20
-101.79796836979405
42
-0.41421356231277345
10
-377.76991274699992
20
-100.79796836999995
0
LWPOLYLINE
5
139
100
AcDbEntity
8
0
100
AcDbPolyline
90
8
70
1
43
0.0
10
-134.88241274710299
20
-114.79796836999998
42
-0.41421356234292384
10
-135.88241274699999
20
-113.79796836999999
10
-135.88241274699999
20
-101.79796836979405
42
-0.41421356231277862
10
-134.88241274699999
20
-100.79796836999998
10
-122.88241274699999
20
-100.79796837000001
42
-0.41421356237310025
10
-121.88241274699998
20
-101.79796836999999
10
-121.88241274699999
20
-113.79796836999999
42
-0.41421356237309503
10
-122.88241274699999
20
-114.79796836999998
0
LWPOLYLINE
5
140
100
AcDbEntity
8
0
100
AcDbPolyline
90
8
70
1
43
0.0
10
-139.64497969200008
20
-57.628881370809225
42
-0.41421356237307422
10
-140.64497969200005
20
-56.628881370809253
10
-140.64497969200005
20
-44.628871184999461
42
-0.41421356237309503
10
-139.64497969200005
20
-43.628871184999468
10
-127.64491274704997
20
-43.628871184999468
42
-0.41421356237308982
10
-126.64491274705
20
-44.628871184999461
10
-126.64491274705
20
-56.628881370809232
42
-0.41421356237309503
10
-127.64491274705
20
-57.628881370809225
0
LWPOLYLINE
5
141
100
AcDbEntity
8
0
100
AcDbPolyline
90
8
70
1
43
0.0
10
-159.69491274700002
20
-82.747968369799992
42
-0.41421356231452161
10
-158.69491274700002
20
-81.747968369999995
10
-146.69491274699999
20
-81.747968369999967
42
-0.41421356237310542
10
-145.69491274700002
20
-82.747968369999967
10
-145.69491274700002
20
-94.747968369999995
42
-0.41421356237311063
10
-146.69491274700002
20
-95.747968369999967
10
-158.69491274709998
20
-95.747968369999967
42
-0.41421356234380829
10
-159.69491274700002
20
-94.747968369999981
0
LWPOLYLINE
5
142
100
AcDbEntity
8
0
100
AcDbPolyline
90
8
70
1
43
0.0
10
-397.81991274700005
20
-63.697968369794033
42
-0.41421356231270579
10
-396.81991274699999
20
-62.697968369999984
10
-384.8199127470001
20
-62.697968369999934
42
-0.41421356237314705
10
-383.81991274699999
20
-63.697968369999984
10
-383.81991274699988
20
-75.697968369999984
42
-0.41421356237307161
10
-384.81991274699993
20
-76.697968369999984
10
-396.81991274709992
20
-76.697968369999984
42
-0.41421356234380829
10
-397.81991274699999
20
-75.697968369999984
0
LWPOLYLINE
5
143
100
AcDbEntity
8
0
100
AcDbPolyline
90
8
70
1
43
0.0
10
-378.76991274699998
20
-120.84796836979405
42
-0.41421356231267981
10
-377.76991274699992
20
-119.84796836999999
10
-365.76991274699992
20
-119.84796836999992
42
-0.41421356237308982
10
-364.76991274699998
20
-120.84796836999999
10
-364.76991274699981
20
-132.84796836999999
42
-0.41421356237318868
10
-365.76991274699992
20
-133.84796836999999
10
-377.76991274709997
20
-133.84796836999993
42
-0.4142135623437771
10
-378.76991274699998
20
-132.84796836999999
0
LWPOLYLINE
5
144
100
AcDbEntity
8
0
100
AcDbPolyline
90
8
70
1
43
0.0
10
-137.170872145
20
-143.66046836999999
42
-0.41421356237309503
10
-136.170872145
20
-144.66046836999999
10
-136.170872145
20
-156.66046836979999
42
-0.41421356243167368
10
-137.170872145
20
-157.66046836999999
10
-149.170872144897
20
-157.66046836999999
42
-0.41421356240323504
10
-150.17087214499998
20
-156.66046836999999
10
-150.17087214499998
20
-144.66046836991097
42
-0.41421356234702367
10
-149.17087214499998
20
-143.66046836999999
0
ARC
5
145
100
AcDbEntity
8
0
100
AcDbCircle
10
-379.4426697470501
20
-94.057805369999826
30
0
40
0.25000000000014566
210
0
220
0
230
1
100
AcDbArc
50
270.00000000002603
51
360
0
LINE
5
146
100
AcDbEntity
8
0
100
AcDbLine
10
-379.44266974704999
20
-94.307805369999969
30
0
11
-386.51005674705004
21
-94.307805370000096
31
0
0
ARC
5
147
100
AcDbEntity
8
0
100
AcDbCircle
10
-386.51005674704993
20
-94.057805369999969
30
0
40
0.25000000000019895
210
0
220
0
230
1
100
AcDbArc
50
180
51
269.99999999997391
0
LINE
5
148
100
AcDbEntity
8
0
100
AcDbLine
10
-386.7600567470501
20
-94.057805369999969
30
0
11
-386.7600567470501
21
-92.841130369999959
31
0
0
ARC
5
149
100
AcDbEntity
8
0
100
AcDbCircle
10
-386.51005674704999
20
-92.841130370000116
30
0
40
0.2500000000001279
210
0
220
0
230
1
100
AcDbArc
50
90.000000000013031
51
180
0
LINE
5
150
100
AcDbEntity
8
0
100
AcDbLine
10
-386.51005674705004
20
-92.591130369999988
30
0
11
-384.13725174705007
21
-92.591130369999973
31
0
0
ARC
5
151
100
AcDbEntity
8
0
100
AcDbCircle
10
-384.13725174705007
20
-92.341130369999988
30
0
40
0.24999999999998579
210
-0
220
0
230
1
100
AcDbArc
50
-90
51
0
0
LINE
5
152
100
AcDbEntity
8
0
100
AcDbLine
10
-383.88725174705007
20
-92.341130369999988
30
0
11
-383.88725204096829
21
-91.986786404933667
31
0
0
ELLIPSE
5
153
100
AcDbEntity
8
0
100
AcDbEllipse
10
-383.92144166219896
20
-91.593803278582087
30
0
11
-0.019054755278654377
21
0.70253631174444586
31
0.0
40
0.040407374696500423
41
4.1176594154900652
42
5.7261270965152127
0
SPLINE
5
154
100
AcDbEntity
8
0
100
AcDbSpline
70
4
71
3
72
8
73
4
74
0
42
0.000000001
43
0.0000000001
44
0.0000000001
40
0
40
0
40
0
40
0
40
1
40
1
40
1
40
1
41
1
41
1
41
1
41
1
10
-383.92260729980592
20
-90.997073497708541
30
0
10
-384.12879482262326
20
-88.747811194579626
30
0
10
-385.14924163498267
20
-87.048410119402533
30
0
10
-386.82141748555966
20
-86.169535993169021
30
0
0
LINE
5
155
100
AcDbEntity
8
0
100
AcDbLine
10
-386.82141748555966
20
-86.169535993169021
30
0
11
-386.94023782220586
21
-86.107085475743204
31
0
0
ARC
5
156
100
AcDbEntity
8
0
100
AcDbCircle
10
-386.82392774704999
20
-85.885789369999941
30
0
40
0.24999999999977313
210
0
220
0
230
1
100
AcDbArc
50
150.53088099996714
51
242.27422500010354
0
LINE
5
157
100
AcDbEntity
8
0
100
AcDbLine
10
-387.04158299043996
20
-85.762800772866939
30
0
11
-386.72771750457429
21
-85.207347507013793
31
0
0
SPLINE
5
158
100
AcDbEntity
8
0
100
AcDbSpline
70
4
71
3
72
8
73
4
74
0
42
0.000000001
43
0.0000000001
44
0.0000000001
40
1.0221430721849054e-07
40
1.0221430721849054e-07
40
1.0221430721849054e-07
40
1.0221430721849054e-07
40
1
40
1
40
1
40
1
41
1
41
1
41
1
41
1
10
-386.72771746993482
20
-85.207347526587185
30
0
10
-386.23108090575272
20
-84.328440786351862
30
0
10
-386.29673819271022
20
-84.381982849284029
30
0
10
-385.92895035718368
20
-84.555974271059441
30
0
0
SPLINE
5
159
100
AcDbEntity
8
0
100
AcDbSpline
70
4
71
3
72
8
73
4
74
0
42
0.000000001
43
0.0000000001
44
0.0000000001
40
0
40
0
40
0
40
0
40
1
40
1
40
1
40
1
41
1
41
1
41
1
41
1
10
-385.92895035718368
20
-84.555974271059441
30
0
10
-384.77799604826873
20
-85.100463581001549
30
0
10
-383.48748826687472
20
-86.580959629867621
30
0
10
-383.08355697554919
20
-87.820269717879697
30
0
0
LINE
5
160
100
AcDbEntity
8
0
100
AcDbLine
10
-383.08355697554907
20
-87.820269717879711
30
0
11
-382.98548974705
21
-88.121147369999989
31
0
0
LINE
5
161
100
AcDbEntity
8
0
100
AcDbLine
10
-382.98548974705
20
-88.121147369999989
30
0
11
-382.92528656560091
21
-87.912501979704103
31
0
0
SPLINE
5
162
100
AcDbEntity
8
0
100
AcDbSpline
70
4
71
3
72
8
73
4
74
0
42
0.000000001
43
0.0000000001
44
0.0000000001
40
0
40
0
40
0
40
0
40
1
40
1
40
1
40
1
41
1
41
1
41
1
41
1
10
-382.92528655652359
20
-87.91250198232332
30
0
10
-382.56306923333256
20
-86.657178619170153
30
0
10
-381.25168738805655
20
-85.124010952173762
30
0
10
-380.05097641604993
20
-84.552072482283634
30
0
0
SPLINE
5
163
100
AcDbEntity
8
0
100
AcDbSpline
70
4
71
3
72
8
73
4
74
0
42
0.000000001
43
0.0000000001
44
0.0000000001
40
0
40
0
40
0
40
0
40
1
40
1
40
1
40
1
41
1
41
1
41
1
41
1
10
-380.05097641604993
20
-84.552072482283634
30
0
10
-379.63496653281697
20
-84.353913737537326
30
0
10
-379.68870658824312
20
-84.33018671201809
30
0
10
-379.40227809605904
20
-84.83850223963934
30
0
0
LINE
5
164
100
AcDbEntity
8
0
100
AcDbLine
10
-379.40227809605892
20
-84.83850223963934
30
0
11
-379.40230994061898
21
-84.838504384033072
31
0
0
LINE
5
165
100
AcDbEntity
8
0
100
AcDbLine
10
-379.40230994061898
20
-84.838504384033072
30
0
11
-378.95659488145532
21
-85.629452010242844
31
0
0
ELLIPSE
5
166
100
AcDbEntity
8
0
100
AcDbEllipse
10
-378.9859748159937
20
-85.621343073016931
30
0
11
0.21937119125981158
21
-0.38712325513731388
31
0.0
40
0.048518314238532319
41
1.1911448605834318
42
1.5223690983549396
0
ARC
5
167
100
AcDbEntity
8
0
100
AcDbCircle
10
-379.10708174704996
20
-85.87394436999999
30
0
40
0.2499999999999204
210
0
220
0
230
1
100
AcDbArc
50
-63.19362278680466
51
28.429771997443329
0
SPLINE
5
168
100
AcDbEntity
8
0
100
AcDbSpline
70
4
71
3
72
8
73
4
74
0
42
0.000000001
43
0.0000000001
44
0.0000000001
40
0.80292892228941914
40
0.80292892228941914
40
0.80292892228941914
40
0.80292892228941914
40
1
40
1
40
1
40
1
41
1
41
1
41
1
41
1
10
-378.99433758774433
20
-86.097078154240378
30
0
10
-379.02392989560735
20
-86.112030440692877
30
0
10
-379.05528060001029
20
-86.127792979051605
30
0
10
-379.08755657456436
20
-86.143936513892299
30
0
0
SPLINE
5
169
100
AcDbEntity
8
0
100
AcDbSpline
70
4
71
3
72
8
73
4
74
0
42
0.000000001
43
0.0000000001
44
0.0000000001
40
0
40
0
40
0
40
0
40
1
40
1
40
1
40
1
41
1
41
1
41
1
41
1
10
-379.08755657456436
20
-86.143936513892299
30
0
10
-379.55352871125103
20
-86.37699880881587
30
0
10
-379.87776368952223
20
-86.617469947796224
30
0
10
-380.31541369795491
20
-87.054576565087757
30
0
0
SPLINE
5
170
100
AcDbEntity
8
0
100
AcDbSpline
70
4
71
3
72
8
73
4
74
0
42
0.000000001
43
0.0000000001
44
0.0000000001
40
0
40
0
40
0
40
0
40
1
40
1
40
1
40
1
41
1
41
1
41
1
41
1
10
-380.31541369795491
20
-87.054576565087757
30
0
10
-381.13876703993526
20
-87.876913974387421
30
0
10
-381.65885245762809
20
-88.875030510516751
30
0
10
-381.90420968877845
20
-90.103701771740333
30
0
0
SPLINE
5
171
100
AcDbEntity
8
0
100
AcDbSpline
70
4
71
3
72
8
73
4
74
0
42
0.000000001
43
0.0000000001
44
0.0000000001
40
0
40
0
40
0
40
0
40
1
40
1
40
1
40
1
41
1
41
1
41
1
41
1
10
-381.90420968877845
20
-90.103701771740333
30
0
10
-382.01941873206692
20
-90.680635138545753
30
0
10
-382.06520908263838
20
-91.210740714184354
30
0
10
-382.06535457735595
20
-91.969272996525234
30
0
0
LINE
5
172
100
AcDbEntity
8
0
100
AcDbLine
10
-382.06535457735589
20
-91.969272996525234
30
0
11
-382.06542874458069
21
-92.341080523396371
31
0
0
ARC
5
173
100
AcDbEntity
8
0
100
AcDbCircle
10
-381.81542874705002
20
-92.341130369999988
30
0
40
0.25000000250000443
210
0
220
0
230
1
100
AcDbArc
50
179.98857600001043
51
270
0
LINE
5
174
100
AcDbEntity
8
0
100
AcDbLine
10
-381.81542874705002
20
-92.591130372499975
30
0
11
-379.44266974704993
21
-92.59113036999986
31
0
0
ARC
5
175
100
AcDbEntity
8
0
100
AcDbCircle
10
-379.4426697470501
20
-92.841130370000002
30
0
40
0.2500000000001279
210
0
220
-0
230
1
100
AcDbArc
50
0
51
89.99999999996092
0
LINE
5
176
100
AcDbEntity
8
0
100
AcDbLine
10
-379.19266974704999
20
-92.841130369999988
30
0
11
-379.19266974704999
21
-94.057805369999983
31
0
0
LWPOLYLINE
5
177
100
AcDbEntity
8
0
100
AcDbPolyline
90
8
70
1
43
0.0
10
-288.569979692
20
-56.628881370716904
42
-0.41421356237309503
10
-289.56997969200006
20
-57.628881370716918
10
-301.56991274705001
20
-57.628881370716918
42
-0.41421356237309503
10
-302.56991274705001
20
-56.628881370716904
10
-302.56991274705001
20
-44.628871184999667
42
-0.41421356237309503
10
-301.56991274705001
20
-43.628871184999653
10
-289.56997969200006
20
-43.628871184999653
42
-0.41421356237309503
10
-288.569979692
20
-44.628871184999667
0
LWPOLYLINE
5
178
100
AcDbEntity
8
0
100
AcDbPolyline
90
8
70
1
43
0.0
10
-306.33241274700003
20
-114.79796837000002
42
-0.41421356237304818
10
-307.33241274700003
20
-113.79796836999999
10
-307.33241274700003
20
-101.79796836979997
42
-0.41421356231455803
10
-306.33241274699998
20
-100.79796836999995
10
-294.332412747192
20
-100.79796836999998
42
-0.41421356242931678
10
-293.33241274700003
20
-101.79796836999999
10
-293.33241274700009
20
-113.79796836999999
42
-0.4142135623730534
10
-294.33241274700003
20
-114.79796836999998
0
ARC
5
179
100
AcDbEntity
8
0
100
AcDbCircle
10
-393.96586874705008
20
-91.053131370000088
30
0
40
0.24999999999991951
210
0
220
0
230
1
100
AcDbArc
50
205.25303728868229
51
270.00022918314352
0
SPLINE
5
180
100
AcDbEntity
8
0
100
AcDbSpline
70
4
71
3
72
8
73
4
74
0
42
0.000000001
43
0.0000000001
44
0.0000000001
40
0.98583929616478683
40
0.98583929616478683
40
0.98583929616478683
40
0.98583929616478683
40
1
40
1
40
1
40
1
41
1
41
1
41
1
41
1
10
-394.19197666699432
20
-91.159785440836714
30
0
10
-394.19383104547921
20
-91.155854118465498
30
0
10
-394.19571135594026
20
-91.15194718402455
30
0
10
-394.19761758836898
20
-91.148065385337361
30
0
0
SPLINE
5
181
100
AcDbEntity
8
0
100
AcDbSpline
70
4
71
3
72
8
73
4
74
0
42
0.000000001
43
0.0000000001
44
0.0000000001
40
0
40
0
40
0
40
0
40
1
40
1
40
1
40
1
41
1
41
1
41
1
41
1
10
-394.19761758836898
20
-91.148065385337361
30
0
10
-394.50439889379453
20
-90.523343962228637
30
0
10
-395.48270031455218
20
-90.102779461747602
30
0
10
-396.77984012472791
20
-90.037988766223208
30
0
0
SPLINE
5
182
100
AcDbEntity
8
0
100
AcDbSpline
70
4
71
3
72
8
73
4
74
0
42
0.000000001
43
0.0000000001
44
0.0000000001
40
0
40
0
40
0
40
0
40
1
40
1
40
1
40
1
41
1
41
1
41
1
41
1
10
-396.77984012472791
20
-90.037988766223208
30
0
10
-397.35700375273848
20
-90.009158039043328
30
0
10
-397.83484636062769
20
-90.025053653238857
30
0
10
-398.29057124109181
20
-90.088238846183359
30
0
0
SPLINE
5
183
100
AcDbEntity
8
0
100
AcDbSpline
70
4
71
3
72
8
73
4
74
0
42
0.000000001
43
0.0000000001
44
0.0000000001
40
0
40
0
40
0
40
0
40
1
40
1
40
1
40
1
41
1
41
1
41
1
41
1
10
-398.29057124109181
20
-90.088241376526256
30
0
10
-398.81659410843639
20
-90.161174715552917
30
0
10
-399.16596867615954
20
-90.259029401954962
30
0
10
-399.53242052821975
20
-90.436066109213641
30
0
0
SPLINE
5
184
100
AcDbEntity
8
0
100
AcDbSpline
70
4
71
3
72
8
73
4
74
0
42
0.000000001
43
0.0000000001
44
0.0000000001
40
0
40
0
40
0
40
0
40
0.66535465217256007
40
0.66535465217256007
40
0.66535465217256007
40
0.66535465217256007
41
1
41
1
41
1
41
1
10
-399.53242052821975
20
-90.436066109213641
30
0
10
-399.93399704134572
20
-90.630072082155039
30
0
10
-400.20337949247192
20
-90.872062980645453
30
0
10
-400.33870310727661
20
-91.15959343116424
30
0
0
ARC
5
185
100
AcDbEntity
8
0
100
AcDbCircle
10
-400.56490274705016
20
-91.053134369999938
30
0
40
0.25000000000002132
210
0
220
0
230
1
100
AcDbArc
50
270.00000000002603
51
334.79635228231621
0
LINE
5
186
100
AcDbEntity
8
0
100
AcDbLine
10
-400.56490274705004
20
-91.303134369999967
30
0
11
-401.9955787470501
21
-91.303135370000064
31
0
0
ARC
5
187
100
AcDbEntity
8
0
100
AcDbCircle
10
-401.9955787470501
20
-91.053135370000007
30
0
40
0.25000000000005596
210
0
220
0
230
1
100
AcDbArc
50
166.42895999998987
51
270
0
SPLINE
5
188
100
AcDbEntity
8
0
100
AcDbSpline
70
4
71
3
72
8
73
4
74
0
42
0.000000001
43
0.0000000001
44
0.0000000001
40
0.92898640119481857
40
0.92898640119481857
40
0.92898640119481857
40
0.92898640119481857
40
1
40
1
40
1
40
1
41
1
41
1
41
1
41
1
10
-402.2385987436586
20
-90.994472315429832
30
0
10
-402.23142931191273
20
-90.964771759344089
30
0
10
-402.22366647307024
20
-90.936372348704936
30
0
10
-402.21531022713134
20
-90.909489473200779
30
0
0
SPLINE
5
189
100
AcDbEntity
8
0
100
AcDbSpline
70
4
71
3
72
8
73
4
74
0
42
0.000000001
43
0.0000000001
44
0.0000000001
40
0
40
0
40
0
40
0
40
1
40
1
40
1
40
1
41
1
41
1
41
1
41
1
10
-402.21531022713134
20
-90.909489473200779
30
0
10
-401.78131593162607
20
-89.513312041309931
30
0
10
-400.35663671713422
20
-88.662624669984339
30
0
10
-398.11113703392067
20
-88.458861215680031
30
0
0
SPLINE
5
190
100
AcDbEntity
8
0
100
AcDbSpline
70
4
71
3
72
8
73
4
74
0
42
0.000000001
43
0.0000000001
44
0.0000000001
40
0
40
0
40
0
40
0
40
0.99999768273212186
40
0.99999768273212186
40
0.99999768273212186
40
0.99999768273212186
41
1
41
1
41
1
41
1
10
-398.11113703392067
20
-88.458861215680031
30
0
10
-397.73974934343892
20
-88.425159656483402
30
0
10
-396.90992130886718
20
-88.418325153847448
30
0
10
-396.53459936817194
20
-88.445875304313134
30
0
0
SPLINE
5
191
100
AcDbEntity
8
0
100
AcDbSpline
70
4
71
3
72
8
73
4
74
0
42
0.000000001
43
0.0000000001
44
0.0000000001
40
0
40
0
40
0
40
0
40
1
40
1
40
1
40
1
41
1
41
1
41
1
41
1
10
-396.5345992893516
20
-88.445874230665908
30
0
10
-394.34831469104807
20
-88.606362495256832
30
0
10
-392.79599991920975
20
-89.483914517316961
30
0
10
-392.36853137808339
20
-90.801028854468171
30
0
0
SPLINE
5
192
100
AcDbEntity
8
0
100
AcDbSpline
70
4
71
3
72
8
73
4
74
0
42
0.000000001
43
0.0000000001
44
0.0000000001
40
0
40
0
40
0
40
0
40
0.067395115679854498
40
0.067395115679854498
40
0.067395115679854498
40
0.067395115679854498
41
1
41
1
41
1
41
1
10
-392.36853137808339
20
-90.801028854468171
30
0
10
-392.34777532505632
20
-90.864982388752722
30
0
10
-392.32952961238027
20
-90.929276043341915
30
0
10
-392.31376584793168
20
-90.993791030641532
30
0
0
ARC
5
193
100
AcDbEntity
8
0
100
AcDbCircle
10
-392.55662174704986
20
-91.053131369999889
30
0
40
0.25000000000006894
210
0
220
0
230
1
100
AcDbArc
50
-89.999972000012818
51
13.730828177179026
0
LINE
5
194
100
AcDbEntity
8
0
100
AcDbLine
10
-392.55662162487687
20
-91.303131369999932
30
0
11
-393.96586774704997
21
-91.303131369997999
31
0
0
LWPOLYLINE
5
195
100
AcDbEntity
8
0
100
AcDbPolyline
90
8
70
1
43
0.0
10
-336.19497969200006
20
-56.628881370716933
42
-0.41421356237303519
10
-337.19497969199995
20
-57.628881370716883
10
-349.19491274705013
20
-57.628881370716954
42
-0.41421356237307422
10
-350.19491274705001
20
-56.62888137071694
10
-350.19491274705001
20
-44.62887118499961
42
-0.41421356237309764
10
-349.19491274705013
20
-43.628871184999667
10
-337.19497969199995
20
-43.628871184999596
42
-0.41421356237307422
10
-336.19497969199995
20
-44.62887118499961
0
LWPOLYLINE
5
196
100
AcDbEntity
8
0
100
AcDbPolyline
90
8
70
1
43
0.0
10
-92.019979692000049
20
-57.628881370809388
42
-0.41421356237308204
10
-93.019979692000007
20
-56.628881370809403
10
-93.019979692000021
20
-44.628871184999717
42
-0.41421356237308982
10
-92.019979692000021
20
-43.628871184999731
10
-80.019912747049943
20
-43.628871184999731
42
-0.41421356237308982
10
-79.019912747049972
20
-44.628871184999724
10
-79.019912747049972
20
-56.628881370809381
42
-0.41421356237309503
10
-80.019912747049972
20
-57.628881370809381
0
LWPOLYLINE
5
197
100
AcDbEntity
8
0
100
AcDbPolyline
90
8
70
1
43
0.0
10
-107.594912747
20
-94.747968369999981
42
-0.41421356237309503
10
-108.594912747
20
-95.747968369999967
10
-120.59491274709998
20
-95.747968369999995
42
-0.41421356234379791
10
-121.59491274700001
20
-94.747968369999981
10
-121.59491274700001
20
-82.747968369799992
42
-0.41421356231451639
10
-120.594912747
20
-81.747968369999967
10
-108.59491274700002
20
-81.747968369999995
42
-0.41421356237310025
10
-107.594912747
20
-82.747968369999981
0
LWPOLYLINE
5
198
100
AcDbEntity
8
0
100
AcDbPolyline
90
8
70
1
43
0.0
10
-327.11316274704996
20
-97.74796836999991
42
-0.41421399999987546
10
-327.61316274705001
20
-97.247968369999981
10
-327.61316274705007
20
-83.247968369999967
42
-0.41421400000005232
10
-327.11316274705007
20
-82.747968369999981
10
-321.11316274704996
20
-82.747968369999953
42
-0.41421400000005232
10
-320.61316274704996
20
-83.247968369999967
10
-320.61316274704996
20
-97.247968369999981
42
-0.41421400000013558
10
-321.11316274704996
20
-97.747968369999967
0
LWPOLYLINE
5
199
100
AcDbEntity
8
0
100
AcDbPolyline
90
8
70
1
43
0.0
10
-102.83241274700001
20
-113.79796836999999
42
-0.41421356237309503
10
-103.83241274699999
20
-114.79796836999998
10
-115.83241274710296
20
-114.79796837000001
42
-0.41421356234293422
10
-116.83241274700001
20
-113.79796836999999
10
-116.83241274700002
20
-101.79796836979997
42
-0.41421356231450079
10
-115.83241274699999
20
-100.79796836999996
10
-103.83241274700001
20
-100.79796836999998
42
-0.41421356237311063
10
-102.83241274699998
20
-101.79796836999999
0
LWPOLYLINE
5
200
100
AcDbEntity
8
0
100
AcDbPolyline
90
8
70
1
43
0.0
10
-328.7637146269999
20
-44.628871184999717
42
-0.41421356237302737
10
-327.76371462700001
20
-43.628871184999703
10
-313.38247969200006
20
-43.628871184999731
42
-0.41421356237308721
10
-312.382479692
20
-44.628871184999753
10
-312.382479692
20
-56.628883392000347
42
-0.41421356237309243
10
-313.38247969200006
20
-57.628883392000397
10
-327.76371462700001
20
-57.628883392000425
42
-0.41421356237310281
10
-328.76371462700001
20
-56.628883392000382
0
LWPOLYLINE
5
201
100
AcDbEntity
8
0
100
AcDbPolyline
90
8
70
1
43
0.0
10
-244.4199127471
20
-76.697968369999984
42
-0.41421356234382134
10
-245.41991274699998
20
-75.697968369999984
10
-245.41991274699998
20
-63.69796836979998
42
-0.41421356231456058
10
-244.41991274699996
20
-62.697968369999984
10
-232.41991274699998
20
-62.697968370000005
42
-0.41421356237311585
10
-231.41991274700001
20
-63.697968369999984
10
-231.41991274699996
20
-75.697968369999984
42
-0.41421356237311063
10
-232.41991274700001
20
-76.697968370000012
0
LWPOLYLINE
5
202
100
AcDbEntity
8
0
100
AcDbPolyline
90
8
70
1
43
0.0
10
-180.03241274699997
20
-100.79796837000001
42
-0.41421356237305862
10
-179.03241274699997
20
-101.79796836999999
10
-179.03241274700002
20
-113.79796836999999
42
-0.4142135623730534
10
-180.032412747
20
-114.79796836999998
10
-192.03241274710297
20
-114.79796837000001
42
-0.41421356234293943
10
-193.03241274700002
20
-113.79796836999999
10
-193.032412747
20
-101.79796836979405
42
-0.41421356231280987
10
-192.03241274699994
20
-100.79796836999998
0
LWPOLYLINE
5
203
100
AcDbEntity
8
0
100
AcDbPolyline
90
8
70
1
43
0.0
10
-231.13433154299997
20
-144.66046836991097
42
-0.41421356234708612
10
-230.13433154299992
20
-143.66046836999999
10
-218.134331543
20
-143.66046836999996
42
-0.41421356237305862
10
-217.13433154299994
20
-144.66046836999999
10
-217.13433154299992
20
-156.66046836979999
42
-0.41421356243164248
10
-218.134331543
20
-157.66046836999999
10
-230.13433154289999
20
-157.66046837000002
42
-0.41421356240239215
10
-231.134331543
20
-156.66046836999999
0
LWPOLYLINE
5
204
100
AcDbEntity
8
0
100
AcDbPolyline
90
8
70
1
43
0.0
10
-377.76991274709991
20
-57.647968369999987
42
-0.41421356234380829
10
-378.76991274699998
20
-56.647968369999987
10
-378.76991274700003
20
-44.647968369799983
42
-0.41421356231457362
10
-377.76991274699992
20
-43.647968370000001
10
-365.76991274700003
20
-43.647968369999937
42
-0.41421356237314705
10
-364.76991274699998
20
-44.647968369999987
10
-364.76991274699981
20
-56.647968369999987
42
-0.41421356237307161
10
-365.76991274699992
20
-57.647968369999987
0
LWPOLYLINE
5
205
100
AcDbEntity
8
0
100
AcDbPolyline
90
8
70
1
43
0.0
10
-239.65741274709998
20
-133.84796836999993
42
-0.41421356234380829
10
-240.657412747
20
-132.84796836999999
10
-240.65741274699997
20
-120.84796836979405
42
-0.4142135623127578
10
-239.65741274699997
20
-119.84796836999999
10
-227.65741274699997
20
-119.84796836999999
42
-0.414213562373069
10
-226.657412747
20
-120.84796836999999
10
-226.657412747
20
-132.84796836999999
42
-0.41421356237304818
10
-227.65741274700002
20
-133.84796836999999
0
LWPOLYLINE
5
206
100
AcDbEntity
8
0
100
AcDbPolyline
90
8
70
1
43
0.0
10
-160.98241274699996
20
-100.79796836999996
42
-0.41421356237307944
10
-159.98241274700001
20
-101.79796836999999
10
-159.98241274700001
20
-113.79796836999999
42
-0.41421356237311063
10
-160.98241274700001
20
-114.79796836999998
10
-172.98241274710293
20
-114.79796837000006
42
-0.41421356234290302
10
-173.98241274700007
20
-113.79796836999999
10
-173.98241274700007
20
-101.79796836979405
42
-0.41421356231273698
10
-172.98241274700001
20
-100.79796836999998
0
LWPOLYLINE
5
207
100
AcDbEntity
8
0
100
AcDbPolyline
90
8
70
1
43
0.0
10
-145.407412747
20
-120.82886508079405
42
-0.41421356231278383
10
-144.407412747
20
-119.82886508099998
10
-132.40741274699997
20
-119.82886508099996
42
-0.41421356237310542
10
-131.40741274699997
20
-120.828865081
10
-131.40741274699997
20
-132.828865081
42
-0.41421356237309503
10
-132.40741274699997
20
-133.82886508099998
10
-144.40741274709995
20
-133.828865081
42
-0.41421356234379791
10
-145.407412747
20
-132.828865081
0
LWPOLYLINE
5
208
100
AcDbEntity
8
0
100
AcDbPolyline
90
8
70
1
43
0.0
10
-274.28241274699997
20
-113.79796836999999
42
-0.41421356237309503
10
-275.28241274700002
20
-114.79796837000004
10
-287.28241274710297
20
-114.79796837000004
42
-0.4142135623428978
10
-288.28241274700002
20
-113.79796836999999
10
-288.28241274700008
20
-101.79796836979405
42
-0.41421356231275264
10
-287.28241274700002
20
-100.79796836999995
10
-275.28241274699997
20
-100.79796836999995
42
-0.41421356237307422
10
-274.28241274699997
20
-101.79796836999999
0
LWPOLYLINE
5
209
100
AcDbEntity
8
0
100
AcDbPolyline
90
8
70
1
43
0.0
10
-397.81991274699988
20
-144.66046836979405
42
-0.41421356231277345
10
-396.81991274699999
20
-143.66046836999993
10
-384.81991274699993
20
-143.66046836999996
42
-0.41421356237307944
10
-383.81991274699999
20
-144.66046836999999
10
-383.81991274699988
20
-156.66046836999999
42
-0.41421356237307422
10
-384.81991274699993
20
-157.66046836999999
10
-396.81991274709992
20
-157.66046836999999
42
-0.41421356234381351
10
-397.81991274699999
20
-156.66046836999999
0
ARC
5
210
100
AcDbEntity
8
0
100
AcDbCircle
10
-349.19491274705001
20
-113.79798670200002
30
0
40
1.0000000000000853
210
0
220
0
230
1
100
AcDbArc
50
180
51
269.65306891096662
0
LINE
5
211
100
AcDbEntity
8
0
100
AcDbLine
10
-350.19491274705013
20
-113.79798670200002
30
0
11
-350.19491274705001
21
-101.79796837000001
31
0
0
ARC
5
212
100
AcDbEntity
8
0
100
AcDbCircle
10
-349.19491274705001
20
-101.79796837000001
30
0
40
0.99999999999999645
210
0
220
-0
230
1
100
AcDbArc
50
90
51
180
0
LINE
5
213
100
AcDbEntity
8
0
100
AcDbLine
10
-349.19491274705001
20
-100.79796837000002
30
0
11
-337.19491885000002
21
-100.79796836999998
31
0
0
ARC
5
214
100
AcDbEntity
8
0
100
AcDbCircle
10
-337.19491884999997
20
-101.79796836999992
30
0
40
0.99999999999994316
210
-0
220
0
230
1
100
AcDbArc
50
0
51
90.000000000003254
0
LINE
5
215
100
AcDbEntity
8
0
100
AcDbLine
10
-336.19491885000002
20
-101.79796836999998
30
0
11
-336.19491274705001
21
-113.79798670200002
31
0
0
ARC
5
216
100
AcDbEntity
8
0
100
AcDbCircle
10
-337.19491885000002
20
-113.79798670200002
30
0
40
0.99999999999999734
210
-0
220
0
230
1
100
AcDbArc
50
-89.65306891167657
51
0
0
LINE
5
217
100
AcDbEntity
8
0
100
AcDbLine
10
-337.18886379723193
20
-114.79796836999996
30
0
11
-349.20096779983049
21
-114.79796836999998
31
0
0
LWPOLYLINE
5
218
100
AcDbEntity
8
0
100
AcDbPolyline
90
8
70
1
43
0.0
10
-383.81991274699988
20
-132.84796836999999
42
-0.41421356237318868
10
-384.81991274699993
20
-133.84796836999999
10
-396.81991274710293
20
-133.84796837000005
42
-0.41421356234297585
10
-397.81991274700005
20
-132.84796836999999
10
-397.81991274699999
20
-120.84796836979405
42
-0.41421356231267981
10
-396.81991274699999
20
-119.84796836999999
10
-384.81991274699993
20
-119.84796836999992
42
-0.41421356237308982
10
-383.81991274699999
20
-120.84796836999999
0
LWPOLYLINE
5
219
100
AcDbEntity
8
0
100
AcDbPolyline
90
8
70
1
43
0.0
10
-283.01997969199999
20
-57.628881370716883
42
-0.41421356237314705
10
-283.51997969200005
20
-57.128881370716933
10
-283.51997969200005
20
-44.128871184999625
42
-0.41421356237307944
10
-283.01997969200005
20
-43.628871184999625
10
-280.80741274704997
20
-43.628871184999568
42
-0.41421356237305862
10
-280.30741274704997
20
-44.128871184999625
10
-280.30741274704997
20
-57.128881370716933
42
-0.41421356237300661
10
-280.80741274704997
20
-57.628881370716918
0
LWPOLYLINE
5
220
100
AcDbEntity
8
0
100
AcDbPolyline
90
8
70
1
43
0.0
10
-74.807412747049995
20
-138.87891736999998
42
-0.41421400000001546
10
-74.257412747049983
20
-139.42891736999999
10
-74.257412747049983
20
-141.08546837
42
-0.41421399999998709
10
-74.80741274704998
20
-141.63546836999998
10
-172.07760174705001
20
-141.63546836999998
42
-0.41421400000002495
10
-172.62760174704999
20
-141.08546837
10
-172.62760174704999
20
-139.42891736999999
42
-0.4142139999999776
10
-172.07760174705001
20
-138.87891736999998
0
LWPOLYLINE
5
221
100
AcDbEntity
8
0
100
AcDbPolyline
90
8
70
1
43
0.0
10
-337.93624974705006
20
-144.16046836999999
42
-0.41421356237301177
10
-337.43624974705006
20
-143.66046837000002
10
-334.67279074704993
20
-143.6604683699999
42
-0.41421356237290774
10
-334.17279074704993
20
-144.16046836999999
10
-334.17279074704999
20
-157.16046836999999
42
-0.41421356237293894
10
-334.67279074704999
20
-157.66046836999999
10
-337.43624974705017
20
-157.66046836999999
42
-0.41421356237288692
10
-337.93624974705006
20
-157.16046836999999
0
LWPOLYLINE
5
222
100
AcDbEntity
8
0
100
AcDbPolyline
90
8
70
1
43
0.0
10
-249.1843315428971
20
-157.66046836999999
42
-0.4142135624032558
10
-250.18433154300001
20
-156.66046836999999
10
-250.18433154300001
20
-144.6604683699
42
-0.41421356234377188
10
-249.18433154299998
20
-143.66046836999999
10
-237.18433154300001
20
-143.66046836999999
42
-0.41421356237310025
10
-236.18433154299996
20
-144.66046836999999
10
-236.18433154299998
20
-156.66046836979402
42
-0.41421356243341662
10
-237.18433154300004
20
-157.66046836999999
0
LWPOLYLINE
5
223
100
AcDbEntity
8
0
100
AcDbPolyline
90
8
70
1
43
0.0
10
-416.86991274705008
20
-82.247968369999981
42
-0.41421356237301177
10
-416.36991274705008
20
-81.747968370000009
10
-405.94715574705003
20
-81.747968369999953
42
-0.41421356237300139
10
-405.44715574705003
20
-82.247968369999981
10
-405.44715574705009
20
-95.247968369999981
42
-0.41421356237301177
10
-405.94715574705003
20
-95.747968369999953
10
-416.36991274705008
20
-95.747968370000009
42
-0.41421356237300139
10
-416.86991274705002
20
-95.247968369999981
0
LWPOLYLINE
5
224
100
AcDbEntity
8
0
100
AcDbPolyline
90
8
70
1
43
0.0
10
-269.51991274700003
20
-75.697968369999984
42
-0.414213562373069
10
-270.51991274700003
20
-76.697968369999984
10
-282.51991274709997
20
-76.697968369999941
42
-0.41421356234381873
10
-283.51991274700003
20
-75.697968369999984
10
-283.51991274699998
20
-63.697968369794033
42
-0.4142135623127578
10
-282.51991274699998
20
-62.697968369999984
10
-270.51991274700003
20
-62.697968370000005
42
-0.41421356237311585
10
-269.51991274700003
20
-63.697968369999984
0
LWPOLYLINE
5
225
100
AcDbEntity
8
0
100
AcDbPolyline
90
8
70
1
43
0.0
10
-77.725662747049981
20
-75.197968369999984
42
-0.41421400000000552
10
-78.225662747049995
20
-75.697968369999984
10
-84.225662747049995
20
-75.697968369999998
42
-0.41421399999998471
10
-84.725662747049995
20
-75.197968369999984
10
-84.725662747050009
20
-61.19796836999997
42
-0.41421399999997432
10
-84.225662747049995
20
-60.697968369999977
10
-78.225662747049995
20
-60.697968369999984
42
-0.41421400000000552
10
-77.725662747049981
20
-61.19796836999997
0
LWPOLYLINE
5
226
100
AcDbEntity
8
0
100
AcDbPolyline
90
8
70
1
43
0.0
10
-169.21991274699997
20
-63.69796836979998
42
-0.41421356231449558
10
-168.21991274699997
20
-62.697968369999984
10
-156.21991274699997
20
-62.697968369999977
42
-0.41421356237307161
10
-155.219912747
20
-63.697968369999984
10
-155.219912747
20
-75.697968369999984
42
-0.41421356237309503
10
-156.219912747
20
-76.697968369999984
10
-168.21991274709998
20
-76.697968369999984
42
-0.4142135623438265
10
-169.21991274699997
20
-75.69796836999997
0
LWPOLYLINE
5
227
100
AcDbEntity
8
0
100
AcDbPolyline
90
8
70
1
43
0.0
10
-256.97279074704994
20
-144.09796836999999
42
-0.41421356237316787
10
-256.47279074704994
20
-143.59796837000002
10
-253.70933074704993
20
-143.59796836999993
42
-0.41421356237307422
10
-253.20933074704993
20
-144.09796836999999
10
-253.20933074704996
20
-157.09796836999999
42
-0.41421356237316787
10
-253.70933074704996
20
-157.59796836999996
10
-256.47279074704988
20
-157.5979683699999
42
-0.41421356237310542
10
-256.97279074704988
20
-157.09796836999999
0
LWPOLYLINE
5
228
100
AcDbEntity
8
0
100
AcDbPolyline
90
8
70
1
43
0.0
10
-272.99779094090002
20
-157.66046837000002
42
-0.41421356240239215
10
-273.99779094100001
20
-156.66046836999999
10
-273.99779094099995
20
-144.66046836999999
42
-0.4142135623730534
10
-272.99779094100001
20
-143.66046836999999
10
-260.99779094080799
20
-143.66046836999996
42
-0.41421356231686285
10
-259.99779094099995
20
-144.66046836999999
10
-259.99779094099995
20
-156.66046836979999
42
-0.41421356243164248
10
-260.99779094100001
20
-157.66046836999999
0
LWPOLYLINE
5
229
100
AcDbEntity
8
0
100
AcDbPolyline
90
8
70
1
43
0.0
10
-311.09491274710001
20
-95.747968369999967
42
-0.4142135623437771
10
-312.09491274700002
20
-94.747968369999981
10
-312.09491274700008
20
-82.747968369799992
42
-0.41421356231451117
10
-311.09491274699997
20
-81.747968369999995
10
-299.09491274699997
20
-81.747968369999995
42
-0.41421356237305862
10
-298.09491274699997
20
-82.747968369999981
10
-298.09491274699997
20
-94.747968369999981
42
-0.41421356237304302
10
-299.09491274699997
20
-95.747968369999967
0
LWPOLYLINE
5
230
100
AcDbEntity
8
0
100
AcDbPolyline
90
8
70
1
43
0.0
10
-145.69497969200006
20
-57.128881370809225
42
-0.41421356237310025
10
-146.19497969200009
20
-57.628881370809225
10
-148.40741274704996
20
-57.628881370809239
42
-0.41421356237309503
10
-148.90741274704996
20
-57.128881370809232
10
-148.90741274704993
20
-44.128871184999461
42
-0.41421356237309503
10
-148.40741274704999
20
-43.628871184999475
10
-146.19497969200006
20
-43.628871184999468
42
-0.41421356237305862
10
-145.69497969200006
20
-44.128871184999461
0
LWPOLYLINE
5
231
100
AcDbEntity
8
0
100
AcDbPolyline
90
8
70
1
43
0.0
10
-175.26991274699998
20
-62.697968369999948
42
-0.41421356237304818
10
-174.26991274699998
20
-63.697968369999984
10
-174.26991274699998
20
-75.697968369999984
42
-0.414213562373069
10
-175.26991274699998
20
-76.697968369999984
10
-187.26991274710292
20
-76.69796836999997
42
-0.41421356234298368
10
-188.26991274700003
20
-75.697968369999984
10
-188.26991274699998
20
-63.697968369794033
42
-0.4142135623127578
10
-187.26991274700001
20
-62.697968369999984
0
LWPOLYLINE
5
232
100
AcDbEntity
8
0
100
AcDbPolyline
90
8
70
1
43
0.0
10
-99.663662747049969
20
-76.697968370000012
42
-0.4142140000000003
10
-100.16366274704995
20
-76.197968369999984
10
-100.16366274705
20
-63.197968369999977
42
-0.41421399999996911
10
-99.663662747049969
20
-62.69796836999997
10
-86.663662747049955
20
-62.697968369999941
42
-0.41421399999997949
10
-86.163662747049983
20
-63.197968369999984
10
-86.163662747049997
20
-76.197968369999984
42
-0.41421399999997949
10
-86.663662747049983
20
-76.697968369999984
0
LWPOLYLINE
5
233
100
AcDbEntity
8
0
100
AcDbPolyline
90
4
70
1
43
0.0
10
-97.78241274704996
20
-101.29796836999999
42
-0.99999999999999989
10
-96.782412747050017
20
-101.29796836999999
10
-96.782412747050017
20
-114.29796836999998
42
-0.99999999999999989
10
-97.78241274704996
20
-114.29796836999998
0
LWPOLYLINE
5
234
100
AcDbEntity
8
0
100
AcDbPolyline
90
8
70
1
43
0.0
10
-384.81991274699993
20
-100.79796836999996
42
-0.41421356237307944
10
-383.81991274699999
20
-101.79796836999999
10
-383.81991274699988
20
-113.79796836999999
42
-0.41421356237307422
10
-384.81991274699993
20
-114.79796836999998
10
-396.81991274710299
20
-114.79796837000008
42
-0.41421356234291862
10
-397.81991274700005
20
-113.79796836999999
10
-397.81991274699988
20
-101.79796836979405
42
-0.41421356231277345
10
-396.81991274699999
20
-100.79796836999995
0
LWPOLYLINE
5
235
100
AcDbEntity
8
0
100
AcDbPolyline
90
8
70
1
43
0.0
10
-329.05116274704983
20
-94.747968370000009
42
-0.41421356237309503
10
-330.05116274704983
20
-95.747968370000009
10
-342.05116274705006
20
-95.747968370000024
42
-0.41421356237309503
10
-343.05116274705006
20
-94.747968370000009
10
-343.05116274705006
20
-82.747968369999967
42
-0.41421356237309503
10
-342.05116274705006
20
-81.747968369999967
10
-330.05116274704983
20
-81.747968369999995
42
-0.41421356237313145
10
-329.05116274704983
20
-82.747968369999981
0
LWPOLYLINE
5
236
100
AcDbEntity
8
0
100
AcDbPolyline
90
8
70
1
43
0.0
10
-357.98624974705001
20
-136.30391736999999
42
-0.41421399999963709
10
-358.53624974705008
20
-136.85391736999998
10
-361.19491274705001
20
-136.85391737000006
42
-0.41421400000010061
10
-361.74491274705008
20
-136.30391736999999
10
-361.74491274705014
20
-44.147968369999973
42
-0.41421399999963709
10
-361.19491274705007
20
-43.597968369999975
10
-358.53624974704996
20
-43.59796836999999
42
-0.41421400000002023
10
-357.98624974705001
20
-44.147968369999973
0
LWPOLYLINE
5
237
100
AcDbEntity
8
0
100
AcDbPolyline
90
8
70
1
43
0.0
10
-415.86991274709999
20
-57.647968369999951
42
-0.4142135623437771
10
-416.869912747
20
-56.647968369999987
10
-416.86991274699994
20
-44.647968369799983
42
-0.41421356231447215
10
-415.86991274699989
20
-43.647968370000001
10
-403.86991274699994
20
-43.647968370000008
42
-0.41421356237316787
10
-402.86991274699983
20
-44.647968369999987
10
-402.86991274699983
20
-56.647968369999987
42
-0.41421356237309243
10
-403.86991274699989
20
-57.647968369999987
0
LWPOLYLINE
5
238
100
AcDbEntity
8
0
100
AcDbPolyline
90
4
70
1
43
0.0
10
-102.54487074704997
20
-82.247968369999981
42
-0.99999999999999989
10
-101.54487074705003
20
-82.247968369999981
10
-101.54487074705003
20
-95.247968369999981
42
-0.99999999999999989
10
-102.54487074704997
20
-95.247968369999981
0
LWPOLYLINE
5
239
100
AcDbEntity
8
0
100
AcDbPolyline
90
8
70
1
43
0.0
10
-77.638662746999984
20
-81.747968369999995
42
-0.41421356237309503
10
-76.638662746999984
20
-82.747968369999981
10
-76.638662746999984
20
-94.747968369999981
42
-0.41421356237309503
10
-77.638662746999984
20
-95.747968369999967
10
-94.401162747102987
20
-95.747968369999995
42
-0.41421356234290824
10
-95.401162747000001
20
-94.747968369999981
10
-95.401162747000001
20
-82.747968369799992
42
-0.41421356231451639
10
-94.401162747000001
20
-81.747968369999967
0
LWPOLYLINE
5
240
100
AcDbEntity
8
0
100
AcDbPolyline
90
8
70
1
43
0.0
10
-176.17760174705001
20
-138.87891736999995
42
-0.41421400000000602
10
-175.62760174704994
20
-139.42891736999999
10
-175.62760174704988
20
-141.08546837
42
-0.41421400000000602
10
-176.17760174705006
20
-141.63546836999998
10
-253.04106074705001
20
-141.63546836999998
42
-0.41421400000002495
10
-253.59106074704999
20
-141.08546837
10
-253.59106074704997
20
-139.42891736999999
42
-0.41421399999988306
10
-253.04106074705001
20
-138.87891736999998
0
LWPOLYLINE
5
241
100
AcDbEntity
8
0
100
AcDbPolyline
90
8
70
1
43
0.0
10
-316.85741274700001
20
-120.84796836979405
42
-0.4142135623127578
10
-315.85741274700001
20
-119.84796836999999
10
-303.85741274700001
20
-119.84796836999993
42
-0.41421356237306384
10
-302.85741274699996
20
-120.84796836999999
10
-302.85741274699996
20
-132.84796836999999
42
-0.41421356237304818
10
-303.85741274700001
20
-133.84796836999999
10
-315.8574127471
20
-133.84796836999996
42
-0.41421356234382389
10
-316.85741274700001
20
-132.84796836999999
0
LWPOLYLINE
5
242
100
AcDbEntity
8
0
100
AcDbPolyline
90
8
70
1
43
0.0
10
-198.08433154299996
20
-156.66046836979402
42
-0.41421356243341662
10
-199.08433154300002
20
-157.66046836999999
10
-211.08433154289997
20
-157.66046837000002
42
-0.41421356240239215
10
-212.08433154299999
20
-156.66046836999999
10
-212.08433154299996
20
-144.66046836991097
42
-0.41421356234708612
10
-211.08433154299991
20
-143.66046836999999
10
-199.08433154299999
20
-143.66046836999996
42
-0.41421356237305862
10
-198.08433154299993
20
-144.66046836999999
0
LWPOLYLINE
5
243
100
AcDbEntity
8
0
100
AcDbPolyline
90
8
70
1
43
0.0
10
-140.64491274700001
20
-82.747968369794037
42
-0.41421356231276302
10
-139.64491274700001
20
-81.747968369999995
10
-127.64491274699999
20
-81.747968369999967
42
-0.41421356237310542
10
-126.64491274699999
20
-82.747968369999967
10
-126.64491274700001
20
-94.747968369999995
42
-0.41421356237311063
10
-127.64491274700001
20
-95.747968369999967
10
-139.64491274709999
20
-95.747968369999995
42
-0.41421356234380308
10
-140.64491274700001
20
-94.747968369999981
0
LWPOLYLINE
5
244
100
AcDbEntity
8
0
100
AcDbPolyline
90
8
70
1
43
0.0
10
-301.56991274710003
20
-76.697968369999984
42
-0.41421356234379791
10
-302.56991274700005
20
-75.697968369999984
10
-302.56991274700005
20
-63.69796836979998
42
-0.41421356231456058
10
-301.56991274699999
20
-62.697968369999984
10
-289.56991274699999
20
-62.697968369999977
42
-0.41421356237310281
10
-288.56991274699999
20
-63.697968369999984
10
-288.56991274699999
20
-75.697968369999984
42
-0.414213562373069
10
-289.56991274699999
20
-76.697968369999984
0
LWPOLYLINE
5
245
100
AcDbEntity
8
0
100
AcDbPolyline
90
8
70
1
43
0.0
10
-383.81991274699988
20
-56.647968369999987
42
-0.41421356237307161
10
-384.81991274699993
20
-57.647968369999987
10
-396.81991274710293
20
-57.64796836999988
42
-0.41421356234298629
10
-397.81991274699999
20
-56.647968369999987
10
-397.81991274700005
20
-44.647968369794036
42
-0.41421356231270579
10
-396.81991274699999
20
-43.647968369999994
10
-384.8199127470001
20
-43.647968369999937
42
-0.41421356237314705
10
-383.81991274699999
20
-44.647968369999987
0
LWPOLYLINE
5
246
100
AcDbEntity
8
0
100
AcDbPolyline
90
8
70
1
43
0.0
10
-125.35741274709997
20
-133.82886508099998
42
-0.41421356234381351
10
-126.35741274699998
20
-132.828865081
10
-126.35741274700003
20
-120.82886508079405
42
-0.41421356231275264
10
-125.357412747
20
-119.82886508099996
10
-113.35741274700001
20
-119.82886508099996
42
-0.41421356237311585
10
-112.35741274699998
20
-120.828865081
10
-112.35741274700001
20
-132.828865081
42
-0.41421356237309503
10
-113.357412747
20
-133.82886508099998
0
LWPOLYLINE
5
247
100
AcDbEntity
8
0
100
AcDbPolyline
90
8
70
1
43
0.0
10
-313.38241274720008
20
-100.79796836999998
42
-0.41421356243171009
10
-312.38241274699993
20
-101.79796836999999
10
-312.38241274699993
20
-113.79796836999999
42
-0.41421356237309503
10
-313.38241274699999
20
-114.79796837000004
10
-325.38241274710299
20
-114.79796837000002
42
-0.414213562342851
10
-326.38241274699999
20
-113.79796836999995
10
-326.38241274699999
20
-101.79796836979997
42
-0.41421356231444356
10
-325.38241274699999
20
-100.79796836999995
0
LWPOLYLINE
5
248
100
AcDbEntity
8
0
100
AcDbPolyline
90
8
70
1
43
0.0
10
-98.070872145000038
20
-156.66046836979402
42
-0.41421356243343221
10
-99.070872144999981
20
-157.66046836999999
10
-111.07087214489698
20
-157.66046836999996
42
-0.4142135624032558
10
-112.07087214499998
20
-156.66046836999999
10
-112.07087214499998
20
-144.6604683699
42
-0.41421356234381873
10
-111.07087214499998
20
-143.66046836999999
10
-99.070872144799978
20
-143.66046836999996
42
-0.41421356225593253
10
-98.070872144999996
20
-144.66046836979996
0
LWPOLYLINE
5
249
100
AcDbEntity
8
0
100
AcDbPolyline
90
8
70
1
43
0.0
10
-416.86991274699994
20
-144.66046836979996
42
-0.41421356231447476
10
-415.86991274699989
20
-143.66046836999993
10
-403.86991274699994
20
-143.6604683700001
42
-0.41421356237324591
10
-402.86991274699983
20
-144.66046836999999
10
-402.869912747
20
-156.66046836999999
42
-0.41421356237299095
10
-403.86991274699994
20
-157.66046836999999
10
-415.86991274709999
20
-157.66046836999993
42
-0.4142135623437771
10
-416.869912747
20
-156.66046836999999
0
LWPOLYLINE
5
250
100
AcDbEntity
8
0
100
AcDbPolyline
90
8
70
1
43
0.0
10
-361.74491274704997
20
-144.21046837
42
-0.41421399999983571
10
-361.19491274705007
20
-143.66046836999999
10
-358.53624974704996
20
-143.66046837000002
42
-0.41421400000012903
10
-357.98624974705007
20
-144.21046837
10
-357.98624974705007
20
-152.03546836999999
42
-0.41421399999981684
10
-358.53624974705008
20
-152.58546836999997
10
-361.19491274705001
20
-152.58546837
42
-0.41421400000013847
10
-361.74491274705008
20
-152.03546836999999
0
LWPOLYLINE
5
251
100
AcDbEntity
8
0
100
AcDbPolyline
90
8
70
1
43
0.0
10
-164.744912747
20
-94.747968369999981
42
-0.41421356237308982
10
-165.744912747
20
-95.747968369999967
10
-177.744912747103
20
-95.747968370000009
42
-0.41421356234290824
10
-178.74491274700003
20
-94.747968369999995
10
-178.74491274700003
20
-82.747968369794037
42
-0.41421356231274742
10
-177.744912747
20
-81.747968369999995
10
-165.744912747
20
-81.747968369999967
42
-0.41421356237310025
10
-164.744912747
20
-82.747968369999995
0
LWPOLYLINE
5
252
100
AcDbEntity
8
0
100
AcDbPolyline
90
4
70
1
43
0.0
10
-308.61991274705002
20
-63.197968369999977
42
-0.99999999999999989
10
-307.61991274705008
20
-63.197968369999977
10
-307.61991274705008
20
-76.197968369999984
42
-0.99999999999999989
10
-308.61991274705002
20
-76.197968369999984
0
LWPOLYLINE
5
253
100
AcDbEntity
8
0
100
AcDbPolyline
90
8
70
1
43
0.0
10
-235.89491274700003
20
-82.747968369799992
42
-0.41421356231451117
10
-234.89491274699992
20
-81.747968369999995
10
-222.89491274699998
20
-81.747968369999995
42
-0.41421356237305862
10
-221.89491274700001
20
-82.747968369999981
10
-221.89491274699998
20
-94.747968369999981
42
-0.41421356237304302
10
-222.89491274700001
20
-95.747968369999967
10
-234.89491274709997
20
-95.747968369999995
42
-0.4142135623437771
10
-235.89491274699998
20
-94.747968369999967
0
LWPOLYLINE
5
254
100
AcDbEntity
8
0
100
AcDbPolyline
90
8
70
1
43
0.0
10
-279.0449127469999
20
-94.747968369999981
42
-0.41421356237304302
10
-280.04491274699996
20
-95.747968369999967
10
-292.0449127471
20
-95.747968369999967
42
-0.4142135623437771
10
-293.04491274700001
20
-94.747968369999981
10
-293.04491274700007
20
-82.747968369799992
42
-0.41421356231451117
10
-292.04491274699996
20
-81.747968369999995
10
-280.04491274699996
20
-81.747968369999995
42
-0.41421356237305862
10
-279.04491274699996
20
-82.747968369999981
0
LWPOLYLINE
5
255
100
AcDbEntity
8
0
100
AcDbPolyline
90
8
70
1
43
0.0
10
-212.369912747
20
-75.697968369999984
42
-0.414213562373069
10
-213.369912747
20
-76.697968369999984
10
-225.36991274710002
20
-76.697968370000027
42
-0.41421356234377971
10
-226.36991274699997
20
-75.697968369999984
10
-226.36991274699997
20
-63.69796836979998
42
-0.41421356231456058
10
-225.36991274699994
20
-62.697968369999984
10
-213.36991274699997
20
-62.697968370000005
42
-0.41421356237311585
10
-212.369912747
20
-63.697968369999984
0
LWPOLYLINE
5
256
100
AcDbEntity
8
0
100
AcDbPolyline
90
8
70
1
43
0.0
10
-415.86991274704997
20
-76.697968369999955
42
-0.41421399999994829
10
-416.86991274705002
20
-75.697968369999984
10
-416.86991274705008
20
-63.69796836999997
42
-0.41421399999994568
10
-415.86991274705008
20
-62.69796836999997
10
-403.86991274705008
20
-62.697968369999927
42
-0.41421399999994829
10
-402.86991274705002
20
-63.69796836999997
10
-402.86991274705002
20
-75.697968369999984
42
-0.41421400000004455
10
-403.86991274705008
20
-76.697968369999984
0
ARC
5
257
100
AcDbEntity
8
0
100
AcDbCircle
10
-261.80741274704997
20
-53.597371369999969
30
0
40
0.20000000000003126
210
0
220
0
230
1
100
AcDbArc
50
180
51
270
0
LINE
5
258
100
AcDbEntity
8
0
100
AcDbLine
10
-262.00741274705001
20
-53.597371369999976
30
0
11
-262.00741274705001
21
-53.497371369999982
31
0
0
ARC
5
259
100
AcDbEntity
8
0
100
AcDbCircle
10
-262.20741274705
20
-53.497371369999982
30
0
40
0.20000000000003126
210
0
220
-0
230
1
100
AcDbArc
50
0
51
90
0
LINE
5
260
100
AcDbEntity
8
0
100
AcDbLine
10
-262.20741274705
20
-53.297371369999951
30
0
11
-263.00741274705001
21
-53.297371369999993
31
0
0
ARC
5
261
100
AcDbEntity
8
0
100
AcDbCircle
10
-263.00741274705001
20
-53.097371369999962
30
0
40
0.20000000000003126
210
0
220
0
230
1
100
AcDbArc
50
180
51
270
0
LINE
5
262
100
AcDbEntity
8
0
100
AcDbLine
10
-263.20741274705006
20
-53.097371369999976
30
0
11
-263.20741274704994
21
-50.723565369999974
31
0
0
ARC
5
263
100
AcDbEntity
8
0
100
AcDbCircle
10
-263.00741274705001
20
-50.723565369999967
30
0
40
0.19999999999996909
210
0
220
-0
230
1
100
AcDbArc
50
90
51
180
0
LINE
5
264
100
AcDbEntity
8
0
100
AcDbLine
10
-263.00741274705001
20
-50.52356537
30
0
11
-262.20741274705
21
-50.523565369999979
31
0
0
ARC
5
265
100
AcDbEntity
8
0
100
AcDbCircle
10
-262.20741274705
20
-50.323565369999976
30
0
40
0.20000000000000462
210
-0
220
0
230
1
100
AcDbArc
50
-90
51
0
0
LINE
5
266
100
AcDbEntity
8
0
100
AcDbLine
10
-262.00741274705001
20
-50.323565369999976
30
0
11
-262.00741274705001
21
-50.223565369999974
31
0
0
ARC
5
267
100
AcDbEntity
8
0
100
AcDbCircle
10
-261.80741274704997
20
-50.223565369999974
30
0
40
0.20000000000004015
210
0
220
-0
230
1
100
AcDbArc
50
90
51
180
0
LINE
5
268
100
AcDbEntity
8
0
100
AcDbLine
10
-261.80741274704997
20
-50.023565369999936
30
0
11
-245.19108974705003
21
-50.023565369999936
31
0
0
ARC
5
269
100
AcDbEntity
8
0
100
AcDbCircle
10
-245.19108974705003
20
-49.823565369999976
30
0
40
0.19999999999996021
210
-0
220
0
230
1
100
AcDbArc
50
270
51
344.99993489938834
0
LINE
5
270
100
AcDbEntity
8
0
100
AcDbLine
10
-244.99790464060743
20
-49.875329398521295
30
0
11
-244.97734510349187
21
-49.798597274493062
31
0
0
ARC
5
271
100
AcDbEntity
8
0
100
AcDbCircle
10
-244.78415974704998
20
-49.850360370000018
30
0
40
0.20000000000010232
210
0
220
-0
230
1
100
AcDbArc
50
90
51
165.000211617161
0
LINE
5
272
100
AcDbEntity
8
0
100
AcDbLine
10
-244.78415974704998
20
-49.650360369999916
30
0
11
-244.29108974704999
21
-49.650360369999895
31
0
0
ARC
5
273
100
AcDbEntity
8
0
100
AcDbCircle
10
-244.29108974705002
20
-49.850360369999997
30
0
40
0.20000000000009688
210
0
220
-0
230
1
100
AcDbArc
50
14.999788382833106
51
89.999999999991857
0
LINE
5
274
100
AcDbEntity
8
0
100
AcDbLine
10
-244.09790439060814
20
-49.798597274493062
30
0
11
-244.08938874704998
21
-49.830380369999965
31
0
0
ARC
5
275
100
AcDbEntity
8
0
100
AcDbCircle
10
-243.89620374705001
20
-49.778617369999978
30
0
40
0.19999963098462845
210
0
220
0
230
1
100
AcDbArc
50
194.99978838282325
51
285.0000000000212
0
LINE
5
276
100
AcDbEntity
8
0
100
AcDbLine
10
-243.84444003353764
20
-49.971802178816304
30
0
11
-240.11764474705001
21
-48.973210369999975
31
0
0
ARC
5
277
100
AcDbEntity
8
0
100
AcDbCircle
10
-240.16940874704997
20
-48.780025369999969
30
0
40
0.19999988980246669
210
-0
220
0
230
1
100
AcDbArc
50
285.00006510060621
51
330.00000000000728
0
LINE
5
278
100
AcDbEntity
8
0
100
AcDbLine
10
-239.99620376172692
20
-48.880025314901189
30
0
11
-239.89535980761769
21
-48.705359335031169
31
0
0
ARC
5
279
100
AcDbEntity
8
0
100
AcDbCircle
10
-239.72215474704993
20
-48.805359370000062
30
0
40
0.20000000000015561
210
0
220
0
230
1
100
AcDbArc
50
90.000000000016286
51
149.99998843240894
0
LINE
5
280
100
AcDbEntity
8
0
100
AcDbLine
10
-239.72215474704998
20
-48.60535936999991
30
0
11
-238.83762474704997
21
-48.605359369999974
31
0
0
ARC
5
281
100
AcDbEntity
8
0
100
AcDbCircle
10
-238.83762474704992
20
-48.805359369999913
30
0
40
0.19999999999992468
210
0
220
0
230
1
100
AcDbArc
50
0
51
90.000000000016286
0
LINE
5
282
100
AcDbEntity
8
0
100
AcDbLine
10
-238.63762474704998
20
-48.805359369999977
30
0
11
-238.63762474705001
21
-49.367008369999972
31
0
0
ARC
5
283
100
AcDbEntity
8
0
100
AcDbCircle
10
-238.43762474704999
20
-49.367008369999972
30
0
40
0.20000000000003126
210
0
220
0
230
1
100
AcDbArc
50
180
51
279.99999999998857
0
LINE
5
284
100
AcDbEntity
8
0
100
AcDbLine
10
-238.40289511151664
20
-49.563969920602453
30
0
11
-236.66800874705001
21
-49.258062369999969
31
0
0
ARC
5
285
100
AcDbEntity
8
0
100
AcDbCircle
10
-237.36260174704998
20
-45.318831369999977
30
0
40
4.0000000383762409
210
-0
220
0
230
1
100
AcDbArc
50
280.00000411138609
51
303.3415239999992
0
LINE
5
286
100
AcDbEntity
8
0
100
AcDbLine
10
-235.16408809049835
20
-48.660468395316443
30
0
11
-232.65786074907791
21
-47.011583366904823
31
0
0
ARC
5
287
100
AcDbEntity
8
0
100
AcDbCircle
10
-232.1059107470499
20
-47.854005370000287
30
0
40
1.0071363542431087
210
0
220
0
230
1
100
AcDbArc
50
93.34117500000508
51
123.23258402679838
0
LINE
5
288
100
AcDbEntity
8
0
100
AcDbLine
10
-232.16460812390963
20
-46.848580955144605
30
0
11
-230.66715776877339
21
-46.761158924693547
31
0
0
ARC
5
289
100
AcDbEntity
8
0
100
AcDbCircle
10
-230.65741274705002
20
-46.960921369999973
30
0
40
0.2000000000079635
210
-0
220
0
230
1
100
AcDbArc
50
-71.65847599998952
51
92.792848924857637
0
LINE
5
290
100
AcDbEntity
8
0
100
AcDbLine
10
-230.59447665683425
20
-47.150760903689715
30
0
11
-230.83177574705002
21
-47.229431369999979
31
0
0
ARC
5
291
100
AcDbEntity
8
0
100
AcDbCircle
10
-230.80030774704997
20
-47.324350369999962
30
0
40
0.099999257922244095
210
0
220
0
230
1
100
AcDbArc
50
108.34163773002003
51
265.54756499997671
0
ARC
5
292
100
AcDbEntity
8
0
100
AcDbCircle
10
-231.15741274704999
20
-51.910468369999975
30
0
40
4.4999999999999893
210
0
220
0
230
1
100
AcDbArc
50
-85.547565000000034
51
85.547561740509977
0
ARC
5
293
100
AcDbEntity
8
0
100
AcDbCircle
10
-230.80030774704997
20
-56.49658636999996
30
0
40
0.10000024901651128
210
0
220
0
230
1
100
AcDbArc
50
94.452581676743307
51
251.65847600001572
0
LINE
5
294
100
AcDbEntity
8
0
100
AcDbLine
10
-230.83177587051719
20
-56.591506373206968
30
0
11
-230.59447657867776
21
-56.670175862124921
31
0
0
ARC
5
295
100
AcDbEntity
8
0
100
AcDbCircle
10
-230.65741274705002
20
-56.860015369999971
30
0
40
0.20000000009905877
210
0
220
0
230
1
100
AcDbArc
50
-93.34152399998078
51
71.658452420101526
0
LINE
5
296
100
AcDbEntity
8
0
100
AcDbLine
10
-230.66907025516801
20
-57.059675337304647
30
0
11
-232.16651928761297
21
-56.972244206055734
31
0
0
ARC
5
297
100
AcDbEntity
8
0
100
AcDbCircle
10
-232.10823174704996
20
-55.973944369999955
30
0
40
1.0000000000269478
210
0
220
0
230
1
100
AcDbArc
50
236.65847599999813
51
266.6584759999987
0
LINE
5
298
100
AcDbEntity
8
0
100
AcDbLine
10
-232.65786015592954
20
-56.809353618336587
30
0
11
-235.16408874704996
21
-55.160468369999975
31
0
0
ARC
5
299
100
AcDbEntity
8
0
100
AcDbCircle
10
-237.36260174704998
20
-58.502105369999967
30
0
40
3.9999996563672418
210
0
220
-0
230
1
100
AcDbArc
50
56.65848365721898
51
80.000000000001137
0
LINE
5
300
100
AcDbEntity
8
0
100
AcDbLine
10
-236.66800909605354
20
-54.56287469636333
30
0
11
-238.40289474705
21
-54.25696736999997
31
0
0
ARC
5
301
100
AcDbEntity
8
0
100
AcDbCircle
10
-238.43762474704999
20
-54.453928369999971
30
0
40
0.19999952105192578
210
0
220
-0
230
1
100
AcDbArc
50
79.99986978338282
51
180
0
LINE
5
302
100
AcDbEntity
8
0
100
AcDbLine
10
-238.63762426810189
20
-54.453928369999986
30
0
11
-238.63762474705001
21
-55.015578369999965
31
0
0
ARC
5
303
100
AcDbEntity
8
0
100
AcDbCircle
10
-238.83762474705003
20
-55.015578369999965
30
0
40
0.19999999999999574
210
0
220
0
230
1
100
AcDbArc
50
-89.999999999983714
51
0
0
LINE
5
304
100
AcDbEntity
8
0
100
AcDbLine
10
-238.83762474704997
20
-55.21557836999996
30
0
11
-239.72215474704998
21
-55.215578369999918
31
0
0
ARC
5
305
100
AcDbEntity
8
0
100
AcDbCircle
10
-239.72215474704998
20
-55.015578369999965
30
0
40
0.1999999999999523
210
0
220
0
230
1
100
AcDbArc
50
210.00000000000128
51
270
0
LINE
5
306
100
AcDbEntity
8
0
100
AcDbLine
10
-239.89535982780683
20
-55.115578369999945
30
0
11
-239.99620374705
21
-54.940912369999978
31
0
0
ARC
5
307
100
AcDbEntity
8
0
100
AcDbCircle
10
-240.16940874704997
20
-55.040912369999972
30
0
40
0.19999993006245848
210
0
220
-0
230
1
100
AcDbArc
50
30.000011567579396
51
75.000000000004405
0
LINE
5
308
100
AcDbEntity
8
0
100
AcDbLine
10
-240.11764495613065
20
-54.847727272296623
30
0
11
-243.84443974704996
21
-53.849135369999971
31
0
0
ARC
5
309
100
AcDbEntity
8
0
100
AcDbCircle
10
-243.89620374705001
20
-54.04232036999997
30
0
40
0.19999988980247646
210
0
220
-0
230
1
100
AcDbArc
50
74.999934899369677
51
164.99993489938342
0
LINE
5
310
100
AcDbEntity
8
0
100
AcDbLine
10
-244.08938874705001
20
-53.990556369999972
30
0
11
-244.09790464060734
21
-54.022340398521337
31
0
0
ARC
5
311
100
AcDbEntity
8
0
100
AcDbCircle
10
-244.29108974704997
20
-53.97057637000006
30
0
40
0.20000000000000462
210
0
220
0
230
1
100
AcDbArc
50
269.99999999999187
51
344.99993489940221
0
LINE
5
312
100
AcDbEntity
8
0
100
AcDbLine
10
-244.29108974704999
20
-54.170576370000063
30
0
11
-244.78415974704998
21
-54.170576369999921
31
0
0
ARC
5
313
100
AcDbEntity
8
0
100
AcDbCircle
10
-244.78415974705001
20
-53.970576370000032
30
0
40
0.19999999999988616
210
0
220
0
230
1
100
AcDbArc
50
195.0000651006082
51
270.00000000000813
0
LINE
5
314
100
AcDbEntity
8
0
100
AcDbLine
10
-244.97734485349253
20
-54.022340398521315
30
0
11
-244.99790474704997
21
-53.945607369999976
31
0
0
ARC
5
315
100
AcDbEntity
8
0
100
AcDbCircle
10
-245.19108974705003
20
-53.997371369999968
30
0
40
0.19999988980251018
210
0
220
-0
230
1
100
AcDbArc
50
15.000065100610339
51
90
0
LINE
5
316
100
AcDbEntity
8
0
100
AcDbLine
10
-245.19108974705003
20
-53.797371480197462
30
0
11
-261.80741274704997
21
-53.79737137
31
0
0
LWPOLYLINE
5
317
100
AcDbEntity
8
0
100
AcDbPolyline
90
8
70
1
43
0.0
10
-88.257412746999961
20
-144.66046836979996
42
-0.41421356231451639
10
-87.257412746999989
20
-143.66046836999996
10
-75.257412746999989
20
-143.66046836999999
42
-0.41421356237309503
10
-74.257412746999989
20
-144.66046836999999
10
-74.257412746999989
20
-156.66046836999999
42
-0.41421356237309503
10
-75.257412746999989
20
-157.66046836999999
10
-87.257412747100005
20
-157.66046837000002
42
-0.41421356234378232
10
-88.257412747000004
20
-156.66046836999996
0
LWPOLYLINE
5
318
100
AcDbEntity
8
0
100
AcDbPolyline
90
8
70
1
43
0.0
10
-279.0477909409999
20
-156.66046836979999
42
-0.41421356243164248
10
-280.04779094100002
20
-157.66046836999999
10
-292.04779094089702
20
-157.66046837000002
42
-0.4142135624032558
10
-293.04779094099996
20
-156.66046836999999
10
-293.0477909409999
20
-144.66046836991097
42
-0.41421356234708612
10
-292.04779094099985
20
-143.66046836999999
10
-280.04779094099996
20
-143.66046836999999
42
-0.41421356237312101
10
-279.04779094099996
20
-144.66046836999999
0
LWPOLYLINE
5
319
100
AcDbEntity
8
0
100
AcDbPolyline
90
8
70
1
43
0.0
10
-118.12087214499999
20
-143.66046837000002
42
-0.41421356237311585
10
-117.12087214499999
20
-144.66046836999999
10
-117.12087214499996
20
-156.66046836979402
42
-0.4142135624333958
10
-118.12087214499999
20
-157.66046837000002
10
-130.12087214489699
20
-157.66046836999999
42
-0.41421356240323504
10
-131.12087214499996
20
-156.66046836999999
10
-131.12087214499996
20
-144.6604683699
42
-0.41421356234381873
10
-130.12087214499996
20
-143.66046836999999
0
LWPOLYLINE
5
320
100
AcDbEntity
8
0
100
AcDbPolyline
90
8
70
1
43
0.0
10
-207.31991274699999
20
-63.697968369794033
42
-0.4142135623127578
10
-206.31991274700002
20
-62.697968369999984
10
-194.31991274700005
20
-62.697968369999977
42
-0.41421356237310281
10
-193.31991274699999
20
-63.697968369999984
10
-193.31991274699999
20
-75.697968369999984
42
-0.414213562373069
10
-194.31991274699999
20
-76.697968369999984
10
-206.31991274709998
20
-76.697968369999984
42
-0.41421356234382134
10
-207.31991274700005
20
-75.697968369999984
0
LWPOLYLINE
5
321
100
AcDbEntity
8
0
100
AcDbPolyline
90
8
70
1
43
0.0
10
-240.94491274700002
20
-94.747968369999981
42
-0.41421356237313145
10
-241.94491274700005
20
-95.747968370000009
10
-253.94491274709998
20
-95.747968369999967
42
-0.4142135623437771
10
-254.94491274699999
20
-94.747968369999981
10
-254.94491274699999
20
-82.747968369794037
42
-0.41421356231274742
10
-253.94491274699999
20
-81.747968369999995
10
-241.94491274699999
20
-81.747968369999995
42
-0.41421356237305862
10
-240.94491274700002
20
-82.747968369999981
0
LWPOLYLINE
5
322
100
AcDbEntity
8
0
100
AcDbPolyline
90
8
70
1
43
0.0
10
-389.48796374705
20
-94.798283369999993
42
-0.41421400000027087
10
-389.73796374704995
20
-94.548283369999965
10
-389.73796374705017
20
-82.996518369999976
42
-0.41421399999964653
10
-389.48796374705006
20
-82.74651836999999
10
-388.16618574705001
20
-82.746518369999933
42
-0.41421400000020842
10
-387.91618574705006
20
-82.996518369999976
10
-387.91618574705006
20
-94.548283369999965
42
-0.4142140000001876
10
-388.16618574705001
20
-94.798283369999979
0
LWPOLYLINE
5
323
100
AcDbEntity
8
0
100
AcDbPolyline
90
8
70
1
43
0.0
10
-403.86991274699994
20
-100.79796836999996
42
-0.41421356237310025
10
-402.86991274699994
20
-101.79796836999999
10
-402.869912747
20
-113.79796836999999
42
-0.41421356237299095
10
-403.86991274699994
20
-114.79796836999998
10
-415.86991274709999
20
-114.79796836999995
42
-0.4142135623437771
10
-416.869912747
20
-113.79796836999999
10
-416.86991274699994
20
-101.79796836979997
42
-0.41421356231447476
10
-415.86991274699989
20
-100.79796836999995
0
LWPOLYLINE
5
324
100
AcDbEntity
8
0
100
AcDbPolyline
90
4
70
1
43
0.0
10
-112.14499574704999
20
-63.27296836999998
42
-0.99999999999999989
10
-111.14499574705005
20
-63.27296836999998
10
-111.14499574705005
20
-76.272968369999987
42
-0.99999999999999989
10
-112.14499574704999
20
-76.272968369999987
0
LWPOLYLINE
5
325
100
AcDbEntity
8
0
100
AcDbPolyline
90
8
70
1
43
0.0
10
-101.60166274704999
20
-75.197968369999984
42
-0.41421400000001074
10
-102.10166274704997
20
-75.697968369999984
10
-108.10166274704999
20
-75.697968369999998
42
-0.41421399999998471
10
-108.60166274704997
20
-75.197968369999984
10
-108.60166274705
20
-61.19796836999997
42
-0.41421399999997949
10
-108.10166274704999
20
-60.69796836999997
10
-102.10166274705001
20
-60.697968369999948
42
-0.41421400000002634
10
-101.60166274704999
20
-61.197968369999963
0
LWPOLYLINE
5
326
100
AcDbEntity
8
0
100
AcDbPolyline
90
8
70
1
43
0.0
10
-415.86991274710294
20
-133.84796836999988
42
-0.41421356234298629
10
-416.869912747
20
-132.84796836999999
10
-416.869912747
20
-120.84796836979405
42
-0.41421356231283069
10
-415.86991274699989
20
-119.84796836999999
10
-403.86991274699983
20
-119.84796836999999
42
-0.41421356237311063
10
-402.86991274699983
20
-120.84796836999999
10
-402.869912747
20
-132.84796836999999
42
-0.41421356237299095
10
-403.86991274699994
20
-133.84796836999999
0
LWPOLYLINE
5
327
100
AcDbEntity
8
0
100
AcDbPolyline
90
8
70
1
43
0.0
10
-212.08241274700001
20
-101.79796836979405
42
-0.41421356231280987
10
-211.08241274699995
20
-100.79796836999998
10
-199.08241274699998
20
-100.79796837000001
42
-0.41421356237305862
10
-198.08241274699998
20
-101.79796836999999
10
-198.08241274700003
20
-113.79796836999999
42
-0.41421356237308982
10
-199.08241274700001
20
-114.79796837000002
10
-211.08241274709997
20
-114.79796836999996
42
-0.41421356234380308
10
-212.08241274700001
20
-113.79796836999999
0
LWPOLYLINE
5
328
100
AcDbEntity
8
0
100
AcDbPolyline
90
8
70
1
43
0.0
10
-153.93241274710297
20
-114.79796836999998
42
-0.41421356234292384
10
-154.932412747
20
-113.79796836999999
10
-154.932412747
20
-101.79796836979997
42
-0.41421356231451639
10
-153.932412747
20
-100.79796836999998
10
-141.93241274699997
20
-100.79796836999998
42
-0.41421356237310025
10
-140.93241274699997
20
-101.79796836999999
10
-140.932412747
20
-113.79796836999999
42
-0.41421356237309503
10
-141.93241274699997
20
-114.79796836999998
0
LWPOLYLINE
5
329
100
AcDbEntity
8
0
100
AcDbPolyline
90
8
70
1
43
0.0
10
-95.045871747049958
20
-144.16046836999999
42
-0.41421356237309503
10
-94.545871747049986
20
-143.66046837000002
10
-91.782412747049989
20
-143.66046837000002
42
-0.41421356237312623
10
-91.282412747049989
20
-144.16046836999999
10
-91.282412747050017
20
-157.16046836999999
42
-0.41421356237309503
10
-91.782412747049989
20
-157.66046836999999
10
-94.545871747050001
20
-157.66046836999999
42
-0.4142135623730846
10
-95.045871747049958
20
-157.16046836999999
0
LWPOLYLINE
5
330
100
AcDbEntity
8
0
100
AcDbPolyline
90
8
70
1
43
0.0
10
-74.257412746999975
20
-132.828865081
42
-0.41421356237310025
10
-75.257412746999989
20
-133.82886508099998
10
-87.257412747100005
20
-133.828865081
42
-0.41421356234382911
10
-88.257412747000004
20
-132.82886508099998
10
-88.257412747000004
20
-120.82886508079405
42
-0.41421356231278383
10
-87.257412746999989
20
-119.82886508099998
10
-75.257412746999989
20
-119.82886508099995
42
-0.41421356237311063
10
-74.257412746999975
20
-120.828865081
0
LWPOLYLINE
5
331
100
AcDbEntity
8
0
100
AcDbPolyline
90
8
70
1
43
0.0
10
-94.307412746999987
20
-119.82886508099993
42
-0.41421356237310025
10
-93.307412746999972
20
-120.828865081
10
-93.307412747000001
20
-132.828865081
42
-0.41421356237309503
10
-94.307412746999987
20
-133.82886508099998
10
-106.30741274709997
20
-133.828865081
42
-0.41421356234379791
10
-107.307412747
20
-132.828865081
10
-107.307412747
20
-120.8288650808
42
-0.41421356231450596
10
-106.30741274699999
20
-119.82886508099998
0
LWPOLYLINE
5
332
100
AcDbEntity
8
0
100
AcDbPolyline
90
8
70
1
43
0.0
10
-246.70741274700003
20
-119.84796836999993
42
-0.41421356237306384
10
-245.70741274700001
20
-120.84796836999999
10
-245.70741274699998
20
-132.84796836999999
42
-0.41421356237312623
10
-246.70741274700003
20
-133.84796837000002
10
-258.70741274710298
20
-133.84796836999999
42
-0.41421356234293422
10
-259.70741274700009
20
-132.84796836999999
10
-259.70741274700003
20
-120.84796836979999
42
-0.41421356231454759
10
-258.70741274699992
20
-119.84796836999999
0
LWPOLYLINE
5
333
100
AcDbEntity
8
0
100
AcDbPolyline
90
8
70
1
43
0.0
10
-257.14106074705001
20
-138.87891736999995
42
-0.41421400000006275
10
-256.59106074704999
20
-139.42891736999999
10
-256.59106074704999
20
-141.08546837
42
-0.41421399999979791
10
-257.14106074704995
20
-141.63546836999998
10
-357.81558074704992
20
-141.63546836999996
42
-0.41421400000008168
10
-358.36558074704999
20
-141.08546837
10
-358.3655807470501
20
-139.42891736999999
42
-0.41421400000001546
10
-357.81558074705003
20
-138.87891736999998
0
LWPOLYLINE
5
334
100
AcDbEntity
8
0
100
AcDbPolyline
90
8
70
1
43
0.0
10
-192.03433154289999
20
-157.66046836999999
42
-0.41421356240235574
10
-193.03433154299998
20
-156.66046836999999
10
-193.03433154299998
20
-144.6604683699
42
-0.41421356234377188
10
-192.03433154299995
20
-143.66046836999999
10
-180.03433154280793
20
-143.66046836999999
42
-0.41421356225654649
10
-179.03433154299992
20
-144.66046836979405
10
-179.03433154299989
20
-156.66046836979999
42
-0.41421356243164248
10
-180.03433154299998
20
-157.66046836999999
0
LWPOLYLINE
5
335
100
AcDbEntity
8
0
100
AcDbPolyline
90
8
70
1
43
0.0
10
-150.16991274700001
20
-63.697968369794033
42
-0.41421356231277345
10
-149.16991274700001
20
-62.697968369999984
10
-137.16991274700001
20
-62.69796836999997
42
-0.41421356237310025
10
-136.16991274700001
20
-63.697968369999984
10
-136.16991274700001
20
-75.697968369999984
42
-0.41421356237308204
10
-137.16991274700001
20
-76.697968369999984
10
-149.1699127471
20
-76.697968369999984
42
-0.41421356234380569
10
-150.16991274700001
20
-75.697968369999984
0
LWPOLYLINE
5
336
100
AcDbEntity
8
0
100
AcDbPolyline
90
8
70
1
43
0.0
10
-196.79491274710301
20
-95.747968370000009
42
-0.41421356234290824
10
-197.79491274700004
20
-94.747968369999995
10
-197.79491274700007
20
-82.747968369799992
42
-0.41421356231451117
10
-196.79491274699998
20
-81.747968369999995
10
-184.79491274700001
20
-81.747968369999995
42
-0.41421356237310542
10
-183.79491274699998
20
-82.747968369999995
10
-183.79491274699996
20
-94.747968369999981
42
-0.41421356237304302
10
-184.79491274699998
20
-95.747968369999967
0
LWPOLYLINE
5
337
100
AcDbEntity
8
0
100
AcDbPolyline
90
8
70
1
43
0.0
10
-361.91558074705
20
-138.87891737000004
42
-0.41421399999999653
10
-361.36558074704999
20
-139.42891736999999
10
-361.36558074704993
20
-141.08546837
42
-0.41421400000001546
10
-361.91558074705
20
-141.63546836999998
10
-416.31991274705001
20
-141.63546836999996
42
-0.41421400000008168
10
-416.86991274705008
20
-141.08546837
10
-416.86991274705014
20
-139.42891736999999
42
-0.41421399999963709
10
-416.31991274705007
20
-138.87891736999998
0
LWPOLYLINE
5
338
100
AcDbEntity
8
0
100
AcDbPolyline
90
24
70
1
43
0.0
10
-391.63457174705002
20
-85.794493369999927
42
-0.41421400000020842
10
-391.38457174705002
20
-86.044493369999969
10
-391.38457174705013
20
-87.191101369999984
42
-0.41421400000037489
10
-391.63457174705002
20
-87.441101369999956
10
-402.90606174704988
20
-87.441101369999998
42
-0.41421400000002112
10
-403.15606174704999
20
-87.191101369999984
10
-403.15606174705005
20
-86.044493369999969
42
-0.4142140000001876
10
-402.90606174705005
20
-85.794493369999969
10
-400.67339174705006
20
-85.794493369999984
42
0.4142140000000003
10
-400.42339174705006
20
-85.544493369999969
10
-400.42339174705006
20
-82.996518369999976
42
-0.41421399999964653
10
-400.17339174705006
20
-82.746518369999961
10
-398.85161574705
20
-82.746518370000047
42
-0.41421399999991709
10
-398.60161574705
20
-82.996518369999976
10
-398.60161574705
20
-85.544493369999969
42
0.4142140000000003
10
-398.35161574705006
20
-85.794493369999984
10
-396.18901774704995
20
-85.794493369999984
42
0.41421399999991709
10
-395.93901774705
20
-85.544493369999969
10
-395.93901774705
20
-82.996518369999976
42
-0.41421399999964653
10
-395.68901774705006
20
-82.746518369999961
10
-394.36723874705001
20
-82.746518370000018
42
-0.41421400000002112
10
-394.1172387470499
20
-82.996518369999976
10
-394.1172387470499
20
-85.544493369999969
42
0.4142140000001876
10
-393.86723874705001
20
-85.794493369999927
0
LWPOLYLINE
5
339
100
AcDbEntity
8
0
100
AcDbPolyline
90
8
70
1
43
0.0
10
-284.807412747
20
-119.84796836999993
42
-0.41421356237306384
10
-283.80741274699994
20
-120.84796836999999
10
-283.80741274699994
20
-132.84796836999999
42
-0.41421356237304818
10
-284.807412747
20
-133.84796836999999
10
-296.80741274710294
20
-133.84796836999999
42
-0.41421356234293422
10
-297.807412747
20
-132.84796836999999
10
-297.807412747
20
-120.84796836979405
42
-0.4142135623127578
10
-296.807412747
20
-119.84796836999999
0
ARC
5
340
100
AcDbEntity
8
0
100
AcDbCircle
10
-197.10891374705005
20
-47.854005370000493
30
0
40
1.0071363542433023
210
0
220
-0
230
1
100
AcDbArc
50
56.767415973206937
51
86.658824999995602
0
LINE
5
341
100
AcDbEntity
8
0
100
AcDbLine
10
-196.55696374502202
20
-47.011583366904816
30
0
11
-194.05073638246111
21
-48.660468363183789
31
0
0
ARC
5
342
100
AcDbEntity
8
0
100
AcDbCircle
10
-191.85222274704995
20
-45.318831369999977
30
0
40
3.9999999999129257
210
0
220
0
230
1
100
AcDbArc
50
236.65847599999961
51
259.99999588861289
0
LINE
5
343
100
AcDbEntity
8
0
100
AcDbLine
10
-192.5468157403709
20
-49.258062332120993
30
0
11
-190.81192938258337
21
-49.563969920602432
31
0
0
ARC
5
344
100
AcDbEntity
8
0
100
AcDbCircle
10
-190.77719974704993
20
-49.367008369999972
30
0
40
0.20000000000002596
210
0
220
0
230
1
100
AcDbArc
50
-100.00000000001374
51
0
0
LINE
5
345
100
AcDbEntity
8
0
100
AcDbLine
10
-190.57719974704992
20
-49.367008369999972
30
0
11
-190.57719974704995
21
-48.805359369999977
31
0
0
ARC
5
346
100
AcDbEntity
8
0
100
AcDbCircle
10
-190.37719974704993
20
-48.805359370000041
30
0
40
0.20000000000004015
210
0
220
0
230
1
100
AcDbArc
50
90.000000000008143
51
180
0
LINE
5
347
100
AcDbEntity
8
0
100
AcDbLine
10
-190.37719974704996
20
-48.605359370000002
30
0
11
-189.49266974704994
21
-48.605359369999903
31
0
0
ARC
5
348
100
AcDbEntity
8
0
100
AcDbCircle
10
-189.49266974704986
20
-48.805359369999771
30
0
40
0.19999999999986515
210
0
220
-0
230
1
100
AcDbArc
50
30.000011567544995
51
90.000000000024428
0
LINE
5
349
100
AcDbEntity
8
0
100
AcDbLine
10
-189.31946468648226
20
-48.705359335031162
30
0
11
-189.21862182780717
21
-48.880025370000126
31
0
0
ARC
5
350
100
AcDbEntity
8
0
100
AcDbCircle
10
-189.04541674704998
20
-48.780025369999969
30
0
40
0.20000000000034882
210
0
220
0
230
1
100
AcDbArc
50
209.99999999999653
51
255.0002116171587
0
LINE
5
351
100
AcDbEntity
8
0
100
AcDbLine
10
-189.09717984255701
20
-48.97321072644209
30
0
11
-185.37038555607043
21
-49.971802535257829
31
0
0
ARC
5
352
100
AcDbEntity
8
0
100
AcDbCircle
10
-185.31862174704995
20
-49.778617369999978
30
0
40
0.20000000000003376
210
0
220
0
230
1
100
AcDbArc
50
255.00000000000796
51
345.00021161718252
0
LINE
5
353
100
AcDbEntity
8
0
100
AcDbLine
10
-185.12543639060809
20
-49.830380465506849
30
0
11
-185.11692010349179
21
-49.798597274493076
31
0
0
ARC
5
354
100
AcDbEntity
8
0
100
AcDbCircle
10
-184.92373474704993
20
-49.850360369999976
30
0
40
0.20000000000005791
210
0
220
-0
230
1
100
AcDbArc
50
90
51
165.00021161717461
0
LINE
5
355
100
AcDbEntity
8
0
100
AcDbLine
10
-184.92373474704993
20
-49.650360369999916
30
0
11
-184.43066574704997
21
-49.650360369999895
31
0
0
ARC
5
356
100
AcDbEntity
8
0
100
AcDbCircle
10
-184.43066574705
20
-49.850360369999997
30
0
40
0.20000000000009688
210
0
220
-0
230
1
100
AcDbArc
50
14.999788382833106
51
89.999999999991857
0
LINE
5
357
100
AcDbEntity
8
0
100
AcDbLine
10
-184.23748039060811
20
-49.798597274493062
30
0
11
-184.21691974704996
21
-49.875329369999974
31
0
0
ARC
5
358
100
AcDbEntity
8
0
100
AcDbCircle
10
-184.02373474704999
20
-49.823565369999976
30
0
40
0.19999988980244154
210
0
220
0
230
1
100
AcDbArc
50
195.00006510061863
51
270
0
LINE
5
359
100
AcDbEntity
8
0
100
AcDbLine
10
-184.02373474704999
20
-50.02356525980241
30
0
11
-167.40741274704999
21
-50.023565369999943
31
0
0
ARC
5
360
100
AcDbEntity
8
0
100
AcDbCircle
10
-167.40741274704993
20
-50.223565369999925
30
0
40
0.19999999999996021
210
0
220
0
230
1
100
AcDbArc
50
0
51
90.000000000016286
0
LINE
5
361
100
AcDbEntity
8
0
100
AcDbLine
10
-167.20741274705
20
-50.223565369999967
30
0
11
-167.20741274705006
21
-50.323565369999976
31
0
0
ARC
5
362
100
AcDbEntity
8
0
100
AcDbCircle
10
-167.00741274705001
20
-50.323565369999976
30
0
40
0.20000000000003126
210
0
220
0
230
1
100
AcDbArc
50
180
51
270
0
LINE
5
363
100
AcDbEntity
8
0
100
AcDbLine
10
-167.00741274705001
20
-50.523565370000007
30
0
11
-166.20741274705006
21
-50.523565369999986
31
0
0
ARC
5
364
100
AcDbEntity
8
0
100
AcDbCircle
10
-166.20741274705006
20
-50.72356536999996
30
0
40
0.19999999999999574
210
0
220
0
230
1
100
AcDbArc
50
0
51
90
0
LINE
5
365
100
AcDbEntity
8
0
100
AcDbLine
10
-166.00741274705004
20
-50.723565369999989
30
0
11
-166.00741274705004
21
-53.097371369999976
31
0
0
ARC
5
366
100
AcDbEntity
8
0
100
AcDbCircle
10
-166.20741274705011
20
-53.097371369999919
30
0
40
0.20000000000005791
210
0
220
0
230
1
100
AcDbArc
50
270.00000000001626
51
360
0
LINE
5
367
100
AcDbEntity
8
0
100
AcDbLine
10
-166.20741274705006
20
-53.297371369999979
30
0
11
-167.00741274705001
21
-53.297371369999986
31
0
0
ARC
5
368
100
AcDbEntity
8
0
100
AcDbCircle
10
-167.00741274705001
20
-53.497371369999982
30
0
40
0.19999999999999574
210
0
220
-0
230
1
100
AcDbArc
50
90
51
180
0
LINE
5
369
100
AcDbEntity
8
0
100
AcDbLine
10
-167.20741274705003
20
-53.497371369999982
30
0
11
-167.20741274704991
21
-53.597371369999976
31
0
0
ARC
5
370
100
AcDbEntity
8
0
100
AcDbCircle
10
-167.40741274705002
20
-53.597371369999927
30
0
40
0.20000000000009344
210
0
220
0
230
1
100
AcDbArc
50
270.00000000000813
51
360
0
LINE
5
371
100
AcDbEntity
8
0
100
AcDbLine
10
-167.40741274704999
20
-53.797371370000022
30
0
11
-184.02373474705001
21
-53.797371369999979
31
0
0
ARC
5
372
100
AcDbEntity
8
0
100
AcDbCircle
10
-184.02373474704999
20
-53.997371369999968
30
0
40
0.19999999999999574
210
0
220
0
230
1
100
AcDbArc
50
90.000000000008143
51
164.99993489937836
0
LINE
5
373
100
AcDbEntity
8
0
100
AcDbLine
10
-184.21691985349256
20
-53.94560734147862
30
0
11
-184.23748064060743
21
-54.022340398521294
31
0
0
ARC
5
374
100
AcDbEntity
8
0
100
AcDbCircle
10
-184.43066574704994
20
-53.970576370000018
30
0
40
0.19999999999988916
210
0
220
0
230
1
100
AcDbArc
50
269.99999999999187
51
344.99993489939379
0
LINE
5
375
100
AcDbEntity
8
0
100
AcDbLine
10
-184.43066574704997
20
-54.170576369999907
30
0
11
-184.92373474704993
21
-54.170576370000056
31
0
0
ARC
5
376
100
AcDbEntity
8
0
100
AcDbCircle
10
-184.92373474705005
20
-53.97057637000011
30
0
40
0.19999999999993873
210
0
220
0
230
1
100
AcDbArc
50
195.00006510058626
51
270.00000000003257
0
LINE
5
377
100
AcDbEntity
8
0
100
AcDbLine
10
-185.11691985349262
20
-54.02234039852133
30
0
11
-185.12543658179214
21
-53.990556560979464
31
0
0
ARC
5
378
100
AcDbEntity
8
0
100
AcDbCircle
10
-185.31862174704995
20
-54.04232036999997
30
0
40
0.199999999999976
210
0
220
-0
230
1
100
AcDbArc
50
15.000000000001618
51
105.00006510062114
0
LINE
5
379
100
AcDbEntity
8
0
100
AcDbLine
10
-185.37038577557129
20
-53.849135263557393
30
0
11
-189.09718055607041
21
-54.847727204742398
31
0
0
ARC
5
380
100
AcDbEntity
8
0
100
AcDbCircle
10
-189.04541674704998
20
-55.040912369999972
30
0
40
0.19999999999974941
210
0
220
0
230
1
100
AcDbArc
50
104.99999999999686
51
149.99998843241241
0
LINE
5
381
100
AcDbEntity
8
0
100
AcDbLine
10
-189.21862180761738
20
-54.940912335031307
30
0
11
-189.3194646662931
21
-55.115578369999916
31
0
0
ARC
5
382
100
AcDbEntity
8
0
100
AcDbCircle
10
-189.49266974705
20
-55.015578369999922
30
0
40
0.19999999999999574
210
0
220
0
230
1
100
AcDbArc
50
270.00000000003257
51
330.0000000000033
0
LINE
5
383
100
AcDbEntity
8
0
100
AcDbLine
10
-189.49266974704989
20
-55.215578369999918
30
0
11
-190.37719974704996
21
-55.215578369999967
31
0
0
ARC
5
384
100
AcDbEntity
8
0
100
AcDbCircle
10
-190.37719974705001
20
-55.015578370000028
30
0
40
0.19999999999992468
210
0
220
0
230
1
100
AcDbArc
50
180
51
270.00000000001626
0
LINE
5
385
100
AcDbEntity
8
0
100
AcDbLine
10
-190.57719974704995
20
-55.015578369999965
30
0
11
-190.57719974704997
21
-54.453928369999971
31
0
0
ARC
5
386
100
AcDbEntity
8
0
100
AcDbCircle
10
-190.77719974704993
20
-54.453928369999971
30
0
40
0.19999999999996021
210
0
220
-0
230
1
100
AcDbArc
50
0
51
100.00013021662136
0
LINE
5
387
100
AcDbEntity
8
0
100
AcDbLine
10
-190.81192983021947
20
-54.256966898328429
30
0
11
-192.54681545770256
21
-54.562874358036915
31
0
0
ARC
5
388
100
AcDbEntity
8
0
100
AcDbCircle
10
-191.85222274704995
20
-58.502105369999967
30
0
40
3.9999999999129061
210
0
220
0
230
1
100
AcDbArc
50
100.00000000000026
51
123.34152830913754
0
LINE
5
389
100
AcDbEntity
8
0
100
AcDbLine
10
-194.05073663378104
20
-55.160468542163379
30
0
11
-196.55696433817039
21
-56.809353618336559
31
0
0
ARC
5
390
100
AcDbEntity
8
0
100
AcDbCircle
10
-197.10659274704992
20
-55.973944370000204
30
0
40
1.0000000000266867
210
0
220
0
230
1
100
AcDbArc
50
273.34154973152937
51
303.34152400000784
0
LINE
5
391
100
AcDbEntity
8
0
100
AcDbLine
10
-197.04830475815058
20
-56.9722441798787
30
0
11
-198.54575523893192
21
-57.059675337304697
31
0
0
ARC
5
392
100
AcDbEntity
8
0
100
AcDbCircle
10
-198.55741274704999
20
-56.860015369999957
30
0
40
0.20000000009911992
210
0
220
0
230
1
100
AcDbArc
50
108.34154757990881
51
273.34152400000409
0
LINE
5
393
100
AcDbEntity
8
0
100
AcDbLine
10
-198.62034891542231
20
-56.67017586212485
30
0
11
-198.3830487020212
21
-56.591506136606441
31
0
0
ARC
5
394
100
AcDbEntity
8
0
100
AcDbCircle
10
-198.41451674705002
20
-56.49658636999996
30
0
40
0.099999999752826224
210
-0
220
0
230
1
100
AcDbArc
50
-71.65847600000977
51
85.547565000002891
0
ARC
5
395
100
AcDbEntity
8
0
100
AcDbCircle
10
-198.05741274704999
20
-51.910468369999961
30
0
40
4.5000000000071276
210
0
220
0
230
1
100
AcDbArc
50
94.452425565520912
51
265.54757443447892
0
ARC
5
396
100
AcDbEntity
8
0
100
AcDbCircle
10
-198.41451674705002
20
-47.324350369999962
30
0
40
0.10000017137765416
210
-0
220
0
230
1
100
AcDbArc
50
-85.547565000011545
51
71.658362269984323
0
LINE
5
397
100
AcDbEntity
8
0
100
AcDbLine
10
-198.3830484596017
20
-47.229430502950805
30
0
11
-198.62034883726565
21
-47.150760903689729
31
0
0
ARC
5
398
100
AcDbEntity
8
0
100
AcDbCircle
10
-198.55741274704997
20
-46.960921369999966
30
0
40
0.20000000000795831
210
0
220
-0
230
1
100
AcDbArc
50
87.206864935964845
51
251.65847600001462
0
LINE
5
399
100
AcDbEntity
8
0
100
AcDbLine
10
-198.54766672769892
20
-46.761158973363379
30
0
11
-197.05021637019033
21
-46.848580955144612
31
0
0
LWPOLYLINE
5
400
100
AcDbEntity
8
0
100
AcDbPolyline
90
8
70
1
43
0.0
10
-269.23241274700001
20
-101.79796836979405
42
-0.41421356231275264
10
-268.23241274700001
20
-100.79796836999995
10
-256.2324127469999
20
-100.79796836999998
42
-0.41421356237304302
10
-255.23241274700001
20
-101.79796836999999
10
-255.23241274700007
20
-113.79796836999999
42
-0.4142135623730534
10
-256.23241274700001
20
-114.79796836999998
10
-268.2324127471
20
-114.79796837000001
42
-0.41421356234382389
10
-269.23241274700001
20
-113.79796836999999
0
LWPOLYLINE
5
401
100
AcDbEntity
8
0
100
AcDbPolyline
90
8
70
1
43
0.0
10
-202.557412747
20
-120.84796836979999
42
-0.41421356231454759
10
-201.55741274699992
20
-119.84796836999999
10
-189.557412747
20
-119.84796836999993
42
-0.41421356237306384
10
-188.55741274699997
20
-120.84796836999999
10
-188.55741274699997
20
-132.84796836999999
42
-0.41421356237304818
10
-189.557412747
20
-133.84796836999999
10
-201.55741274710294
20
-133.84796836999999
42
-0.41421356234293422
10
-202.55741274700003
20
-132.84796836999999
0
LWPOLYLINE
5
402
100
AcDbEntity
8
0
100
AcDbPolyline
90
8
70
1
43
0.0
10
-220.60741274710301
20
-133.84796836999999
42
-0.41421356234292384
10
-221.60741274700004
20
-132.84796836999999
10
-221.60741274700001
20
-120.84796836979405
42
-0.4142135623127578
10
-220.60741274700004
20
-119.84796836999999
10
-208.60741274700001
20
-119.84796836999993
42
-0.41421356237306384
10
-207.60741274699998
20
-120.84796836999999
10
-207.60741274699998
20
-132.84796836999999
42
-0.41421356237304818
10
-208.60741274700001
20
-133.84796836999999
0
LWPOLYLINE
5
403
100
AcDbEntity
8
0
100
AcDbPolyline
90
8
70
1
43
0.0
10
-202.84491274699997
20
-94.747968369999981
42
-0.41421356237304302
10
-203.844912747
20
-95.747968369999967
10
-215.84491274710297
20
-95.747968370000052
42
-0.4142135623428978
10
-216.84491274699997
20
-94.747968369999995
10
-216.84491274700002
20
-82.747968369799992
42
-0.41421356231451117
10
-215.84491274699991
20
-81.747968369999995
10
-203.84491274699997
20
-81.747968369999995
42
-0.41421356237305862
10
-202.844912747
20
-82.747968369999981
0
LWPOLYLINE
5
404
100
AcDbEntity
8
0
100
AcDbPolyline
90
8
70
1
43
0.0
10
-264.75741274699993
20
-132.84796836999999
42
-0.41421356237304818
10
-265.75741274699999
20
-133.84796836999999
10
-277.75741274709998
20
-133.84796836999996
42
-0.41421356234382389
10
-278.75741274699999
20
-132.84796836999999
10
-278.75741274699999
20
-120.84796836979405
42
-0.4142135623127578
10
-277.75741274699999
20
-119.84796836999999
10
-265.75741274699999
20
-119.84796836999993
42
-0.41421356237306384
10
-264.75741274699993
20
-120.84796836999999
0
ENDSEC
0
SECTION
2
OBJECTS
0
DICTIONARY
5
C
100
AcDbDictionary
3
ACAD_GROUP
350
D
3
ACAD_MLINESTYLE
350
17
0
DICTIONARY
5
D
100
AcDbDictionary
0
DICTIONARY
5
1A
330
C
100
AcDbDictionary
0
DICTIONARY
5
17
100
AcDbDictionary
0
ENDSEC
0
EOF
