0
SECTION
2
HEADER
9
$INSUNITS
70
4
9
$ACADVER
1
AC1014
9
$HANDSEED
5
FFFF
0
ENDSEC
0
SECTION
2
TABLES
0
TABLE
2
VPORT
5
8
100
AcDbSymbolTable
0
ENDTAB
0
TABLE
2
LTYPE
5
5
100
AcDbSymbolTable
0
LTYPE
5
14
100
AcDbSymbolTableRecord
100
AcDbLinetypeTableRecord
2
BYBLOCK
70
0
0
LTYPE
5
15
100
AcDbSymbolTableRecord
100
AcDbLinetypeTableRecord
2
BYLAYER
70
0
0
ENDTAB
0
TABLE
2
LAYER
5
2
100
AcDbSymbolTable
70
2
0
LAYER
5
50
100
AcDbSymbolTableRecord
100
AcDbLayerTableRecord
2
0
70
0
6
CONTINUOUS
0
ENDTAB
0
TABLE
2
STYLE
5
3
100
AcDbSymbolTable
70
1
0
STYLE
5
11
100
AcDbSymbolTableRecord
100
AcDbTextStyleTableRecord
2
STANDARD
70
0
0
ENDTAB
0
TABLE
2
VIEW
5
6
100
AcDbSymbolTable
70
0
0
ENDTAB
0
TABLE
2
UCS
5
7
100
AcDbSymbolTable
70
0
0
ENDTAB
0
TABLE
2
APPID
5
9
100
AcDbSymbolTable
70
2
0
APPID
5
12
100
AcDbSymbolTableRecord
100
AcDbRegAppTableRecord
2
ACAD
70
0
0
ENDTAB
0
TABLE
2
DIMSTYLE
5
A
100
AcDbSymbolTable
70
1
0
ENDTAB
0
TABLE
2
BLOCK_RECORD
5
1
100
AcDbSymbolTable
70
1
0
BLOCK_RECORD
5
1F
100
AcDbSymbolTableRecord
100
AcDbBlockTableRecord
2
*MODEL_SPACE
0
BLOCK_RECORD
5
1B
100
AcDbSymbolTableRecord
100
AcDbBlockTableRecord
2
*PAPER_SPACE
0
ENDTAB
0
ENDSEC
0
SECTION
2
BLOCKS
0
BLOCK
5
20
100
AcDbEntity
100
AcDbBlockBegin
2
*MODEL_SPACE
0
ENDBLK
5
21
100
AcDbEntity
100
AcDbBlockEnd
0
BLOCK
5
1C
100
AcDbEntity
100
AcDbBlockBegin
2
*PAPER_SPACE
0
ENDBLK
5
1D
100
AcDbEntity
100
AcDbBlockEnd
0
ENDSEC
0
SECTION
2
ENTITIES
0
LWPOLYLINE
5
100
100
AcDbEntity
8
0
100
AcDbPolyline
90
32
70
1
43
0.0
10
-273.97799682620007
20
-75.093002319299998
42
-0.41421356237310542
10
-272.97799682620001
20
-74.093002319300012
10
-265.45300292970006
20
-74.093002319300012
42
0.41421356237314444
10
-264.45300292970001
20
-73.093002319299828
10
-264.45300292970296
20
-56.042999267597267
42
-0.41421356237313928
10
-263.45300292970296
20
-55.042999267597096
10
-78.002998352099979
20
-55.042999267599988
42
-0.41421356237237966
10
-77.002998352099993
20
-56.042999267597608
10
-77.002998352059009
20
-73.093002320585896
42
0.41421356237468449
10
-76.002998353275643
20
-74.093002319359002
10
-68.47799682614469
20
-74.093002319299998
42
-0.41421356237578488
10
-67.477996826136831
20
-75.093002319301291
10
-67.477996826159
20
-92.142997742879658
42
0.41421356236487977
10
-66.47799682741028
20
-93.142997741659002
10
-63.715999603210712
20
-93.142997741740032
42
-0.4142135623651555
10
-62.715999603240043
20
-94.142997741742278
10
-62.715999603278341
20
-111.1740036022826
42
0.41421356237375578
10
-61.715999604463157
20
-112.17400360110003
10
-54.191001892099997
20
-112.17400360110003
42
-0.41421356237309243
10
-53.19100189209999
20
-113.17400360110003
10
-53.191001892100005
20
-127.17399597170002
42
-0.41421356237309503
10
-54.19100189209999
20
-128.17399597170004
10
-277.74099731441254
20
-128.17399597170004
42
-0.41421356237328233
10
-278.74099731441248
20
-127.17399597169931
10
-278.74099731439998
20
-110.14299774170071
42
0.41421356237331874
10
-279.74099731440003
20
-109.14299774169997
10
-287.26599121089998
20
-109.14299774169999
42
-0.41421356237311063
10
-288.26599121089993
20
-108.14299774170003
10
-288.26599121089998
20
-94.142997741697087
42
-0.41421356237219492
10
-287.26599121090294
20
-93.142997741697101
10
-274.97799682619706
20
-93.142997741659997
42
0.41421356237221058
10
-273.97799682620007
20
-92.142997741659997
0
LWPOLYLINE
5
101
100
AcDbEntity
8
0
100
AcDbPolyline
90
8
70
1
43
0.0
10
-322.62849884034927
20
-37.493496704059993
42
-0.41421399999972225
10
-322.07849884034931
20
-36.943496704059996
10
-319.41983584034921
20
-36.94349670406001
42
-0.41421400000002495
10
-318.8698358403492
20
-37.493496704060014
10
-318.86983584034925
20
-129.64944570406001
42
-0.4142139999995898
10
-319.41983584034926
20
-130.19944570406
10
-322.0784988403492
20
-130.19944570406
42
-0.41421400000013847
10
-322.62849884034927
20
-129.64944570406001
0
LWPOLYLINE
5
102
100
AcDbEntity
8
0
100
AcDbPolyline
90
8
70
1
43
0.0
10
-253.93137703429915
20
-138.00599670397099
42
-0.41421356234712253
10
-252.93137703429906
20
-137.00599670406001
10
-240.93137703429917
20
-137.00599670406001
42
-0.41421356237312101
10
-239.9313770342992
20
-138.00599670406001
10
-239.93137703429915
20
-150.00599670386001
42
-0.41421356243165808
10
-240.93137703429929
20
-151.00599670406001
10
-252.93137703419632
20
-151.00599670406004
42
-0.41421356240324542
10
-253.93137703429917
20
-150.00599670406001
0
LWPOLYLINE
5
103
100
AcDbEntity
8
0
100
AcDbPolyline
90
8
70
1
43
0.0
10
-376.75349884039923
20
-108.14349670406001
42
-0.41421356234374584
10
-377.75349884029924
20
-107.14349670406001
10
-377.75349884029913
20
-95.143496703859995
42
-0.41421356231443834
10
-376.75349884029913
20
-94.14349670405997
10
-364.75349884029919
20
-94.143496704059942
42
-0.41421356237311585
10
-363.75349884029913
20
-95.143496704060027
10
-363.75349884029924
20
-107.14349670406001
42
-0.41421356237298579
10
-364.75349884029919
20
-108.14349670406001
0
LWPOLYLINE
5
104
100
AcDbEntity
8
0
100
AcDbPolyline
90
8
70
1
43
0.0
10
-377.20349884034931
20
-134.98099670405995
42
-0.41421400000007225
10
-377.75349884034932
20
-134.43099670406002
10
-377.75349884034932
20
-132.77444570406001
42
-0.41421399999972225
10
-377.20349884034931
20
-132.22444570406
10
-322.79916684034924
20
-132.22444570406009
42
-0.41421400000006275
10
-322.24916684034923
20
-132.77444570406001
10
-322.24916684034923
20
-134.43099670406002
42
-0.41421400000003439
10
-322.79916684034924
20
-134.98099670406
0
LWPOLYLINE
5
105
100
AcDbEntity
8
0
100
AcDbPolyline
90
8
70
1
43
0.0
10
-52.165998840349239
20
-150.50599670406001
42
-0.41421356237310025
10
-52.665998840349218
20
-151.00599670406001
10
-55.429457840349244
20
-151.00599670406001
42
-0.41421356237310542
10
-55.929457840349201
20
-150.50599670406004
10
-55.929457840349208
20
-137.50599670406001
42
-0.41421356237310025
10
-55.42945784034923
20
-137.00599670406004
10
-52.665998840349218
20
-137.00599670406001
42
-0.41421356237315748
10
-52.165998840349232
20
-137.50599670406001
0
LWPOLYLINE
5
106
100
AcDbEntity
8
0
100
AcDbPolyline
90
8
70
1
43
0.0
10
-49.14099884029924
20
-114.17439341485407
42
-0.41421356231278383
10
-48.140998840299225
20
-113.17439341506001
10
-36.140998840299233
20
-113.17439341506
42
-0.41421356237311324
10
-35.140998840299211
20
-114.17439341506002
10
-35.140998840299211
20
-126.17439341506001
42
-0.41421356237308982
10
-36.140998840299225
20
-127.17439341506001
10
-48.140998840399234
20
-127.17439341506002
42
-0.41421356234381873
10
-49.14099884029924
20
-126.17439341506
0
LWPOLYLINE
5
107
100
AcDbEntity
8
0
100
AcDbPolyline
90
8
70
1
43
0.0
10
-318.69916684034922
20
-134.98099670405998
42
-0.41421400000008168
10
-319.24916684034918
20
-134.43099670406002
10
-319.24916684034935
20
-132.77444570406001
42
-0.41421400000004382
10
-318.69916684034922
20
-132.22444570406
10
-218.02464684034925
20
-132.22444570405997
42
-0.41421400000006275
10
-217.47464684034921
20
-132.77444570406001
10
-217.47464684034924
20
-134.43099670406002
42
-0.41421399999976949
10
-218.02464684034919
20
-134.98099670406
0
LWPOLYLINE
5
108
100
AcDbEntity
8
0
100
AcDbPolyline
90
8
70
1
43
0.0
10
-72.95445823829921
20
-138.00599670395999
42
-0.41421356234380052
10
-71.954458238299225
20
-137.00599670406001
10
-59.954458238099207
20
-137.00599670406001
42
-0.41421356225595074
10
-58.954458238299232
20
-138.00599670385998
10
-58.954458238299274
20
-150.00599670385407
42
-0.41421356243343482
10
-59.954458238299225
20
-151.00599670406001
10
-71.954458238196224
20
-151.00599670405998
42
-0.41421356240325324
10
-72.95445823829921
20
-150.00599670406001
0
LWPOLYLINE
5
109
100
AcDbEntity
8
0
100
AcDbPolyline
90
8
70
1
43
0.0
10
-358.70349884029929
20
-37.993496703854063
42
-0.4142135623127422
10
-357.70349884029918
20
-36.993496704060014
10
-345.70349884029918
20
-36.993496704060014
42
-0.41421356237311063
10
-344.70349884029923
20
-37.993496704060014
10
-344.70349884029906
20
-49.993496704060014
42
-0.41421356237307161
10
-345.70349884029918
20
-50.993496704060007
10
-357.70349884040218
20
-50.993496704059922
42
-0.41421356234299145
10
-358.70349884029918
20
-49.993496704060014
0
LWPOLYLINE
5
110
100
AcDbEntity
8
0
100
AcDbPolyline
90
8
70
1
43
0.0
10
-172.96791763629921
20
-138.00599670397099
42
-0.41421356234712253
10
-171.96791763629909
20
-137.00599670406001
10
-159.96791763629915
20
-137.00599670405998
42
-0.4142135623730378
10
-158.96791763629918
20
-138.00599670406001
10
-158.96791763629918
20
-150.00599670385407
42
-0.41421356243342705
10
-159.96791763629926
20
-151.00599670406001
10
-171.96791763619922
20
-151.00599670406004
42
-0.41421356240239215
10
-172.96791763629923
20
-150.00599670406001
0
LWPOLYLINE
5
111
100
AcDbEntity
8
0
100
AcDbPolyline
90
8
70
1
43
0.0
10
-55.284748840402223
20
-89.093496704060016
42
-0.41421356234290824
10
-56.284748840299244
20
-88.093496704060001
10
-56.284748840299244
20
-76.093496703860012
42
-0.41421356231451639
10
-55.28474884029923
20
-75.093496704059987
10
-38.522248840299234
20
-75.093496704060016
42
-0.41421356237310153
10
-37.52224884029922
20
-76.093496704060016
10
-37.522248840299213
20
-88.093496704060001
42
-0.41421356237309764
10
-38.52224884029922
20
-89.093496704060001
0
ARC
5
112
100
AcDbEntity
8
0
100
AcDbCircle
10
-298.07850494329921
20
-95.143496704059942
30
0
40
0.99999999999994316
210
0
220
0
230
1
100
AcDbArc
50
0
51
90.000000000003254
0
LINE
5
113
100
AcDbEntity
8
0
100
AcDbLine
10
-297.07850494329927
20
-95.143496704059999
30
0
11
-297.0784988403492
21
-107.14351503606004
31
0
0
ARC
5
114
100
AcDbEntity
8
0
100
AcDbCircle
10
-298.07850494329927
20
-107.14351503606002
30
0
40
1.0000000000000151
210
0
220
0
230
1
100
AcDbArc
50
270.34693108832334
51
360
0
LINE
5
115
100
AcDbEntity
8
0
100
AcDbLine
10
-298.07244989053117
20
-108.14349670406
30
0
11
-310.08455389312974
21
-108.14349670406001
31
0
0
ARC
5
116
100
AcDbEntity
8
0
100
AcDbCircle
10
-310.07849884034925
20
-107.14351503606008
30
0
40
1.0000000000000853
210
0
220
0
230
1
100
AcDbArc
50
180
51
269.65306891096657
0
LINE
5
117
100
AcDbEntity
8
0
100
AcDbLine
10
-311.07849884034931
20
-107.14351503606004
30
0
11
-311.07849884034925
21
-95.143496704060041
31
0
0
ARC
5
118
100
AcDbEntity
8
0
100
AcDbCircle
10
-310.07849884034925
20
-95.143496704060055
30
0
40
1.0000000000000142
210
0
220
-0
230
1
100
AcDbArc
50
90
51
180
0
LINE
5
119
100
AcDbEntity
8
0
100
AcDbLine
10
-310.07849884034925
20
-94.143496704060041
30
0
11
-298.07850494329927
21
-94.143496704059999
31
0
0
LWPOLYLINE
5
120
100
AcDbEntity
8
0
100
AcDbPolyline
90
8
70
1
43
0.0
10
-88.528498840349229
20
-36.974399519059489
42
-0.41421356237308982
10
-87.528498840349243
20
-37.974399519059489
10
-87.528498840349272
20
-49.974409704869259
42
-0.41421356237309764
10
-88.528498840349243
20
-50.974409704869252
10
-100.52856578529929
20
-50.974409704869245
42
-0.41421356237307161
10
-101.52856578529928
20
-49.974409704869274
10
-101.52856578529928
20
-37.974399519059489
42
-0.41421356237309764
10
-100.52856578529929
20
-36.974399519059489
0
LWPOLYLINE
5
121
100
AcDbEntity
8
0
100
AcDbPolyline
90
4
70
1
43
0.0
10
-279.02849884034919
20
-75.593496704060001
42
-0.99999999999999989
10
-278.02849884034924
20
-75.593496704060001
10
-278.02849884034924
20
-88.593496704060016
42
-0.99999999999999989
10
-279.02849884034919
20
-88.593496704060016
0
LWPOLYLINE
5
122
100
AcDbEntity
8
0
100
AcDbPolyline
90
8
70
1
43
0.0
10
-279.03137703429923
20
-137.00599670406001
42
-0.41421356237312101
10
-278.03137703429923
20
-138.00599670406001
10
-278.03137703429917
20
-150.00599670386001
42
-0.41421356243165808
10
-279.03137703429928
20
-151.00599670406001
10
-291.03137703419628
20
-151.00599670406001
42
-0.4142135624032246
10
-292.03137703429917
20
-150.00599670406001
10
-292.03137703429923
20
-138.00599670396002
42
-0.41421356234376666
10
-291.03137703429917
20
-137.00599670406001
0
LWPOLYLINE
5
123
100
AcDbEntity
8
0
100
AcDbPolyline
90
8
70
1
43
0.0
10
-40.903498840349179
20
-36.974399519059752
42
-0.41421356237308854
10
-39.903498840349208
20
-37.974399519059752
10
-39.903498840349208
20
-49.974409704869409
42
-0.41421356237309503
10
-40.903498840349208
20
-50.974409704869402
10
-52.903565785299278
20
-50.974409704869416
42
-0.41421356237308721
10
-53.903565785299243
20
-49.974409704869423
10
-53.903565785299264
20
-37.974399519059745
42
-0.41421356237309503
10
-52.903565785299264
20
-36.974399519059759
0
LWPOLYLINE
5
124
100
AcDbEntity
8
0
100
AcDbPolyline
90
8
70
1
43
0.0
10
-110.05445823819626
20
-151.00599670406001
42
-0.41421356240324542
10
-111.05445823829923
20
-150.00599670406001
10
-111.05445823829923
20
-138.00599670397099
42
-0.41421356234702367
10
-110.05445823829923
20
-137.00599670406001
10
-98.054458238299219
20
-137.00599670406001
42
-0.41421356237310025
10
-97.054458238299247
20
-138.00599670406001
10
-97.054458238299219
20
-150.00599670386001
42
-0.41421356243167889
10
-98.054458238299247
20
-151.00599670406001
0
LWPOLYLINE
5
125
100
AcDbEntity
8
0
100
AcDbPolyline
90
8
70
1
43
0.0
10
-344.70349884029901
20
-150.00599670406001
42
-0.41421356237310025
10
-345.70349884029918
20
-151.00599670406001
10
-357.70349884039916
20
-151.00599670406001
42
-0.41421356234380829
10
-358.70349884029918
20
-150.00599670406001
10
-358.70349884029906
20
-138.00599670385407
42
-0.41421356231280987
10
-357.70349884029912
20
-137.00599670405995
10
-345.70349884029918
20
-137.00599670406001
42
-0.41421356237307422
10
-344.70349884029923
20
-138.00599670406001
0
LWPOLYLINE
5
126
100
AcDbEntity
8
0
100
AcDbPolyline
90
11
70
1
43
0.0
10
-62.694835840349199
20
-50.974411420458011
10
-62.33480114479925
20
-50.974411726059955
42
0.41421368670626135
10
-61.334800720299263
20
-49.974411726060026
10
-61.334800720299263
20
-37.974411726060026
42
0.41421343812356076
10
-62.334800296084765
20
-36.974411726060112
10
-62.689956195127408
20
-36.974411424599282
42
0.0012199167521736009
10
-62.694835840349235
20
-36.974399519059666
10
-76.716065785299278
20
-36.974399519059666
42
0.41421356237309631
10
-77.716065785299278
20
-37.974399519059659
10
-77.716065785299278
20
-49.974411420458026
42
0.41421356237307161
10
-76.716065785299293
20
-50.974411420458011
0
LWPOLYLINE
5
127
100
AcDbEntity
8
0
100
AcDbPolyline
90
8
70
1
43
0.0
10
-40.903498840299235
20
-94.143496704059999
42
-0.41421356237311063
10
-39.903498840299214
20
-95.143496704060041
10
-39.903498840299214
20
-107.14349670406001
42
-0.41421356237309764
10
-40.903498840299221
20
-108.14349670406001
10
-52.903498840402186
20
-108.14349670406006
42
-0.41421356234294726
10
-53.903498840299243
20
-107.14349670406
10
-53.903498840299243
20
-95.143496703859995
42
-0.41421356231452161
10
-52.903498840299228
20
-94.143496704059999
0
LWPOLYLINE
5
128
100
AcDbEntity
8
0
100
AcDbPolyline
90
8
70
1
43
0.0
10
-339.6534988403493
20
-57.043496704059997
42
-0.41421399999994568
10
-338.65349884034924
20
-56.04349670405999
10
-326.65349884034919
20
-56.043496704059862
42
-0.41421399999999509
10
-325.65349884034924
20
-57.043496704059997
10
-325.65349884034936
20
-69.043496704060004
42
-0.41421399999997949
10
-326.65349884034924
20
-70.043496704060004
10
-338.65349884034919
20
-70.043496704059947
42
-0.4142139999999977
10
-339.65349884034924
20
-69.043496704060004
0
LWPOLYLINE
5
129
100
AcDbEntity
8
0
100
AcDbPolyline
90
4
70
1
43
0.0
10
-293.31599884034921
20
-94.643496704060013
42
-0.99999999999999989
10
-292.31599884034927
20
-94.643496704060013
10
-292.31599884034927
20
-107.64349670406
42
-0.99999999999999989
10
-293.31599884034921
20
-107.64349670406
0
LWPOLYLINE
5
130
100
AcDbEntity
8
0
100
AcDbPolyline
90
8
70
1
43
0.0
10
-344.70349884029906
20
-69.043496704060004
42
-0.41421356237307161
10
-345.70349884029918
20
-70.043496704060004
10
-357.70349884039916
20
-70.04349670405999
42
-0.41421356234380569
10
-358.70349884029918
20
-69.043496704060004
10
-358.70349884029929
20
-57.043496703854053
42
-0.41421356231273959
10
-357.70349884029918
20
-56.043496704060011
10
-345.70349884029923
20
-56.043496704060026
42
-0.41421356237310542
10
-344.70349884029923
20
-57.043496704060004
0
LWPOLYLINE
5
131
100
AcDbEntity
8
0
100
AcDbPolyline
90
8
70
1
43
0.0
10
-305.87274884034917
20
-76.093496704060058
42
-0.41421399999995867
10
-305.37274884034923
20
-76.593496704060001
10
-305.37274884034935
20
-90.593496704060001
42
-0.41421399999988584
10
-305.87274884034917
20
-91.093496704059987
10
-311.87274884034923
20
-91.093496704060072
42
-0.4142140000001252
10
-312.37274884034917
20
-90.593496704060001
10
-312.37274884034935
20
-76.593496704060001
42
-0.41421400000000552
10
-311.87274884034929
20
-76.093496704060016
0
ARC
5
132
100
AcDbEntity
8
0
100
AcDbCircle
10
-362.87916484034929
20
-84.398663704060027
30
0
40
0.25000000000005596
210
0
220
0
230
1
100
AcDbArc
50
166.42895999999291
51
270
0
SPLINE
5
133
100
AcDbEntity
8
0
100
AcDbSpline
70
4
71
3
72
8
73
4
74
0
42
0.000000001
43
0.0000000001
44
0.0000000001
40
0.92898640119481857
40
0.92898640119481857
40
0.92898640119481857
40
0.92898640119481857
40
1
40
1
40
1
40
1
41
1
41
1
41
1
41
1
10
-363.12218483695779
20
-84.340000649489866
30
0
10
-363.11501540521198
20
-84.310300093404109
30
0
10
-363.10725256636948
20
-84.281900682764956
30
0
10
-363.09889632043058
20
-84.255017807260799
30
0
0
SPLINE
5
134
100
AcDbEntity
8
0
100
AcDbSpline
70
4
71
3
72
8
73
4
74
0
42
0.000000001
43
0.0000000001
44
0.0000000001
40
0
40
0
40
0
40
0
40
1
40
1
40
1
40
1
41
1
41
1
41
1
41
1
10
-363.09889632043058
20
-84.255017807260799
30
0
10
-362.66490202492525
20
-82.858840375369951
30
0
10
-361.24022281043347
20
-82.00815300404436
30
0
10
-358.99472312721991
20
-81.804389549740065
30
0
0
SPLINE
5
135
100
AcDbEntity
8
0
100
AcDbSpline
70
4
71
3
72
8
73
4
74
0
42
0.000000001
43
0.0000000001
44
0.0000000001
40
0
40
0
40
0
40
0
40
0.99999768273212186
40
0.99999768273212186
40
0.99999768273212186
40
0.99999768273212186
41
1
41
1
41
1
41
1
10
-358.99472312721991
20
-81.804389549740065
30
0
10
-358.6233354367381
20
-81.770687990543422
30
0
10
-357.79350740216643
20
-81.763853487907468
30
0
10
-357.41818546147113
20
-81.791403638373168
30
0
0
SPLINE
5
136
100
AcDbEntity
8
0
100
AcDbSpline
70
4
71
3
72
8
73
4
74
0
42
0.000000001
43
0.0000000001
44
0.0000000001
40
0
40
0
40
0
40
0
40
1
40
1
40
1
40
1
41
1
41
1
41
1
41
1
10
-357.41818538265085
20
-81.791402564725928
30
0
10
-355.23190078434732
20
-81.951890829316852
30
0
10
-353.67958601250899
20
-82.829442851376996
30
0
10
-353.25211747138263
20
-84.146557188528192
30
0
0
SPLINE
5
137
100
AcDbEntity
8
0
100
AcDbSpline
70
4
71
3
72
8
73
4
74
0
42
0.000000001
43
0.0000000001
44
0.0000000001
40
0
40
0
40
0
40
0
40
0.067395115679854498
40
0.067395115679854498
40
0.067395115679854498
40
0.067395115679854498
41
1
41
1
41
1
41
1
10
-353.25211747138263
20
-84.146557188528192
30
0
10
-353.23136141835556
20
-84.210510722812742
30
0
10
-353.21311570567951
20
-84.274804377401935
30
0
10
-353.19735194123092
20
-84.339319364701566
30
0
0
ARC
5
138
100
AcDbEntity
8
0
100
AcDbCircle
10
-353.4402078403491
20
-84.398659704059895
30
0
40
0.25000000000008671
210
0
220
0
230
1
100
AcDbArc
50
-89.999972000012818
51
13.730828177172675
0
LINE
5
139
100
AcDbEntity
8
0
100
AcDbLine
10
-353.44020771817611
20
-84.648659704059952
30
0
11
-354.84945384034921
21
-84.648659704058019
31
0
0
ARC
5
140
100
AcDbEntity
8
0
100
AcDbCircle
10
-354.84945484034927
20
-84.398659704060023
30
0
40
0.25000000000002165
210
0
220
0
230
1
100
AcDbArc
50
205.25303728869443
51
270.0002291831305
0
SPLINE
5
141
100
AcDbEntity
8
0
100
AcDbSpline
70
4
71
3
72
8
73
4
74
0
42
0.000000001
43
0.0000000001
44
0.0000000001
40
0.98583929616478683
40
0.98583929616478683
40
0.98583929616478683
40
0.98583929616478683
40
1
40
1
40
1
40
1
41
1
41
1
41
1
41
1
10
-355.07556276029356
20
-84.505313774896734
30
0
10
-355.0774171387784
20
-84.501382452525519
30
0
10
-355.0792974492395
20
-84.49747551808457
30
0
10
-355.08120368166823
20
-84.493593719397381
30
0
0
SPLINE
5
142
100
AcDbEntity
8
0
100
AcDbSpline
70
4
71
3
72
8
73
4
74
0
42
0.000000001
43
0.0000000001
44
0.0000000001
40
0
40
0
40
0
40
0
40
1
40
1
40
1
40
1
41
1
41
1
41
1
41
1
10
-355.08120368166823
20
-84.493593719397381
30
0
10
-355.38798498709377
20
-83.868872296288671
30
0
10
-356.36628640785142
20
-83.448307795807622
30
0
10
-357.66342621802715
20
-83.383517100283228
30
0
0
SPLINE
5
143
100
AcDbEntity
8
0
100
AcDbSpline
70
4
71
3
72
8
73
4
74
0
42
0.000000001
43
0.0000000001
44
0.0000000001
40
0
40
0
40
0
40
0
40
1
40
1
40
1
40
1
41
1
41
1
41
1
41
1
10
-357.66342621802715
20
-83.383517100283228
30
0
10
-358.24058984603772
20
-83.354686373103348
30
0
10
-358.71843245392688
20
-83.370581987298891
30
0
10
-359.17415733439105
20
-83.433767180243379
30
0
0
SPLINE
5
144
100
AcDbEntity
8
0
100
AcDbSpline
70
4
71
3
72
8
73
4
74
0
42
0.000000001
43
0.0000000001
44
0.0000000001
40
0
40
0
40
0
40
0
40
1
40
1
40
1
40
1
41
1
41
1
41
1
41
1
10
-359.17415733439105
20
-83.43376971058629
30
0
10
-359.70018020173563
20
-83.506703049612952
30
0
10
-360.04955476945872
20
-83.604557736014996
30
0
10
-360.41600662151899
20
-83.781594443273661
30
0
0
SPLINE
5
145
100
AcDbEntity
8
0
100
AcDbSpline
70
4
71
3
72
8
73
4
74
0
42
0.000000001
43
0.0000000001
44
0.0000000001
40
0
40
0
40
0
40
0
40
0.66535465217256007
40
0.66535465217256007
40
0.66535465217256007
40
0.66535465217256007
41
1
41
1
41
1
41
1
10
-360.41600662151899
20
-83.781594443273661
30
0
10
-360.81758313464496
20
-83.975600416215059
30
0
10
-361.08696558577117
20
-84.217591314705487
30
0
10
-361.22228920057586
20
-84.50512176522426
30
0
0
ARC
5
146
100
AcDbEntity
8
0
100
AcDbCircle
10
-361.44848884034946
20
-84.398662704059859
30
0
40
0.2500000000001279
210
0
220
0
230
1
100
AcDbArc
50
270.00000000003905
51
334.79635228230671
0
LINE
5
147
100
AcDbEntity
8
0
100
AcDbLine
10
-361.44848884034928
20
-84.648662704059987
30
0
11
-362.87916484034929
21
-84.648663704060084
31
0
0
LWPOLYLINE
5
148
100
AcDbEntity
8
0
100
AcDbPolyline
90
8
70
1
43
0.0
10
-336.57625584034918
20
-89.09349670406003
42
-0.41421356237295975
10
-337.07625584034918
20
-88.593496704060016
10
-337.07625584034929
20
-75.593496704060001
42
-0.41421356237299095
10
-336.57625584034923
20
-75.09349670406003
10
-326.15349884034924
20
-75.093496704059987
42
-0.41421356237295454
10
-325.6534988403493
20
-75.593496704060001
10
-325.6534988403493
20
-88.593496704060016
42
-0.4142135623732407
10
-326.15349884034924
20
-89.093496704059987
0
LWPOLYLINE
5
149
100
AcDbEntity
8
0
100
AcDbPolyline
90
8
70
1
43
0.0
10
-241.69099884034921
20
-36.974399519059602
42
-0.4142135623730534
10
-241.19099884034915
20
-37.474399519059645
10
-241.19099884034924
20
-50.474409704776953
42
-0.41421356237297535
10
-241.69099884034921
20
-50.974409704776946
10
-243.90356578529924
20
-50.974409704776917
42
-0.41421356237315227
10
-244.40356578529926
20
-50.474409704776953
10
-244.40356578529929
20
-37.474399519059645
42
-0.41421356237312884
10
-243.90356578529929
20
-36.974399519059645
0
LWPOLYLINE
5
150
100
AcDbEntity
8
0
100
AcDbPolyline
90
13
70
1
43
0.0
10
-301.61022796649115
20
-54.043502807560046
10
-307.11022796629925
20
-54.043502806960014
42
0.41421356237308982
10
-307.61022796629925
20
-54.543502806960042
10
-307.61022796629925
20
-56.043527222060014
10
-314.84104766829921
20
-56.043527222060014
42
0.41421356231270839
10
-315.84104766829932
20
-57.043527221854056
10
-315.84104766829921
20
-69.043527221860018
42
0.41421356240152069
10
-314.84104766840227
20
-70.043527222059978
10
-301.60525574416181
20
-70.043502808059998
42
0.41276679060055377
10
-300.6101978340825
20
-69.043515017060002
10
-300.61022796579914
20
-55.043502808060012
10
-300.61022796579914
20
-54.543502806960042
42
0.41421356237308982
10
-301.11022796579908
20
-54.043502806960014
0
LWPOLYLINE
5
151
100
AcDbEntity
8
0
100
AcDbPolyline
90
8
70
1
43
0.0
10
-263.45349884034925
20
-37.974399519059688
42
-0.41421356237309631
10
-262.4534988403492
20
-36.974399519059673
10
-250.45356578529925
20
-36.974399519059673
42
-0.41421356237309631
10
-249.45356578529925
20
-37.974399519059688
10
-249.45356578529925
20
-49.974409704776932
42
-0.41421356237309503
10
-250.45356578529925
20
-50.974409704776946
10
-262.4534988403492
20
-50.974409704776946
42
-0.41421356237309503
10
-263.45349884034925
20
-49.974409704776932
0
LWPOLYLINE
5
152
100
AcDbEntity
8
0
100
AcDbPolyline
90
8
70
1
43
0.0
10
-311.07849884034925
20
-37.974399519059638
42
-0.41421356237309892
10
-310.07849884034931
20
-36.974399519059695
10
-298.07856578529913
20
-36.974399519059624
42
-0.41421356237307294
10
-297.07856578529919
20
-37.974399519059638
10
-297.07856578529925
20
-49.97440970477696
42
-0.41421356237303519
10
-298.07856578529913
20
-50.97440970477691
10
-310.07849884034931
20
-50.974409704776974
42
-0.41421356237307161
10
-311.07849884034925
20
-49.974409704776967
0
LWPOLYLINE
5
153
100
AcDbEntity
8
0
100
AcDbPolyline
90
8
70
1
43
0.0
10
-258.98137703429927
20
-150.00599670385407
42
-0.41421356243342183
10
-259.98137703429927
20
-151.00599670406001
10
-271.98137703419633
20
-151.00599670406004
42
-0.41421356240324542
10
-272.98137703429921
20
-150.00599670406001
10
-272.98137703429916
20
-138.00599670397099
42
-0.41421356234712253
10
-271.98137703429904
20
-137.00599670406001
10
-259.98137703429916
20
-137.00599670406001
42
-0.41421356237312101
10
-258.98137703429921
20
-138.00599670406001
0
LWPOLYLINE
5
154
100
AcDbEntity
8
0
100
AcDbPolyline
90
8
70
1
43
0.0
10
-281.9967488403492
20
-76.093496704059987
42
-0.41421400000004194
10
-281.49674884034914
20
-76.593496704060001
10
-281.4967488403492
20
-90.593496704060001
42
-0.41421400000014597
10
-281.9967488403492
20
-91.093496704059987
10
-287.99674884034926
20
-91.093496704059973
42
-0.41421399999981301
10
-288.49674884034926
20
-90.593496704060001
10
-288.49674884034931
20
-76.593496704060001
42
-0.41421400000008873
10
-287.99674884034926
20
-76.093496704060016
0
LWPOLYLINE
5
155
100
AcDbEntity
8
0
100
AcDbPolyline
90
8
70
1
43
0.0
10
-273.26606578529925
20
-49.974411726060374
42
-0.41421356237309243
10
-274.26606578529925
20
-50.974411726060424
10
-288.6473007202992
20
-50.974411726060431
42
-0.41421356237311846
10
-289.6473007202992
20
-49.97441172606041
10
-289.64730072029914
20
-37.974399519059745
42
-0.41421356237305079
10
-288.6473007202992
20
-36.97439951905973
10
-274.26606578529925
20
-36.974399519059752
42
-0.41421356237308854
10
-273.26606578529925
20
-37.97439951905978
0
LWPOLYLINE
5
156
100
AcDbEntity
8
0
100
AcDbPolyline
90
8
70
1
43
0.0
10
-325.65349884029911
20
-126.19349670406001
42
-0.41421356237316787
10
-326.65349884029916
20
-127.19349670406001
10
-338.65349884039915
20
-127.19349670405998
42
-0.41421356234374068
10
-339.65349884029922
20
-126.19349670406001
10
-339.65349884029922
20
-114.19349670385407
42
-0.41421356231264334
10
-338.65349884029916
20
-113.19349670406001
10
-326.65349884029916
20
-113.19349670406
42
-0.41421356237307422
10
-325.65349884029922
20
-114.19349670406001
0
LWPOLYLINE
5
157
100
AcDbEntity
8
0
100
AcDbPolyline
90
20
70
1
43
0.0
10
-308.25398101729922
20
-111.19350280805992
42
-0.41421356237303258
10
-307.75398101729928
20
-111.69350280806
10
-307.75398101729928
20
-113.19350280806
10
-290.87803453929922
20
-113.19350280806
10
-290.87803453929922
20
-111.69350280805999
42
-0.41421356237327195
10
-290.37803453929928
20
-111.19350280806002
10
-284.37800445529911
20
-111.19350280805988
42
-0.4142135623730534
10
-283.87800445529911
20
-111.69350280805999
10
-283.87800445529928
20
-113.19350280806
10
-283.79098052949922
20
-113.19350280806
42
-0.41421356243162166
10
-282.79098052929919
20
-114.19350280806003
10
-282.79098052929919
20
-126.19350280806
42
-0.41421356237312101
10
-283.7909805292993
20
-127.19350280805999
10
-314.84098052939942
20
-127.19350280806012
42
-0.41421355912193059
10
-315.84098052929915
20
-126.19350281906001
10
-315.84098052929903
20
-114.19350280786
42
-0.41421356225596895
10
-314.84098052949918
20
-113.19350280806
10
-314.75398101729922
20
-113.19350280806
10
-314.75398101729934
20
-111.69350280806
42
-0.4142135623730846
10
-314.25398101729945
20
-111.19350280805996
0
ARC
5
158
100
AcDbEntity
8
0
100
AcDbCircle
10
-353.43134184034909
20
-85.498658704060006
30
0
40
0.24999999999989808
210
0
220
0
230
1
100
AcDbArc
50
-12.924590000003604
51
90.000000000013031
0
SPLINE
5
159
100
AcDbEntity
8
0
100
AcDbSpline
70
4
71
3
72
8
73
4
74
0
42
0.000000001
43
0.0000000001
44
0.0000000001
40
0.49172288678542675
40
0.49172288678542675
40
0.49172288678542675
40
0.49172288678542675
40
1
40
1
40
1
40
1
41
1
41
1
41
1
41
1
10
-353.18767572465453
20
-85.55457576655995
30
0
10
-353.2960056474098
20
-86.026637936008797
30
0
10
-353.53533628081607
20
-86.468749957420115
30
0
10
-353.89348855087582
20
-86.82995675153721
30
0
0
SPLINE
5
160
100
AcDbEntity
8
0
100
AcDbSpline
70
4
71
3
72
8
73
4
74
0
42
0.000000001
43
0.0000000001
44
0.0000000001
40
0
40
0
40
0
40
0
40
1
40
1
40
1
40
1
41
1
41
1
41
1
41
1
10
-353.89348855087582
20
-86.82995675153721
30
0
10
-354.56576776908258
20
-87.507970991961997
30
0
10
-355.54468406316863
20
-87.915680085260547
30
0
10
-356.98025893425472
20
-88.115568319389695
30
0
0
SPLINE
5
161
100
AcDbEntity
8
0
100
AcDbSpline
70
4
71
3
72
8
73
4
74
0
42
0.000000001
43
0.0000000001
44
0.0000000001
40
0
40
0
40
0
40
0
40
1
40
1
40
1
40
1
41
1
41
1
41
1
41
1
10
-356.98025893425472
20
-88.115568319389695
30
0
10
-357.39117903271313
20
-88.172784433396345
30
0
10
-358.87657888614962
20
-88.173191818605744
30
0
10
-359.31003168827095
20
-88.116211026490248
30
0
0
SPLINE
5
162
100
AcDbEntity
8
0
100
AcDbSpline
70
4
71
3
72
8
73
4
74
0
42
0.000000001
43
0.0000000001
44
0.0000000001
40
0
40
0
40
0
40
0
40
1
40
1
40
1
40
1
41
1
41
1
41
1
41
1
10
-359.31003168827095
20
-88.116211026490248
30
0
10
-360.31148068601999
20
-87.984554754250652
30
0
10
-361.06321773246128
20
-87.752527369579539
30
0
10
-361.7055629939768
20
-87.376819523134102
30
0
0
SPLINE
5
163
100
AcDbEntity
8
0
100
AcDbSpline
70
4
71
3
72
8
73
4
74
0
42
0.000000001
43
0.0000000001
44
0.0000000001
40
0
40
0
40
0
40
0
40
1
40
1
40
1
40
1
41
1
41
1
41
1
41
1
10
-361.7055629939768
20
-87.376819523134102
30
0
10
-362.41923356159623
20
-86.95939264786837
30
0
10
-362.876800531703
20
-86.405910499204381
30
0
10
-363.09889632043058
20
-85.691420100480286
30
0
0
SPLINE
5
164
100
AcDbEntity
8
0
100
AcDbSpline
70
4
71
3
72
8
73
4
74
0
42
0.000000001
43
0.0000000001
44
0.0000000001
40
0
40
0
40
0
40
0
40
0.1156078320633637
40
0.1156078320633637
40
0.1156078320633637
40
0.1156078320633637
41
1
41
1
41
1
41
1
10
-363.09889632043058
20
-85.691420100480286
30
0
10
-363.11250001737682
20
-85.647655798681157
30
0
10
-363.12453102041081
20
-85.599872239913736
30
0
10
-363.13498932953286
20
-85.548998737392452
30
0
0
ARC
5
165
100
AcDbEntity
8
0
100
AcDbCircle
10
-362.89010984034906
20
-85.498657704060065
30
0
40
0.25000000000005684
210
0
220
0
230
1
100
AcDbArc
50
90.000000000026063
51
191.61672385171545
0
LINE
5
166
100
AcDbEntity
8
0
100
AcDbLine
10
-362.89010984034917
20
-85.248657704060008
30
0
11
-361.4667888403493
21
-85.248657704060022
31
0
0
ARC
5
167
100
AcDbEntity
8
0
100
AcDbCircle
10
-361.46678884034912
20
-85.498657704059852
30
0
40
0.24999999999982264
210
0
220
-0
230
1
100
AcDbArc
50
23.316909999976211
51
90.00000000003908
0
SPLINE
5
168
100
AcDbEntity
8
0
100
AcDbSpline
70
4
71
3
72
8
73
4
74
0
42
0.000000001
43
0.0000000001
44
0.0000000001
40
0.19035717850956549
40
0.19035717850956549
40
0.19035717850956549
40
0.19035717850956549
40
1
40
1
40
1
40
1
41
1
41
1
41
1
41
1
10
-361.23720677983391
20
-85.399703755282701
30
0
10
-360.99203173083544
20
-85.968531664557943
30
0
10
-360.24044650482784
20
-86.377915988264732
30
0
10
-359.10995747393764
20
-86.537772994391545
30
0
0
SPLINE
5
169
100
AcDbEntity
8
0
100
AcDbSpline
70
4
71
3
72
8
73
4
74
0
42
0.000000001
43
0.0000000001
44
0.0000000001
40
0
40
0
40
0
40
0
40
1
40
1
40
1
40
1
41
1
41
1
41
1
41
1
10
-359.10995747393764
20
-86.537772994391545
30
0
10
-358.70881715084784
20
-86.594496956701121
30
0
10
-357.59040811251276
20
-86.594916993625105
30
0
10
-357.19785324293548
20
-86.538487816265189
30
0
0
SPLINE
5
170
100
AcDbEntity
8
0
100
AcDbSpline
70
4
71
3
72
8
73
4
74
0
42
0.000000001
43
0.0000000001
44
0.0000000001
40
0
40
0
40
0
40
0
40
1
40
1
40
1
40
1
41
1
41
1
41
1
41
1
10
-357.19785324293548
20
-86.538487816265189
30
0
10
-356.11356840915954
20
-86.382635139895569
30
0
10
-355.33618886761224
20
-85.977423495054694
30
0
10
-355.06869619663655
20
-85.42865917075676
30
0
0
SPLINE
5
171
100
AcDbEntity
8
0
100
AcDbSpline
70
4
71
3
72
8
73
4
74
0
42
0.000000001
43
0.0000000001
44
0.0000000001
40
0
40
0
40
0
40
0
40
0.036876957948059681
40
0.036876957948059681
40
0.036876957948059681
40
0.036876957948059681
41
1
41
1
41
1
41
1
10
-355.06869619663655
20
-85.42865917075676
30
0
10
-355.06399619728415
20
-85.419017075756116
30
0
10
-355.05947678708378
20
-85.409187303063504
30
0
10
-355.05513778927087
20
-85.399183059851282
30
0
0
ARC
5
172
100
AcDbEntity
8
0
100
AcDbCircle
10
-354.82578084034935
20
-85.498658704059864
30
0
40
0.24999999999986144
210
0
220
-0
230
1
100
AcDbArc
50
89.999999999973952
51
156.5528790000142
0
LINE
5
173
100
AcDbEntity
8
0
100
AcDbLine
10
-354.82578084034924
20
-85.248658704060006
30
0
11
-353.43134184034915
21
-85.248658704060105
31
0
0
LWPOLYLINE
5
174
100
AcDbEntity
8
0
100
AcDbPolyline
90
8
70
1
43
0.0
10
-338.65349884040222
20
-108.14349670406004
42
-0.41421356234294465
10
-339.65349884029928
20
-107.14349670406001
10
-339.65349884029905
20
-95.143496703854069
42
-0.41421356231280987
10
-338.65349884029911
20
-94.14349670405997
10
-326.65349884029916
20
-94.143496704059999
42
-0.41421356237307422
10
-325.65349884029922
20
-95.143496704060027
10
-325.65349884029899
20
-107.14349670406001
42
-0.41421356237310025
10
-326.65349884029916
20
-108.14349670406001
0
LWPOLYLINE
5
175
100
AcDbEntity
8
0
100
AcDbPolyline
90
8
70
1
43
0.0
10
-326.65349884029916
20
-36.993496704060014
42
-0.41421356237311063
10
-325.65349884029922
20
-37.993496704060014
10
-325.65349884029905
20
-49.993496704060014
42
-0.41421356237307161
10
-326.65349884029916
20
-50.993496704060007
10
-338.65349884039915
20
-50.99349670406
42
-0.41421356234380569
10
-339.65349884029922
20
-49.993496704060014
10
-339.65349884029928
20
-37.993496703860004
42
-0.41421356231453199
10
-338.65349884029916
20
-36.993496704060021
0
LWPOLYLINE
5
176
100
AcDbEntity
8
0
100
AcDbPolyline
90
14
70
1
43
0.0
10
-277.23425140329925
20
-54.043502808060005
42
-0.41421356237314183
10
-276.73425140329925
20
-54.543502808060026
10
-276.7342514032992
20
-56.043527222060014
10
-276.64729766849121
20
-56.043527222059993
42
-0.41421356242931678
10
-275.64729766829925
20
-57.043527222060007
10
-275.6472976682993
20
-69.043527222060007
42
-0.41421381150815112
10
-276.64729851889928
20
-70.043527222059666
10
-298.17224025151211
20
-70.04350280805977
42
-0.4142133962402671
10
-299.17223968429926
20
-69.043502808059998
10
-299.17223968429931
20
-57.043502807854054
42
-0.41421399601631625
10
-298.17223820354258
20
-56.043502808060964
10
-283.73425140329925
20
-56.043531316060005
10
-283.73425140329937
20
-54.543502808060026
42
-0.41421356237334478
10
-283.23425140329931
20
-54.043502808060062
0
LWPOLYLINE
5
177
100
AcDbEntity
8
0
100
AcDbPolyline
90
8
70
1
43
0.0
10
-133.12945784034923
20
-150.50599670406004
42
-0.41421356237309503
10
-133.6294578403492
20
-151.00599670406001
10
-136.39291684034916
20
-151.00599670405992
42
-0.4142135623731783
10
-136.89291684034916
20
-150.50599670406004
10
-136.89291684034919
20
-137.50599670406001
42
-0.41421356237316787
10
-136.39291684034919
20
-137.00599670406004
10
-133.6294578403492
20
-137.00599670406001
42
-0.4142135623730534
10
-133.12945784034923
20
-137.50599670406001
0
LWPOLYLINE
5
178
100
AcDbEntity
8
0
100
AcDbPolyline
90
8
70
1
43
0.0
10
-47.547248840349184
20
-56.043496704059962
42
-0.41421399999997949
10
-47.047248840349212
20
-56.543496704060004
10
-47.047248840349226
20
-69.543496704060004
42
-0.4142140000000003
10
-47.547248840349219
20
-70.043496704060004
10
-60.547248840349191
20
-70.043496704060033
42
-0.41421400000001074
10
-61.047248840349198
20
-69.543496704060004
10
-61.047248840349233
20
-56.543496704059997
42
-0.41421399999996911
10
-60.547248840349212
20
-56.04349670405999
0
LWPOLYLINE
5
179
100
AcDbEntity
8
0
100
AcDbPolyline
90
8
70
1
43
0.0
10
-45.609248840349245
20
-54.543496704059997
42
-0.41421399999997432
10
-45.109248840349238
20
-54.043496704059997
10
-39.109248840349238
20
-54.043496704060004
42
-0.41421399999999509
10
-38.609248840349224
20
-54.543496704059997
10
-38.60924884034921
20
-68.54349670405999
42
-0.4142139999999977
10
-39.109248840349231
20
-69.043496704060004
10
-45.109248840349252
20
-69.043496704060018
42
-0.41421399999998471
10
-45.609248840349224
20
-68.543496704060004
0
LWPOLYLINE
5
180
100
AcDbEntity
8
0
100
AcDbPolyline
90
8
70
1
43
0.0
10
-198.06791763629923
20
-137.00599670406004
42
-0.41421356237311585
10
-197.0679176362992
20
-138.00599670406001
10
-197.06791763629923
20
-150.00599670385407
42
-0.41421356243342183
10
-198.06791763629928
20
-151.00599670406001
10
-210.06791763619631
20
-151.00599670405998
42
-0.41421356240325063
10
-211.06791763629926
20
-150.00599670406001
10
-211.06791763629928
20
-138.00599670396002
42
-0.41421356234376666
10
-210.0679176362992
20
-137.00599670406001
0
LWPOLYLINE
5
181
100
AcDbEntity
8
0
100
AcDbPolyline
90
8
70
1
43
0.0
10
-117.1044582382992
20
-137.00599670406001
42
-0.41421356237310025
10
-116.10445823829922
20
-138.00599670406001
10
-116.1044582382992
20
-150.00599670386001
42
-0.41421356243167889
10
-117.10445823829922
20
-151.00599670406001
10
-129.10445823819921
20
-151.00599670406001
42
-0.41421356240235052
10
-130.10445823829917
20
-150.00599670406001
10
-130.10445823829917
20
-138.00599670397099
42
-0.41421356234700807
10
-129.10445823829912
20
-137.00599670406001
0
ARC
5
182
100
AcDbEntity
8
0
100
AcDbCircle
10
-339.99066784034915
20
-79.21947270406001
30
0
40
0.24999999999989628
210
0
220
0
230
1
100
AcDbArc
50
-63.193622786827916
51
28.42977199744
0
SPLINE
5
183
100
AcDbEntity
8
0
100
AcDbSpline
70
4
71
3
72
8
73
4
74
0
42
0.000000001
43
0.0000000001
44
0.0000000001
40
0.80292892228941914
40
0.80292892228941914
40
0.80292892228941914
40
0.80292892228941914
40
1
40
1
40
1
40
1
41
1
41
1
41
1
41
1
10
-339.87792368104357
20
-79.442606488300399
30
0
10
-339.9075159889066
20
-79.457558774752911
30
0
10
-339.93886669330954
20
-79.473321313111626
30
0
10
-339.9711426678636
20
-79.48946484795232
30
0
0
SPLINE
5
184
100
AcDbEntity
8
0
100
AcDbSpline
70
4
71
3
72
8
73
4
74
0
42
0.000000001
43
0.0000000001
44
0.0000000001
40
0
40
0
40
0
40
0
40
1
40
1
40
1
40
1
41
1
41
1
41
1
41
1
10
-339.9711426678636
20
-79.48946484795232
30
0
10
-340.43711480455022
20
-79.722527142875904
30
0
10
-340.76134978282147
20
-79.962998281856258
30
0
10
-341.19899979125415
20
-80.400104899147777
30
0
0
SPLINE
5
185
100
AcDbEntity
8
0
100
AcDbSpline
70
4
71
3
72
8
73
4
74
0
42
0.000000001
43
0.0000000001
44
0.0000000001
40
0
40
0
40
0
40
0
40
1
40
1
40
1
40
1
41
1
41
1
41
1
41
1
10
-341.19899979125415
20
-80.400104899147777
30
0
10
-342.0223531332345
20
-81.222442308447441
30
0
10
-342.54243855092733
20
-82.220558844576772
30
0
10
-342.78779578207769
20
-83.449230105800353
30
0
0
SPLINE
5
186
100
AcDbEntity
8
0
100
AcDbSpline
70
4
71
3
72
8
73
4
74
0
42
0.000000001
43
0.0000000001
44
0.0000000001
40
0
40
0
40
0
40
0
40
1
40
1
40
1
40
1
41
1
41
1
41
1
41
1
10
-342.78779578207769
20
-83.449230105800353
30
0
10
-342.90300482536617
20
-84.026163472605774
30
0
10
-342.94879517593762
20
-84.556269048244388
30
0
10
-342.94894067065519
20
-85.314801330585254
30
0
0
LINE
5
187
100
AcDbEntity
8
0
100
AcDbLine
10
-342.94894067065513
20
-85.314801330585254
30
0
11
-342.94901483787987
21
-85.686608857456406
31
0
0
ARC
5
188
100
AcDbEntity
8
0
100
AcDbCircle
10
-342.69901484034926
20
-85.686658704060008
30
0
40
0.25000000250000443
210
0
220
0
230
1
100
AcDbArc
50
179.98857600001043
51
270
0
LINE
5
189
100
AcDbEntity
8
0
100
AcDbLine
10
-342.69901484034926
20
-85.936658706559996
30
0
11
-340.32625584034918
21
-85.936658704059909
31
0
0
ARC
5
190
100
AcDbEntity
8
0
100
AcDbCircle
10
-340.3262558403494
20
-86.186658704060065
30
0
40
0.25000000000019895
210
0
220
-0
230
1
100
AcDbArc
50
0
51
89.999999999947889
0
LINE
5
191
100
AcDbEntity
8
0
100
AcDbLine
10
-340.07625584034918
20
-86.186658704060022
30
0
11
-340.07625584034918
21
-87.403333704060003
31
0
0
ARC
5
192
100
AcDbEntity
8
0
100
AcDbCircle
10
-340.3262558403494
20
-87.403333704059833
30
0
40
0.25000000000016342
210
0
220
0
230
1
100
AcDbArc
50
270.00000000003905
51
360
0
LINE
5
193
100
AcDbEntity
8
0
100
AcDbLine
10
-340.32625584034923
20
-87.653333704059989
30
0
11
-347.39364284034929
21
-87.653333704060188
31
0
0
ARC
5
194
100
AcDbEntity
8
0
100
AcDbCircle
10
-347.39364284034923
20
-87.403333704060003
30
0
40
0.2500000000001279
210
0
220
0
230
1
100
AcDbArc
50
180
51
269.99999999998698
0
LINE
5
195
100
AcDbEntity
8
0
100
AcDbLine
10
-347.64364284034934
20
-87.403333704059989
30
0
11
-347.64364284034934
21
-86.18665870405998
31
0
0
ARC
5
196
100
AcDbEntity
8
0
100
AcDbCircle
10
-347.39364284034923
20
-86.186658704060164
30
0
40
0.25000000000014566
210
0
220
0
230
1
100
AcDbArc
50
90.000000000013031
51
180
0
LINE
5
197
100
AcDbEntity
8
0
100
AcDbLine
10
-347.39364284034929
20
-85.936658704060008
30
0
11
-345.02083784034932
21
-85.936658704059994
31
0
0
ARC
5
198
100
AcDbEntity
8
0
100
AcDbCircle
10
-345.02083784034932
20
-85.686658704060008
30
0
40
0.24999999999998579
210
-0
220
0
230
1
100
AcDbArc
50
-90
51
0
0
LINE
5
199
100
AcDbEntity
8
0
100
AcDbLine
10
-344.77083784034932
20
-85.686658704060008
30
0
11
-344.77083815513913
21
-85.33231425919071
31
0
0
ELLIPSE
5
200
100
AcDbEntity
8
0
100
AcDbEllipse
10
-344.80502775549814
20
-84.939331612642107
30
0
11
-0.019054755278654377
21
0.70253631174444586
31
0.0
40
0.040407374696500423
41
4.1176598264538233
42
5.7261270965167483
0
SPLINE
5
201
100
AcDbEntity
8
0
100
AcDbSpline
70
4
71
3
72
8
73
4
74
0
42
0.000000001
43
0.0000000001
44
0.0000000001
40
0
40
0
40
0
40
0
40
1
40
1
40
1
40
1
41
1
41
1
41
1
41
1
10
-344.80619339310516
20
-84.342601831768576
30
0
10
-345.01238091592251
20
-82.093339528639646
30
0
10
-346.03282772828186
20
-80.393938453462553
30
0
10
-347.70500357885885
20
-79.515064327229055
30
0
0
LINE
5
202
100
AcDbEntity
8
0
100
AcDbLine
10
-347.70500357885885
20
-79.515064327229041
30
0
11
-347.82382391550505
21
-79.452613809803239
31
0
0
ARC
5
203
100
AcDbEntity
8
0
100
AcDbCircle
10
-347.70751384034924
20
-79.231317704059961
30
0
40
0.24999999999977313
210
0
220
0
230
1
100
AcDbArc
50
150.53088099996714
51
242.27422500011656
0
LINE
5
204
100
AcDbEntity
8
0
100
AcDbLine
10
-347.92516908373921
20
-79.108329106926959
30
0
11
-347.61130358055374
21
-78.552875850860474
31
0
0
SPLINE
5
205
100
AcDbEntity
8
0
100
AcDbSpline
70
4
71
3
72
8
73
4
74
0
42
0.000000001
43
0.0000000001
44
0.0000000001
40
1.0221430721849054e-07
40
1.0221430721849054e-07
40
1.0221430721849054e-07
40
1.0221430721849054e-07
40
1
40
1
40
1
40
1
41
1
41
1
41
1
41
1
10
-347.61130356323406
20
-78.552875860647205
30
0
10
-347.11466699905196
20
-77.673969120411897
30
0
10
-347.18032428600941
20
-77.727511183344049
30
0
10
-346.81253645048292
20
-77.901502605119475
30
0
0
SPLINE
5
206
100
AcDbEntity
8
0
100
AcDbSpline
70
4
71
3
72
8
73
4
74
0
42
0.000000001
43
0.0000000001
44
0.0000000001
40
0
40
0
40
0
40
0
40
1
40
1
40
1
40
1
41
1
41
1
41
1
41
1
10
-346.81253645048292
20
-77.901502605119475
30
0
10
-345.66158214156792
20
-78.445991915061569
30
0
10
-344.37107436017391
20
-79.926487963927642
30
0
10
-343.96714306884837
20
-81.165798051939717
30
0
0
LINE
5
207
100
AcDbEntity
8
0
100
AcDbLine
10
-343.96714306884832
20
-81.165798051939731
30
0
11
-343.86907584034924
21
-81.466675704060009
31
0
0
LINE
5
208
100
AcDbEntity
8
0
100
AcDbLine
10
-343.86907584034924
20
-81.466675704060009
30
0
11
-343.80887265436149
21
-81.258030315073739
31
0
0
SPLINE
5
209
100
AcDbEntity
8
0
100
AcDbSpline
70
4
71
3
72
8
73
4
74
0
42
0.000000001
43
0.0000000001
44
0.0000000001
40
0
40
0
40
0
40
0
40
1
40
1
40
1
40
1
41
1
41
1
41
1
41
1
10
-343.80887264982283
20
-81.258030316383341
30
0
10
-343.4466553266318
20
-80.002706953230174
30
0
10
-342.1352734813558
20
-78.469539286233783
30
0
10
-340.93456250934912
20
-77.897600816343669
30
0
0
SPLINE
5
210
100
AcDbEntity
8
0
100
AcDbSpline
70
4
71
3
72
8
73
4
74
0
42
0.000000001
43
0.0000000001
44
0.0000000001
40
0
40
0
40
0
40
0
40
1
40
1
40
1
40
1
41
1
41
1
41
1
41
1
10
-340.93456250934912
20
-77.897600816343669
30
0
10
-340.51855262611616
20
-77.69944207159736
30
0
10
-340.57229268154236
20
-77.675715046078125
30
0
10
-340.28586418935822
20
-78.18403057369936
30
0
0
LINE
5
211
100
AcDbEntity
8
0
100
AcDbLine
10
-340.28586418935816
20
-78.18403057369936
30
0
11
-340.28589603391822
21
-78.184032718093093
31
0
0
LINE
5
212
100
AcDbEntity
8
0
100
AcDbLine
10
-340.28589603391822
20
-78.184032718093093
30
0
11
-339.84018097475456
21
-78.97498034430285
31
0
0
ELLIPSE
5
213
100
AcDbEntity
8
0
100
AcDbEllipse
10
-339.86956090929289
20
-78.966871407076965
30
0
11
0.21937119125981153
21
-0.38712325513731388
31
0.0
40
0.048518314238532347
41
1.1911449936766663
42
1.5223690983548799
0
LWPOLYLINE
5
214
100
AcDbEntity
8
0
100
AcDbPolyline
90
8
70
1
43
0.0
10
-178.01791763629916
20
-150.00599670386001
42
-0.41421356243165808
10
-179.01791763629927
20
-151.00599670406001
10
-191.01791763619923
20
-151.00599670406004
42
-0.41421356240239215
10
-192.01791763629925
20
-150.00599670406001
10
-192.01791763629922
20
-138.00599670397099
42
-0.41421356234712253
10
-191.0179176362991
20
-137.00599670406001
10
-179.01791763629916
20
-137.00599670406001
42
-0.4142135623730222
10
-178.01791763629919
20
-138.00599670406001
0
LWPOLYLINE
5
215
100
AcDbEntity
8
0
100
AcDbPolyline
90
8
70
1
43
0.0
10
-221.88137703410717
20
-137.00599670406001
42
-0.41421356231684725
10
-220.88137703429919
20
-138.00599670406001
10
-220.88137703429913
20
-150.00599670386001
42
-0.41421356243165808
10
-221.88137703429928
20
-151.00599670406001
10
-233.8813770341992
20
-151.00599670406004
42
-0.41421356240239215
10
-234.88137703429925
20
-150.00599670406001
10
-234.88137703429919
20
-138.00599670406001
42
-0.41421356237306384
10
-233.88137703429922
20
-137.00599670406001
0
LWPOLYLINE
5
216
100
AcDbEntity
8
0
100
AcDbPolyline
90
8
70
1
43
0.0
10
-303.9347488403493
20
-76.093496704059987
42
-0.41421356237310542
10
-302.9347488403493
20
-75.093496704059987
10
-290.93474884034902
20
-75.093496704060001
42
-0.41421356237313406
10
-289.93474884034902
20
-76.093496704060016
10
-289.93474884034902
20
-88.093496704060044
42
-0.41421356237310542
10
-290.93474884034902
20
-89.09349670406003
10
-302.9347488403493
20
-89.093496704060072
42
-0.41421356237310025
10
-303.9347488403493
20
-88.093496704060044
0
LWPOLYLINE
5
217
100
AcDbEntity
8
0
100
AcDbPolyline
90
8
70
1
43
0.0
10
-358.70349884029918
20
-114.19349670385407
42
-0.41421356231264334
10
-357.70349884029918
20
-113.19349670406001
10
-345.70349884029918
20
-113.19349670406
42
-0.41421356237307422
10
-344.70349884029923
20
-114.19349670406001
10
-344.70349884029918
20
-126.19349670406001
42
-0.41421356237316787
10
-345.70349884029918
20
-127.19349670406001
10
-357.70349884040218
20
-127.1934967040601
42
-0.41421356234298107
10
-358.70349884029929
20
-126.19349670406001
0
LWPOLYLINE
5
218
100
AcDbEntity
8
0
100
AcDbPolyline
90
8
70
1
43
0.0
10
-295.05637684034917
20
-150.50599670406004
42
-0.41421356237290774
10
-295.55637684034923
20
-151.00599670406001
10
-298.31983584034936
20
-151.00599670406001
42
-0.41421356237284529
10
-298.81983584034924
20
-150.50599670406004
10
-298.81983584034924
20
-137.50599670406001
42
-0.41421356237300139
10
-298.3198358403493
20
-137.00599670406004
10
-295.55637684034912
20
-137.0059967040599
42
-0.41421356237287649
10
-295.05637684034917
20
-137.50599670406001
0
LWPOLYLINE
5
219
100
AcDbEntity
8
0
100
AcDbPolyline
90
8
70
1
43
0.0
10
-132.96118784034923
20
-134.98099670406
42
-0.41421400000002495
10
-133.51118784034924
20
-134.43099670406002
10
-133.51118784034924
20
-132.77444570406001
42
-0.41421399999998709
10
-132.96118784034923
20
-132.22444570406
10
-35.690998840349231
20
-132.22444570406
42
-0.41421400000001074
10
-35.140998840349226
20
-132.77444570406001
10
-35.140998840349219
20
-134.43099670406002
42
-0.41421399999997055
10
-35.690998840349231
20
-134.98099670406
0
LWPOLYLINE
5
220
100
AcDbEntity
8
0
100
AcDbPolyline
90
8
70
1
43
0.0
10
-214.09291684034918
20
-150.44349670406001
42
-0.41421356237315748
10
-214.5929168403492
20
-150.94349670405998
10
-217.35637684034918
20
-150.94349670405992
42
-0.41421356237307422
10
-217.85637684034913
20
-150.44349670406001
10
-217.85637684034918
20
-137.44349670406001
42
-0.41421356237315748
10
-217.35637684034916
20
-136.94349670406004
10
-214.59291684034918
20
-136.94349670405995
42
-0.41421356237307422
10
-214.09291684034915
20
-137.44349670406001
0
LWPOLYLINE
5
221
100
AcDbEntity
8
0
100
AcDbPolyline
90
8
70
1
43
0.0
10
-366.33074184034933
20
-88.593496704060016
42
-0.41421356237300139
10
-366.83074184034928
20
-89.093496704059987
10
-377.25349884034927
20
-89.093496704060016
42
-0.41421356237299095
10
-377.75349884034927
20
-88.593496704060016
10
-377.75349884034938
20
-75.593496704060001
42
-0.41421356237299095
10
-377.25349884034932
20
-75.09349670406003
10
-366.83074184034928
20
-75.093496704060001
42
-0.414213562373069
10
-366.33074184034922
20
-75.593496704060001
0
LWPOLYLINE
5
222
100
AcDbEntity
8
0
100
AcDbPolyline
90
4
70
1
43
0.0
10
-63.428456840349206
20
-75.593496704060001
42
-0.99999999999999989
10
-62.428456840349263
20
-75.593496704060001
10
-62.428456840349263
20
-88.593496704060016
42
-0.99999999999999989
10
-63.428456840349206
20
-88.593496704060016
0
LWPOLYLINE
5
223
100
AcDbEntity
8
0
100
AcDbPolyline
90
8
70
1
43
0.0
10
-357.70349884040223
20
-108.14349670406004
42
-0.41421356234294465
10
-358.70349884029929
20
-107.14349670406001
10
-358.70349884029906
20
-95.143496703854069
42
-0.41421356231280987
10
-357.70349884029912
20
-94.14349670405997
10
-345.70349884029918
20
-94.143496704059999
42
-0.41421356237307422
10
-344.70349884029923
20
-95.143496704060027
10
-344.70349884029901
20
-107.14349670406001
42
-0.41421356237310025
10
-345.70349884029918
20
-108.14349670406001
0
LWPOLYLINE
5
224
100
AcDbEntity
8
0
100
AcDbPolyline
90
8
70
1
43
0.0
10
-109.79099884034918
20
-37.474399519059489
42
-0.41421356237310802
10
-109.2909988403492
20
-36.974399519059496
10
-107.0785657852993
20
-36.974399519059489
42
-0.41421356237304818
10
-106.57856578529929
20
-37.474399519059489
10
-106.5785657852993
20
-50.474409704869245
42
-0.41421356237310025
10
-107.0785657852993
20
-50.974409704869252
10
-109.29099884034919
20
-50.974409704869259
42
-0.41421356237309503
10
-109.7909988403492
20
-50.474409704869252
0
LWPOLYLINE
5
225
100
AcDbEntity
8
0
100
AcDbPolyline
90
8
70
1
43
0.0
10
-364.75349884029902
20
-36.993496704060085
42
-0.41421356237313145
10
-363.75349884029907
20
-37.993496704060014
10
-363.75349884029913
20
-49.993496704060014
42
-0.4142135623730222
10
-364.75349884029913
20
-50.993496704060007
10
-376.75349884039923
20
-50.993496704060007
42
-0.41421356234374584
10
-377.75349884029924
20
-49.993496704060014
10
-377.75349884029913
20
-37.993496703860004
42
-0.41421356231446177
10
-376.75349884029913
20
-36.993496704060021
0
LWPOLYLINE
5
226
100
AcDbEntity
8
0
100
AcDbPolyline
90
4
70
1
43
0.0
10
-58.665998840349197
20
-94.643496704060013
42
-0.99999999999999989
10
-57.665998840349253
20
-94.643496704060013
10
-57.665998840349253
20
-107.64349670406
42
-0.99999999999999989
10
-58.665998840349197
20
-107.64349670406
0
LWPOLYLINE
5
227
100
AcDbEntity
8
0
100
AcDbPolyline
90
8
70
1
43
0.0
10
-213.92464684034923
20
-134.98099670406
42
-0.41421400000002495
10
-214.47464684034924
20
-134.43099670406002
10
-214.47464684034924
20
-132.77444570406001
42
-0.41421399999983571
10
-213.92464684034923
20
-132.22444570406
10
-137.06118784034925
20
-132.22444570405997
42
-0.41421399999998709
10
-136.51118784034918
20
-132.77444570406001
10
-136.51118784034909
20
-134.43099670406002
42
-0.41421400000002495
10
-137.06118784034928
20
-134.98099670406
0
LWPOLYLINE
5
228
100
AcDbEntity
8
0
100
AcDbPolyline
90
8
70
1
43
0.0
10
-363.75349884029924
20
-150.00599670406001
42
-0.41421356237298579
10
-364.75349884029919
20
-151.00599670406001
10
-376.75349884039923
20
-151.00599670406001
42
-0.41421356234374584
10
-377.75349884029924
20
-150.00599670406001
10
-377.75349884029913
20
-138.00599670385998
42
-0.41421356231443834
10
-376.75349884029913
20
-137.00599670405995
10
-364.75349884029919
20
-137.00599670406007
42
-0.41421356237321988
10
-363.75349884029907
20
-138.00599670406001
0
LWPOLYLINE
5
229
100
AcDbEntity
8
0
100
AcDbPolyline
90
4
70
1
43
0.0
10
-269.50349884034927
20
-56.543496704059997
42
-0.99999999999999989
10
-268.50349884034932
20
-56.543496704059997
10
-268.50349884034932
20
-69.543496704060004
42
-0.99999999999999989
10
-269.50349884034927
20
-69.543496704060004
0
LWPOLYLINE
5
230
100
AcDbEntity
8
0
100
AcDbPolyline
90
8
70
1
43
0.0
10
-35.140998840299218
20
-150.00599670406001
42
-0.41421356237309764
10
-36.140998840299225
20
-151.00599670406001
10
-48.140998840399234
20
-151.00599670406007
42
-0.41421356234380052
10
-49.14099884029924
20
-150.00599670405998
10
-49.140998840299225
20
-138.00599670385998
42
-0.41421356231451117
10
-48.140998840299225
20
-137.00599670406001
10
-36.140998840299233
20
-137.00599670406004
42
-0.41421356237308721
10
-35.140998840299233
20
-138.00599670406004
0
LWPOLYLINE
5
231
100
AcDbEntity
8
0
100
AcDbPolyline
90
8
70
1
43
0.0
10
-364.75349884034927
20
-56.043496704060004
42
-0.41421399999997432
10
-363.75349884034927
20
-57.043496704059997
10
-363.75349884034927
20
-69.043496704060004
42
-0.41421400000004455
10
-364.75349884034932
20
-70.043496704060018
10
-376.75349884034927
20
-70.043496704060018
42
-0.41421399999991709
10
-377.75349884034927
20
-69.043496704060004
10
-377.75349884034932
20
-57.043496704059997
42
-0.41421399999989106
10
-376.75349884034927
20
-56.04349670405999
0
LWPOLYLINE
5
232
100
AcDbEntity
8
0
100
AcDbPolyline
90
8
70
1
43
0.0
10
-69.485248840349229
20
-54.543496704059997
42
-0.41421399999996911
10
-68.985248840349229
20
-54.04349670405999
10
-62.985248840349229
20
-54.043496704059976
42
-0.41421400000002634
10
-62.485248840349222
20
-54.54349670405999
10
-62.485248840349215
20
-68.543496704060004
42
-0.41421400000000552
10
-62.985248840349215
20
-69.043496704060004
10
-68.985248840349243
20
-69.043496704060018
42
-0.41421399999998471
10
-69.485248840349215
20
-68.543496704060004
0
LWPOLYLINE
5
233
100
AcDbEntity
8
0
100
AcDbPolyline
90
8
70
1
43
0.0
10
-349.04977184034925
20
-76.092046704059982
42
-0.41421400000017722
10
-348.79977184034931
20
-76.342046704059996
10
-348.79977184034931
20
-87.893811704059999
42
-0.41421400000014597
10
-349.04977184034925
20
-88.143811704059999
10
-350.3715498403493
20
-88.143811704059971
42
-0.41421400000039571
10
-350.62154984034919
20
-87.893811704059999
10
-350.62154984034942
20
-76.342046704059996
42
-0.41421399999962571
10
-350.3715498403493
20
-76.09204670406001
0
LWPOLYLINE
5
234
100
AcDbEntity
8
0
100
AcDbPolyline
90
8
70
1
43
0.0
10
-91.00445823819625
20
-151.00599670406001
42
-0.41421356240324542
10
-92.004458238299222
20
-150.00599670406001
10
-92.004458238299208
20
-138.00599670396002
42
-0.41421356234380829
10
-91.004458238299208
20
-137.00599670406001
10
-79.004458238299236
20
-137.00599670406004
42
-0.41421356237311324
10
-78.004458238299222
20
-138.00599670406001
10
-78.004458238299208
20
-150.00599670385407
42
-0.41421356243340623
10
-79.004458238299236
20
-151.00599670406004
0
ARC
5
235
100
AcDbEntity
8
0
100
AcDbCircle
10
-205.66774584034926
20
-47.316104704060052
30
0
40
0.19999999999988616
210
0
220
0
230
1
100
AcDbArc
50
195.00006510061027
51
270.00000000001626
0
LINE
5
236
100
AcDbEntity
8
0
100
AcDbLine
10
-205.86093094679174
20
-47.367868732581336
30
0
11
-205.88149084034922
21
-47.291135704059997
31
0
0
ARC
5
237
100
AcDbEntity
8
0
100
AcDbCircle
10
-206.07467584034924
20
-47.342899704059995
30
0
40
0.19999988980251018
210
0
220
-0
230
1
100
AcDbArc
50
15.000065100614441
51
90
0
LINE
5
238
100
AcDbEntity
8
0
100
AcDbLine
10
-206.07467584034924
20
-47.14289981425749
30
0
11
-222.69099884034918
21
-47.142899704060028
31
0
0
ARC
5
239
100
AcDbEntity
8
0
100
AcDbCircle
10
-222.69099884034918
20
-46.942899704059997
30
0
40
0.20000000000003126
210
0
220
0
230
1
100
AcDbArc
50
180
51
270
0
LINE
5
240
100
AcDbEntity
8
0
100
AcDbLine
10
-222.89099884034923
20
-46.942899704060004
30
0
11
-222.89099884034923
21
-46.842899704060002
31
0
0
ARC
5
241
100
AcDbEntity
8
0
100
AcDbCircle
10
-223.09099884034924
20
-46.842899704060002
30
0
40
0.20000000000003126
210
0
220
-0
230
1
100
AcDbArc
50
0
51
90
0
LINE
5
242
100
AcDbEntity
8
0
100
AcDbLine
10
-223.09099884034924
20
-46.642899704059971
30
0
11
-223.89099884034923
21
-46.642899704060021
31
0
0
ARC
5
243
100
AcDbEntity
8
0
100
AcDbCircle
10
-223.89099884034923
20
-46.44289970405999
30
0
40
0.20000000000003126
210
0
220
0
230
1
100
AcDbArc
50
180
51
270
0
LINE
5
244
100
AcDbEntity
8
0
100
AcDbLine
10
-224.09099884034927
20
-46.442899704059997
30
0
11
-224.09099884034919
21
-44.069093704059995
31
0
0
ARC
5
245
100
AcDbEntity
8
0
100
AcDbCircle
10
-223.89099884034923
20
-44.069093704059988
30
0
40
0.19999999999996909
210
0
220
-0
230
1
100
AcDbArc
50
90
51
180
0
LINE
5
246
100
AcDbEntity
8
0
100
AcDbLine
10
-223.89099884034923
20
-43.86909370406002
30
0
11
-223.09099884034924
21
-43.869093704060006
31
0
0
ARC
5
247
100
AcDbEntity
8
0
100
AcDbCircle
10
-223.09099884034924
20
-43.669093704059996
30
0
40
0.20000000000000462
210
-0
220
0
230
1
100
AcDbArc
50
-90
51
0
0
LINE
5
248
100
AcDbEntity
8
0
100
AcDbLine
10
-222.89099884034925
20
-43.669093704059996
30
0
11
-222.89099884034923
21
-43.569093704060002
31
0
0
ARC
5
249
100
AcDbEntity
8
0
100
AcDbCircle
10
-222.69099884034918
20
-43.569093704060002
30
0
40
0.20000000000004015
210
0
220
-0
230
1
100
AcDbArc
50
90
51
180
0
LINE
5
250
100
AcDbEntity
8
0
100
AcDbLine
10
-222.69099884034918
20
-43.369093704059964
30
0
11
-206.07467584034924
21
-43.369093704059964
31
0
0
ARC
5
251
100
AcDbEntity
8
0
100
AcDbCircle
10
-206.07467584034924
20
-43.169093704060003
30
0
40
0.19999999999996021
210
-0
220
0
230
1
100
AcDbArc
50
270
51
344.99993489938817
0
LINE
5
252
100
AcDbEntity
8
0
100
AcDbLine
10
-205.88149073390667
20
-43.220857732581315
30
0
11
-205.86093119679109
21
-43.14412560855309
31
0
0
ARC
5
253
100
AcDbEntity
8
0
100
AcDbCircle
10
-205.66774584034917
20
-43.195888704060081
30
0
40
0.20000000000013785
210
0
220
0
230
1
100
AcDbArc
50
90.000000000008143
51
165.0002116171533
0
LINE
5
254
100
AcDbEntity
8
0
100
AcDbLine
10
-205.6677458403492
20
-42.995888704059944
30
0
11
-205.17467584034921
21
-42.995888704059922
31
0
0
ARC
5
255
100
AcDbEntity
8
0
100
AcDbCircle
10
-205.17467584034927
20
-43.195888704060039
30
0
40
0.20000000000010146
210
0
220
-0
230
1
100
AcDbArc
50
14.999788382834904
51
89.999999999983714
0
LINE
5
256
100
AcDbEntity
8
0
100
AcDbLine
10
-204.98149048390735
20
-43.14412560855309
30
0
11
-204.9729748403492
21
-43.175908704059992
31
0
0
ARC
5
257
100
AcDbEntity
8
0
100
AcDbCircle
10
-204.77978984034922
20
-43.124145704059998
30
0
40
0.19999963098462845
210
0
220
0
230
1
100
AcDbArc
50
194.99978838282522
51
285.0000000000133
0
LINE
5
258
100
AcDbEntity
8
0
100
AcDbLine
10
-204.72802612683688
20
-43.317330512876325
30
0
11
-201.00123084034922
21
-42.318738704059996
31
0
0
ARC
5
259
100
AcDbEntity
8
0
100
AcDbCircle
10
-201.05299484034919
20
-42.125553704059996
30
0
40
0.19999988980246669
210
-0
220
0
230
1
100
AcDbArc
50
285.00006510060672
51
330.00000000000495
0
LINE
5
260
100
AcDbEntity
8
0
100
AcDbLine
10
-200.87978985502616
20
-42.22555364896121
30
0
11
-200.77894590091691
21
-42.050887669091196
31
0
0
ARC
5
261
100
AcDbEntity
8
0
100
AcDbCircle
10
-200.60574084034914
20
-42.150887704060089
30
0
40
0.20000000000015561
210
0
220
0
230
1
100
AcDbArc
50
90.000000000024428
51
149.99998843240894
0
LINE
5
262
100
AcDbEntity
8
0
100
AcDbLine
10
-200.60574084034923
20
-41.950887704059937
30
0
11
-199.72121084034922
21
-41.950887704060015
31
0
0
ARC
5
263
100
AcDbEntity
8
0
100
AcDbCircle
10
-199.7212108403491
20
-42.150887704059926
30
0
40
0.19999999999988916
210
0
220
0
230
1
100
AcDbArc
50
0
51
90.000000000032571
0
LINE
5
264
100
AcDbEntity
8
0
100
AcDbLine
10
-199.52121084034923
20
-42.150887704059997
30
0
11
-199.52121084034926
21
-42.71253670406
31
0
0
ARC
5
265
100
AcDbEntity
8
0
100
AcDbCircle
10
-199.32121084034921
20
-42.71253670406
30
0
40
0.20000000000003126
210
0
220
0
230
1
100
AcDbArc
50
180
51
279.99999999998857
0
LINE
5
266
100
AcDbEntity
8
0
100
AcDbLine
10
-199.28648120481586
20
-42.909498254662481
30
0
11
-197.55159484034922
21
-42.603590704059997
31
0
0
ARC
5
267
100
AcDbEntity
8
0
100
AcDbCircle
10
-198.24618784034922
20
-38.664359704060004
30
0
40
4.0000000383762409
210
-0
220
0
230
1
100
AcDbArc
50
280.00000411138649
51
303.34152399999931
0
LINE
5
268
100
AcDbEntity
8
0
100
AcDbLine
10
-196.0476741837976
20
-42.005996729376463
30
0
11
-193.54144684237713
21
-40.357111700964843
31
0
0
ARC
5
269
100
AcDbEntity
8
0
100
AcDbCircle
10
-192.98949684034912
20
-41.199533704060308
30
0
40
1.0071363542431087
210
0
220
0
230
1
100
AcDbArc
50
93.341175000005094
51
123.23258402679838
0
LINE
5
270
100
AcDbEntity
8
0
100
AcDbLine
10
-193.04819421720885
20
-40.194109289204633
30
0
11
-191.55074386207261
21
-40.106687258753588
31
0
0
ARC
5
271
100
AcDbEntity
8
0
100
AcDbCircle
10
-191.54099884034923
20
-40.306449704060007
30
0
40
0.20000000000795506
210
-0
220
0
230
1
100
AcDbArc
50
-71.658475999996597
51
92.792848924857751
0
LINE
5
272
100
AcDbEntity
8
0
100
AcDbLine
10
-191.47806275013349
20
-40.496289237749743
30
0
11
-191.71536184034923
21
-40.574959704060007
31
0
0
ARC
5
273
100
AcDbEntity
8
0
100
AcDbCircle
10
-191.68389384034921
20
-40.66987870405999
30
0
40
0.099999257922244095
210
0
220
0
230
1
100
AcDbArc
50
108.34163773000456
51
265.5475649999608
0
ARC
5
274
100
AcDbEntity
8
0
100
AcDbCircle
10
-192.0409988403492
20
-45.255996704060017
30
0
40
4.4999999999999707
210
0
220
0
230
1
100
AcDbArc
50
-85.547564999999992
51
85.54756174051073
0
ARC
5
275
100
AcDbEntity
8
0
100
AcDbCircle
10
-191.68389384034921
20
-49.842114704059988
30
0
40
0.10000024901651128
210
0
220
0
230
1
100
AcDbArc
50
94.452581676726751
51
251.65847600003116
0
LINE
5
276
100
AcDbEntity
8
0
100
AcDbLine
10
-191.71536196381641
20
-49.937034707266996
30
0
11
-191.47806267197697
21
-50.015704196184949
31
0
0
ARC
5
277
100
AcDbEntity
8
0
100
AcDbCircle
10
-191.54099884034923
20
-50.205543704059998
30
0
40
0.20000000009905877
210
0
220
0
230
1
100
AcDbArc
50
-93.341523999989036
51
71.658452420101526
0
LINE
5
278
100
AcDbEntity
8
0
100
AcDbLine
10
-191.55265634846725
20
-50.405203671364667
30
0
11
-193.05010538091221
21
-50.317772540115762
31
0
0
ARC
5
279
100
AcDbEntity
8
0
100
AcDbCircle
10
-192.99181784034914
20
-49.319472704059862
30
0
40
1.0000000000270635
210
0
220
0
230
1
100
AcDbArc
50
236.65847599999921
51
266.65847599999586
0
LINE
5
280
100
AcDbEntity
8
0
100
AcDbLine
10
-193.54144624922878
20
-50.154881952396615
30
0
11
-196.0476748403492
21
-48.505996704059996
31
0
0
ARC
5
281
100
AcDbEntity
8
0
100
AcDbCircle
10
-198.24618784034922
20
-51.847633704059994
30
0
40
3.9999996563672418
210
0
220
-0
230
1
100
AcDbArc
50
56.65848365721903
51
80.000000000000725
0
LINE
5
282
100
AcDbEntity
8
0
100
AcDbLine
10
-197.55159518935275
20
-47.908403030423358
30
0
11
-199.28648084034921
21
-47.602495704059997
31
0
0
ARC
5
283
100
AcDbEntity
8
0
100
AcDbCircle
10
-199.32121084034921
20
-47.799456704059999
30
0
40
0.19999952105192578
210
0
220
-0
230
1
100
AcDbArc
50
79.99986978338282
51
180
0
LINE
5
284
100
AcDbEntity
8
0
100
AcDbLine
10
-199.52121036140113
20
-47.799456704060006
30
0
11
-199.52121084034926
21
-48.361106704059992
31
0
0
ARC
5
285
100
AcDbEntity
8
0
100
AcDbCircle
10
-199.72121084034924
20
-48.361106704059999
30
0
40
0.19999999999998685
210
0
220
0
230
1
100
AcDbArc
50
-89.999999999991857
51
0
0
LINE
5
286
100
AcDbEntity
8
0
100
AcDbLine
10
-199.72121084034922
20
-48.561106704059981
30
0
11
-200.60574084034923
21
-48.561106704059938
31
0
0
ARC
5
287
100
AcDbEntity
8
0
100
AcDbCircle
10
-200.60574084034923
20
-48.361106704059992
30
0
40
0.1999999999999523
210
0
220
0
230
1
100
AcDbArc
50
210.00000000000128
51
270
0
LINE
5
288
100
AcDbEntity
8
0
100
AcDbLine
10
-200.77894592110607
20
-48.461106704059972
30
0
11
-200.87978984034922
21
-48.286440704059999
31
0
0
ARC
5
289
100
AcDbEntity
8
0
100
AcDbCircle
10
-201.05299484034919
20
-48.386440704059993
30
0
40
0.19999993006245848
210
0
220
-0
230
1
100
AcDbArc
50
30.000011567579396
51
75.000000000003865
0
LINE
5
290
100
AcDbEntity
8
0
100
AcDbLine
10
-201.00123104942986
20
-48.193255606356651
30
0
11
-204.7280258403492
21
-47.194663704059998
31
0
0
ARC
5
291
100
AcDbEntity
8
0
100
AcDbCircle
10
-204.77978984034922
20
-47.387848704059998
30
0
40
0.19999988980247646
210
0
220
-0
230
1
100
AcDbArc
50
74.99993489937755
51
164.99993489938558
0
LINE
5
292
100
AcDbEntity
8
0
100
AcDbLine
10
-204.97297484034925
20
-47.336084704059999
30
0
11
-204.98149073390653
21
-47.367868732581371
31
0
0
ARC
5
293
100
AcDbEntity
8
0
100
AcDbCircle
10
-205.17467584034918
20
-47.316104704060102
30
0
40
0.19999999999998685
210
0
220
0
230
1
100
AcDbArc
50
269.99999999999187
51
344.9999348994063
0
LINE
5
294
100
AcDbEntity
8
0
100
AcDbLine
10
-205.17467584034921
20
-47.516104704060083
30
0
11
-205.6677458403492
21
-47.516104704059941
31
0
0
LWPOLYLINE
5
295
100
AcDbEntity
8
0
100
AcDbPolyline
90
4
70
1
43
0.0
10
-73.028581840349219
20
-56.61849670406
42
-0.99999999999999989
10
-72.028581840349275
20
-56.61849670406
10
-72.028581840349275
20
-69.618496704060007
42
-0.99999999999999989
10
-73.028581840349219
20
-69.618496704060007
0
LWPOLYLINE
5
296
100
AcDbEntity
8
0
100
AcDbPolyline
90
8
70
1
43
0.0
10
-318.86983584034931
20
-145.38099670406001
42
-0.41421399999976949
10
-319.41983584034926
20
-145.93099670405999
10
-322.0784988403492
20
-145.93099670406002
42
-0.41421400000013847
10
-322.62849884034927
20
-145.38099670406001
10
-322.62849884034921
20
-137.55599670406002
42
-0.41421399999991143
10
-322.07849884034931
20
-137.00599670406001
10
-319.41983584034921
20
-137.00599670406004
42
-0.4142140000001574
10
-318.86983584034931
20
-137.55599670406002
0
LWPOLYLINE
5
297
100
AcDbEntity
8
0
100
AcDbPolyline
90
24
70
1
43
0.0
10
-355.2508248403492
20
-76.092046704060053
42
-0.41421400000001074
10
-355.00082484034914
20
-76.342046704059996
10
-355.00082484034914
20
-78.890021704060004
42
0.4142140000001876
10
-354.7508248403492
20
-79.140021704059947
10
-352.51815784034926
20
-79.140021704059976
42
-0.41421400000017722
10
-352.26815784034926
20
-79.39002170405999
10
-352.26815784034932
20
-80.536629704060005
42
-0.41421400000039571
10
-352.51815784034926
20
-80.78662970405999
10
-363.78964784034918
20
-80.786629704060005
42
-0.41421400000016678
10
-364.03964784034918
20
-80.536629704060005
10
-364.03964784034929
20
-79.39002170405999
42
-0.4142140000001564
10
-363.78964784034929
20
-79.14002170405999
10
-361.5569778403493
20
-79.140021704060004
42
0.4142140000000003
10
-361.3069778403493
20
-78.890021704060004
10
-361.3069778403493
20
-76.342046704059996
42
-0.41421399999953207
10
-361.0569778403493
20
-76.092046704059996
10
-359.73520184034925
20
-76.092046704060053
42
-0.414213999999761
10
-359.48520184034925
20
-76.342046704059996
10
-359.48520184034925
20
-78.890021704060004
42
0.4142140000000003
10
-359.2352018403493
20
-79.140021704060004
10
-357.07260384034919
20
-79.140021704060004
42
0.41421399999991709
10
-356.82260384034925
20
-78.890021704060004
10
-356.82260384034925
20
-76.342046704059996
42
-0.41421399999953207
10
-356.5726038403493
20
-76.092046704059996
0
LWPOLYLINE
5
298
100
AcDbEntity
8
0
100
AcDbPolyline
90
8
70
1
43
0.0
10
-364.75349884029896
20
-113.19349670406004
42
-0.4142135623730846
10
-363.75349884029907
20
-114.19349670406001
10
-363.75349884029913
20
-126.19349670406001
42
-0.41421356237297535
10
-364.75349884029919
20
-127.19349670406001
10
-376.75349884040213
20
-127.19349670405995
42
-0.41421356234296025
10
-377.75349884029924
20
-126.19349670406001
10
-377.75349884029924
20
-114.19349670385407
42
-0.41421356231286188
10
-376.75349884029913
20
-113.19349670406001
0
ARC
5
299
100
AcDbEntity
8
0
100
AcDbCircle
10
-158.94099884034924
20
-45.255996704059982
30
0
40
4.5000000000071179
210
0
220
0
230
1
100
AcDbArc
50
94.452425565520542
51
265.54757443447909
0
ARC
5
300
100
AcDbEntity
8
0
100
AcDbCircle
10
-159.29810284034926
20
-40.66987870405999
30
0
40
0.10000017137765416
210
-0
220
0
230
1
100
AcDbArc
50
-85.547564999995302
51
71.658362269984323
0
LINE
5
301
100
AcDbEntity
8
0
100
AcDbLine
10
-159.26663455290094
20
-40.574958837010833
30
0
11
-159.50393493056487
21
-40.49628923774975
31
0
0
ARC
5
302
100
AcDbEntity
8
0
100
AcDbCircle
10
-159.44099884034921
20
-40.306449704059986
30
0
40
0.20000000000795831
210
0
220
-0
230
1
100
AcDbArc
50
87.206864935956702
51
251.65847600002235
0
LINE
5
303
100
AcDbEntity
8
0
100
AcDbLine
10
-159.43125282099814
20
-40.1066873074234
30
0
11
-157.93380246348957
21
-40.19410928920464
31
0
0
ARC
5
304
100
AcDbEntity
8
0
100
AcDbCircle
10
-157.99249984034924
20
-41.199533704060364
30
0
40
1.0071363542431468
210
0
220
-0
230
1
100
AcDbArc
50
56.767415973204997
51
86.658824999998288
0
LINE
5
305
100
AcDbEntity
8
0
100
AcDbLine
10
-157.44054983832126
20
-40.357111700964836
30
0
11
-154.93432247576035
21
-42.005996697243816
31
0
0
ARC
5
306
100
AcDbEntity
8
0
100
AcDbCircle
10
-152.73580884034916
20
-38.664359704060004
30
0
40
3.9999999999129257
210
0
220
0
230
1
100
AcDbArc
50
236.65847599999933
51
259.99999588861283
0
LINE
5
307
100
AcDbEntity
8
0
100
AcDbLine
10
-153.43040183367012
20
-42.603590666181013
30
0
11
-151.69551547588259
21
-42.909498254662459
31
0
0
ARC
5
308
100
AcDbEntity
8
0
100
AcDbCircle
10
-151.66078584034918
20
-42.71253670406
30
0
40
0.20000000000002596
210
0
220
0
230
1
100
AcDbArc
50
-100.00000000000568
51
0
0
LINE
5
309
100
AcDbEntity
8
0
100
AcDbLine
10
-151.46078584034913
20
-42.71253670406
30
0
11
-151.46078584034916
21
-42.150887704059997
31
0
0
ARC
5
310
100
AcDbEntity
8
0
100
AcDbCircle
10
-151.26078584034914
20
-42.150887704060061
30
0
40
0.20000000000004015
210
0
220
0
230
1
100
AcDbArc
50
90.000000000008143
51
180
0
LINE
5
311
100
AcDbEntity
8
0
100
AcDbLine
10
-151.26078584034917
20
-41.950887704060023
30
0
11
-150.37625584034916
21
-41.950887704059937
31
0
0
ARC
5
312
100
AcDbEntity
8
0
100
AcDbCircle
10
-150.37625584034907
20
-42.150887704059762
30
0
40
0.19999999999983198
210
0
220
-0
230
1
100
AcDbArc
50
30.000011567542014
51
90.000000000024428
0
LINE
5
313
100
AcDbEntity
8
0
100
AcDbLine
10
-150.20305077978151
20
-42.050887669091182
30
0
11
-150.10220792110641
21
-42.225553704060147
31
0
0
ARC
5
314
100
AcDbEntity
8
0
100
AcDbCircle
10
-149.9290028403492
20
-42.125553704059996
30
0
40
0.20000000000034882
210
0
220
0
230
1
100
AcDbArc
50
209.99999999999068
51
255.00021161715819
0
LINE
5
315
100
AcDbEntity
8
0
100
AcDbLine
10
-149.98076593585623
20
-42.318739060502111
30
0
11
-146.25397164936967
21
-43.31733086931785
31
0
0
ARC
5
316
100
AcDbEntity
8
0
100
AcDbCircle
10
-146.20220784034916
20
-43.124145704059998
30
0
40
0.20000000000003376
210
0
220
0
230
1
100
AcDbArc
50
255.00000000000011
51
345.00021161718234
0
LINE
5
317
100
AcDbEntity
8
0
100
AcDbLine
10
-146.00902248390733
20
-43.175908799566862
30
0
11
-146.00050619679104
21
-43.144125608553097
31
0
0
ARC
5
318
100
AcDbEntity
8
0
100
AcDbCircle
10
-145.80732084034915
20
-43.19588870406001
30
0
40
0.20000000000006679
210
0
220
0
230
1
100
AcDbArc
50
90.000000000008143
51
165.00021161717279
0
LINE
5
319
100
AcDbEntity
8
0
100
AcDbLine
10
-145.80732084034918
20
-42.995888704059944
30
0
11
-145.31425184034919
21
-42.995888704059922
31
0
0
ARC
5
320
100
AcDbEntity
8
0
100
AcDbCircle
10
-145.31425184034924
20
-43.195888704060025
30
0
40
0.20000000000009915
210
0
220
-0
230
1
100
AcDbArc
50
14.999788382830994
51
89.999999999983714
0
LINE
5
321
100
AcDbEntity
8
0
100
AcDbLine
10
-145.12106648390733
20
-43.14412560855309
30
0
11
-145.10050584034917
21
-43.220857704059995
31
0
0
ARC
5
322
100
AcDbEntity
8
0
100
AcDbCircle
10
-144.9073208403492
20
-43.169093704060003
30
0
40
0.19999988980244154
210
0
220
0
230
1
100
AcDbArc
50
195.00006510061669
51
270
0
LINE
5
323
100
AcDbEntity
8
0
100
AcDbLine
10
-144.9073208403492
20
-43.369093593862438
30
0
11
-128.2909988403492
21
-43.369093704059985
31
0
0
ARC
5
324
100
AcDbEntity
8
0
100
AcDbCircle
10
-128.29099884034915
20
-43.569093704059938
30
0
40
0.19999999999994245
210
0
220
0
230
1
100
AcDbArc
50
0
51
90.000000000016286
0
LINE
5
325
100
AcDbEntity
8
0
100
AcDbLine
10
-128.09099884034922
20
-43.569093704059995
30
0
11
-128.0909988403493
21
-43.669093704059996
31
0
0
ARC
5
326
100
AcDbEntity
8
0
100
AcDbCircle
10
-127.89099884034925
20
-43.669093704059996
30
0
40
0.20000000000003126
210
0
220
0
230
1
100
AcDbArc
50
180
51
270
0
LINE
5
327
100
AcDbEntity
8
0
100
AcDbLine
10
-127.89099884034925
20
-43.869093704060028
30
0
11
-127.09099884034927
21
-43.869093704059985
31
0
0
ARC
5
328
100
AcDbEntity
8
0
100
AcDbCircle
10
-127.09099884034926
20
-44.069093704059974
30
0
40
0.19999999999997797
210
0
220
0
230
1
100
AcDbArc
50
0
51
90.000000000004079
0
LINE
5
329
100
AcDbEntity
8
0
100
AcDbLine
10
-126.89099884034928
20
-44.069093704060016
30
0
11
-126.89099884034928
21
-46.442899704059997
31
0
0
ARC
5
330
100
AcDbEntity
8
0
100
AcDbCircle
10
-127.09099884034934
20
-46.442899704059933
30
0
40
0.20000000000006679
210
0
220
0
230
1
100
AcDbArc
50
270.00000000002035
51
360
0
LINE
5
331
100
AcDbEntity
8
0
100
AcDbLine
10
-127.09099884034927
20
-46.64289970406
30
0
11
-127.89099884034925
21
-46.642899704060014
31
0
0
ARC
5
332
100
AcDbEntity
8
0
100
AcDbCircle
10
-127.89099884034925
20
-46.842899704060002
30
0
40
0.19999999999999574
210
0
220
-0
230
1
100
AcDbArc
50
90
51
180
0
LINE
5
333
100
AcDbEntity
8
0
100
AcDbLine
10
-128.09099884034924
20
-46.842899704060002
30
0
11
-128.09099884034913
21
-46.942899704060004
31
0
0
ARC
5
334
100
AcDbEntity
8
0
100
AcDbCircle
10
-128.29099884034926
20
-46.942899704059911
30
0
40
0.20000000000012896
210
0
220
0
230
1
100
AcDbArc
50
270.00000000001626
51
360
0
LINE
5
335
100
AcDbEntity
8
0
100
AcDbLine
10
-128.2909988403492
20
-47.142899704060042
30
0
11
-144.90732084034926
21
-47.14289970406
31
0
0
ARC
5
336
100
AcDbEntity
8
0
100
AcDbCircle
10
-144.9073208403492
20
-47.342899704059995
30
0
40
0.19999999999999574
210
0
220
0
230
1
100
AcDbArc
50
90.000000000016286
51
164.99993489937864
0
LINE
5
337
100
AcDbEntity
8
0
100
AcDbLine
10
-145.10050594679183
20
-47.291135675538634
30
0
11
-145.12106673390664
21
-47.367868732581321
31
0
0
ARC
5
338
100
AcDbEntity
8
0
100
AcDbCircle
10
-145.31425184034916
20
-47.316104704060038
30
0
40
0.19999999999988916
210
0
220
0
230
1
100
AcDbArc
50
269.99999999999187
51
344.9999348993918
0
LINE
5
339
100
AcDbEntity
8
0
100
AcDbLine
10
-145.31425184034919
20
-47.516104704059927
30
0
11
-145.80732084034918
21
-47.516104704060076
31
0
0
ARC
5
340
100
AcDbEntity
8
0
100
AcDbCircle
10
-145.80732084034929
20
-47.316104704060137
30
0
40
0.19999999999993873
210
0
220
0
230
1
100
AcDbArc
50
195.00006510058626
51
270.00000000003257
0
LINE
5
341
100
AcDbEntity
8
0
100
AcDbLine
10
-146.00050594679186
20
-47.367868732581357
30
0
11
-146.00902267509139
21
-47.336084895039491
31
0
0
ARC
5
342
100
AcDbEntity
8
0
100
AcDbCircle
10
-146.20220784034916
20
-47.387848704059998
30
0
40
0.199999999999976
210
0
220
-0
230
1
100
AcDbArc
50
15.000000000003707
51
105.00006510062899
0
LINE
5
343
100
AcDbEntity
8
0
100
AcDbLine
10
-146.25397186887054
20
-47.194663597617421
30
0
11
-149.98076664936963
21
-48.193255538802418
31
0
0
ARC
5
344
100
AcDbEntity
8
0
100
AcDbCircle
10
-149.9290028403492
20
-48.386440704059993
30
0
40
0.19999999999974941
210
0
220
0
230
1
100
AcDbArc
50
104.99999999999686
51
149.99998843241826
0
LINE
5
345
100
AcDbEntity
8
0
100
AcDbLine
10
-150.10220790091662
20
-48.286440669091334
30
0
11
-150.20305075959232
21
-48.461106704059922
31
0
0
ARC
5
346
100
AcDbEntity
8
0
100
AcDbCircle
10
-150.37625584034924
20
-48.361106704059928
30
0
40
0.2000000000000135
210
0
220
0
230
1
100
AcDbArc
50
270.00000000003257
51
330.00000000000733
0
LINE
5
347
100
AcDbEntity
8
0
100
AcDbLine
10
-150.37625584034913
20
-48.561106704059938
30
0
11
-151.26078584034917
21
-48.561106704059974
31
0
0
ARC
5
348
100
AcDbEntity
8
0
100
AcDbCircle
10
-151.26078584034926
20
-48.361106704060049
30
0
40
0.19999999999992468
210
0
220
0
230
1
100
AcDbArc
50
180
51
270.00000000002444
0
LINE
5
349
100
AcDbEntity
8
0
100
AcDbLine
10
-151.46078584034916
20
-48.361106704059992
30
0
11
-151.46078584034922
21
-47.799456704059999
31
0
0
ARC
5
350
100
AcDbEntity
8
0
100
AcDbCircle
10
-151.66078584034918
20
-47.799456704059999
30
0
40
0.19999999999996021
210
0
220
-0
230
1
100
AcDbArc
50
0
51
100.00013021661299
0
LINE
5
351
100
AcDbEntity
8
0
100
AcDbLine
10
-151.69551592351868
20
-47.602495232388449
30
0
11
-153.43040155100181
21
-47.908402692096942
31
0
0
ARC
5
352
100
AcDbEntity
8
0
100
AcDbCircle
10
-152.73580884034916
20
-51.847633704059994
30
0
40
3.9999999999129061
210
0
220
0
230
1
100
AcDbArc
50
100.00000000000065
51
123.34152830913754
0
LINE
5
353
100
AcDbEntity
8
0
100
AcDbLine
10
-154.93432272708026
20
-48.505996876223406
30
0
11
-157.4405504314696
21
-50.154881952396586
31
0
0
ARC
5
354
100
AcDbEntity
8
0
100
AcDbCircle
10
-157.99017884034913
20
-49.319472704060274
30
0
40
1.0000000000266414
210
0
220
0
230
1
100
AcDbArc
50
273.34154973152948
51
303.3415240000092
0
LINE
5
355
100
AcDbEntity
8
0
100
AcDbLine
10
-157.93189085144979
20
-50.317772513938728
30
0
11
-159.42934133223116
21
-50.405203671364703
31
0
0
ARC
5
356
100
AcDbEntity
8
0
100
AcDbCircle
10
-159.44099884034924
20
-50.205543704059977
30
0
40
0.20000000009911434
210
0
220
0
230
1
100
AcDbArc
50
108.34154757990171
51
273.34152400000437
0
LINE
5
357
100
AcDbEntity
8
0
100
AcDbLine
10
-159.50393500872153
20
-50.015704196184878
30
0
11
-159.26663479532041
21
-49.937034470666468
31
0
0
ARC
5
358
100
AcDbEntity
8
0
100
AcDbCircle
10
-159.29810284034926
20
-49.842114704059988
30
0
40
0.099999999752826224
210
-0
220
0
230
1
100
AcDbArc
50
-71.658475999994309
51
85.54756500001217
0
LWPOLYLINE
5
359
100
AcDbEntity
8
0
100
AcDbPolyline
90
8
70
1
43
0.0
10
-140.91791763610715
20
-137.00599670406001
42
-0.41421356225655687
10
-139.91791763629917
20
-138.00599670385407
10
-139.91791763629914
20
-150.00599670386001
42
-0.41421356243165808
10
-140.91791763629919
20
-151.00599670406001
10
-152.91791763619923
20
-151.00599670406001
42
-0.41421356240235574
10
-153.91791763629922
20
-150.00599670406001
10
-153.91791763629922
20
-138.00599670396002
42
-0.41421356234376666
10
-152.91791763629917
20
-137.00599670406001
0
LWPOLYLINE
5
360
100
AcDbEntity
8
0
100
AcDbPolyline
90
154
70
1
43
0.0
10
-122.91599884034923
20
-33.468496704059987
42
-0.41421356237309742
10
-121.84099884034922
20
-34.543496704060018
10
-121.84099884034929
20
-52.474423903814326
42
0.4142135623730846
10
-121.34099884034924
20
-52.974423903814326
10
-115.34099884034923
20
-52.974423903814326
42
0.41421356237308982
10
-114.84099884034924
20
-52.474423903814326
10
-114.84099884034922
20
-34.543496704059997
42
-0.41421356237310714
10
-113.7659988403492
20
-33.468496704060009
10
-88.562370870299233
20
-33.468496704215681
42
0.19891236745315466
10
-87.501710698109321
20
-33.02915687564991
10
-85.033943746099226
20
-30.56138992286002
42
-0.19891236743793855
10
-84.32683696449925
20
-30.268496703616734
10
-82.241050527299222
20
-30.268496704059999
42
-0.41421356237309243
10
-81.741050527299208
20
-30.768496704060002
10
-81.741050527299222
20
-34.293496704060004
42
0.99999999999999989
10
-78.741050527299208
20
-34.293496704059983
10
-78.741050527299222
20
-30.768496704060006
42
-0.4142135623730846
10
-78.241050527299237
20
-30.268496704060013
10
-76.155264089299223
20
-30.268496704060027
42
-0.19891236741641227
10
-75.448157308012696
20
-30.561389922973472
10
-72.980390355299221
20
-33.029156876060007
42
0.19891236734501036
10
-71.91973018349924
20
-33.468496704371404
10
-35.115998840299241
20
-33.468496704060009
10
-32.115998840299198
20
-36.468496704060023
10
-32.115998840299198
20
-150.03099670406002
10
-35.115998840299241
20
-153.03099670406002
10
-55.632178496299247
20
-153.03099670390429
42
0.19891236737966275
10
-56.692838668189161
20
-153.47033653217005
10
-61.160605621112637
20
-157.93810348524659
42
-0.19891236740564969
10
-61.867712402399214
20
-158.23099670406006
10
-63.953498840299233
20
-158.23099670406
42
-0.41421356237307422
10
-64.453498840299247
20
-157.73099670406003
10
-64.453498840299218
20
-153.78099670406004
42
0.99999999999999989
10
-67.453498840299218
20
-153.78099670405996
10
-67.45349884029919
20
-157.73099670406
42
-0.4142135623730846
10
-67.953498840299218
20
-158.23099670406003
10
-70.039285277299228
20
-158.23099670428169
42
-0.19891236750828956
10
-70.746392058992498
20
-157.93810348505335
10
-75.214159011239971
20
-153.47033653211921
42
0.19891236744614735
10
-76.27481918359922
20
-153.0309967037486
10
-141.3571784962993
20
-153.03099670390435
42
0.19891236737785348
10
-142.4178386681817
20
-153.47033653216266
10
-146.88560562111266
20
-157.93810348524656
42
-0.19891236740641974
10
-147.59271240240219
20
-158.23099670406003
10
-149.6784988402992
20
-158.23099670406003
42
-0.41421356237307422
10
-150.17849884029926
20
-157.73099670406003
10
-150.17849884029926
20
-153.78099670406004
42
0.99999999999999989
10
-153.17849884029923
20
-153.78099670406004
10
-153.17849884029923
20
-157.73099670406
42
-0.41421356237307422
10
-153.67849884029923
20
-158.23099670406003
10
-155.76428527729919
20
-158.23099670428172
42
-0.19891236749894681
10
-156.47139205896707
20
-157.93810348507878
10
-160.93915901123995
20
-153.47033653211926
42
0.19891236744409549
10
-161.99981918358719
20
-153.03099670374863
10
-227.08217849629918
20
-153.03099670390429
42
0.1989123673778527
10
-228.14283866818181
20
-153.47033653216269
10
-232.61060562111268
20
-157.93810348524664
42
-0.19891236740562718
10
-233.3177124023992
20
-158.23099670406006
10
-235.40349884029925
20
-158.23099670406003
42
-0.41421356237309503
10
-235.90349884029931
20
-157.73099670406
10
-235.90349884029931
20
-152.20599670406003
42
0.99999999999999989
10
-238.90349884029928
20
-152.20599670406003
10
-238.90349884029919
20
-157.73099670406
42
-0.41421356237311585
10
-239.40349884029928
20
-158.23099670406003
10
-241.48928527729925
20
-158.23099670428161
42
-0.19891236749894023
10
-242.19639205896701
20
-157.9381034850787
10
-246.66415901123992
20
-153.47033653211915
42
0.19891236744410989
10
-247.72481918358716
20
-153.03099670374854
10
-311.84483643229919
20
-153.0309967040601
42
-0.41421356237309503
10
-312.84483643229925
20
-152.03099670406002
10
-312.84483643229919
20
-152.00599670396002
42
-0.41421356240237656
10
-311.84483643209921
20
-151.00599670406001
10
-302.84483643229925
20
-151.00599670406001
42
0.41421356237298579
10
-301.8448364322993
20
-150.00599670406001
10
-301.84483643229925
20
-138.00599670406001
42
0.41421356243163204
10
-302.84483643249916
20
-137.00599670406001
10
-314.84483643229913
20
-137.00599670405995
42
0.41421356231276824
10
-315.84483643229908
20
-138.00599670385407
10
-315.84483643229919
20
-146.95599670406003
42
-0.41421356240239737
10
-316.84483643239923
20
-147.95599670406003
10
-324.65349884019923
20
-147.95599670406011
42
-0.41421356240235574
10
-325.65349884029922
20
-146.95599670406003
10
-325.65349884029922
20
-138.00599670406001
42
0.41421356243163726
10
-326.6534988404992
20
-137.00599670405995
10
-338.65349884029911
20
-137.00599670405995
42
0.41421356231280987
10
-339.65349884029911
20
-138.00599670385407
10
-339.65349884029922
20
-150.00599670406001
42
0.41421356234380829
10
-338.65349884039915
20
-151.00599670406001
10
-329.65349884029911
20
-151.00599670406007
42
-0.41421356234702367
10
-328.65349884029916
20
-152.00599670397099
10
-328.65349884029911
20
-152.03099670406002
42
-0.41421356240239737
10
-329.65349884039915
20
-153.03099670406002
10
-350.90717849629925
20
-153.03099670390426
42
0.19891236737784734
10
-351.9678386681818
20
-153.47033653216266
10
-356.43560562111276
20
-157.93810348524656
42
-0.19891236740565224
10
-357.1427124023993
20
-158.23099670406
10
-359.22849884029921
20
-158.23099670405989
42
-0.41421356237309503
10
-359.72849884029915
20
-157.73099670406
10
-359.72849884029927
20
-152.20599670406003
42
0.99999999999999989
10
-362.72849884029927
20
-152.20599670406011
10
-362.7284988402991
20
-157.73099670406
42
-0.41421356237313667
10
-363.22849884029921
20
-158.23099670406003
10
-365.31428527729923
20
-158.23099670428167
42
-0.19891236749894681
10
-366.02139205896708
20
-157.93810348507873
10
-370.48915901123991
20
-153.47033653211921
42
0.19891236744411353
10
-371.5498191835872
20
-153.03099670374866
10
-377.77849884029928
20
-153.03099670406002
10
-380.77849884029922
20
-150.03099670406002
10
-380.77849884029922
20
-36.468496704060016
10
-377.77849884029928
20
-33.468496704060009
10
-350.49981918329922
20
-33.468496704215696
42
0.19891236745768229
10
-349.43915901109085
20
-33.029156875631514
10
-346.97139205909923
20
-30.561389922860091
42
-0.19891236743797006
10
-346.26428527749914
20
-30.268496703616783
10
-344.17849884029914
20
-30.268496704060105
42
-0.41421356237309243
10
-343.6784988402992
20
-30.768496704060002
10
-343.67849884029908
20
-34.293496704060004
42
0.99999999999999989
10
-340.67849884029908
20
-34.293496704059933
10
-340.6784988402992
20
-30.768496704060006
42
-0.41421356237309503
10
-340.1784988402992
20
-30.268496704060013
10
-338.09271240229924
20
-30.26849670406002
42
-0.19891236741641885
10
-337.3856056210127
20
-30.56138992297349
10
-334.91783866829917
20
-33.02915687606005
42
0.19891236735288428
10
-333.85717849645368
20
-33.468496704371439
10
-255.24987087029922
20
-33.468496704215617
42
0.19891236745316754
10
-254.18921069810938
20
-33.029156875649868
10
-251.72144374612131
20
-30.561389922882093
42
-0.19891236749803493
10
-251.01433696429922
20
-30.268496703616687
10
-248.92855052739523
20
-30.268496704059963
42
-0.41421356242932461
10
-248.42855052729919
20
-30.768496704060002
10
-248.42855052729919
20
-34.293496704060004
42
0.99999999999999989
10
-245.42855052729922
20
-34.293496704060004
10
-245.42855052729925
20
-30.768496704060006
42
-0.41421356237309503
10
-244.92855052729925
20
-30.268496704060013
10
-242.84276408929924
20
-30.268496704060013
42
-0.1989123674077844
10
-242.13565730803617
20
-30.561389922949989
10
-239.66789035529925
20
-33.02915687606
42
0.19891236734502446
10
-238.60723018349921
20
-33.468496704371375
10
-237.21599884034927
20
-33.46849670406003
42
-0.41421356237308532
10
-236.14099884034925
20
-34.543496704060018
10
-236.1409988403492
20
-52.474423976060024
42
0.41421356237314183
10
-235.6409988403492
20
-52.974423976060045
10
-229.64099884034925
20
-52.974423976060024
42
0.41421356237316787
10
-229.14099884034925
20
-52.474423976060024
10
-229.14099884034925
20
-34.543496704060018
42
-0.41421356237308532
10
-228.06599884034921
20
-33.468496704060016
10
-183.56599884034924
20
-33.468496704060051
42
-0.41421356237308782
10
-182.49099884034928
20
-34.543496704060004
10
-182.49099884034928
20
-50.003663868291127
42
0.41123874327677873
10
-181.49105052729931
20
-50.993496704060036
10
-169.49099884034922
20
-50.99349670406005
42
0.41421356237309243
10
-168.49099884034922
20
-49.99349670406005
10
-168.49099884034928
20
-34.543496704060004
42
-0.41421356237309503
10
-167.41599884034918
20
-33.468496704060009
0
ENDSEC
0
SECTION
2
OBJECTS
0
DICTIONARY
5
C
100
AcDbDictionary
3
ACAD_GROUP
350
D
3
ACAD_MLINESTYLE
350
17
0
DICTIONARY
5
D
100
AcDbDictionary
0
DICTIONARY
5
1A
330
C
100
AcDbDictionary
0
DICTIONARY
5
17
100
AcDbDictionary
0
ENDSEC
0
EOF
